<svg width="780" height="780" viewBox="0 0 780 780" fill="none" xmlns="http://www.w3.org/2000/svg">
<path d="M389.999 749.211C588.386 749.211 749.21 588.387 749.21 390C749.21 191.614 588.386 30.7896 389.999 30.7896C191.612 30.7896 30.7881 191.614 30.7881 390C30.7881 588.387 191.612 749.211 389.999 749.211Z" stroke="#E63946" stroke-width="27.3684"/>
<path opacity="0.3" d="M390.001 687.632C554.378 687.632 687.633 554.377 687.633 390C687.633 225.623 554.378 92.3684 390.001 92.3684C225.623 92.3684 92.3691 225.623 92.3691 390C92.3691 554.377 225.623 687.632 390.001 687.632Z" stroke="#F1FAEE" stroke-width="10.9474"/>
<path d="M405.393 6.10352e-05H374.604C368.936 6.10352e-05 364.341 4.59503 364.341 10.2632V61.579C364.341 67.2472 368.936 71.8422 374.604 71.8422H405.393C411.062 71.8422 415.657 67.2472 415.657 61.579V10.2632C415.657 4.59503 411.062 6.10352e-05 405.393 6.10352e-05Z" fill="#E63946"/>
<path d="M405.393 708.158H374.604C368.936 708.158 364.341 712.753 364.341 718.421V769.737C364.341 775.405 368.936 780 374.604 780H405.393C411.062 780 415.657 775.405 415.657 769.737V718.421C415.657 712.753 411.062 708.158 405.393 708.158Z" fill="#E63946"/>
<path d="M61.579 364.342H10.2632C4.59498 364.342 0 368.937 0 374.605V405.395C0 411.063 4.59498 415.658 10.2632 415.658H61.579C67.2472 415.658 71.8422 411.063 71.8422 405.395V374.605C71.8422 368.937 67.2472 364.342 61.579 364.342Z" fill="#E63946"/>
<path d="M769.737 364.342H718.421C712.753 364.342 708.158 368.937 708.158 374.605V405.395C708.158 411.063 712.753 415.658 718.421 415.658H769.737C775.405 415.658 780 411.063 780 405.395V374.605C780 368.937 775.405 364.342 769.737 364.342Z" fill="#E63946"/>
<path d="M121.032 99.261L99.2601 121.032C95.2521 125.04 95.2521 131.539 99.2601 135.547L121.032 157.318C125.04 161.326 131.538 161.326 135.546 157.318L157.317 135.547C161.325 131.539 161.325 125.04 157.317 121.032L135.546 99.261C131.538 95.2529 125.04 95.2529 121.032 99.261Z" fill="#E63946"/>
<path d="M680.74 121.033L658.968 99.2611C654.96 95.253 648.462 95.253 644.454 99.2611L622.682 121.033C618.674 125.041 618.674 131.539 622.682 135.547L644.454 157.318C648.462 161.326 654.96 161.326 658.968 157.318L680.74 135.547C684.748 131.539 684.748 125.041 680.74 121.033Z" fill="#E63946"/>
<path d="M157.318 644.454L135.546 622.682C131.538 618.674 125.04 618.674 121.032 622.682L99.2604 644.454C95.2524 648.462 95.2524 654.96 99.2604 658.968L121.032 680.739C125.04 684.747 131.538 684.747 135.546 680.739L157.318 658.968C161.326 654.96 161.326 648.462 157.318 644.454Z" fill="#E63946"/>
<path d="M644.452 622.682L622.681 644.453C618.673 648.461 618.673 654.96 622.681 658.968L644.452 680.739C648.46 684.747 654.959 684.747 658.967 680.739L680.738 658.968C684.746 654.96 684.746 648.461 680.738 644.453L658.967 622.682C654.959 618.674 648.46 618.674 644.452 622.682Z" fill="#E63946"/>
<path d="M390 195L559.343 292.5V487.5L390 585L220.658 487.5V292.5L390 195Z" fill="#1D3557" stroke="#E63946" stroke-width="27.3684"/>
<path d="M389.998 482.369C441.012 482.369 482.367 441.014 482.367 390C482.367 338.986 441.012 297.632 389.998 297.632C338.985 297.632 297.63 338.986 297.63 390C297.63 441.014 338.985 482.369 389.998 482.369Z" fill="#0D1B2A" stroke="#F1FAEE" stroke-width="21.8947"/>
<path d="M390.001 425.921C409.84 425.921 425.922 409.839 425.922 390C425.922 370.161 409.84 354.079 390.001 354.079C370.162 354.079 354.08 370.161 354.08 390C354.08 409.839 370.162 425.921 390.001 425.921Z" fill="#E63946"/>
<path d="M256.58 318.158L123.159 256.579" stroke="#F1FAEE" stroke-width="27.3684" stroke-linecap="round"/>
<path d="M523.422 461.842L656.843 523.421" stroke="#F1FAEE" stroke-width="27.3684" stroke-linecap="round"/>
<path d="M123.156 292.5C142.995 292.5 159.078 276.418 159.078 256.579C159.078 236.74 142.995 220.658 123.156 220.658C103.318 220.658 87.2354 236.74 87.2354 256.579C87.2354 276.418 103.318 292.5 123.156 292.5Z" fill="#E63946"/>
<path d="M656.844 559.342C676.683 559.342 692.765 543.26 692.765 523.421C692.765 503.582 676.683 487.5 656.844 487.5C637.005 487.5 620.923 503.582 620.923 523.421C620.923 543.26 637.005 559.342 656.844 559.342Z" fill="#E63946"/>
</svg>
