<svg width="3819" height="1228" viewBox="0 0 3819 1228" fill="none" xmlns="http://www.w3.org/2000/svg">
<path d="M1116.21 331.819C1124.42 271.371 1156.13 264.655 1210.61 264.655C1212.11 264.655 1217.33 264.655 1218.08 265.028L1236.36 266.148C1271.43 268.386 1283.37 307.566 1283.37 337.417V353.461C1283.37 356.82 1280.39 360.924 1277.03 360.924H1240.09C1235.99 360.924 1233.75 356.073 1233.75 352.715V335.178C1233.75 323.237 1228.52 320.252 1216.96 319.879C1215.09 319.879 1205.76 319.506 1203.52 319.506H1200.91H1190.84C1183 319.879 1171.81 320.625 1168.07 329.208C1168.45 328.834 1169.57 328.461 1169.94 328.461C1166.96 330.7 1165.84 332.939 1165.84 337.417L1180.76 326.222C1183 325.849 1184.87 325.849 1187.1 325.849L1165.09 342.267C1164.34 345.252 1164.34 355.7 1164.34 358.685V420.253C1164.34 426.969 1164.72 433.686 1165.09 440.029C1166.96 456.447 1171.81 460.551 1188.22 462.044C1192.33 462.044 1196.43 462.417 1200.91 462.417H1203.9C1204.64 462.417 1204.64 462.417 1205.02 462.044L1229.64 443.76V444.88V446.372V448.238L1210.99 462.044C1213.6 462.044 1216.58 462.044 1219.19 461.671L1228.9 454.581C1228.9 456.074 1228.15 457.939 1227.4 459.432C1233 459.432 1235.61 444.133 1235.61 440.029V422.491C1235.61 419.133 1238.6 415.029 1242.33 415.029H1278.9C1282.25 415.029 1285.61 418.76 1285.61 422.118V445.253C1285.61 482.566 1272.93 512.044 1230.76 515.402L1201.28 517.641C1169.19 517.641 1139.34 516.895 1124.04 483.686C1120.31 475.477 1117.7 465.775 1116.58 456.82L1115.09 442.268L1114.34 425.103V357.193C1114.34 348.984 1115.09 340.402 1116.21 331.819ZM1119.19 304.954L1095.31 322.864C1095.31 322.491 1100.54 315.028 1101.66 313.909L1121.43 298.984C1121.81 298.61 1122.55 298.61 1122.93 298.61L1122.18 299.73C1121.81 300.476 1119.57 304.207 1119.19 304.954ZM1113.6 319.506L1089.34 337.79C1089.34 337.043 1090.84 332.939 1091.21 331.819L1115.84 313.909L1113.6 319.506ZM1173.67 346.372H1167.7L1194.94 325.849H1196.81H1198.3H1200.91L1173.67 346.372ZM1181.13 346.372L1208.75 325.849C1210.24 325.849 1212.48 326.222 1213.97 326.222L1187.1 346.372L1186.73 346.745C1185.99 346.745 1181.88 346.745 1181.13 346.372ZM1087.1 345.252L1112.1 326.596L1110.99 331.819L1085.99 350.476C1085.99 350.103 1085.99 349.73 1086.36 349.357C1086.36 348.237 1087.1 345.252 1087.1 345.252ZM1193.45 347.864V347.491L1219.94 327.715C1221.43 327.715 1222.93 328.461 1223.67 329.208L1197.18 348.984C1196.06 348.611 1194.57 348.237 1193.45 347.864ZM1200.54 352.715L1226.28 333.312C1226.66 332.939 1227.4 336.67 1227.4 337.043L1201.66 356.073L1200.54 352.715ZM1084.49 362.043L1084.87 357.193L1109.87 338.536L1109.49 343.387L1084.49 362.043ZM1202.4 361.67L1227.78 342.64V347.118L1202.4 365.775V361.67ZM1084.12 368.387L1108.37 349.73H1108.75V350.476V354.208L1083.37 373.238C1083.37 372.491 1083.75 369.133 1084.12 368.387ZM1202.4 371.745L1227.78 352.715V357.193L1202.4 376.223V371.745ZM1083.37 378.835L1108.37 360.178V361.67V364.655L1083 383.685C1083 382.566 1083 380.327 1083.37 378.835ZM1202.78 381.82L1228.15 362.79C1228.9 363.909 1229.64 364.655 1230.39 365.402L1204.27 385.178C1203.9 384.805 1202.4 381.82 1202.78 381.82ZM1208.75 387.79L1235.99 367.267H1241.96L1214.72 387.79H1208.75ZM1222.18 387.79L1249.79 367.267H1252.03V369.879L1228.15 387.79H1222.18ZM1083 393.76V389.656L1108.37 370.626V374.73L1083 393.76ZM1235.99 387.79L1252.03 375.85V379.954L1241.96 387.79H1235.99ZM1083 403.835V399.357L1108.37 380.7V385.178L1083 403.835ZM1083 409.805L1108.37 390.775V395.253L1083 414.283V409.805ZM1083 419.88L1108.37 401.223V405.7L1083 424.357V419.88ZM1083 434.805V430.327L1107.63 411.671C1108 411.671 1108 411.297 1108.37 411.297V415.775L1083 434.805ZM1083 444.88V440.402L1107.63 422.118C1108 422.118 1108 421.745 1108.37 421.745V426.223L1083 444.88ZM1083 450.85L1108.37 431.82V432.193V436.298L1083 455.327V451.969V450.85ZM1083.37 460.924L1108.75 441.895V445.626V446.372L1083.37 465.029V460.924ZM1204.27 456.447V451.969L1217.7 442.268H1223.67L1204.27 456.447ZM1209.87 442.268L1205.76 445.253C1206.88 443.76 1208.37 442.641 1209.87 442.268ZM1084.12 470.626L1109.12 451.969C1109.49 453.089 1109.87 454.208 1109.87 455.701L1084.49 474.731C1084.12 473.984 1084.12 471.745 1084.12 470.626ZM1085.24 479.954L1110.24 461.298C1110.61 462.417 1110.99 463.536 1110.99 465.029C1110.99 465.402 1110.99 465.029 1110.61 465.402L1085.61 484.059C1085.24 483.313 1085.24 481.074 1085.24 479.954ZM1086.73 489.283L1111.73 470.626V470.253C1112.1 470.999 1112.48 473.611 1112.48 474.357L1087.1 493.387C1086.73 492.268 1086.36 490.029 1086.36 489.656C1086.36 489.283 1086.73 489.283 1086.73 489.283ZM1088.22 498.238H1088.6L1113.97 478.835L1115.09 482.566L1089.34 501.969C1088.97 500.477 1088.22 498.238 1088.22 498.238ZM1091.21 506.074L1116.96 487.044C1117.33 488.163 1118.45 489.656 1118.07 490.402L1092.33 509.805L1091.21 506.82V506.074ZM1094.57 513.91L1120.31 494.507L1122.18 497.492L1096.06 516.895C1096.06 516.895 1095.31 515.402 1094.94 515.029C1094.94 514.656 1094.57 513.91 1094.57 513.91ZM1100.91 523.984L1098.67 520.999L1124.79 501.596C1125.54 502.343 1127.03 504.208 1127.03 504.208L1101.28 523.611L1100.91 523.984ZM1103.9 527.343L1130.02 507.94V507.566C1130.39 507.94 1132.25 509.805 1133 510.178L1106.88 529.581H1106.51C1106.51 529.581 1104.27 527.343 1103.9 527.343ZM1110.24 532.94L1136.73 513.163C1137.1 513.163 1139.72 514.656 1140.09 515.029L1113.6 534.805C1113.22 534.805 1110.61 532.94 1110.24 532.94ZM1118.07 537.417L1144.57 517.268H1144.94L1148.67 519.134L1121.81 538.91C1120.69 538.537 1118.45 537.79 1118.07 537.417ZM1209.12 541.149L1237.48 519.88C1239.72 519.507 1241.96 518.761 1243.82 518.014H1244.19C1243.82 518.761 1243.45 519.507 1242.7 519.88L1216.96 539.283C1216.58 539.656 1210.24 541.149 1209.49 541.149H1209.12ZM1127.4 540.776L1153.9 520.999C1154.27 520.626 1153.9 520.626 1154.64 520.626L1158.75 521.746L1131.88 541.895C1130.02 541.522 1127.78 540.776 1127.4 540.776ZM1199.79 542.268L1193.08 543.014L1220.69 522.119C1221.43 521.746 1226.66 521.372 1227.4 521.372H1227.78L1199.79 542.268ZM1137.85 543.014H1138.22L1164.72 522.865H1165.46C1166.96 522.865 1168.82 522.865 1170.31 523.238L1143.45 543.388C1143.07 543.761 1143.07 543.761 1142.7 543.761C1141.96 543.761 1138.97 543.388 1137.85 543.014ZM1183.75 543.761L1177.78 544.134L1205.39 523.238C1206.13 522.865 1208 522.865 1209.49 522.865H1212.1L1184.49 543.388C1184.49 543.761 1184.12 543.761 1183.75 543.761ZM1150.16 544.134L1177.4 523.984V523.611C1179.27 523.611 1181.51 523.611 1183.37 523.984L1155.76 544.507H1154.64H1153.15C1152.4 544.507 1150.54 544.134 1150.54 544.134H1150.16ZM1163.6 544.507L1190.84 523.984H1191.21C1191.21 523.984 1194.94 523.611 1196.06 523.611C1196.06 523.611 1196.81 523.984 1197.18 523.984L1169.57 544.507H1163.6ZM1419.08 463.163V318.387L1410.13 315.775C1407.14 314.655 1404.9 311.67 1404.9 308.685V271.745C1404.9 269.133 1407.52 264.655 1410.5 264.655H1488.11C1490.73 264.655 1492.59 267.64 1493.34 269.506L1515.35 322.864L1539.23 304.954V309.431L1517.22 326.222C1517.59 328.088 1517.96 329.581 1518.71 330.7L1539.61 315.401C1539.98 316.521 1539.98 318.013 1540.73 319.133L1520.2 334.431L1522.07 338.909L1544.46 322.118C1544.46 322.118 1547.07 322.864 1548.93 323.237L1523.56 342.267L1528.79 354.581L1554.53 335.551V338.909V340.028L1530.65 357.939C1530.65 359.058 1531.77 361.67 1532.14 362.417L1554.53 345.999V349.357V350.103L1533.64 365.775V366.148L1535.5 370.626L1554.9 356.073V360.551L1536.99 373.984C1536.99 374.73 1538.11 377.342 1539.23 378.088L1554.9 366.148C1554.9 366.894 1554.9 369.879 1555.28 370.626L1539.98 381.82L1541.85 386.297H1542.22L1555.28 376.596V380.7L1543.71 389.282C1543.71 390.775 1544.83 393.387 1545.58 394.133L1555.28 386.67V391.148L1547.07 397.491C1547.07 398.238 1547.82 400.85 1548.56 401.969L1555.65 397.118V400.103V401.223L1550.05 405.327C1550.43 406.447 1551.55 409.059 1551.92 409.805L1555.65 407.193C1556.02 408.312 1556.02 409.059 1556.02 410.178C1556.02 410.551 1556.02 411.297 1555.65 411.671C1555.65 411.671 1553.79 413.163 1553.41 413.536L1555.28 418.014L1556.02 417.268V419.88V420.626L1562.37 435.924L1560.13 319.133C1560.13 318.387 1560.13 318.387 1559.76 318.387C1553.41 316.521 1545.58 316.148 1545.58 307.939V272.118C1545.58 269.133 1548.19 264.655 1551.55 264.655H1619.46C1622.44 264.655 1625.05 268.76 1625.05 271.371V308.685C1625.05 312.043 1622.82 314.655 1619.83 315.775L1610.5 318.387V509.805C1610.5 513.163 1607.89 517.268 1604.53 517.268H1542.22C1539.61 517.268 1537.37 514.283 1536.25 512.044L1467.59 345.626C1467.59 349.73 1467.96 365.402 1468.71 369.133C1469.08 369.879 1469.83 371.745 1469.83 371.745V372.118C1469.46 372.118 1468.71 372.864 1468.34 373.984V379.208L1471.7 376.596C1472.07 377.715 1473.19 379.954 1473.19 379.954L1468.34 383.685V384.432V389.282H1468.71C1469.46 388.536 1473.56 385.551 1475.05 384.805C1475.43 385.551 1476.17 387.044 1476.17 388.163L1468.71 393.76V394.879V399.73L1478.41 392.641C1478.41 393.387 1479.16 395.253 1479.53 395.999L1468.71 404.208V405.327C1468.71 407.193 1468.71 408.312 1469.08 409.805L1481.4 400.476C1481.77 401.223 1482.89 403.462 1482.89 404.208L1469.08 414.283V415.775V420.253L1484.38 408.685C1485.13 409.059 1485.87 411.297 1485.87 412.044L1469.08 424.73V426.596C1469.08 426.596 1469.08 429.208 1469.46 430.327L1488.11 416.521C1488.49 417.268 1489.23 419.133 1489.23 419.88L1469.46 434.805V440.775L1491.47 424.357L1492.59 427.342C1492.59 427.715 1492.22 427.715 1492.22 428.089L1469.83 444.88C1469.46 444.88 1469.46 444.88 1469.46 445.253C1469.46 446.372 1469.46 450.104 1469.83 450.85L1494.46 432.193C1494.83 432.566 1495.58 434.805 1495.58 435.924L1469.83 455.327V456.82V462.417V463.163L1477.29 465.775L1500.8 448.238C1501.55 449.357 1502.67 451.596 1502.67 451.596L1481.4 467.268C1482.52 468.387 1483.26 469.507 1484.01 470.999L1504.16 456.447C1504.9 457.193 1505.65 459.432 1505.65 459.432L1484.76 475.477V481.074L1507.14 464.283C1507.89 464.656 1508.64 466.522 1509.01 467.268L1484.76 485.925V509.805C1484.76 513.163 1481.77 517.268 1478.41 517.268H1410.87C1407.52 517.268 1404.9 513.163 1404.9 510.178V472.492C1402.67 473.238 1400.43 474.73 1399.31 476.969L1387.74 485.925V481.074L1413.11 462.044V465.402L1419.08 463.163ZM1382.52 291.894L1373.19 298.984C1373.56 295.998 1375.8 291.894 1379.16 291.894H1382.52ZM1373.19 304.954L1390.35 291.894H1396.7L1373.19 309.431V304.954ZM1521.32 291.894L1514.23 297.118C1514.23 294.506 1518.34 291.894 1521.32 291.894ZM1513.86 307.939V303.461L1529.16 291.894H1535.13L1513.86 307.939ZM1513.86 313.909L1539.23 294.506V298.984L1513.86 318.387V313.909ZM1373.19 319.879V315.401L1398.56 295.998V300.849L1373.19 319.879ZM1373.19 325.849L1398.56 306.446V311.297L1373.19 330.327V325.849ZM1373.19 335.924L1398.93 316.894C1399.31 316.894 1400.8 319.879 1400.8 320.252L1374.31 339.655C1373.93 340.028 1373.19 336.67 1373.19 336.297V335.924ZM1382.14 344.133L1378.04 343.014L1404.9 322.864C1407.14 322.864 1409.38 323.61 1409.38 323.61L1409.76 323.984L1382.89 343.76C1382.52 344.133 1382.14 344.133 1382.14 344.133ZM1527.29 345.252L1554.16 325.103V328.461V329.581L1528.79 348.984L1528.41 348.237V345.626C1528.41 345.626 1527.67 345.626 1527.29 345.252ZM1387.74 345.999L1413.11 326.969V331.446L1387.74 350.849V345.999ZM1387.74 361.297V356.446L1413.11 337.417V341.894L1387.74 361.297ZM1387.74 371.745V366.894L1413.11 347.864V352.342L1387.74 371.745ZM1387.74 377.342L1413.11 358.312V362.417L1387.74 381.447V377.342ZM1387.74 387.417L1413.11 368.387V372.864L1387.74 391.894V387.417ZM1387.74 402.342V397.865L1413.11 378.835V383.312L1387.74 402.342ZM1387.74 408.312L1413.11 389.282V393.76L1387.74 412.79V408.312ZM1387.74 418.76L1413.11 399.73V404.208L1387.74 423.238V418.76ZM1387.74 433.686V429.208L1413.11 409.805V414.656L1387.74 433.686ZM1387.74 444.133V439.656L1413.11 420.253V425.103L1387.74 444.133ZM1387.74 450.104L1413.11 430.7V435.551L1387.74 454.581V450.104ZM1471.7 459.805L1497.82 440.029C1498.19 440.402 1498.93 442.641 1499.31 443.76L1473.19 463.163C1472.44 462.044 1471.7 459.805 1471.7 459.805ZM1387.74 465.029V460.551L1413.11 441.148V445.626L1387.74 465.029ZM1387.74 475.477V470.626L1413.11 451.596V456.074L1387.74 475.477ZM1484.76 491.522L1510.87 472.119C1510.87 472.119 1511.99 473.984 1512.37 475.477L1486.62 494.88C1485.87 493.76 1484.76 491.522 1484.76 491.522ZM1489.61 503.089L1488.11 499.357L1514.23 479.954C1514.98 481.447 1515.73 483.313 1515.73 483.313L1489.61 503.089ZM1373.19 502.343L1398.56 483.313V487.79L1373.19 506.82V502.343ZM1492.59 510.925L1491.47 507.566L1517.59 487.79C1517.96 489.283 1519.08 491.148 1519.08 491.148L1492.59 510.925ZM1373.19 517.268V512.79L1398.19 494.134L1398.56 493.76V497.865L1373.19 517.268ZM1494.83 515.402L1520.58 495.999C1521.32 497.119 1522.07 499.357 1522.07 499.357L1495.95 518.761C1495.95 518.387 1494.83 516.149 1494.83 515.402ZM1498.19 523.238L1524.31 503.835C1524.31 503.835 1525.05 506.074 1525.05 507.566L1499.31 526.97C1498.93 526.223 1498.19 523.984 1498.19 523.238ZM1373.19 522.865L1398.56 503.835V508.313L1373.19 527.716V522.865ZM1501.55 531.074L1527.29 512.044C1528.04 513.164 1528.79 515.402 1528.79 515.402L1502.67 534.805C1502.29 534.059 1501.55 531.82 1501.55 531.074ZM1373.19 537.79V533.313L1398.19 514.656C1398.93 515.775 1399.31 517.268 1399.31 518.387C1398.93 518.387 1398.93 518.761 1398.93 518.761L1373.56 537.79H1373.19ZM1504.53 539.283L1530.28 519.88H1530.65L1532.89 522.119L1506.4 541.895C1505.65 541.522 1504.53 540.402 1504.53 539.283ZM1375.43 542.268L1401.55 522.492C1402.29 522.492 1403.04 523.238 1403.41 523.238C1404.53 523.611 1405.28 523.611 1406.4 523.611L1378.78 544.134C1377.29 544.134 1376.17 543.387 1375.43 542.268ZM1392.59 544.507H1386.25L1414.23 523.611H1420.2L1392.59 544.507ZM1400.43 544.507L1428.04 523.611H1434.01L1406.4 544.507H1400.43ZM1414.23 544.507L1441.84 523.611H1447.81L1420.2 544.507H1414.23ZM1510.87 544.507L1538.86 523.611H1544.83L1517.22 544.507H1510.87ZM1525.05 544.507L1552.67 523.611H1558.64L1531.02 544.507H1525.05ZM1538.86 544.507L1566.47 523.611H1572.82L1544.83 544.507H1538.86ZM1559.01 544.507H1552.67L1578.41 525.104H1578.79V529.581L1559.01 544.507ZM1428.04 544.507L1452.67 525.85V530.328L1434.01 544.507H1428.04ZM1572.82 544.507H1566.85L1578.79 535.552C1578.79 537.044 1578.79 539.656 1577.67 540.776L1572.82 544.507ZM1447.07 544.507H1441.84L1452.67 536.298C1452.67 540.029 1450.43 544.507 1447.07 544.507ZM1902.07 463.163V318.387L1892.37 315.028C1889.76 314.282 1887.89 310.924 1887.89 308.312V272.118C1887.89 269.506 1890.5 264.655 1893.49 264.655H2041.62C2044.61 264.655 2047.22 268.76 2047.22 271.371V331.073C2047.22 333.685 2044.24 337.79 2041.62 337.79H2011.4C2008.79 337.79 2006.55 334.058 2006.18 331.819L2003.56 320.252H1952.82V326.596H1958.41L1952.82 330.7V336.67L1966.25 326.596H1972.22L1952.82 341.148V347.118L1980.06 326.596H1986.4L1958.41 347.491H1952.82V362.043H1975.58L1975.21 361.67L1975.58 361.297L2001.7 341.894C2002.44 342.64 2003.56 343.387 2004.68 344.133L1980.8 362.043H1988.64L2012.15 344.506H2015.5V346.372L1994.61 362.043H1998.71C1999.46 362.043 2000.21 362.79 2001.32 362.79L2015.5 352.342V356.82L2004.31 365.402H2003.19C2003.56 366.148 2004.31 367.641 2004.31 369.133V409.059C2004.31 412.79 2001.32 416.148 1997.59 416.148H1952.82V422.491H1955.06C1954.68 422.865 1953.19 423.984 1952.82 424.357V429.954L1962.89 422.491H1968.86L1952.82 434.805V440.402L1972.59 425.85V430.327L1955.06 443.387H1952.82V461.671H2004.31L2007.29 449.357C2007.67 447.118 2009.91 443.76 2012.89 443.76H2042C2044.98 443.76 2047.97 447.865 2047.97 450.85V510.552C2047.97 513.163 2044.98 517.268 2042 517.268H1893.86C1890.88 517.268 1887.89 512.79 1887.89 509.805V472.492C1886.03 473.238 1884.16 473.984 1883.04 475.85C1882.67 476.223 1882.67 476.969 1882.29 477.342L1870.73 485.925V481.447L1896.1 462.417V465.402C1896.85 465.029 1900.95 463.91 1902.07 463.163ZM1862.14 291.894H1866.25L1856.17 299.357C1856.17 296.372 1858.79 291.894 1862.14 291.894ZM1856.17 309.804V305.327L1874.09 291.894H1880.06L1856.17 309.804ZM1856.17 315.775L1881.55 296.372V301.222L1856.17 320.252V315.775ZM1856.17 330.7V326.222L1881.17 307.193H1881.55V311.297L1856.17 330.7ZM1856.17 336.297L1881.92 317.267C1883.04 318.387 1883.41 319.133 1884.16 320.252L1857.67 339.655C1857.29 339.655 1856.17 337.043 1856.17 336.297ZM1865.88 344.133L1861.77 342.64L1888.64 322.491H1889.01L1893.12 323.61L1865.88 344.133ZM1966.25 347.491L1994.23 326.596H1997.22C1997.59 326.969 1997.59 327.715 1997.59 328.461L1972.22 347.491H1971.85H1966.25ZM1870.73 351.223V346.372L1896.1 327.342V331.819L1870.73 351.223ZM1973.71 356.82L1972.97 352.715L1998.71 333.685L1999.09 333.312L1999.83 337.417L1973.71 356.82ZM1870.73 356.82L1896.1 337.79V341.894L1870.73 360.924V356.82ZM1870.73 366.894L1896.1 347.864V352.342L1870.73 371.372V366.894ZM1870.73 381.82V377.342L1896.1 358.312V362.79L1870.73 381.82ZM1870.73 392.267V387.79L1896.1 368.76V373.238L1870.73 392.267ZM1870.73 398.238L1896.1 379.208V383.685L1870.73 402.715V398.238ZM1870.73 413.163V408.685L1896.1 389.656V394.133L1870.73 413.163ZM1870.73 423.611V419.133L1896.1 400.103V404.581L1870.73 423.611ZM1870.73 429.581L1896.1 410.178V415.029L1870.73 434.059V429.581ZM1870.73 440.029L1896.1 420.626V425.477L1870.73 444.507V440.029ZM1870.73 454.954V450.477L1896.1 431.074V435.924L1870.73 454.954ZM1967 443.387H1962.89L1972.59 436.298C1972.59 439.283 1970.35 443.387 1967 443.387ZM1870.73 460.924L1896.1 441.521V445.999L1870.73 465.402V460.924ZM1870.73 470.999L1896.1 451.969V456.447L1870.73 475.85V470.999ZM1856.17 502.343L1881.55 483.313V487.79L1856.17 507.193V502.343ZM1856.17 512.79L1881.55 493.76V498.238L1856.17 517.641V512.79ZM1856.17 528.089V523.238L1881.55 504.208V508.686L1856.17 528.089ZM1856.17 533.686L1881.55 514.656C1881.92 516.149 1882.29 517.268 1882.29 518.761L1881.92 519.134L1856.55 537.79L1856.17 538.164V533.686ZM1858.41 542.641L1884.91 522.865C1886.77 523.611 1887.89 523.611 1889.76 523.611L1862.14 544.507C1860.65 544.507 1859.16 543.387 1858.41 542.641ZM1869.98 544.507L1897.59 523.611H1903.56L1875.95 544.507H1869.98ZM1889.76 544.507H1883.79L1911.4 523.611H1917.37L1889.76 544.507ZM1903.56 544.507H1897.59L1924.83 523.984C1925.2 523.611 1925.58 523.611 1925.58 523.611H1931.55L1903.56 544.507ZM1911.4 544.507L1939.38 523.611H1945.35L1918.12 544.134C1917.74 544.507 1917.74 544.507 1917.37 544.507H1911.4ZM1925.58 544.507L1953.19 523.611H1959.16L1931.55 544.507H1925.58ZM1945.35 544.507H1939.38L1967 523.611H1973.34L1945.35 544.507ZM1953.19 544.507L1981.18 523.611H1986.4L1958.79 544.507H1953.19ZM1972.59 544.507H1966.62L1994.23 523.611H2000.58L1972.59 544.507ZM1980.43 544.507L2008.41 523.611H2014.38L1986.77 544.507H1980.43ZM1994.61 544.507L2016.25 528.089V532.567L2000.58 544.507H1994.61ZM2008.41 544.507L2016.25 538.91C2016.25 541.895 2012.52 544.507 2009.53 544.507H2008.41ZM2181.44 463.163V318.387L2172.48 315.775C2169.5 314.655 2167.26 311.67 2167.26 308.685V271.745C2167.26 269.133 2169.87 264.655 2172.86 264.655H2250.47C2253.08 264.655 2254.95 267.64 2255.69 269.506L2277.71 322.864L2301.59 304.954V309.431L2279.57 326.222C2279.95 328.088 2280.32 329.581 2281.06 330.7L2301.96 315.401C2302.33 316.521 2302.33 318.013 2303.08 319.133L2282.56 334.431L2284.42 338.909L2306.81 322.118C2306.81 322.118 2309.42 322.864 2311.29 323.237L2285.92 342.267L2291.14 354.581L2316.89 335.551V338.909V340.028L2293 357.939C2293 359.058 2294.12 361.67 2294.5 362.417L2316.89 345.999V349.357V350.103L2295.99 365.775V366.148L2297.86 370.626L2317.26 356.073V360.551L2299.35 373.984C2299.35 374.73 2300.47 377.342 2301.59 378.088L2317.26 366.148C2317.26 366.894 2317.26 369.879 2317.63 370.626L2302.33 381.82L2304.2 386.297H2304.57L2317.63 376.596V380.7L2306.06 389.282C2306.06 390.775 2307.18 393.387 2307.93 394.133L2317.63 386.67V391.148L2309.42 397.491C2309.42 398.238 2310.17 400.85 2310.92 401.969L2318.01 397.118V400.103V401.223L2312.41 405.327C2312.78 406.447 2313.9 409.059 2314.27 409.805L2318.01 407.193C2318.38 408.312 2318.38 409.059 2318.38 410.178C2318.38 410.551 2318.38 411.297 2318.01 411.671C2318.01 411.671 2316.14 413.163 2315.77 413.536L2317.63 418.014L2318.38 417.268V419.88V420.626L2324.72 435.924L2322.48 319.133C2322.48 318.387 2322.48 318.387 2322.11 318.387C2315.77 316.521 2307.93 316.148 2307.93 307.939V272.118C2307.93 269.133 2310.54 264.655 2313.9 264.655H2381.81C2384.8 264.655 2387.41 268.76 2387.41 271.371V308.685C2387.41 312.043 2385.17 314.655 2382.18 315.775L2372.86 318.387V509.805C2372.86 513.163 2370.24 517.268 2366.89 517.268H2304.57C2301.96 517.268 2299.72 514.283 2298.6 512.044L2229.94 345.626C2229.94 349.73 2230.32 365.402 2231.06 369.133C2231.44 369.879 2232.18 371.745 2232.18 371.745V372.118C2231.81 372.118 2231.06 372.864 2230.69 373.984V379.208L2234.05 376.596C2234.42 377.715 2235.54 379.954 2235.54 379.954L2230.69 383.685V384.432V389.282H2231.06C2231.81 388.536 2235.92 385.551 2237.41 384.805C2237.78 385.551 2238.53 387.044 2238.53 388.163L2231.06 393.76V394.879V399.73L2240.77 392.641C2240.77 393.387 2241.51 395.253 2241.89 395.999L2231.06 404.208V405.327C2231.06 407.193 2231.06 408.312 2231.44 409.805L2243.75 400.476C2244.12 401.223 2245.24 403.462 2245.24 404.208L2231.44 414.283V415.775V420.253L2246.74 408.685C2247.48 409.059 2248.23 411.297 2248.23 412.044L2231.44 424.73V426.596C2231.44 426.596 2231.44 429.208 2231.81 430.327L2250.47 416.521C2250.84 417.268 2251.59 419.133 2251.59 419.88L2231.81 434.805V440.775L2253.83 424.357L2254.95 427.342C2254.95 427.715 2254.57 427.715 2254.57 428.089L2232.18 444.88C2231.81 444.88 2231.81 444.88 2231.81 445.253C2231.81 446.372 2231.81 450.104 2232.18 450.85L2256.81 432.193C2257.18 432.566 2257.93 434.805 2257.93 435.924L2232.18 455.327V456.82V462.417V463.163L2239.65 465.775L2263.15 448.238C2263.9 449.357 2265.02 451.596 2265.02 451.596L2243.75 467.268C2244.87 468.387 2245.62 469.507 2246.36 470.999L2266.51 456.447C2267.26 457.193 2268 459.432 2268 459.432L2247.11 475.477V481.074L2269.5 464.283C2270.24 464.656 2270.99 466.522 2271.36 467.268L2247.11 485.925V509.805C2247.11 513.163 2244.12 517.268 2240.77 517.268H2173.23C2169.87 517.268 2167.26 513.163 2167.26 510.178V472.492C2165.02 473.238 2162.78 474.73 2161.66 476.969L2150.09 485.925V481.074L2175.47 462.044V465.402L2181.44 463.163ZM2144.87 291.894L2135.54 298.984C2135.91 295.998 2138.15 291.894 2141.51 291.894H2144.87ZM2135.54 304.954L2152.71 291.894H2159.05L2135.54 309.431V304.954ZM2283.68 291.894L2276.59 297.118C2276.59 294.506 2280.69 291.894 2283.68 291.894ZM2276.21 307.939V303.461L2291.51 291.894H2297.48L2276.21 307.939ZM2276.21 313.909L2301.59 294.506V298.984L2276.21 318.387V313.909ZM2135.54 319.879V315.401L2160.91 295.998V300.849L2135.54 319.879ZM2135.54 325.849L2160.91 306.446V311.297L2135.54 330.327V325.849ZM2135.54 335.924L2161.29 316.894C2161.66 316.894 2163.15 319.879 2163.15 320.252L2136.66 339.655C2136.29 340.028 2135.54 336.67 2135.54 336.297V335.924ZM2144.5 344.133L2140.39 343.014L2167.26 322.864C2169.5 322.864 2171.74 323.61 2171.74 323.61L2172.11 323.984L2145.24 343.76C2144.87 344.133 2144.5 344.133 2144.5 344.133ZM2289.65 345.252L2316.51 325.103V328.461V329.581L2291.14 348.984L2290.77 348.237V345.626C2290.77 345.626 2290.02 345.626 2289.65 345.252ZM2150.09 345.999L2175.47 326.969V331.446L2150.09 350.849V345.999ZM2150.09 361.297V356.446L2175.47 337.417V341.894L2150.09 361.297ZM2150.09 371.745V366.894L2175.47 347.864V352.342L2150.09 371.745ZM2150.09 377.342L2175.47 358.312V362.417L2150.09 381.447V377.342ZM2150.09 387.417L2175.47 368.387V372.864L2150.09 391.894V387.417ZM2150.09 402.342V397.865L2175.47 378.835V383.312L2150.09 402.342ZM2150.09 408.312L2175.47 389.282V393.76L2150.09 412.79V408.312ZM2150.09 418.76L2175.47 399.73V404.208L2150.09 423.238V418.76ZM2150.09 433.686V429.208L2175.47 409.805V414.656L2150.09 433.686ZM2150.09 444.133V439.656L2175.47 420.253V425.103L2150.09 444.133ZM2150.09 450.104L2175.47 430.7V435.551L2150.09 454.581V450.104ZM2234.05 459.805L2260.17 440.029C2260.54 440.402 2261.29 442.641 2261.66 443.76L2235.54 463.163C2234.8 462.044 2234.05 459.805 2234.05 459.805ZM2150.09 465.029V460.551L2175.47 441.148V445.626L2150.09 465.029ZM2150.09 475.477V470.626L2175.47 451.596V456.074L2150.09 475.477ZM2247.11 491.522L2273.23 472.119C2273.23 472.119 2274.35 473.984 2274.72 475.477L2248.97 494.88C2248.23 493.76 2247.11 491.522 2247.11 491.522ZM2251.96 503.089L2250.47 499.357L2276.59 479.954C2277.33 481.447 2278.08 483.313 2278.08 483.313L2251.96 503.089ZM2135.54 502.343L2160.91 483.313V487.79L2135.54 506.82V502.343ZM2254.95 510.925L2253.83 507.566L2279.95 487.79C2280.32 489.283 2281.44 491.148 2281.44 491.148L2254.95 510.925ZM2135.54 517.268V512.79L2160.54 494.134L2160.91 493.76V497.865L2135.54 517.268ZM2257.18 515.402L2282.93 495.999C2283.68 497.119 2284.42 499.357 2284.42 499.357L2258.3 518.761C2258.3 518.387 2257.18 516.149 2257.18 515.402ZM2260.54 523.238L2286.66 503.835C2286.66 503.835 2287.41 506.074 2287.41 507.566L2261.66 526.97C2261.29 526.223 2260.54 523.984 2260.54 523.238ZM2135.54 522.865L2160.91 503.835V508.313L2135.54 527.716V522.865ZM2263.9 531.074L2289.65 512.044C2290.39 513.164 2291.14 515.402 2291.14 515.402L2265.02 534.805C2264.65 534.059 2263.9 531.82 2263.9 531.074ZM2135.54 537.79V533.313L2160.54 514.656C2161.29 515.775 2161.66 517.268 2161.66 518.387C2161.29 518.387 2161.29 518.761 2161.29 518.761L2135.91 537.79H2135.54ZM2266.89 539.283L2292.63 519.88H2293L2295.24 522.119L2268.75 541.895C2268 541.522 2266.89 540.402 2266.89 539.283ZM2137.78 542.268L2163.9 522.492C2164.65 522.492 2165.39 523.238 2165.77 523.238C2166.88 523.611 2167.63 523.611 2168.75 523.611L2141.14 544.134C2139.65 544.134 2138.53 543.387 2137.78 542.268ZM2154.94 544.507H2148.6L2176.59 523.611H2182.56L2154.94 544.507ZM2162.78 544.507L2190.39 523.611H2196.36L2168.75 544.507H2162.78ZM2176.59 544.507L2204.2 523.611H2210.17L2182.56 544.507H2176.59ZM2273.23 544.507L2301.21 523.611H2307.18L2279.57 544.507H2273.23ZM2287.41 544.507L2315.02 523.611H2320.99L2293.38 544.507H2287.41ZM2301.21 544.507L2328.83 523.611H2335.17L2307.18 544.507H2301.21ZM2321.36 544.507H2315.02L2340.77 525.104H2341.14V529.581L2321.36 544.507ZM2190.39 544.507L2215.02 525.85V530.328L2196.36 544.507H2190.39ZM2335.17 544.507H2329.2L2341.14 535.552C2341.14 537.044 2341.14 539.656 2340.02 540.776L2335.17 544.507ZM2209.42 544.507H2204.2L2215.02 536.298C2215.02 540.029 2212.78 544.507 2209.42 544.507ZM2562.3 267.267L2577.22 265.774L2596.63 264.655H2612.67L2626.1 265.401L2637.67 266.894C2676.1 271.371 2683.94 308.312 2683.94 340.402C2683.94 344.133 2683.94 353.088 2678.34 353.088H2639.91C2635.06 353.088 2634.69 346.372 2634.31 343.014C2633.94 341.521 2633.57 334.431 2633.19 332.566C2632.07 325.103 2629.46 322.491 2621.63 320.625C2616.77 319.506 2611.92 319.506 2607.07 319.506H2597.74H2588.79C2581.7 319.506 2560.06 321.745 2560.06 329.581C2561.55 328.834 2566.03 327.342 2567.52 327.342H2567.89L2558.19 334.805C2557.82 335.178 2557.07 340.775 2557.07 341.148L2577.6 325.849H2582.45H2583.57L2556.33 345.999L2555.95 352.342V407.193C2557.45 403.835 2559.69 402.342 2563.42 402.342L2555.95 407.939V413.909L2571.25 402.342H2577.22L2555.95 418.387V420.253C2555.95 420.253 2555.95 422.865 2556.33 423.984L2580.58 405.7V410.178L2556.33 428.462V429.208C2556.33 430.7 2556.33 432.566 2556.7 433.686L2580.58 416.148V420.253L2557.07 438.163V438.909L2557.45 443.387C2557.82 443.387 2557.82 443.014 2557.82 443.014L2580.95 425.85C2581.33 426.969 2581.7 428.089 2582.45 429.208L2558.19 447.492C2558.19 447.492 2558.57 448.238 2558.57 448.984C2558.94 449.73 2559.31 450.85 2560.06 451.969L2586.18 432.193H2592.15L2564.54 452.715H2561.55H2560.43C2560.43 453.462 2561.55 454.954 2561.92 455.327C2566.03 460.924 2573.49 461.671 2579.46 462.044C2581.33 462.417 2588.79 462.417 2589.91 462.79H2590.66C2593.64 462.79 2601.1 462.417 2602.97 462.417V460.924L2627.97 441.895V442.641C2627.97 443.387 2628.34 446.372 2627.6 446.745L2606.7 462.79C2607.82 462.417 2614.54 462.417 2614.91 462.044L2626.48 453.462C2626.48 454.954 2626.1 456.82 2625.36 458.686C2624.98 459.059 2623.49 460.178 2623.12 460.551C2633.19 460.551 2633.94 439.283 2634.31 431.074V425.85H2592.52C2589.16 425.85 2586.92 420.626 2586.92 418.014V383.312C2586.92 379.954 2589.54 375.476 2593.64 375.476H2607.45L2630.58 357.939C2632.07 359.058 2633.19 359.432 2634.69 359.432L2613.42 375.476H2621.25L2642.52 359.432H2648.49L2627.22 375.476H2635.06L2652.22 362.417H2652.6V366.521L2640.66 375.476H2648.12C2649.24 374.73 2651.85 372.864 2652.22 372.491C2652.22 373.611 2651.85 374.73 2651.85 375.476H2677.6C2680.95 375.476 2684.31 379.208 2684.31 382.566V435.178L2683.19 454.581C2680.58 509.432 2643.64 517.641 2596.63 517.641C2560.06 517.641 2524.98 513.91 2512.67 472.492C2509.31 462.417 2507.45 451.223 2507.07 440.402L2506.33 424.357V356.82L2506.7 343.014L2508.19 329.954L2510.06 319.879C2514.91 292.64 2534.31 270.252 2562.3 267.267ZM2488.42 321.372L2511.92 303.834C2510.8 305.7 2509.68 307.939 2508.94 310.178L2484.68 328.461C2485.06 327.342 2487.67 321.745 2488.42 321.372ZM2481.7 336.67L2505.58 318.387H2505.95L2504.46 323.61L2479.83 342.267L2481.33 336.67H2481.7ZM2569.76 346.372H2564.16L2591.4 325.849H2597.37L2569.76 346.372ZM2577.97 346.372H2577.6L2605.21 325.849C2607.07 325.849 2608.94 325.849 2610.43 326.222L2583.19 346.372H2582.45H2581.33H2577.97ZM2589.91 347.491L2616.4 327.342H2616.77C2616.77 327.342 2617.89 327.342 2617.89 327.715C2618.27 327.715 2620.88 328.088 2620.88 328.834L2594.39 348.611C2594.01 348.611 2593.27 348.611 2593.27 348.237C2592.89 348.237 2590.66 347.864 2590.28 347.491H2589.91ZM2477.22 354.208V353.834L2477.97 349.73L2478.71 348.984L2502.6 331.073L2502.97 330.7L2502.22 335.178C2502.22 335.551 2502.22 335.924 2501.85 335.924L2477.22 354.208ZM2598.86 351.223V350.849L2624.61 331.819H2624.98C2625.36 332.193 2626.85 334.805 2626.48 334.805L2600.73 354.208C2600.36 353.461 2600.36 353.088 2599.98 352.715C2599.61 352.342 2598.49 351.596 2598.86 351.223ZM2601.85 359.058L2627.6 340.028C2627.6 340.402 2627.97 343.387 2627.97 344.133H2627.6L2602.6 363.163C2602.22 362.043 2601.85 359.805 2601.85 359.058ZM2476.48 360.924L2501.48 342.267C2501.48 343.387 2501.48 346.745 2501.1 347.118L2476.48 365.402L2476.1 365.775C2476.1 365.029 2476.1 361.297 2476.48 360.924ZM2602.97 368.76L2627.97 349.73H2628.34L2629.09 353.461L2603.34 372.864V372.491C2603.34 372.491 2602.97 370.252 2602.97 368.76ZM2475.73 371.745L2500.73 353.088C2500.73 353.834 2500.36 357.193 2500.36 357.193L2475.36 376.223V375.103C2475.36 374.357 2474.98 372.491 2475.73 371.745ZM2500.36 367.641L2474.98 386.67V382.566C2474.98 382.193 2474.98 382.193 2475.36 381.82L2500.36 363.163V367.641ZM2474.98 396.745V392.267L2500.36 373.611V378.088L2474.98 396.745ZM2474.98 402.715L2500.36 383.685V388.163L2474.98 407.193V402.715ZM2474.98 412.79L2500.36 394.133V398.611L2474.98 417.641V412.79ZM2474.98 427.715V423.238L2500.36 404.581V408.685L2474.98 427.715ZM2474.98 433.686L2500.36 414.656V419.133L2474.98 438.163V433.686ZM2474.98 443.76L2500.36 425.103V429.581L2474.98 448.238V443.76ZM2578.34 452.715H2572.37L2599.98 432.193H2605.95L2578.34 452.715ZM2586.18 452.715L2613.79 432.193H2619.39L2592.15 452.715H2586.18ZM2602.97 452.715H2599.98L2627.6 432.193H2628.34V435.924L2602.97 454.954V452.715ZM2474.98 454.208L2500.36 435.178V435.551V438.163V439.283L2475.36 458.313C2474.98 457.193 2474.98 456.074 2474.98 454.954V454.208ZM2475.36 463.91L2500.73 444.88C2501.1 446.372 2501.1 447.492 2501.1 449.357L2475.73 468.387V467.641C2475.73 467.641 2475.73 465.775 2475.36 463.91ZM2476.48 473.611L2501.85 454.954C2501.85 454.954 2502.22 457.193 2502.22 458.686L2476.85 477.716C2476.48 476.596 2476.48 475.104 2476.48 473.611ZM2623.12 460.924V460.551C2622.75 460.551 2622.75 460.924 2623.12 460.924ZM2477.6 482.939L2502.97 463.91C2503.34 465.402 2503.71 468.014 2503.71 468.014L2478.34 487.044L2477.6 482.939ZM2479.09 492.268V491.895L2504.83 472.865V473.238L2505.58 476.223L2480.21 495.626C2479.83 494.134 2479.09 492.268 2479.09 492.268ZM2481.33 500.477L2507.07 481.074C2507.82 482.193 2508.57 484.432 2508.57 484.432L2482.82 503.835H2482.45L2481.33 500.477ZM2484.68 508.313L2510.06 489.283L2510.43 488.91V489.283L2511.92 492.268L2486.18 511.671C2485.8 511.298 2485.06 509.805 2485.06 509.432C2484.68 509.059 2484.31 508.313 2484.68 508.313ZM2488.42 515.775L2514.16 496.372C2514.54 496.746 2516.03 498.611 2516.4 499.357L2490.28 518.761C2489.91 518.387 2488.79 516.522 2488.42 515.775ZM2492.89 522.492L2519.01 503.089L2521.63 505.701L2495.51 525.104L2494.39 523.984L2492.89 522.492ZM2498.86 528.462L2525.36 508.686C2526.1 509.432 2527.97 510.925 2527.97 510.925L2501.85 530.701C2501.48 530.701 2501.1 530.328 2501.1 530.328C2500.36 529.581 2498.86 528.462 2498.86 528.462ZM2505.95 533.313L2532.45 513.537L2535.8 515.402L2509.31 535.552C2507.82 534.805 2505.95 533.686 2505.95 533.686V533.313ZM2604.46 541.522L2633.19 519.88C2633.57 519.88 2635.06 519.507 2635.43 519.507L2642.15 517.268C2642.15 517.641 2641.77 518.014 2641.4 518.014L2613.79 538.91C2613.42 539.283 2605.21 541.522 2604.83 541.522H2604.46ZM2514.16 537.79L2541.03 517.641L2544.76 518.761H2545.13C2545.13 519.134 2545.13 519.134 2544.76 519.134L2518.27 538.91C2516.77 538.537 2515.28 538.164 2514.16 537.79ZM2523.86 540.776V540.402L2550.73 520.626L2551.1 520.253L2555.58 521.372L2528.71 541.522C2527.6 541.522 2524.24 540.776 2523.86 540.776ZM2587.67 543.761L2615.28 522.865L2622.74 522.119L2594.76 543.014C2594.39 543.388 2589.16 543.761 2588.79 543.761H2587.67ZM2535.06 542.268L2562.3 522.119L2567.15 522.865L2539.91 543.388L2535.06 542.641V542.268ZM2547 543.761L2574.24 523.611C2574.24 523.238 2574.24 523.238 2574.61 523.238C2576.1 523.238 2577.97 523.611 2579.83 523.611L2552.6 544.134C2551.1 544.134 2547.74 543.761 2547 543.761ZM2573.86 544.134L2601.48 523.611H2605.58H2606.7L2579.46 544.134H2577.97C2577.97 544.134 2574.98 544.507 2573.86 544.134ZM2566.03 544.507H2560.06L2587.3 523.984H2593.27L2566.03 544.507ZM2817.78 463.163V318.387L2808.83 315.775C2805.84 314.655 2803.6 311.67 2803.6 308.685V271.745C2803.6 269.133 2806.22 264.655 2809.2 264.655H2877.48C2880.47 264.655 2883.08 268.76 2883.08 271.371V308.685C2883.08 311.67 2880.84 315.028 2877.86 315.775C2876.37 316.148 2870.02 318.013 2868.9 318.387H2868.53V463.163L2878.6 466.522C2880.84 467.268 2883.08 470.626 2883.08 473.238V510.178C2883.08 513.537 2880.1 517.268 2877.11 517.268H2809.95C2806.59 517.268 2803.6 513.163 2803.6 510.178V472.492C2801.37 473.238 2799.13 474.357 2798.38 476.596C2798.01 477.342 2798.01 478.089 2797.63 478.462L2786.44 487.044V482.193L2811.81 463.163V465.402L2817.78 463.163ZM2773.75 294.506C2774.87 293.76 2776.37 291.894 2778.23 291.894H2783.45L2771.89 300.476C2771.89 298.61 2772.26 295.625 2773.75 294.506ZM2771.89 306.446L2791.29 291.894H2797.26L2771.89 310.924V306.446ZM2771.89 316.894L2797.63 297.491V301.969L2771.89 321.372V316.894ZM2771.89 331.819V326.969L2796.89 308.312C2797.26 308.312 2797.26 307.939 2797.63 307.939V312.416L2771.89 331.819ZM2772.26 337.417L2798.38 318.013C2798.75 319.133 2799.5 319.879 2800.25 320.999L2773.75 340.775C2773.38 340.402 2771.89 337.79 2772.26 337.417ZM2782.34 344.506L2778.23 343.387L2805.1 322.864H2805.84L2809.57 323.984V324.357L2782.34 344.506ZM2786.44 351.596V347.491L2811.81 328.461V332.566L2786.44 351.596ZM2786.44 357.566L2811.81 338.536V343.014L2786.44 362.043V357.566ZM2786.44 368.014L2811.81 348.984V353.461L2786.44 372.491V368.014ZM2786.44 382.939V378.461L2811.81 359.432V363.909L2786.44 382.939ZM2786.44 388.909L2811.81 369.879V374.357L2786.44 393.387V388.909ZM2786.44 399.357L2811.81 380.327V384.805L2786.44 403.835V399.357ZM2786.44 414.283V409.805L2811.81 390.402V395.253L2786.44 414.283ZM2786.44 424.73V420.253L2811.81 400.85V405.7L2786.44 424.73ZM2786.44 430.7L2811.81 411.297V415.775L2786.44 435.178V430.7ZM2786.44 445.626V441.148L2811.81 421.745V426.223L2786.44 445.626ZM2786.44 456.074V451.223L2811.81 432.193V436.671L2786.44 456.074ZM2786.44 461.671L2811.81 442.641V447.118L2786.44 466.522V461.671ZM2786.44 472.119L2811.81 453.089V457.193L2786.44 476.596V472.119ZM2771.89 503.462L2797.63 484.432V488.91L2771.89 508.313V503.462ZM2777.11 493.76L2773.01 496.746C2773.01 495.626 2776.37 493.76 2777.11 493.76ZM2771.89 518.387V513.91L2796.89 495.253C2797.26 495.253 2797.26 494.88 2797.63 494.88V499.357L2771.89 518.387ZM2771.89 528.835V524.358L2797.63 505.328V509.805L2771.89 528.835ZM2771.89 534.805L2797.26 515.775H2797.63C2797.63 517.268 2798.01 518.387 2798.38 519.507L2772.26 538.91C2771.89 538.164 2771.89 537.044 2771.89 535.925V534.805ZM2774.87 543.014H2775.25L2801.37 523.238C2802.48 523.238 2803.23 523.611 2803.98 523.611H2806.96L2778.98 544.507C2777.48 544.507 2775.62 544.134 2774.87 543.014ZM2793.16 544.507H2787.19L2814.8 523.611H2820.77L2793.16 544.507ZM2800.99 544.507L2828.6 523.611H2834.57L2806.96 544.507H2800.99ZM2814.8 544.507L2842.78 523.611H2848.75L2820.77 544.507H2814.8ZM2834.95 544.507H2828.98L2851.74 527.343V531.82L2834.95 544.507ZM2845.77 544.507H2842.78L2851.37 537.79C2851.37 540.776 2848.75 544.507 2845.77 544.507ZM3016.55 463.163V318.387L3007.6 315.775C3004.61 314.655 3002.37 311.67 3002.37 308.685V271.745C3002.37 269.133 3004.99 264.655 3007.97 264.655H3085.58C3088.19 264.655 3090.06 267.64 3090.81 269.506L3112.82 322.864L3136.7 304.954V309.431L3114.69 326.222C3115.06 328.088 3115.43 329.581 3116.18 330.7L3137.08 315.401C3137.45 316.521 3137.45 318.013 3138.19 319.133L3117.67 334.431L3119.54 338.909L3141.93 322.118C3141.93 322.118 3144.54 322.864 3146.4 323.237L3121.03 342.267L3126.25 354.581L3152 335.551V338.909V340.028L3128.12 357.939C3128.12 359.058 3129.24 361.67 3129.61 362.417L3152 345.999V349.357V350.103L3131.11 365.775V366.148L3132.97 370.626L3152.37 356.073V360.551L3134.46 373.984C3134.46 374.73 3135.58 377.342 3136.7 378.088L3152.37 366.148C3152.37 366.894 3152.37 369.879 3152.75 370.626L3137.45 381.82L3139.31 386.297H3139.69L3152.75 376.596V380.7L3141.18 389.282C3141.18 390.775 3142.3 393.387 3143.05 394.133L3152.75 386.67V391.148L3144.54 397.491C3144.54 398.238 3145.28 400.85 3146.03 401.969L3153.12 397.118V400.103V401.223L3147.52 405.327C3147.9 406.447 3149.02 409.059 3149.39 409.805L3153.12 407.193C3153.49 408.312 3153.49 409.059 3153.49 410.178C3153.49 410.551 3153.49 411.297 3153.12 411.671C3153.12 411.671 3151.25 413.163 3150.88 413.536L3152.75 418.014L3153.49 417.268V419.88V420.626L3159.84 435.924L3157.6 319.133C3157.6 318.387 3157.6 318.387 3157.22 318.387C3150.88 316.521 3143.05 316.148 3143.05 307.939V272.118C3143.05 269.133 3145.66 264.655 3149.02 264.655H3216.93C3219.91 264.655 3222.52 268.76 3222.52 271.371V308.685C3222.52 312.043 3220.28 314.655 3217.3 315.775L3207.97 318.387V509.805C3207.97 513.163 3205.36 517.268 3202 517.268H3139.69C3137.08 517.268 3134.84 514.283 3133.72 512.044L3065.06 345.626C3065.06 349.73 3065.43 365.402 3066.18 369.133C3066.55 369.879 3067.3 371.745 3067.3 371.745V372.118C3066.93 372.118 3066.18 372.864 3065.81 373.984V379.208L3069.16 376.596C3069.54 377.715 3070.66 379.954 3070.66 379.954L3065.81 383.685V384.432V389.282H3066.18C3066.93 388.536 3071.03 385.551 3072.52 384.805C3072.9 385.551 3073.64 387.044 3073.64 388.163L3066.18 393.76V394.879V399.73L3075.88 392.641C3075.88 393.387 3076.63 395.253 3077 395.999L3066.18 404.208V405.327C3066.18 407.193 3066.18 408.312 3066.55 409.805L3078.87 400.476C3079.24 401.223 3080.36 403.462 3080.36 404.208L3066.55 414.283V415.775V420.253L3081.85 408.685C3082.6 409.059 3083.34 411.297 3083.34 412.044L3066.55 424.73V426.596C3066.55 426.596 3066.55 429.208 3066.93 430.327L3085.58 416.521C3085.96 417.268 3086.7 419.133 3086.7 419.88L3066.93 434.805V440.775L3088.94 424.357L3090.06 427.342C3090.06 427.715 3089.69 427.715 3089.69 428.089L3067.3 444.88C3066.93 444.88 3066.93 444.88 3066.93 445.253C3066.93 446.372 3066.93 450.104 3067.3 450.85L3091.93 432.193C3092.3 432.566 3093.05 434.805 3093.05 435.924L3067.3 455.327V456.82V462.417V463.163L3074.76 465.775L3098.27 448.238C3099.02 449.357 3100.13 451.596 3100.13 451.596L3078.87 467.268C3079.99 468.387 3080.73 469.507 3081.48 470.999L3101.63 456.447C3102.37 457.193 3103.12 459.432 3103.12 459.432L3082.22 475.477V481.074L3104.61 464.283C3105.36 464.656 3106.11 466.522 3106.48 467.268L3082.22 485.925V509.805C3082.22 513.163 3079.24 517.268 3075.88 517.268H3008.34C3004.99 517.268 3002.37 513.163 3002.37 510.178V472.492C3000.13 473.238 2997.9 474.73 2996.78 476.969L2985.21 485.925V481.074L3010.58 462.044V465.402L3016.55 463.163ZM2979.99 291.894L2970.66 298.984C2971.03 295.998 2973.27 291.894 2976.63 291.894H2979.99ZM2970.66 304.954L2987.82 291.894H2994.16L2970.66 309.431V304.954ZM3118.79 291.894L3111.7 297.118C3111.7 294.506 3115.81 291.894 3118.79 291.894ZM3111.33 307.939V303.461L3126.63 291.894H3132.6L3111.33 307.939ZM3111.33 313.909L3136.7 294.506V298.984L3111.33 318.387V313.909ZM2970.66 319.879V315.401L2996.03 295.998V300.849L2970.66 319.879ZM2970.66 325.849L2996.03 306.446V311.297L2970.66 330.327V325.849ZM2970.66 335.924L2996.4 316.894C2996.78 316.894 2998.27 319.879 2998.27 320.252L2971.78 339.655C2971.4 340.028 2970.66 336.67 2970.66 336.297V335.924ZM2979.61 344.133L2975.51 343.014L3002.37 322.864C3004.61 322.864 3006.85 323.61 3006.85 323.61L3007.22 323.984L2980.36 343.76C2979.99 344.133 2979.61 344.133 2979.61 344.133ZM3124.76 345.252L3151.63 325.103V328.461V329.581L3126.25 348.984L3125.88 348.237V345.626C3125.88 345.626 3125.14 345.626 3124.76 345.252ZM2985.21 345.999L3010.58 326.969V331.446L2985.21 350.849V345.999ZM2985.21 361.297V356.446L3010.58 337.417V341.894L2985.21 361.297ZM2985.21 371.745V366.894L3010.58 347.864V352.342L2985.21 371.745ZM2985.21 377.342L3010.58 358.312V362.417L2985.21 381.447V377.342ZM2985.21 387.417L3010.58 368.387V372.864L2985.21 391.894V387.417ZM2985.21 402.342V397.865L3010.58 378.835V383.312L2985.21 402.342ZM2985.21 408.312L3010.58 389.282V393.76L2985.21 412.79V408.312ZM2985.21 418.76L3010.58 399.73V404.208L2985.21 423.238V418.76ZM2985.21 433.686V429.208L3010.58 409.805V414.656L2985.21 433.686ZM2985.21 444.133V439.656L3010.58 420.253V425.103L2985.21 444.133ZM2985.21 450.104L3010.58 430.7V435.551L2985.21 454.581V450.104ZM3069.16 459.805L3095.28 440.029C3095.66 440.402 3096.4 442.641 3096.78 443.76L3070.66 463.163C3069.91 462.044 3069.16 459.805 3069.16 459.805ZM2985.21 465.029V460.551L3010.58 441.148V445.626L2985.21 465.029ZM2985.21 475.477V470.626L3010.58 451.596V456.074L2985.21 475.477ZM3082.22 491.522L3108.34 472.119C3108.34 472.119 3109.46 473.984 3109.84 475.477L3084.09 494.88C3083.34 493.76 3082.22 491.522 3082.22 491.522ZM3087.08 503.089L3085.58 499.357L3111.7 479.954C3112.45 481.447 3113.19 483.313 3113.19 483.313L3087.08 503.089ZM2970.66 502.343L2996.03 483.313V487.79L2970.66 506.82V502.343ZM3090.06 510.925L3088.94 507.566L3115.06 487.79C3115.43 489.283 3116.55 491.148 3116.55 491.148L3090.06 510.925ZM2970.66 517.268V512.79L2995.66 494.134L2996.03 493.76V497.865L2970.66 517.268ZM3092.3 515.402L3118.05 495.999C3118.79 497.119 3119.54 499.357 3119.54 499.357L3093.42 518.761C3093.42 518.387 3092.3 516.149 3092.3 515.402ZM3095.66 523.238L3121.78 503.835C3121.78 503.835 3122.52 506.074 3122.52 507.566L3096.78 526.97C3096.4 526.223 3095.66 523.984 3095.66 523.238ZM2970.66 522.865L2996.03 503.835V508.313L2970.66 527.716V522.865ZM3099.02 531.074L3124.76 512.044C3125.51 513.164 3126.25 515.402 3126.25 515.402L3100.13 534.805C3099.76 534.059 3099.02 531.82 3099.02 531.074ZM2970.66 537.79V533.313L2995.66 514.656C2996.4 515.775 2996.78 517.268 2996.78 518.387C2996.4 518.387 2996.4 518.761 2996.4 518.761L2971.03 537.79H2970.66ZM3102 539.283L3127.75 519.88H3128.12L3130.36 522.119L3103.87 541.895C3103.12 541.522 3102 540.402 3102 539.283ZM2972.9 542.268L2999.02 522.492C2999.76 522.492 3000.51 523.238 3000.88 523.238C3002 523.611 3002.75 523.611 3003.87 523.611L2976.25 544.134C2974.76 544.134 2973.64 543.387 2972.9 542.268ZM2990.06 544.507H2983.72L3011.7 523.611H3017.67L2990.06 544.507ZM2997.9 544.507L3025.51 523.611H3031.48L3003.87 544.507H2997.9ZM3011.7 544.507L3039.31 523.611H3045.28L3017.67 544.507H3011.7ZM3108.34 544.507L3136.33 523.611H3142.3L3114.69 544.507H3108.34ZM3122.52 544.507L3150.14 523.611H3156.11L3128.49 544.507H3122.52ZM3136.33 544.507L3163.94 523.611H3170.28L3142.3 544.507H3136.33ZM3156.48 544.507H3150.14L3175.88 525.104H3176.25V529.581L3156.48 544.507ZM3025.51 544.507L3050.13 525.85V530.328L3031.48 544.507H3025.51ZM3170.28 544.507H3164.31L3176.25 535.552C3176.25 537.044 3176.25 539.656 3175.14 540.776L3170.28 544.507ZM3044.54 544.507H3039.31L3050.13 536.298C3050.13 540.029 3047.9 544.507 3044.54 544.507ZM3355.99 463.163V318.387L3346.29 315.028C3343.68 314.282 3341.81 310.924 3341.81 308.312V272.118C3341.81 269.506 3344.43 264.655 3347.41 264.655H3495.55C3498.53 264.655 3501.14 268.76 3501.14 271.371V331.073C3501.14 333.685 3498.16 337.79 3495.55 337.79H3465.32C3462.71 337.79 3460.47 334.058 3460.1 331.819L3457.49 320.252H3406.74V326.596H3412.34L3406.74 330.7V336.67L3420.17 326.596H3426.14L3406.74 341.148V347.118L3433.98 326.596H3440.32L3412.34 347.491H3406.74V362.043H3429.5L3429.13 361.67L3429.5 361.297L3455.62 341.894C3456.37 342.64 3457.49 343.387 3458.61 344.133L3434.73 362.043H3442.56L3466.07 344.506H3469.43V346.372L3448.53 362.043H3452.64C3453.38 362.043 3454.13 362.79 3455.25 362.79L3469.43 352.342V356.82L3458.23 365.402H3457.11C3457.49 366.148 3458.23 367.641 3458.23 369.133V409.059C3458.23 412.79 3455.25 416.148 3451.52 416.148H3406.74V422.491H3408.98C3408.61 422.865 3407.11 423.984 3406.74 424.357V429.954L3416.82 422.491H3422.79L3406.74 434.805V440.402L3426.52 425.85V430.327L3408.98 443.387H3406.74V461.671H3458.23L3461.22 449.357C3461.59 447.118 3463.83 443.76 3466.82 443.76H3495.92C3498.91 443.76 3501.89 447.865 3501.89 450.85V510.552C3501.89 513.163 3498.91 517.268 3495.92 517.268H3347.79C3344.8 517.268 3341.81 512.79 3341.81 509.805V472.492C3339.95 473.238 3338.08 473.984 3336.96 475.85C3336.59 476.223 3336.59 476.969 3336.22 477.342L3324.65 485.925V481.447L3350.02 462.417V465.402C3350.77 465.029 3354.87 463.91 3355.99 463.163ZM3316.07 291.894H3320.17L3310.1 299.357C3310.1 296.372 3312.71 291.894 3316.07 291.894ZM3310.1 309.804V305.327L3328.01 291.894H3333.98L3310.1 309.804ZM3310.1 315.775L3335.47 296.372V301.222L3310.1 320.252V315.775ZM3310.1 330.7V326.222L3335.1 307.193H3335.47V311.297L3310.1 330.7ZM3310.1 336.297L3335.84 317.267C3336.96 318.387 3337.34 319.133 3338.08 320.252L3311.59 339.655C3311.22 339.655 3310.1 337.043 3310.1 336.297ZM3319.8 344.133L3315.7 342.64L3342.56 322.491H3342.93L3347.04 323.61L3319.8 344.133ZM3420.17 347.491L3448.16 326.596H3451.14C3451.52 326.969 3451.52 327.715 3451.52 328.461L3426.14 347.491H3425.77H3420.17ZM3324.65 351.223V346.372L3350.02 327.342V331.819L3324.65 351.223ZM3427.64 356.82L3426.89 352.715L3452.64 333.685L3453.01 333.312L3453.76 337.417L3427.64 356.82ZM3324.65 356.82L3350.02 337.79V341.894L3324.65 360.924V356.82ZM3324.65 366.894L3350.02 347.864V352.342L3324.65 371.372V366.894ZM3324.65 381.82V377.342L3350.02 358.312V362.79L3324.65 381.82ZM3324.65 392.267V387.79L3350.02 368.76V373.238L3324.65 392.267ZM3324.65 398.238L3350.02 379.208V383.685L3324.65 402.715V398.238ZM3324.65 413.163V408.685L3350.02 389.656V394.133L3324.65 413.163ZM3324.65 423.611V419.133L3350.02 400.103V404.581L3324.65 423.611ZM3324.65 429.581L3350.02 410.178V415.029L3324.65 434.059V429.581ZM3324.65 440.029L3350.02 420.626V425.477L3324.65 444.507V440.029ZM3324.65 454.954V450.477L3350.02 431.074V435.924L3324.65 454.954ZM3420.92 443.387H3416.82L3426.52 436.298C3426.52 439.283 3424.28 443.387 3420.92 443.387ZM3324.65 460.924L3350.02 441.521V445.999L3324.65 465.402V460.924ZM3324.65 470.999L3350.02 451.969V456.447L3324.65 475.85V470.999ZM3310.1 502.343L3335.47 483.313V487.79L3310.1 507.193V502.343ZM3310.1 512.79L3335.47 493.76V498.238L3310.1 517.641V512.79ZM3310.1 528.089V523.238L3335.47 504.208V508.686L3310.1 528.089ZM3310.1 533.686L3335.47 514.656C3335.85 516.149 3336.22 517.268 3336.22 518.761L3335.84 519.134L3310.47 537.79L3310.1 538.164V533.686ZM3312.34 542.641L3338.83 522.865C3340.7 523.611 3341.81 523.611 3343.68 523.611L3316.07 544.507C3314.58 544.507 3313.08 543.387 3312.34 542.641ZM3323.9 544.507L3351.52 523.611H3357.49L3329.87 544.507H3323.9ZM3343.68 544.507H3337.71L3365.32 523.611H3371.29L3343.68 544.507ZM3357.49 544.507H3351.52L3378.76 523.984C3379.13 523.611 3379.5 523.611 3379.5 523.611H3385.47L3357.49 544.507ZM3365.32 544.507L3393.31 523.611H3399.28L3372.04 544.134C3371.67 544.507 3371.67 544.507 3371.29 544.507H3365.32ZM3379.5 544.507L3407.11 523.611H3413.08L3385.47 544.507H3379.5ZM3399.28 544.507H3393.31L3420.92 523.611H3427.26L3399.28 544.507ZM3407.11 544.507L3435.1 523.611H3440.32L3412.71 544.507H3407.11ZM3426.52 544.507H3420.55L3448.16 523.611H3454.5L3426.52 544.507ZM3434.35 544.507L3462.34 523.611H3468.31L3440.7 544.507H3434.35ZM3448.53 544.507L3470.17 528.089V532.567L3454.5 544.507H3448.53ZM3462.34 544.507L3470.17 538.91C3470.17 541.895 3466.44 544.507 3463.46 544.507H3462.34Z" fill="white"/>
<path d="M1187.78 633.1L1212.85 631.757H1232.55L1243.3 632.205L1260.31 633.996C1305.98 638.473 1315.84 680.563 1315.84 719.07C1315.84 723.995 1316.28 736.085 1308.67 736.085H1263.45C1256.73 736.085 1255.84 728.025 1255.84 722.652L1255.39 705.637C1254.94 695.787 1241.06 695.339 1234.34 695.339H1211.95C1206.58 695.339 1201.21 696.234 1195.84 697.578C1184.19 699.369 1182.4 702.951 1181.95 714.145L1195.39 703.846C1197.18 702.951 1201.21 702.951 1203 702.951L1181.51 719.07V726.234L1212.4 702.951H1219.57L1186.43 728.025H1181.51C1181.51 743.697 1187.78 745.936 1202.1 747.279L1216.43 748.622H1217.78V748.175L1248.22 725.339C1248.67 726.682 1248.22 728.473 1248.22 728.921V730.712L1224.49 748.622L1224.04 749.07L1232.1 749.966L1249.12 736.981C1249.57 737.428 1250.01 738.772 1250.01 739.219C1250.01 739.667 1250.91 740.563 1250.91 741.01L1238.82 750.413H1239.72C1239.72 750.413 1244.64 750.861 1247.33 750.861L1257.18 743.697H1264.34L1253.6 751.757L1260.76 752.652H1261.66L1273.75 743.697H1278.22V745.488L1267.03 753.995L1273.75 755.339C1275.54 755.339 1276.43 753.1 1278.22 752.652V756.682H1278.67C1318.52 769.667 1320.31 803.697 1320.31 839.518C1320.31 932.652 1282.25 934.891 1203 934.891L1179.27 933.099C1141.21 930.413 1121.96 896.831 1121.06 861.458L1120.61 840.413V838.174C1120.61 831.906 1121.06 826.085 1127.33 823.846H1133.15L1151.06 810.861C1152.4 810.861 1154.19 811.756 1155.54 812.652L1140.31 823.846H1149.72L1162.25 814.891L1167.63 816.234L1156.88 823.846H1166.28L1175.24 817.13L1181.06 818.025L1173.45 823.846C1175.69 824.294 1177.03 825.189 1178.82 826.98L1189.12 819.368V818.921L1195.39 819.816L1180.61 831.01C1180.16 831.906 1180.16 832.353 1180.16 832.353C1180.16 833.249 1180.61 836.831 1180.61 837.727L1203.9 820.712L1204.34 820.264C1206.13 820.264 1208.37 820.712 1210.16 820.712L1180.61 843.1V845.786C1180.61 862.353 1180.61 868.622 1199.87 870.413C1207.03 871.309 1213.75 871.309 1220.91 871.309H1223.15V867.279L1253.15 844.891C1253.6 845.786 1253.6 847.13 1253.6 848.473V849.816L1224.94 871.309H1228.07H1231.21H1234.34L1253.15 857.428V858.324C1253.15 859.219 1253.15 861.906 1252.7 862.353L1242.85 870.413C1245.54 870.413 1247.78 869.07 1250.01 868.622C1261.21 864.592 1260.31 852.95 1260.76 843.1C1260.76 837.727 1260.31 832.801 1259.87 827.428C1258.07 816.682 1249.12 814.443 1239.72 813.995L1216.43 813.1L1192.25 811.309L1173.9 808.174C1139.87 803.249 1123.75 770.115 1122.4 738.772L1121.96 721.309C1121.96 675.19 1135.39 636.234 1187.78 633.1ZM1123.3 676.981L1095.09 698.025C1095.09 696.682 1100.01 689.966 1101.81 687.727L1122.4 672.055C1122.85 671.608 1126.43 670.264 1126.88 670.264L1123.3 676.981ZM1090.16 708.772L1119.72 686.831V687.279C1119.72 687.279 1118.37 691.309 1117.93 693.548L1088.37 715.488V714.145C1088.82 713.249 1089.72 709.667 1090.16 708.772ZM1086.58 723.548L1116.58 701.16L1115.69 707.428L1085.69 729.816L1086.58 723.995V723.548ZM1195.84 727.578L1228.52 703.399V702.951C1231.21 702.951 1232.55 702.951 1235.24 703.846L1202.55 728.025H1200.76C1200.76 728.025 1196.73 728.025 1195.84 727.578ZM1210.16 729.369L1241.95 705.637C1243.3 705.637 1245.09 706.981 1245.98 707.876L1215.09 731.16C1212.85 730.264 1211.51 729.816 1210.16 729.369ZM1217.33 736.085L1248.22 713.249V717.727V718.622L1217.78 741.01C1217.78 739.667 1217.33 737.876 1217.33 736.085ZM1084.79 741.906V737.428L1114.79 714.593V715.936C1114.79 717.279 1115.69 719.518 1114.34 720.413L1084.79 742.801V741.906ZM1084.34 749.966L1114.34 727.578H1114.79V732.503L1084.79 754.891L1084.34 755.339V749.966ZM1084.79 762.055L1114.79 739.667C1115.24 741.01 1115.24 742.354 1115.24 743.697V744.592L1085.24 766.98C1084.79 766.533 1084.34 763.398 1084.34 762.503C1084.34 762.055 1084.34 762.055 1084.79 762.055ZM1085.69 773.697L1115.69 751.309C1116.13 753.1 1116.58 756.234 1116.58 756.234L1085.69 779.07C1085.69 778.174 1085.24 775.04 1085.24 774.145L1085.69 773.697ZM1087.03 784.891L1117.48 762.503L1117.93 766.085L1118.37 766.533C1118.37 766.533 1117.93 766.533 1117.93 766.98L1087.48 789.368C1087.48 788.473 1087.03 786.234 1087.03 784.891ZM1088.82 795.189H1089.27L1119.72 772.354L1121.06 776.831L1090.16 799.667C1090.16 799.219 1089.72 798.324 1089.72 797.876C1089.27 797.428 1088.82 795.189 1088.82 795.189ZM1092.4 805.04L1122.85 782.204H1123.3L1125.09 785.786L1094.19 809.07C1093.75 808.174 1092.85 806.831 1092.4 805.04ZM1096.88 813.995L1127.78 791.16L1128.22 790.712V791.16L1130.46 794.294L1099.12 817.577C1099.12 817.577 1097.78 815.339 1096.88 813.995ZM1102.7 822.055L1134.04 798.771L1137.18 801.906L1105.39 825.189C1105.39 825.189 1104.04 823.398 1102.7 822.055ZM1110.31 828.771L1141.66 805.488L1145.69 807.727L1114.34 831.458C1113 831.01 1110.76 829.667 1110.31 828.771ZM1186.88 845.786L1219.12 821.159H1219.57H1220.46H1223.15H1226.28L1193.6 845.786C1193.15 846.234 1193.6 845.786 1193.15 845.786H1186.88ZM1207.93 847.13L1202.1 846.234L1234.79 822.055C1236.13 822.055 1238.82 822.503 1240.16 822.95L1207.93 847.13ZM1214.64 848.921L1246.43 825.189C1248.22 825.189 1250.01 827.876 1250.01 827.876L1219.12 851.159C1217.78 850.264 1215.09 849.368 1214.64 848.921ZM1221.36 856.085L1251.81 833.249H1252.25C1253.15 834.144 1252.7 836.383 1252.7 837.727V838.174L1222.25 861.01C1222.25 859.219 1221.81 857.876 1221.36 856.085ZM1084.34 860.562L1090.16 856.085H1097.33L1083 866.831C1083 865.488 1083.45 861.01 1084.34 860.562ZM1083 873.995L1106.73 856.085H1113.45V856.532L1083 879.368V873.995ZM1083 886.085L1113.45 863.249C1113.45 864.144 1113.9 866.831 1113.9 868.622L1083.45 891.458C1083 889.667 1083 888.323 1083 886.085ZM1083.9 897.726L1114.34 875.338C1114.34 875.338 1114.79 878.473 1114.79 880.264L1084.34 902.652C1084.34 902.652 1083.9 899.965 1083.9 897.726ZM1085.24 908.92L1115.69 886.085C1116.13 887.876 1117.03 890.562 1117.03 891.01L1086.13 913.846L1085.24 909.368V908.92ZM1088.82 924.144L1087.48 919.667L1117.93 896.831H1118.37L1119.72 900.861L1088.82 924.144ZM1092.85 933.099L1091.06 929.517L1121.96 906.234C1122.4 906.234 1122.4 906.234 1122.4 906.682L1124.19 909.816L1092.85 933.099ZM1095.99 937.577L1126.88 914.741L1129.12 917.876V918.323L1098.22 941.607L1095.99 938.025V937.577ZM1101.36 946.085L1132.7 922.801L1133.15 922.353L1136.28 925.488L1104.49 949.219L1102.7 947.428C1102.7 946.98 1101.81 946.085 1101.36 946.085ZM1108.97 952.801L1140.31 929.517L1140.76 929.07L1144.34 931.756L1112.55 955.487C1112.55 955.487 1111.21 954.144 1110.31 953.696C1110.31 953.696 1108.97 953.249 1108.97 952.801ZM1118.37 958.174L1149.72 934.443H1150.16L1154.64 936.234L1122.85 959.965L1122.4 960.413C1121.51 960.413 1118.82 959.07 1118.37 958.174ZM1224.49 965.338H1224.04L1257.63 940.264C1258.07 939.816 1262.55 938.92 1263.45 938.92C1263.9 938.473 1267.48 937.577 1268.37 937.577L1233.45 963.547C1233 963.995 1225.39 965.338 1224.49 965.338ZM1129.12 962.652L1161.36 938.473L1166.73 939.816L1134.04 963.995C1132.7 963.995 1130.46 963.547 1129.12 962.652ZM1142.1 965.338H1141.66L1173.9 941.159C1174.34 940.711 1174.34 941.159 1174.79 941.159C1176.58 941.159 1178.82 941.159 1180.61 941.607L1147.93 965.786C1145.69 965.786 1142.55 965.338 1142.1 965.338ZM1205.24 967.129L1238.37 942.502C1239.27 941.607 1245.09 941.607 1246.43 941.607L1213.3 966.234C1213.3 966.682 1208.82 966.681 1205.24 967.129ZM1156.88 966.681H1156.43L1189.12 942.055H1190.01C1191.81 942.055 1194.04 942.055 1195.84 942.502L1163.15 967.129H1162.25C1161.36 967.129 1157.33 966.681 1156.88 966.681ZM1188.22 967.577L1220.91 942.95H1221.36C1221.36 942.502 1225.39 942.502 1228.52 942.502L1195.39 967.577H1188.22ZM1172.1 967.129L1204.79 942.95H1211.95L1178.82 967.577H1177.03C1175.24 967.577 1173.9 967.577 1172.1 967.129ZM1541.37 818.921L1483.61 697.13L1469.73 693.1C1466.15 691.757 1463.46 687.727 1463.46 684.145V640.264C1463.46 637.13 1466.6 631.757 1470.18 631.757H1556.6C1560.18 631.757 1563.76 637.13 1563.76 640.712V664.891H1565.55C1565.1 665.339 1563.76 666.234 1563.76 666.234V673.399L1573.61 665.787V671.16L1563.76 678.772C1563.76 681.458 1563.31 683.697 1563.76 685.936L1573.61 678.324V683.697L1552.57 699.369C1553.46 701.607 1553.91 703.399 1554.8 704.742L1573.61 690.861C1574.06 692.652 1574.06 693.996 1574.51 695.787L1557.04 708.772C1557.04 709.667 1558.39 712.801 1559.73 714.145L1578.54 699.816L1583.46 701.607L1561.07 718.175L1563.31 723.548H1563.76L1584.8 707.876L1580.77 715.936L1565.55 727.578C1566 729.369 1566.89 731.16 1568.24 732.503C1569.58 731.607 1574.95 727.578 1575.85 727.578C1574.95 728.473 1572.72 733.846 1572.27 734.742C1571.37 735.637 1569.58 736.085 1569.58 737.428L1572.27 742.801L1594.21 695.339C1592.86 694.443 1587.49 692.652 1586.6 692.652C1582.57 691.309 1581.22 687.727 1581.22 683.697V641.608C1581.22 637.578 1583.91 632.205 1588.39 632.205H1674.36C1677.94 632.205 1681.07 636.682 1681.07 640.264V685.04C1681.07 688.622 1678.39 691.757 1675.25 693.1L1661.82 697.13L1602.72 818.921V869.965C1608.09 872.204 1619.73 873.995 1619.73 882.055V925.935C1619.73 929.965 1616.6 934.891 1612.12 934.891H1531.52C1527.04 934.891 1523.91 929.517 1523.91 925.935V882.503C1523.91 882.503 1523.91 881.607 1524.36 881.159C1521.67 882.055 1519.43 883.846 1518.09 886.085C1517.64 886.532 1517.19 888.323 1516.75 888.771L1503.76 898.622V893.249L1534.21 869.965V872.204C1536.89 871.309 1539.13 870.861 1541.37 869.965V818.921ZM1426.3 669.369C1426.3 667.13 1430.78 664.443 1433.01 664.443V664.891C1432.57 664.891 1428.54 668.025 1426.3 669.369ZM1425.4 682.802V677.428L1442.86 664.443H1450.03L1425.4 682.802ZM1425.4 689.966L1456.3 667.13V672.503L1425.4 695.339V689.966ZM1425.4 707.876V702.503L1455.4 679.667H1456.3V685.04L1425.4 707.876ZM1425.4 715.04L1456.3 691.757C1456.3 693.1 1457.64 695.787 1457.64 696.234L1425.85 719.966C1425.4 719.966 1425.4 716.384 1425.4 715.936V715.04ZM1550.33 694.891C1550.33 695.339 1552.12 699.369 1552.57 699.369C1553.91 699.369 1555.7 694.891 1555.7 693.1L1550.78 694.891H1550.33ZM1429.43 724.443L1461.22 700.712L1461.67 700.264L1466.15 702.055L1433.46 726.234C1433.01 726.234 1429.43 724.891 1429.43 724.443ZM1440.63 728.473H1440.18L1472.86 703.846C1474.21 704.294 1476 704.742 1476 704.742L1476.89 706.085C1476.89 706.533 1476.45 706.533 1476.45 706.533L1445.55 729.816C1443.76 729.369 1440.63 728.473 1440.63 728.473ZM1449.58 738.772L1447.79 735.189L1479.13 711.458C1479.58 711.458 1479.58 711.906 1479.58 711.906L1481.37 715.488L1450.03 738.772H1449.58ZM1452.72 744.145L1483.61 720.861C1483.61 720.861 1484.95 722.652 1485.4 723.548V724.891L1454.06 748.175L1452.27 744.592C1452.27 744.145 1452.72 744.145 1452.72 744.145ZM1456.75 753.548L1488.09 729.816L1489.88 733.846L1458.98 757.578C1458.09 756.682 1457.19 754.443 1456.75 753.548ZM1461.67 762.503L1492.57 739.219L1494.36 742.801C1494.36 743.249 1494.36 743.249 1493.91 743.249L1463.01 766.98L1461.22 762.951C1461.22 762.503 1461.67 762.503 1461.67 762.503ZM1467.49 775.936L1465.7 771.906L1497.04 748.622C1497.04 748.622 1497.94 750.861 1498.83 752.204L1467.49 775.936ZM1470.18 780.861L1501.52 757.578L1502.86 760.264C1502.86 760.712 1503.31 761.607 1503.31 761.607L1471.52 784.891C1471.52 784.891 1470.63 782.652 1470.18 780.861ZM1476 794.294L1474.21 790.264L1505.55 766.98L1507.79 770.563C1507.79 771.01 1507.34 771.01 1507.34 771.01L1476 794.294ZM1480.48 803.249L1478.69 799.667L1509.58 776.383L1510.03 775.936L1510.48 776.383L1512.27 779.966L1480.92 803.249L1480.48 803.697V803.249ZM1483.16 809.07C1483.16 808.622 1483.61 808.622 1483.61 808.622L1514.51 785.339L1516.3 788.921V789.368L1484.95 812.652C1484.95 811.309 1484.06 809.965 1483.16 809.07ZM1489.43 821.607L1487.64 818.025L1518.98 794.294L1520.78 798.324L1489.88 821.607L1489.43 822.055V821.607ZM1493.91 831.01L1491.67 827.428L1523.46 803.697L1525.25 807.279L1524.8 807.727L1493.91 831.01ZM1497.94 839.965L1496.15 836.383L1527.49 812.652C1527.94 812.652 1528.83 814.891 1529.28 816.682L1497.94 839.965ZM1501.07 844.891L1531.97 822.055C1531.97 822.055 1532.86 823.846 1533.31 824.294C1533.31 824.742 1533.76 826.085 1533.76 826.085L1502.42 849.368C1502.42 849.368 1501.52 847.13 1501.07 844.891ZM1503.76 861.01V855.637L1534.21 832.801V838.174L1503.76 861.01ZM1503.76 873.547V868.174L1534.21 844.891V850.712L1503.76 873.547ZM1503.76 880.712L1534.21 857.428V863.249L1503.76 886.085V880.712ZM1485.85 924.144V918.771L1516.75 895.935V901.309L1485.85 924.144ZM1493.91 905.786L1487.64 910.264C1488.98 908.92 1492.12 905.786 1493.46 905.786H1493.91ZM1485.85 931.308L1516.75 908.473V913.846L1485.85 936.682V931.308ZM1485.85 949.219V943.846L1516.75 921.01V926.383L1485.85 949.219ZM1485.85 956.383H1486.3L1516.75 933.547C1516.75 933.547 1517.64 937.577 1517.64 938.025L1486.3 961.308C1485.85 960.413 1485.85 958.622 1485.85 957.279V956.383ZM1489.88 965.786L1522.12 942.055C1523.91 942.502 1526.15 942.502 1528.39 942.502L1494.81 967.577C1492.57 967.577 1491.22 967.129 1489.88 965.786ZM1504.66 967.577L1537.79 942.502H1544.51L1510.92 967.577H1504.66ZM1520.78 967.577L1553.91 942.502H1561.07L1527.94 967.577H1520.78ZM1544.51 967.577H1537.34L1570.48 942.502H1577.64L1544.51 967.577ZM1561.07 967.577H1553.91L1581.22 946.98H1581.67V952.353L1561.07 967.577ZM1574.95 967.577H1570.48L1581.67 959.517C1581.67 962.652 1578.54 967.577 1574.95 967.577ZM1890.94 633.1L1916.01 631.757H1935.71L1946.46 632.205L1963.48 633.996C2009.15 638.473 2019 680.563 2019 719.07C2019 723.995 2019.45 736.085 2011.83 736.085H1966.61C1959.89 736.085 1959 728.025 1959 722.652L1958.55 705.637C1958.1 695.787 1944.22 695.339 1937.51 695.339H1915.12C1909.74 695.339 1904.37 696.234 1899 697.578C1887.36 699.369 1885.57 702.951 1885.12 714.145L1898.55 703.846C1900.34 702.951 1904.37 702.951 1906.16 702.951L1884.67 719.07V726.234L1915.57 702.951H1922.73L1889.6 728.025H1884.67C1884.67 743.697 1890.94 745.936 1905.27 747.279L1919.6 748.622H1920.94V748.175L1951.39 725.339C1951.83 726.682 1951.39 728.473 1951.39 728.921V730.712L1927.65 748.622L1927.21 749.07L1935.27 749.966L1952.28 736.981C1952.73 737.428 1953.18 738.772 1953.18 739.219C1953.18 739.667 1954.07 740.563 1954.07 741.01L1941.98 750.413H1942.88C1942.88 750.413 1947.8 750.861 1950.49 750.861L1960.34 743.697H1967.51L1956.76 751.757L1963.92 752.652H1964.82L1976.91 743.697H1981.39V745.488L1970.19 753.995L1976.91 755.339C1978.7 755.339 1979.59 753.1 1981.39 752.652V756.682H1981.83C2021.68 769.667 2023.48 803.697 2023.48 839.518C2023.48 932.652 1985.42 934.891 1906.16 934.891L1882.43 933.099C1844.37 930.413 1825.12 896.831 1824.22 861.458L1823.77 840.413V838.174C1823.77 831.906 1824.22 826.085 1830.49 823.846H1836.31L1854.22 810.861C1855.57 810.861 1857.36 811.756 1858.7 812.652L1843.48 823.846H1852.88L1865.42 814.891L1870.79 816.234L1860.04 823.846H1869.45L1878.4 817.13L1884.22 818.025L1876.61 823.846C1878.85 824.294 1880.19 825.189 1881.98 826.98L1892.28 819.368V818.921L1898.55 819.816L1883.77 831.01C1883.33 831.906 1883.33 832.353 1883.33 832.353C1883.33 833.249 1883.77 836.831 1883.77 837.727L1907.06 820.712L1907.51 820.264C1909.3 820.264 1911.54 820.712 1913.33 820.712L1883.77 843.1V845.786C1883.77 862.353 1883.77 868.622 1903.03 870.413C1910.19 871.309 1916.91 871.309 1924.07 871.309H1926.31V867.279L1956.31 844.891C1956.76 845.786 1956.76 847.13 1956.76 848.473V849.816L1928.1 871.309H1931.24H1934.37H1937.51L1956.31 857.428V858.324C1956.31 859.219 1956.31 861.906 1955.86 862.353L1946.01 870.413C1948.7 870.413 1950.94 869.07 1953.18 868.622C1964.37 864.592 1963.48 852.95 1963.92 843.1C1963.92 837.727 1963.48 832.801 1963.03 827.428C1961.24 816.682 1952.28 814.443 1942.88 813.995L1919.6 813.1L1895.42 811.309L1877.06 808.174C1843.03 803.249 1826.91 770.115 1825.57 738.772L1825.12 721.309C1825.12 675.19 1838.55 636.234 1890.94 633.1ZM1826.46 676.981L1798.25 698.025C1798.25 696.682 1803.18 689.966 1804.97 687.727L1825.57 672.055C1826.01 671.608 1829.6 670.264 1830.04 670.264L1826.46 676.981ZM1793.33 708.772L1822.88 686.831V687.279C1822.88 687.279 1821.54 691.309 1821.09 693.548L1791.54 715.488V714.145C1791.98 713.249 1792.88 709.667 1793.33 708.772ZM1789.74 723.548L1819.74 701.16L1818.85 707.428L1788.85 729.816L1789.74 723.995V723.548ZM1899 727.578L1931.68 703.399V702.951C1934.37 702.951 1935.71 702.951 1938.4 703.846L1905.71 728.025H1903.92C1903.92 728.025 1899.89 728.025 1899 727.578ZM1913.33 729.369L1945.12 705.637C1946.46 705.637 1948.25 706.981 1949.15 707.876L1918.25 731.16C1916.01 730.264 1914.67 729.816 1913.33 729.369ZM1920.49 736.085L1951.39 713.249V717.727V718.622L1920.94 741.01C1920.94 739.667 1920.49 737.876 1920.49 736.085ZM1787.95 741.906V737.428L1817.95 714.593V715.936C1817.95 717.279 1818.85 719.518 1817.51 720.413L1787.95 742.801V741.906ZM1787.51 749.966L1817.51 727.578H1817.95V732.503L1787.95 754.891L1787.51 755.339V749.966ZM1787.95 762.055L1817.95 739.667C1818.4 741.01 1818.4 742.354 1818.4 743.697V744.592L1788.4 766.98C1787.95 766.533 1787.51 763.398 1787.51 762.503C1787.51 762.055 1787.51 762.055 1787.95 762.055ZM1788.85 773.697L1818.85 751.309C1819.3 753.1 1819.74 756.234 1819.74 756.234L1788.85 779.07C1788.85 778.174 1788.4 775.04 1788.4 774.145L1788.85 773.697ZM1790.19 784.891L1820.64 762.503L1821.09 766.085L1821.54 766.533C1821.54 766.533 1821.09 766.533 1821.09 766.98L1790.64 789.368C1790.64 788.473 1790.19 786.234 1790.19 784.891ZM1791.98 795.189H1792.43L1822.88 772.354L1824.22 776.831L1793.33 799.667C1793.33 799.219 1792.88 798.324 1792.88 797.876C1792.43 797.428 1791.98 795.189 1791.98 795.189ZM1795.57 805.04L1826.01 782.204H1826.46L1828.25 785.786L1797.36 809.07C1796.91 808.174 1796.01 806.831 1795.57 805.04ZM1800.04 813.995L1830.94 791.16L1831.39 790.712V791.16L1833.63 794.294L1802.28 817.577C1802.28 817.577 1800.94 815.339 1800.04 813.995ZM1805.86 822.055L1837.21 798.771L1840.34 801.906L1808.55 825.189C1808.55 825.189 1807.21 823.398 1805.86 822.055ZM1813.48 828.771L1844.82 805.488L1848.85 807.727L1817.51 831.458C1816.16 831.01 1813.92 829.667 1813.48 828.771ZM1890.04 845.786L1922.28 821.159H1922.73H1923.62H1926.31H1929.45L1896.76 845.786C1896.31 846.234 1896.76 845.786 1896.31 845.786H1890.04ZM1911.09 847.13L1905.27 846.234L1937.95 822.055C1939.3 822.055 1941.98 822.503 1943.33 822.95L1911.09 847.13ZM1917.8 848.921L1949.6 825.189C1951.39 825.189 1953.18 827.876 1953.18 827.876L1922.28 851.159C1920.94 850.264 1918.25 849.368 1917.8 848.921ZM1924.52 856.085L1954.97 833.249H1955.42C1956.31 834.144 1955.86 836.383 1955.86 837.727V838.174L1925.42 861.01C1925.42 859.219 1924.97 857.876 1924.52 856.085ZM1787.51 860.562L1793.33 856.085H1800.49L1786.16 866.831C1786.16 865.488 1786.61 861.01 1787.51 860.562ZM1786.16 873.995L1809.89 856.085H1816.61V856.532L1786.16 879.368V873.995ZM1786.16 886.085L1816.61 863.249C1816.61 864.144 1817.06 866.831 1817.06 868.622L1786.61 891.458C1786.16 889.667 1786.16 888.323 1786.16 886.085ZM1787.06 897.726L1817.51 875.338C1817.51 875.338 1817.95 878.473 1817.95 880.264L1787.51 902.652C1787.51 902.652 1787.06 899.965 1787.06 897.726ZM1788.4 908.92L1818.85 886.085C1819.3 887.876 1820.19 890.562 1820.19 891.01L1789.3 913.846L1788.4 909.368V908.92ZM1791.98 924.144L1790.64 919.667L1821.09 896.831H1821.54L1822.88 900.861L1791.98 924.144ZM1796.01 933.099L1794.22 929.517L1825.12 906.234C1825.57 906.234 1825.57 906.234 1825.57 906.682L1827.36 909.816L1796.01 933.099ZM1799.15 937.577L1830.04 914.741L1832.28 917.876V918.323L1801.39 941.607L1799.15 938.025V937.577ZM1804.52 946.085L1835.86 922.801L1836.31 922.353L1839.45 925.488L1807.66 949.219L1805.86 947.428C1805.86 946.98 1804.97 946.085 1804.52 946.085ZM1812.13 952.801L1843.48 929.517L1843.92 929.07L1847.51 931.756L1815.71 955.487C1815.71 955.487 1814.37 954.144 1813.48 953.696C1813.48 953.696 1812.13 953.249 1812.13 952.801ZM1821.54 958.174L1852.88 934.443H1853.33L1857.8 936.234L1826.01 959.965L1825.57 960.413C1824.67 960.413 1821.98 959.07 1821.54 958.174ZM1927.65 965.338H1927.21L1960.79 940.264C1961.24 939.816 1965.71 938.92 1966.61 938.92C1967.06 938.473 1970.64 937.577 1971.54 937.577L1936.61 963.547C1936.16 963.995 1928.55 965.338 1927.65 965.338ZM1832.28 962.652L1864.52 938.473L1869.89 939.816L1837.21 963.995C1835.86 963.995 1833.63 963.547 1832.28 962.652ZM1845.27 965.338H1844.82L1877.06 941.159C1877.51 940.711 1877.51 941.159 1877.95 941.159C1879.74 941.159 1881.98 941.159 1883.77 941.607L1851.09 965.786C1848.85 965.786 1845.71 965.338 1845.27 965.338ZM1908.4 967.129L1941.54 942.502C1942.43 941.607 1948.25 941.607 1949.6 941.607L1916.46 966.234C1916.46 966.682 1911.98 966.681 1908.4 967.129ZM1860.04 966.681H1859.6L1892.28 942.055H1893.18C1894.97 942.055 1897.21 942.055 1899 942.502L1866.31 967.129H1865.42C1864.52 967.129 1860.49 966.681 1860.04 966.681ZM1891.39 967.577L1924.07 942.95H1924.52C1924.52 942.502 1928.55 942.502 1931.68 942.502L1898.55 967.577H1891.39ZM1875.27 967.129L1907.95 942.95H1915.12L1881.98 967.577H1880.19C1878.4 967.577 1877.06 967.577 1875.27 967.129ZM2208.71 719.518H2173.34C2170.21 719.518 2166.62 714.145 2166.62 711.01V640.712C2166.62 637.578 2170.21 631.757 2173.79 631.757H2354.68C2358.27 631.757 2361.85 637.13 2361.85 640.264V711.458C2361.85 714.593 2358.71 719.518 2355.13 719.518H2319.31C2315.73 719.518 2312.59 715.04 2312.15 711.906L2309.46 698.473H2294.68V706.085H2297.37C2296.92 706.533 2295.58 707.428 2294.68 708.324V715.04C2296.03 714.145 2301.4 710.115 2302.74 709.667L2303.64 713.249C2303.64 714.145 2303.64 714.145 2303.19 714.145L2294.68 720.413V727.578L2304.98 719.966C2304.98 720.861 2306.77 723.548 2306.77 723.995L2306.33 724.443L2294.68 732.951V740.115L2311.7 727.578H2318.86L2294.68 745.488V869.965L2305.88 873.995C2309.01 874.891 2311.7 878.473 2311.7 882.055V926.383C2311.7 929.965 2308.56 934.891 2304.53 934.891H2223.94C2219.46 934.891 2216.77 929.965 2216.77 925.935V882.503C2216.77 881.159 2217.67 879.368 2217.67 878.025L2196.18 894.144H2195.73V889.219L2226.62 866.383V871.309C2226.62 872.204 2224.39 872.652 2223.94 873.547L2233.79 869.965V698.473H2219.01L2216.33 711.458H2216.77C2217.67 710.563 2222.59 706.981 2223.94 706.085H2226.62V709.667L2206.92 723.995C2207.82 722.652 2208.71 721.309 2208.71 719.518ZM2136.62 664.443L2129.91 669.369C2129.91 667.13 2134.39 664.443 2136.62 664.443ZM2128.56 677.428L2146.03 664.443H2153.19L2128.56 682.802V677.428ZM2128.56 689.966L2159.01 667.13V672.503L2128.56 695.339V689.966ZM2128.56 702.503L2159.01 679.667V685.04L2128.56 707.876V702.503ZM2128.56 720.413V715.04L2159.01 692.205V697.578L2128.56 720.413ZM2128.56 727.578L2159.01 704.742V710.115L2128.56 732.951V727.578ZM2216.33 711.906C2216.77 711.906 2216.77 711.458 2216.33 711.458V711.906ZM2195.73 739.667L2226.62 716.831V721.757L2196.18 744.145C2196.18 744.145 2196.18 744.592 2195.73 744.592V739.667ZM2128.56 740.115L2159.01 717.279C2159.46 718.622 2159.91 720.413 2159.91 721.757L2129.01 745.04C2128.56 745.04 2128.56 744.592 2128.56 744.145V740.115ZM2131.7 750.413V749.966L2163.49 726.682V726.234C2163.94 726.234 2165.28 727.13 2165.73 727.13C2166.62 727.578 2168.42 727.578 2169.31 727.578L2135.73 752.652C2134.39 752.652 2132.59 751.309 2131.7 750.413ZM2195.73 727.13H2202H2203.34L2195.73 732.503V731.16H2190.36L2195.73 727.13ZM2152.74 752.652H2145.58L2178.71 727.578H2185.88L2152.74 752.652ZM2195.73 757.13V751.757L2226.62 728.473V734.294L2195.73 757.13ZM2302.3 752.652H2295.13L2323.79 730.712V736.085L2302.3 752.652ZM2169.31 752.652H2162.15L2179.16 739.667V740.115C2179.16 741.01 2178.27 745.936 2177.82 745.936L2169.31 752.652ZM2195.73 764.294L2226.62 741.01V746.831L2195.73 769.667V764.294ZM2316.62 752.652H2311.7L2323.79 743.249C2323.79 746.831 2320.65 752.652 2316.62 752.652ZM2195.73 776.831L2226.62 753.548V759.369L2196.18 781.757C2196.18 781.757 2196.18 782.204 2195.73 782.204V776.831ZM2195.73 794.742V789.368L2226.62 766.085V771.458L2195.73 794.742ZM2195.73 807.279V801.458L2226.62 778.622V783.995L2195.73 807.279ZM2195.73 813.995L2226.62 791.16V796.533L2196.18 819.368H2195.73V813.995ZM2195.73 832.353V826.533L2226.62 803.697V809.07L2195.73 832.353ZM2195.73 844.443V839.07L2226.62 816.234V821.607L2195.73 844.443ZM2195.73 851.607L2226.62 828.771V834.144L2195.73 856.98V851.607ZM2195.73 864.144L2226.62 841.309V846.682L2195.73 869.518V864.144ZM2195.73 882.055V876.682L2226.62 853.846V859.219L2195.73 882.055ZM2195.73 903.1V901.309L2209.16 891.458V896.831L2178.71 919.667V914.741V914.294L2192.15 904.443L2195.73 903.1ZM2178.71 932.204V926.831L2209.16 903.995V909.368L2178.71 932.204ZM2178.71 939.368L2209.16 916.532V921.905L2178.71 944.741V939.368ZM2178.71 951.905L2208.71 929.07H2209.16V934.443L2178.71 957.279V951.905ZM2179.61 963.547L2210.95 939.816H2211.4C2212.74 941.159 2213.64 941.607 2215.43 942.055L2182.74 966.681C2182.3 966.681 2179.61 963.995 2179.61 963.547ZM2191.25 967.577L2224.39 942.502H2231.55L2198.42 967.577H2191.25ZM2207.82 967.577L2240.95 942.502H2248.56L2214.98 967.577H2207.82ZM2231.55 967.577H2224.39L2257.97 942.502H2265.13L2231.55 967.577ZM2248.56 967.577H2241.4L2273.64 942.95V948.323L2248.56 967.577ZM2265.13 967.577H2257.97L2274.09 955.487C2274.09 955.935 2273.64 960.861 2273.19 961.308L2265.13 967.577ZM2522.01 869.965V696.234L2510.37 692.205C2507.24 691.309 2505 687.279 2505 684.145V640.712C2505 637.578 2508.13 631.757 2511.71 631.757H2689.47C2693.06 631.757 2696.19 636.682 2696.19 639.817V711.458C2696.19 714.593 2692.61 719.518 2689.47 719.518H2653.21C2650.07 719.518 2647.38 715.04 2646.94 712.354L2643.8 698.473H2582.91V706.085H2589.62L2582.91 711.01V718.175L2599.03 706.085H2606.19L2582.91 723.548V730.712L2615.59 706.085H2623.21L2589.62 731.16H2582.91V748.622H2610.22L2609.77 748.175L2610.22 747.727L2641.56 724.443C2642.46 725.339 2643.8 726.234 2645.15 727.13L2616.49 748.622H2625.89L2654.1 727.578H2658.13V729.816L2633.06 748.622H2637.98C2638.88 748.622 2639.77 749.518 2641.12 749.518L2658.13 736.981V742.354L2644.7 752.652H2643.35C2643.8 753.548 2644.7 755.339 2644.7 757.13V805.04C2644.7 809.518 2641.12 813.548 2636.64 813.548H2582.91V821.159H2585.59C2585.15 821.607 2583.35 822.95 2582.91 823.398V830.115L2595 821.159H2602.16L2582.91 835.936V842.652L2606.64 825.189V830.562L2585.59 846.234H2582.91V868.174H2644.7L2648.28 853.398C2648.73 850.712 2651.41 846.682 2655 846.682H2689.92C2693.5 846.682 2697.09 851.607 2697.09 855.189V926.831C2697.09 929.965 2693.5 934.891 2689.92 934.891H2512.16C2508.58 934.891 2505 929.517 2505 925.935V881.159C2502.76 882.055 2500.52 882.95 2499.18 885.189C2498.73 885.637 2498.73 886.532 2498.28 886.98L2484.4 897.279V891.906L2514.85 869.07V872.652C2515.74 872.204 2520.67 870.861 2522.01 869.965ZM2474.1 664.443H2479.03L2466.94 673.399C2466.94 669.817 2470.07 664.443 2474.1 664.443ZM2466.94 685.936V680.563L2488.43 664.443H2495.59L2466.94 685.936ZM2466.94 693.1L2497.38 669.817V675.637L2466.94 698.473V693.1ZM2466.94 711.01V705.637L2496.94 682.802H2497.38V687.727L2466.94 711.01ZM2466.94 717.727L2497.83 694.891C2499.18 696.234 2499.62 697.13 2500.52 698.473L2468.73 721.757C2468.28 721.757 2466.94 718.622 2466.94 717.727ZM2478.58 727.13L2473.65 725.339L2505.89 701.16H2506.34L2511.27 702.503L2478.58 727.13ZM2599.03 731.16L2632.61 706.085H2636.19C2636.64 706.533 2636.64 707.428 2636.64 708.324L2606.19 731.16H2605.74H2599.03ZM2484.4 735.637V729.816L2514.85 706.981V712.354L2484.4 735.637ZM2607.98 742.354L2607.09 737.428L2637.98 714.593L2638.43 714.145L2639.32 719.07L2607.98 742.354ZM2484.4 742.354L2514.85 719.518V724.443L2484.4 747.279V742.354ZM2484.4 754.443L2514.85 731.607V736.981L2484.4 759.816V754.443ZM2484.4 772.354V766.98L2514.85 744.145V749.518L2484.4 772.354ZM2484.4 784.891V779.518L2514.85 756.682V762.055L2484.4 784.891ZM2484.4 792.055L2514.85 769.219V774.592L2484.4 797.428V792.055ZM2484.4 809.965V804.592L2514.85 781.757V787.13L2484.4 809.965ZM2484.4 822.503V817.13L2514.85 794.294V799.667L2484.4 822.503ZM2484.4 829.667L2514.85 806.383V812.204L2484.4 835.04V829.667ZM2484.4 842.204L2514.85 818.921V824.742L2484.4 847.577V842.204ZM2484.4 860.115V854.741L2514.85 831.458V837.279L2484.4 860.115ZM2599.92 846.234H2595L2606.64 837.727C2606.64 841.309 2603.95 846.234 2599.92 846.234ZM2484.4 867.279L2514.85 843.995V849.368L2484.4 872.652V867.279ZM2484.4 879.368L2514.85 856.532V861.906L2484.4 885.189V879.368ZM2466.94 916.98L2497.38 894.144V899.517L2466.94 922.801V916.98ZM2466.94 929.517L2497.38 906.682V912.055L2466.94 935.338V929.517ZM2466.94 947.876V942.055L2497.38 919.219V924.592L2466.94 947.876ZM2466.94 954.592L2497.38 931.756C2497.83 933.547 2498.28 934.891 2498.28 936.682L2497.83 937.129L2467.38 959.517L2466.94 959.965V954.592ZM2469.62 965.338L2501.41 941.607C2503.65 942.502 2505 942.502 2507.24 942.502L2474.1 967.577C2472.31 967.577 2470.52 966.234 2469.62 965.338ZM2483.5 967.577L2516.64 942.502H2523.8L2490.67 967.577H2483.5ZM2507.24 967.577H2500.07L2533.21 942.502H2540.37L2507.24 967.577ZM2523.8 967.577H2516.64L2549.33 942.95C2549.77 942.502 2550.22 942.502 2550.22 942.502H2557.38L2523.8 967.577ZM2533.21 967.577L2566.79 942.502H2573.95L2541.27 967.129C2540.82 967.577 2540.82 967.577 2540.37 967.577H2533.21ZM2550.22 967.577L2583.35 942.502H2590.52L2557.38 967.577H2550.22ZM2573.95 967.577H2566.79L2599.92 942.502H2607.53L2573.95 967.577ZM2583.35 967.577L2616.94 942.502H2623.21L2590.07 967.577H2583.35ZM2606.64 967.577H2599.47L2632.61 942.502H2640.22L2606.64 967.577ZM2616.04 967.577L2649.62 942.502H2656.79L2623.65 967.577H2616.04ZM2633.06 967.577L2659.03 947.876V953.249L2640.22 967.577H2633.06ZM2649.62 967.577L2659.03 960.861C2659.03 964.443 2654.55 967.577 2650.97 967.577H2649.62ZM2857.25 869.965V696.234L2846.5 693.1C2842.92 691.757 2840.23 688.175 2840.23 684.593V640.264C2840.23 637.13 2843.37 631.757 2846.95 631.757H2937.85C2940.53 631.757 2943.22 634.443 2944.12 636.682L2985.31 775.936C2985.76 775.936 2985.76 775.488 2985.76 775.488L3015.31 753.548C3014.41 756.234 3013.52 760.264 3013.52 760.264L2986.65 780.413L2988.44 785.786H2988.89L3010.38 769.667C3010.38 771.458 3009.04 774.592 3008.59 775.936L2990.23 789.816C2989.79 790.264 2989.79 790.264 2989.79 790.712C2990.23 792.503 2991.13 795.637 2991.13 795.637L2991.58 796.085L3006.35 784.891L3004.11 792.055L2992.92 800.115V801.01L2994.26 805.936C2995.61 805.488 3000.09 802.354 3001.43 801.01C3001.43 801.906 3000.09 806.383 2999.64 808.174L2996.06 810.861V811.756L3000.09 824.294L3053.82 638.026C3054.71 635.339 3056.95 631.757 3060.08 631.757H3152.77C3156.35 631.757 3159.49 636.682 3159.49 639.817V684.593C3159.49 688.622 3156.8 691.757 3153.22 693.1L3142.03 696.234V869.965L3153.22 873.995C3156.8 874.891 3159.49 878.025 3159.49 881.607V926.383C3159.49 929.965 3155.91 934.891 3152.32 934.891H3071.73C3067.25 934.891 3064.11 929.07 3064.11 925.04V881.607C3059.64 881.607 3057.4 886.085 3056.95 889.667L3044.41 899.07V897.279V895.04C3044.41 895.04 3044.41 894.144 3044.86 894.144L3064.56 878.921C3065.01 878.921 3066.8 875.786 3067.7 875.338C3067.7 874.891 3074.41 871.756 3075.31 871.309V872.204L3082.47 869.965L3084.71 740.563L3075.31 771.01C3075.76 771.01 3076.65 770.115 3076.65 770.115C3076.65 771.01 3077.1 774.145 3076.65 775.488C3075.76 776.383 3073.52 777.727 3073.07 778.622L3070.38 787.13C3071.73 786.234 3075.76 783.548 3076.65 782.652V788.025L3068.14 794.742L3065.46 803.697L3076.65 795.189V796.98C3076.65 796.98 3076.2 800.562 3076.2 801.01L3063.67 810.413C3063.22 810.413 3063.22 810.861 3063.22 810.861L3060.53 819.816L3076.2 808.174V813.548L3058.29 826.98L3055.61 835.936L3076.2 820.712V821.607C3076.2 822.503 3075.76 826.085 3075.76 826.085L3053.82 842.652L3053.37 843.1L3050.68 852.055L3075.76 833.249V838.622L3048.44 859.219L3045.76 868.174L3075.76 845.786V846.682V851.607L3044.86 873.995V871.309L3034.11 905.786H3035.46C3035.01 906.234 3034.11 906.234 3034.11 907.129L3031.43 915.637L3056.5 896.831V902.652L3029.64 922.801C3027.85 927.726 3026.06 934.891 3020.23 934.891H2979.49C2976.8 934.891 2973.67 932.652 2973.22 929.965L2915.91 744.145V745.936V748.175C2915.91 752.204 2916.35 771.01 2916.35 775.04C2916.35 776.383 2916.35 776.831 2916.8 777.727C2916.8 778.174 2917.7 780.861 2917.7 781.757C2917.7 781.757 2916.8 782.204 2916.8 782.652V789.368C2917.7 788.921 2919.04 787.577 2919.49 787.577L2920.83 791.607C2920.83 792.055 2920.83 792.055 2920.38 792.055L2916.8 794.742V801.906C2919.04 801.01 2920.83 799.219 2922.62 797.428V797.876C2922.62 797.876 2923.52 800.562 2923.97 802.354L2917.25 807.279V808.174V813.995L2925.76 807.727L2927.1 812.204L2917.25 819.816V820.712V826.533L2928.89 818.025L2930.23 822.055V822.503L2917.7 831.906V833.697V838.622L2932.03 828.324C2932.03 828.324 2932.92 830.562 2933.37 832.353L2917.7 843.995V849.816L2918.15 850.712L2935.16 838.174L2936.5 842.204C2936.5 842.652 2936.5 842.652 2936.06 842.652L2918.15 856.085V863.249L2938.29 848.025L2939.64 852.503L2939.19 852.95L2918.15 868.622V869.965L2923.07 871.756L2940.53 858.771C2940.98 858.771 2940.98 858.324 2941.43 858.324V858.771C2941.43 858.771 2942.32 861.01 2942.77 862.801L2928.44 873.547C2930.23 874.443 2932.03 874.443 2933.37 876.682H2933.82L2944.12 869.07L2944.56 868.622L2945.91 872.652C2945.91 873.1 2945.46 873.1 2945.46 873.1L2936.06 880.264L2935.61 880.712C2935.61 882.95 2936.06 885.189 2936.06 887.428L2947.7 878.921L2949.04 882.95L2936.06 892.801V899.965L2950.83 888.771L2952.17 893.249L2951.73 893.697L2936.06 905.338V912.055H2936.5L2953.97 899.07L2955.31 903.547L2936.06 917.876V925.04L2957.1 909.368C2957.1 909.368 2958 912.055 2958.44 913.846L2928 936.234V934.891H2847.4C2843.82 934.891 2840.23 929.517 2840.23 925.935V882.055C2840.23 878.473 2842.92 874.891 2846.06 873.995L2857.25 869.965ZM2802.18 680.563V675.19L2816.5 664.443H2824.12L2802.18 680.563ZM3015.76 671.16C3015.76 667.13 3020.68 664.443 3024.71 664.443V664.891C3024.71 664.891 3018.89 668.921 3015.76 671.16ZM3040.83 664.891L3011.28 686.831C3011.28 685.936 3012.62 680.563 3013.52 680.115L3034.11 664.443H3041.28C3041.28 664.891 3040.83 664.891 3040.83 664.891ZM2802.18 693.1V687.727L2832.18 665.339C2832.62 665.339 2832.62 664.891 2832.62 664.891V670.264L2802.18 693.1ZM3008.59 696.234L3038.59 673.846L3036.35 680.563L3006.35 702.951L3008.59 696.234ZM2802.18 700.264L2832.62 677.428V682.802L2802.18 705.637V700.264ZM2802.18 712.801L2832.62 689.966C2833.07 691.309 2833.52 693.1 2833.52 694.891C2833.52 694.891 2833.07 694.891 2833.07 695.339L2802.18 718.175V712.801ZM3004.11 711.906L3034.11 689.966L3031.88 696.682L3001.88 719.07C3001.88 717.727 3003.22 712.354 3004.11 711.906ZM2804.41 723.548L2836.2 699.816C2838.44 700.264 2839.79 700.712 2841.58 701.16L2808.89 725.787C2807.1 725.787 2805.31 724.443 2804.41 723.548ZM2819.64 728.921L2815.61 727.578L2848.29 703.399C2849.19 703.399 2850.09 703.846 2850.09 703.846V707.428L2819.64 730.264V728.921ZM2999.19 728.025L3028.74 706.085H3029.19C3029.19 706.981 3027.85 712.354 3026.95 712.801L2997.4 735.189L2999.19 728.025ZM2819.64 737.428L2850.09 714.593V719.966L2819.64 742.801V737.428ZM2994.71 744.145L3024.26 721.757H3024.71L3022.47 728.473L2992.92 750.861C2993.37 748.175 2994.71 744.145 2994.71 744.145ZM2819.64 749.966L2850.09 727.13V732.503L2819.64 755.339V749.966ZM2988 766.98L2989.79 759.816L3019.34 738.324C3019.34 737.876 3019.79 737.876 3019.79 737.876C3019.79 738.772 3018.44 744.145 3017.55 745.04L2988 766.98ZM2819.64 767.428V762.503L2850.09 739.667V744.592L2819.64 767.428ZM2819.64 779.966V774.145L2849.64 751.757H2850.09V757.13L2819.64 779.966ZM2819.64 786.682L2850.09 763.846V769.667L2819.64 792.503V786.682ZM2819.64 804.592V799.219L2850.09 776.383V782.204L2819.64 804.592ZM3070.38 787.577V787.13C3069.94 787.13 3069.94 787.577 3070.38 787.577ZM2819.64 817.13V811.756L2850.09 788.921V794.294L2820.09 816.682C2820.09 817.13 2819.64 817.13 2819.64 817.13ZM2819.64 824.294L2850.09 801.458V806.831L2819.64 829.667V824.294ZM2819.64 842.204V836.831L2850.09 813.995V819.368L2819.64 842.204ZM2819.64 854.741V849.368L2850.09 826.533V831.906L2819.64 854.741ZM2819.64 861.906L2850.09 839.07V844.443L2819.64 867.279V861.906ZM2819.64 874.443L2850.09 851.607V856.98L2819.64 879.816V874.443ZM3044.86 881.607L3075.31 858.771V863.249V864.144L3044.86 886.98V881.607ZM2819.64 892.353V886.98L2849.64 864.592C2849.64 864.144 2850.09 864.144 2850.09 864.144V869.518L2819.64 892.353ZM2819.64 899.517L2832.62 889.219V895.04L2802.18 917.876V916.085C2802.18 914.741 2802.18 913.398 2802.62 911.607C2803.97 910.711 2808.89 907.129 2810.23 906.234C2810.23 906.234 2810.68 905.786 2811.13 905.786L2819.64 903.1V899.517ZM2802.18 929.965V924.592L2832.18 902.204H2832.62V907.129L2802.18 929.965ZM3026.06 932.204L3056.5 909.368V915.189L3026.06 938.025V932.204ZM2802.18 937.129L2832.62 914.294V919.667L2802.18 942.502V937.129ZM3031.43 916.085V915.637C3030.98 915.637 3030.98 916.085 3031.43 916.085ZM2929.34 942.502L2960.23 919.219L2961.58 923.697L2930.23 946.98L2928.89 942.95C2928.89 942.502 2928.89 942.502 2929.34 942.502ZM3026.06 950.562V944.741L3056.5 921.905V927.726L3026.06 950.562ZM2802.18 949.219L2832.62 926.383V932.204L2802.18 955.04V949.219ZM2932.03 952.801L2963.37 929.517L2964.71 933.995L2933.37 957.279L2932.03 952.801ZM3026.06 957.279L3056.95 934.443C3057.4 935.338 3058.29 938.473 3058.29 938.92L3026.95 962.204C3026.06 960.861 3026.06 959.07 3026.06 957.279ZM2802.62 961.756C2802.62 961.308 2802.62 961.308 2803.07 961.308L2833.52 938.473C2834.41 938.473 2836.65 940.711 2837.1 941.159L2805.31 964.89C2805.31 965.338 2804.86 965.338 2804.86 965.338C2804.41 965.338 2802.62 962.204 2802.62 961.756ZM2935.16 963.099L2966.5 939.816V939.368C2967.85 940.711 2968.74 941.607 2970.09 942.502L2937.85 966.234C2937.4 966.682 2934.71 963.099 2935.16 963.099ZM3030.53 966.681L3062.77 942.502C3063.22 942.502 3063.22 942.055 3063.22 942.055C3065.46 942.055 3068.14 942.502 3069.94 942.502L3036.8 967.577H3033.22C3032.32 967.577 3031.43 967.129 3030.53 966.681ZM2818.74 967.577H2811.58L2845.16 942.502H2852.32L2818.74 967.577ZM2835.76 967.577H2828.15L2861.73 942.502H2869.34L2835.76 967.577ZM2845.16 967.577L2878.74 942.502H2885.91L2852.32 967.577H2845.16ZM2862.18 967.577L2895.31 942.502H2897.55V946.085L2869.34 967.577H2862.18ZM2952.62 967.577H2945.91L2979.49 942.502H2986.2L2952.62 967.577ZM3053.37 967.577H3046.2L3079.79 942.502H3086.95L3053.37 967.577ZM3070.38 967.577H3062.77L3095.91 942.95L3096.35 942.502H3103.97L3070.38 967.577ZM3079.79 967.577L3113.37 942.502H3120.53L3086.95 967.577H3079.79ZM2969.64 967.577H2962.03L2994.71 942.95L2992.92 950.114L2969.64 967.577ZM3096.35 967.577L3121.43 948.771V954.592L3103.97 967.577H3096.35ZM2885.91 967.577H2878.74L2897.55 953.249V958.622L2886.8 967.129C2886.35 967.577 2885.91 967.577 2885.91 967.577ZM2982.62 967.577H2979.04L2989.79 959.517C2989.79 962.652 2986.2 967.577 2982.62 967.577ZM3113.37 967.577L3120.53 962.204C3120.53 964.89 3116.06 967.577 3113.37 967.577ZM3369.35 633.1L3394.43 631.757H3414.13L3424.88 632.205L3441.89 633.996C3487.56 638.473 3497.41 680.563 3497.41 719.07C3497.41 723.995 3497.86 736.085 3490.25 736.085H3445.02C3438.31 736.085 3437.41 728.025 3437.41 722.652L3436.96 705.637C3436.52 695.787 3422.64 695.339 3415.92 695.339H3393.53C3388.16 695.339 3382.79 696.234 3377.41 697.578C3365.77 699.369 3363.98 702.951 3363.53 714.145L3376.96 703.846C3378.76 702.951 3382.79 702.951 3384.58 702.951L3363.08 719.07V726.234L3393.98 702.951H3401.14L3368.01 728.025H3363.08C3363.08 743.697 3369.35 745.936 3383.68 747.279L3398.01 748.622H3399.35V748.175L3429.8 725.339C3430.25 726.682 3429.8 728.473 3429.8 728.921V730.712L3406.07 748.622L3405.62 749.07L3413.68 749.966L3430.7 736.981C3431.14 737.428 3431.59 738.772 3431.59 739.219C3431.59 739.667 3432.49 740.563 3432.49 741.01L3420.4 750.413H3421.29C3421.29 750.413 3426.22 750.861 3428.9 750.861L3438.76 743.697H3445.92L3435.17 751.757L3442.34 752.652H3443.23L3455.32 743.697H3459.8V745.488L3448.61 753.995L3455.32 755.339C3457.11 755.339 3458.01 753.1 3459.8 752.652V756.682H3460.25C3500.1 769.667 3501.89 803.697 3501.89 839.518C3501.89 932.652 3463.83 934.891 3384.58 934.891L3360.85 933.099C3322.79 930.413 3303.53 896.831 3302.64 861.458L3302.19 840.413V838.174C3302.19 831.906 3302.64 826.085 3308.91 823.846H3314.73L3332.64 810.861C3333.98 810.861 3335.77 811.756 3337.11 812.652L3321.89 823.846H3331.29L3343.83 814.891L3349.2 816.234L3338.46 823.846H3347.86L3356.82 817.13L3362.64 818.025L3355.02 823.846C3357.26 824.294 3358.61 825.189 3360.4 826.98L3370.7 819.368V818.921L3376.96 819.816L3362.19 831.01C3361.74 831.906 3361.74 832.353 3361.74 832.353C3361.74 833.249 3362.19 836.831 3362.19 837.727L3385.47 820.712L3385.92 820.264C3387.71 820.264 3389.95 820.712 3391.74 820.712L3362.19 843.1V845.786C3362.19 862.353 3362.19 868.622 3381.44 870.413C3388.61 871.309 3395.32 871.309 3402.49 871.309H3404.73V867.279L3434.73 844.891C3435.17 845.786 3435.17 847.13 3435.17 848.473V849.816L3406.52 871.309H3409.65H3412.79H3415.92L3434.73 857.428V858.324C3434.73 859.219 3434.73 861.906 3434.28 862.353L3424.43 870.413C3427.11 870.413 3429.35 869.07 3431.59 868.622C3442.79 864.592 3441.89 852.95 3442.34 843.1C3442.34 837.727 3441.89 832.801 3441.44 827.428C3439.65 816.682 3430.7 814.443 3421.29 813.995L3398.01 813.1L3373.83 811.309L3355.47 808.174C3321.44 803.249 3305.32 770.115 3303.98 738.772L3303.53 721.309C3303.53 675.19 3316.97 636.234 3369.35 633.1ZM3304.88 676.981L3276.67 698.025C3276.67 696.682 3281.59 689.966 3283.38 687.727L3303.98 672.055C3304.43 671.608 3308.01 670.264 3308.46 670.264L3304.88 676.981ZM3271.74 708.772L3301.29 686.831V687.279C3301.29 687.279 3299.95 691.309 3299.5 693.548L3269.95 715.488V714.145C3270.4 713.249 3271.29 709.667 3271.74 708.772ZM3268.16 723.548L3298.16 701.16L3297.26 707.428L3267.26 729.816L3268.16 723.995V723.548ZM3377.41 727.578L3410.1 703.399V702.951C3412.79 702.951 3414.13 702.951 3416.82 703.846L3384.13 728.025H3382.34C3382.34 728.025 3378.31 728.025 3377.41 727.578ZM3391.74 729.369L3423.53 705.637C3424.88 705.637 3426.67 706.981 3427.56 707.876L3396.67 731.16C3394.43 730.264 3393.08 729.816 3391.74 729.369ZM3398.91 736.085L3429.8 713.249V717.727V718.622L3399.35 741.01C3399.35 739.667 3398.91 737.876 3398.91 736.085ZM3266.37 741.906V737.428L3296.37 714.593V715.936C3296.37 717.279 3297.26 719.518 3295.92 720.413L3266.37 742.801V741.906ZM3265.92 749.966L3295.92 727.578H3296.37V732.503L3266.37 754.891L3265.92 755.339V749.966ZM3266.37 762.055L3296.37 739.667C3296.82 741.01 3296.82 742.354 3296.82 743.697V744.592L3266.82 766.98C3266.37 766.533 3265.92 763.398 3265.92 762.503C3265.92 762.055 3265.92 762.055 3266.37 762.055ZM3267.26 773.697L3297.26 751.309C3297.71 753.1 3298.16 756.234 3298.16 756.234L3267.26 779.07C3267.26 778.174 3266.82 775.04 3266.82 774.145L3267.26 773.697ZM3268.61 784.891L3299.05 762.503L3299.5 766.085L3299.95 766.533C3299.95 766.533 3299.5 766.533 3299.5 766.98L3269.05 789.368C3269.05 788.473 3268.61 786.234 3268.61 784.891ZM3270.4 795.189H3270.85L3301.29 772.354L3302.64 776.831L3271.74 799.667C3271.74 799.219 3271.29 798.324 3271.29 797.876C3270.85 797.428 3270.4 795.189 3270.4 795.189ZM3273.98 805.04L3304.43 782.204H3304.88L3306.67 785.786L3275.77 809.07C3275.32 808.174 3274.43 806.831 3273.98 805.04ZM3278.46 813.995L3309.35 791.16L3309.8 790.712V791.16L3312.04 794.294L3280.7 817.577C3280.7 817.577 3279.35 815.339 3278.46 813.995ZM3284.28 822.055L3315.62 798.771L3318.76 801.906L3286.97 825.189C3286.97 825.189 3285.62 823.398 3284.28 822.055ZM3291.89 828.771L3323.23 805.488L3327.26 807.727L3295.92 831.458C3294.58 831.01 3292.34 829.667 3291.89 828.771ZM3368.46 845.786L3400.7 821.159H3401.14H3402.04H3404.73H3407.86L3375.17 845.786C3374.73 846.234 3375.17 845.786 3374.73 845.786H3368.46ZM3389.5 847.13L3383.68 846.234L3416.37 822.055C3417.71 822.055 3420.4 822.503 3421.74 822.95L3389.5 847.13ZM3396.22 848.921L3428.01 825.189C3429.8 825.189 3431.59 827.876 3431.59 827.876L3400.7 851.159C3399.35 850.264 3396.67 849.368 3396.22 848.921ZM3402.93 856.085L3433.38 833.249H3433.83C3434.73 834.144 3434.28 836.383 3434.28 837.727V838.174L3403.83 861.01C3403.83 859.219 3403.38 857.876 3402.93 856.085ZM3265.92 860.562L3271.74 856.085H3278.91L3264.58 866.831C3264.58 865.488 3265.02 861.01 3265.92 860.562ZM3264.58 873.995L3288.31 856.085H3295.02V856.532L3264.58 879.368V873.995ZM3264.58 886.085L3295.02 863.249C3295.02 864.144 3295.47 866.831 3295.47 868.622L3265.02 891.458C3264.58 889.667 3264.58 888.323 3264.58 886.085ZM3265.47 897.726L3295.92 875.338C3295.92 875.338 3296.37 878.473 3296.37 880.264L3265.92 902.652C3265.92 902.652 3265.47 899.965 3265.47 897.726ZM3266.82 908.92L3297.26 886.085C3297.71 887.876 3298.61 890.562 3298.61 891.01L3267.71 913.846L3266.82 909.368V908.92ZM3270.4 924.144L3269.05 919.667L3299.5 896.831H3299.95L3301.29 900.861L3270.4 924.144ZM3274.43 933.099L3272.64 929.517L3303.53 906.234C3303.98 906.234 3303.98 906.234 3303.98 906.682L3305.77 909.816L3274.43 933.099ZM3277.56 937.577L3308.46 914.741L3310.7 917.876V918.323L3279.8 941.607L3277.56 938.025V937.577ZM3282.94 946.085L3314.28 922.801L3314.73 922.353L3317.86 925.488L3286.07 949.219L3284.28 947.428C3284.28 946.98 3283.38 946.085 3282.94 946.085ZM3290.55 952.801L3321.89 929.517L3322.34 929.07L3325.92 931.756L3294.13 955.487C3294.13 955.487 3292.79 954.144 3291.89 953.696C3291.89 953.696 3290.55 953.249 3290.55 952.801ZM3299.95 958.174L3331.29 934.443H3331.74L3336.22 936.234L3304.43 959.965L3303.98 960.413C3303.08 960.413 3300.4 959.07 3299.95 958.174ZM3406.07 965.338H3405.62L3439.2 940.264C3439.65 939.816 3444.13 938.92 3445.02 938.92C3445.47 938.473 3449.05 937.577 3449.95 937.577L3415.02 963.547C3414.58 963.995 3406.96 965.338 3406.07 965.338ZM3310.7 962.652L3342.94 938.473L3348.31 939.816L3315.62 963.995C3314.28 963.995 3312.04 963.547 3310.7 962.652ZM3323.68 965.338H3323.23L3355.47 941.159C3355.92 940.711 3355.92 941.159 3356.37 941.159C3358.16 941.159 3360.4 941.159 3362.19 941.607L3329.5 965.786C3327.26 965.786 3324.13 965.338 3323.68 965.338ZM3386.82 967.129L3419.95 942.502C3420.85 941.607 3426.67 941.607 3428.01 941.607L3394.88 966.234C3394.88 966.682 3390.4 966.681 3386.82 967.129ZM3338.46 966.681H3338.01L3370.7 942.055H3371.59C3373.38 942.055 3375.62 942.055 3377.41 942.502L3344.73 967.129H3343.83C3342.94 967.129 3338.91 966.681 3338.46 966.681ZM3369.8 967.577L3402.49 942.95H3402.93C3402.93 942.502 3406.96 942.502 3410.1 942.502L3376.96 967.577H3369.8ZM3353.68 967.129L3386.37 942.95H3393.53L3360.4 967.577H3358.61C3356.82 967.577 3355.47 967.577 3353.68 967.129Z" fill="white"/>
<path d="M513 973.187C711.387 973.187 872.211 812.363 872.211 613.977C872.211 415.59 711.387 254.766 513 254.766C314.613 254.766 153.789 415.59 153.789 613.977C153.789 812.363 314.613 973.187 513 973.187Z" stroke="white" stroke-width="27.3684"/>
<path opacity="0.3" d="M513.001 911.608C677.378 911.608 810.633 778.354 810.633 613.977C810.633 449.599 677.378 316.345 513.001 316.345C348.623 316.345 215.369 449.599 215.369 613.977C215.369 778.354 348.623 911.608 513.001 911.608Z" stroke="#F1FAEE" stroke-width="10.9474"/>
<path d="M528.394 223.977H497.605C491.937 223.977 487.342 228.572 487.342 234.24V285.556C487.342 291.224 491.937 295.819 497.605 295.819H528.394C534.063 295.819 538.658 291.224 538.658 285.556V234.24C538.658 228.572 534.063 223.977 528.394 223.977Z" fill="white"/>
<path d="M528.393 932.135H497.603C491.935 932.135 487.34 936.73 487.34 942.398V993.714C487.34 999.382 491.935 1003.98 497.603 1003.98H528.393C534.061 1003.98 538.656 999.382 538.656 993.714V942.398C538.656 936.73 534.061 932.135 528.393 932.135Z" fill="white"/>
<path d="M184.579 588.319H133.263C127.595 588.319 123 592.914 123 598.582V629.372C123 635.04 127.595 639.635 133.263 639.635H184.579C190.247 639.635 194.842 635.04 194.842 629.372V598.582C194.842 592.914 190.247 588.319 184.579 588.319Z" fill="white"/>
<path d="M892.737 588.319H841.421C835.753 588.319 831.158 592.914 831.158 598.582V629.372C831.158 635.04 835.753 639.635 841.421 639.635H892.737C898.405 639.635 903 635.04 903 629.372V598.582C903 592.914 898.405 588.319 892.737 588.319Z" fill="white"/>
<path d="M244.033 323.238L222.261 345.009C218.253 349.017 218.253 355.515 222.261 359.523L244.033 381.295C248.041 385.303 254.539 385.303 258.547 381.295L280.318 359.523C284.326 355.515 284.326 349.017 280.318 345.009L258.547 323.238C254.539 319.23 248.041 319.23 244.033 323.238Z" fill="white"/>
<path d="M803.74 345.009L781.968 323.238C777.96 319.23 771.462 319.23 767.454 323.238L745.682 345.009C741.674 349.017 741.674 355.515 745.682 359.523L767.454 381.295C771.462 385.303 777.96 385.303 781.968 381.295L803.74 359.523C807.748 355.515 807.748 349.017 803.74 345.009Z" fill="white"/>
<path d="M280.318 868.43L258.546 846.659C254.538 842.651 248.04 842.651 244.032 846.659L222.26 868.43C218.252 872.438 218.252 878.937 222.26 882.945L244.032 904.716C248.04 908.724 254.538 908.724 258.546 904.716L280.318 882.945C284.326 878.937 284.326 872.438 280.318 868.43Z" fill="white"/>
<path d="M767.452 846.659L745.681 868.43C741.673 872.438 741.673 878.936 745.681 882.944L767.452 904.716C771.46 908.724 777.959 908.724 781.967 904.716L803.738 882.944C807.746 878.936 807.746 872.438 803.738 868.43L781.967 846.659C777.959 842.651 771.46 842.651 767.452 846.659Z" fill="white"/>
<path d="M513 418.977L682.343 516.477V711.477L513 808.977L343.658 711.477V516.477L513 418.977Z" fill="#1D3557" stroke="white" stroke-width="27.3684"/>
<path d="M512.997 706.345C564.011 706.345 605.366 664.991 605.366 613.977C605.366 562.963 564.011 521.608 512.997 521.608C461.984 521.608 420.629 562.963 420.629 613.977C420.629 664.991 461.984 706.345 512.997 706.345Z" fill="#0D1B2A" stroke="#F1FAEE" stroke-width="21.8947"/>
<path d="M513.001 649.898C532.84 649.898 548.922 633.815 548.922 613.977C548.922 594.138 532.84 578.056 513.001 578.056C493.162 578.056 477.08 594.138 477.08 613.977C477.08 633.815 493.162 649.898 513.001 649.898Z" fill="white"/>
<path d="M379.581 542.135L246.16 480.556" stroke="#F1FAEE" stroke-width="27.3684" stroke-linecap="round"/>
<path d="M646.422 685.819L779.843 747.398" stroke="#F1FAEE" stroke-width="27.3684" stroke-linecap="round"/>
<path d="M246.155 516.477C265.994 516.477 282.077 500.394 282.077 480.556C282.077 460.717 265.994 444.635 246.155 444.635C226.317 444.635 210.234 460.717 210.234 480.556C210.234 500.394 226.317 516.477 246.155 516.477Z" fill="white"/>
<path d="M779.843 783.319C799.682 783.319 815.764 767.236 815.764 747.398C815.764 727.559 799.682 711.477 779.843 711.477C760.004 711.477 743.922 727.559 743.922 747.398C743.922 767.236 760.004 783.319 779.843 783.319Z" fill="white"/>
<g opacity="0.5">
<path d="M3502 165.977H3675V315.31" stroke="white" stroke-width="20.2375"/>
<path d="M3502 1061.98H3675V912.643" stroke="white" stroke-width="20.2375"/>
</g>
</svg>
