<svg width="3686" height="918" viewBox="0 0 3686 918" fill="none" xmlns="http://www.w3.org/2000/svg">
<g opacity="0.5">
<path d="M3502 11H3675V160.333" stroke="#0DA5E9" stroke-width="20.2375"/>
<path d="M3502 907H3675V757.667" stroke="#0DA5E9" stroke-width="20.2375"/>
</g>
<path d="M993.209 202.843C1001.42 142.395 1033.13 135.678 1087.61 135.678C1089.11 135.678 1094.33 135.678 1095.08 136.051L1113.36 137.171C1148.43 139.41 1160.37 178.589 1160.37 208.44V224.485C1160.37 227.843 1157.39 231.947 1154.03 231.947H1117.09C1112.99 231.947 1110.75 227.097 1110.75 223.738V206.201C1110.75 194.261 1105.52 191.276 1093.96 190.902C1092.09 190.902 1082.76 190.529 1080.52 190.529H1077.91H1067.84C1060 190.902 1048.81 191.649 1045.07 200.231C1045.45 199.858 1046.57 199.485 1046.94 199.485C1043.96 201.723 1042.84 203.962 1042.84 208.44L1057.76 197.246C1060 196.873 1061.87 196.873 1064.1 196.873L1042.09 213.291C1041.34 216.276 1041.34 226.723 1041.34 229.709V291.276C1041.34 297.992 1041.72 304.709 1042.09 311.052C1043.96 327.47 1048.81 331.575 1065.22 333.067C1069.33 333.067 1073.43 333.44 1077.91 333.44H1080.9C1081.64 333.44 1081.64 333.44 1082.02 333.067L1106.64 314.784V315.903V317.395V319.261L1087.99 333.067C1090.6 333.067 1093.58 333.067 1096.19 332.694L1105.9 325.604C1105.9 327.097 1105.15 328.963 1104.4 330.455C1110 330.455 1112.61 315.157 1112.61 311.052V293.515C1112.61 290.157 1115.6 286.052 1119.33 286.052H1155.9C1159.25 286.052 1162.61 289.783 1162.61 293.142V316.276C1162.61 353.59 1149.93 383.067 1107.76 386.426L1078.28 388.664C1046.19 388.664 1016.34 387.918 1001.04 354.709C997.314 346.5 994.702 336.799 993.582 327.843L992.09 313.291L991.343 296.127V228.216C991.343 220.007 992.09 211.425 993.209 202.843ZM996.194 175.977L972.313 193.888C972.313 193.514 977.537 186.052 978.657 184.932L998.433 170.007C998.806 169.634 999.552 169.634 999.926 169.634L999.179 170.753C998.806 171.499 996.567 175.231 996.194 175.977ZM990.597 190.529L966.343 208.813C966.343 208.067 967.836 203.962 968.209 202.843L992.836 184.932L990.597 190.529ZM1050.67 217.395H1044.7L1071.94 196.873H1073.81H1075.3H1077.91L1050.67 217.395ZM1058.13 217.395L1085.75 196.873C1087.24 196.873 1089.48 197.246 1090.97 197.246L1064.1 217.395L1063.73 217.768C1062.99 217.768 1058.88 217.768 1058.13 217.395ZM964.104 216.276L989.105 197.619L987.985 202.843L962.985 221.5C962.985 221.126 962.985 220.753 963.358 220.38C963.358 219.261 964.104 216.276 964.104 216.276ZM1070.45 218.888V218.514L1096.94 198.738C1098.43 198.738 1099.93 199.485 1100.67 200.231L1074.18 220.007C1073.06 219.634 1071.57 219.261 1070.45 218.888ZM1077.54 223.738L1103.28 204.335C1103.66 203.962 1104.4 207.694 1104.4 208.067L1078.66 227.097L1077.54 223.738ZM961.493 233.067L961.866 228.216L986.866 209.559L986.493 214.41L961.493 233.067ZM1079.4 232.694L1104.78 213.664V218.141L1079.4 236.798V232.694ZM961.119 239.41L985.373 220.753H985.746V221.5V225.231L960.373 244.261C960.373 243.515 960.746 240.156 961.119 239.41ZM1079.4 242.768L1104.78 223.738V228.216L1079.4 247.246V242.768ZM960.373 249.858L985.373 231.201V232.694V235.679L960 254.709C960 253.589 960 251.35 960.373 249.858ZM1079.78 252.843L1105.15 233.813C1105.9 234.932 1106.64 235.679 1107.39 236.425L1081.27 256.201C1080.9 255.828 1079.4 252.843 1079.78 252.843ZM1085.75 258.813L1112.99 238.291H1118.96L1091.72 258.813H1085.75ZM1099.18 258.813L1126.79 238.291H1129.03V240.903L1105.15 258.813H1099.18ZM960 264.783V260.679L985.373 241.649V245.753L960 264.783ZM1112.99 258.813L1129.03 246.873V250.977L1118.96 258.813H1112.99ZM960 274.858V270.38L985.373 251.724V256.201L960 274.858ZM960 280.828L985.373 261.798V266.276L960 285.306V280.828ZM960 290.903L985.373 272.246V276.724L960 295.38V290.903ZM960 305.828V301.351L984.627 282.694C985 282.694 985 282.321 985.373 282.321V286.798L960 305.828ZM960 315.903V311.425L984.627 293.142C985 293.142 985 292.769 985.373 292.769V297.246L960 315.903ZM960 321.873L985.373 302.843V303.216V307.321L960 326.351V322.993V321.873ZM960.373 331.948L985.746 312.918V316.649V317.395L960.373 336.052V331.948ZM1081.27 327.47V322.993L1094.7 313.291H1100.67L1081.27 327.47ZM1086.87 313.291L1082.76 316.276C1083.88 314.784 1085.37 313.664 1086.87 313.291ZM961.119 341.649L986.12 322.993C986.493 324.112 986.866 325.231 986.866 326.724L961.493 345.754C961.119 345.008 961.119 342.769 961.119 341.649ZM962.239 350.978L987.239 332.321C987.612 333.44 987.985 334.56 987.985 336.052C987.985 336.425 987.985 336.052 987.612 336.425L962.612 355.082C962.239 354.336 962.239 352.097 962.239 350.978ZM963.731 360.306L988.731 341.649V341.276C989.105 342.022 989.478 344.634 989.478 345.381L964.104 364.411C963.731 363.291 963.358 361.052 963.358 360.679C963.358 360.306 963.731 360.306 963.731 360.306ZM965.224 369.261H965.597L990.97 349.858L992.09 353.59L966.343 372.993C965.97 371.5 965.224 369.261 965.224 369.261ZM968.209 377.097L993.955 358.067C994.328 359.187 995.448 360.679 995.075 361.426L969.328 380.829L968.209 377.843V377.097ZM971.567 384.933L997.314 365.53L999.179 368.515L973.06 387.918C973.06 387.918 972.313 386.426 971.94 386.052C971.94 385.679 971.567 384.933 971.567 384.933ZM977.911 395.008L975.672 392.023L1001.79 372.62C1002.54 373.366 1004.03 375.232 1004.03 375.232L978.284 394.635L977.911 395.008ZM980.896 398.366L1007.02 378.963V378.59C1007.39 378.963 1009.25 380.829 1010 381.202L983.881 400.605H983.508C983.508 400.605 981.269 398.366 980.896 398.366ZM987.239 403.963L1013.73 384.187C1014.1 384.187 1016.72 385.679 1017.09 386.052L990.597 405.829C990.224 405.829 987.612 403.963 987.239 403.963ZM995.075 408.441L1021.57 388.291H1021.94L1025.67 390.157L998.806 409.933C997.687 409.56 995.448 408.814 995.075 408.441ZM1086.12 412.172L1114.48 390.903C1116.72 390.53 1118.96 389.784 1120.82 389.038H1121.19C1120.82 389.784 1120.45 390.53 1119.7 390.903L1093.96 410.306C1093.58 410.679 1087.24 412.172 1086.49 412.172H1086.12ZM1004.4 411.799L1030.9 392.023C1031.27 391.65 1030.9 391.65 1031.64 391.65L1035.75 392.769L1008.88 412.918C1007.02 412.545 1004.78 411.799 1004.4 411.799ZM1076.79 413.291L1070.08 414.038L1097.69 393.142C1098.43 392.769 1103.66 392.396 1104.4 392.396H1104.78L1076.79 413.291ZM1014.85 414.038H1015.22L1041.72 393.888H1042.46C1043.96 393.888 1045.82 393.888 1047.31 394.261L1020.45 414.411C1020.07 414.784 1020.07 414.784 1019.7 414.784C1018.96 414.784 1015.97 414.411 1014.85 414.038ZM1060.75 414.784L1054.78 415.157L1082.39 394.261C1083.13 393.888 1085 393.888 1086.49 393.888H1089.1L1061.49 414.411C1061.49 414.784 1061.12 414.784 1060.75 414.784ZM1027.16 415.157L1054.4 395.008V394.635C1056.27 394.635 1058.51 394.635 1060.37 395.008L1032.76 415.53H1031.64H1030.15C1029.4 415.53 1027.54 415.157 1027.54 415.157H1027.16ZM1040.6 415.53L1067.84 395.008H1068.21C1068.21 395.008 1071.94 394.635 1073.06 394.635C1073.06 394.635 1073.81 395.008 1074.18 395.008L1046.57 415.53H1040.6ZM1296.08 334.187V189.41L1287.13 186.798C1284.14 185.679 1281.9 182.693 1281.9 179.708V142.768C1281.9 140.156 1284.52 135.678 1287.5 135.678H1365.11C1367.73 135.678 1369.59 138.663 1370.34 140.529L1392.35 193.888L1416.23 175.977V180.455L1394.22 197.246C1394.59 199.111 1394.96 200.604 1395.71 201.723L1416.61 186.425C1416.98 187.544 1416.98 189.037 1417.73 190.156L1397.2 205.455L1399.07 209.932L1421.46 193.141C1421.46 193.141 1424.07 193.888 1425.93 194.261L1400.56 213.291L1405.79 225.604L1431.53 206.574V209.932V211.052L1407.65 228.962C1407.65 230.082 1408.77 232.694 1409.14 233.44L1431.53 217.022V220.38V221.126L1410.64 236.798V237.171L1412.5 241.649L1431.9 227.097V231.574L1413.99 245.007C1413.99 245.753 1415.11 248.365 1416.23 249.112L1431.9 237.171C1431.9 237.918 1431.9 240.903 1432.28 241.649L1416.98 252.843L1418.85 257.321H1419.22L1432.28 247.619V251.724L1420.71 260.306C1420.71 261.798 1421.83 264.41 1422.58 265.156L1432.28 257.694V262.171L1424.07 268.515C1424.07 269.261 1424.82 271.873 1425.56 272.992L1432.65 268.142V271.127V272.246L1427.05 276.351C1427.43 277.47 1428.55 280.082 1428.92 280.828L1432.65 278.216C1433.02 279.336 1433.02 280.082 1433.02 281.201C1433.02 281.574 1433.02 282.321 1432.65 282.694C1432.65 282.694 1430.79 284.186 1430.41 284.56L1432.28 289.037L1433.02 288.291V290.903V291.649L1439.37 306.948L1437.13 190.156C1437.13 189.41 1437.13 189.41 1436.76 189.41C1430.41 187.544 1422.58 187.171 1422.58 178.962V143.141C1422.58 140.156 1425.19 135.678 1428.55 135.678H1496.46C1499.44 135.678 1502.05 139.783 1502.05 142.395V179.708C1502.05 183.067 1499.82 185.679 1496.83 186.798L1487.5 189.41V380.829C1487.5 384.187 1484.89 388.291 1481.53 388.291H1419.22C1416.61 388.291 1414.37 385.306 1413.25 383.067L1344.59 216.649C1344.59 220.753 1344.96 236.425 1345.71 240.156C1346.08 240.903 1346.83 242.768 1346.83 242.768V243.141C1346.46 243.141 1345.71 243.888 1345.34 245.007V250.231L1348.7 247.619C1349.07 248.739 1350.19 250.977 1350.19 250.977L1345.34 254.709V255.455V260.306H1345.71C1346.46 259.559 1350.56 256.574 1352.05 255.828C1352.43 256.574 1353.17 258.067 1353.17 259.186L1345.71 264.783V265.903V270.754L1355.41 263.664C1355.41 264.41 1356.16 266.276 1356.53 267.022L1345.71 275.231V276.351C1345.71 278.216 1345.71 279.336 1346.08 280.828L1358.4 271.5C1358.77 272.246 1359.89 274.485 1359.89 275.231L1346.08 285.306V286.798V291.276L1361.38 279.709C1362.13 280.082 1362.87 282.321 1362.87 283.067L1346.08 295.754V297.619C1346.08 297.619 1346.08 300.231 1346.46 301.351L1365.11 287.545C1365.49 288.291 1366.23 290.157 1366.23 290.903L1346.46 305.828V311.798L1368.47 295.38L1369.59 298.366C1369.59 298.739 1369.22 298.739 1369.22 299.112L1346.83 315.903C1346.46 315.903 1346.46 315.903 1346.46 316.276C1346.46 317.396 1346.46 321.127 1346.83 321.873L1371.46 303.216C1371.83 303.589 1372.58 305.828 1372.58 306.948L1346.83 326.351V327.843V333.44V334.187L1354.29 336.799L1377.8 319.261C1378.55 320.381 1379.67 322.619 1379.67 322.619L1358.4 338.291C1359.52 339.41 1360.26 340.53 1361.01 342.022L1381.16 327.47C1381.9 328.216 1382.65 330.455 1382.65 330.455L1361.76 346.5V352.097L1384.14 335.306C1384.89 335.679 1385.64 337.545 1386.01 338.291L1361.76 356.948V380.829C1361.76 384.187 1358.77 388.291 1355.41 388.291H1287.87C1284.52 388.291 1281.9 384.187 1281.9 381.202V343.515C1279.67 344.261 1277.43 345.754 1276.31 347.993L1264.74 356.948V352.097L1290.11 333.067V336.425L1296.08 334.187ZM1259.52 162.917L1250.19 170.007C1250.56 167.022 1252.8 162.917 1256.16 162.917H1259.52ZM1250.19 175.977L1267.35 162.917H1273.7L1250.19 180.455V175.977ZM1398.32 162.917L1391.23 168.141C1391.23 165.529 1395.34 162.917 1398.32 162.917ZM1390.86 178.962V174.484L1406.16 162.917H1412.13L1390.86 178.962ZM1390.86 184.932L1416.23 165.529V170.007L1390.86 189.41V184.932ZM1250.19 190.902V186.425L1275.56 167.022V171.873L1250.19 190.902ZM1250.19 196.873L1275.56 177.47V182.32L1250.19 201.35V196.873ZM1250.19 206.947L1275.93 187.917C1276.31 187.917 1277.8 190.902 1277.8 191.276L1251.31 210.679C1250.93 211.052 1250.19 207.694 1250.19 207.32V206.947ZM1259.14 215.156L1255.04 214.037L1281.9 193.888C1284.14 193.888 1286.38 194.634 1286.38 194.634L1286.76 195.007L1259.89 214.783C1259.52 215.156 1259.14 215.156 1259.14 215.156ZM1404.29 216.276L1431.16 196.126V199.485V200.604L1405.79 220.007L1405.41 219.261V216.649C1405.41 216.649 1404.67 216.649 1404.29 216.276ZM1264.74 217.022L1290.11 197.992V202.47L1264.74 221.873V217.022ZM1264.74 232.321V227.47L1290.11 208.44V212.917L1264.74 232.321ZM1264.74 242.768V237.918L1290.11 218.888V223.365L1264.74 242.768ZM1264.74 248.365L1290.11 229.335V233.44L1264.74 252.47V248.365ZM1264.74 258.44L1290.11 239.41V243.888L1264.74 262.918V258.44ZM1264.74 273.365V268.888L1290.11 249.858V254.336L1264.74 273.365ZM1264.74 279.336L1290.11 260.306V264.783L1264.74 283.813V279.336ZM1264.74 289.783L1290.11 270.754V275.231L1264.74 294.261V289.783ZM1264.74 304.709V300.231L1290.11 280.828V285.679L1264.74 304.709ZM1264.74 315.157V310.679L1290.11 291.276V296.127L1264.74 315.157ZM1264.74 321.127L1290.11 301.724V306.575L1264.74 325.604V321.127ZM1348.7 330.828L1374.82 311.052C1375.19 311.425 1375.93 313.664 1376.31 314.784L1350.19 334.187C1349.44 333.067 1348.7 330.828 1348.7 330.828ZM1264.74 336.052V331.575L1290.11 312.172V316.649L1264.74 336.052ZM1264.74 346.5V341.649L1290.11 322.619V327.097L1264.74 346.5ZM1361.76 362.545L1387.87 343.142C1387.87 343.142 1388.99 345.008 1389.37 346.5L1363.62 365.903C1362.87 364.784 1361.76 362.545 1361.76 362.545ZM1366.61 374.112L1365.11 370.381L1391.23 350.978C1391.98 352.47 1392.73 354.336 1392.73 354.336L1366.61 374.112ZM1250.19 373.366L1275.56 354.336V358.814L1250.19 377.843V373.366ZM1369.59 381.948L1368.47 378.59L1394.59 358.814C1394.96 360.306 1396.08 362.172 1396.08 362.172L1369.59 381.948ZM1250.19 388.291V383.814L1275.19 365.157L1275.56 364.784V368.888L1250.19 388.291ZM1371.83 386.426L1397.58 367.023C1398.32 368.142 1399.07 370.381 1399.07 370.381L1372.95 389.784C1372.95 389.411 1371.83 387.172 1371.83 386.426ZM1375.19 394.261L1401.31 374.858C1401.31 374.858 1402.05 377.097 1402.05 378.59L1376.31 397.993C1375.93 397.247 1375.19 395.008 1375.19 394.261ZM1250.19 393.888L1275.56 374.858V379.336L1250.19 398.739V393.888ZM1378.55 402.097L1404.29 383.067C1405.04 384.187 1405.79 386.426 1405.79 386.426L1379.67 405.829C1379.29 405.082 1378.55 402.844 1378.55 402.097ZM1250.19 408.814V404.336L1275.19 385.679C1275.93 386.799 1276.31 388.291 1276.31 389.411C1275.93 389.411 1275.93 389.784 1275.93 389.784L1250.56 408.814H1250.19ZM1381.53 410.306L1407.28 390.903H1407.65L1409.89 393.142L1383.4 412.918C1382.65 412.545 1381.53 411.426 1381.53 410.306ZM1252.43 413.291L1278.55 393.515C1279.29 393.515 1280.04 394.261 1280.41 394.261C1281.53 394.635 1282.28 394.635 1283.4 394.635L1255.78 415.157C1254.29 415.157 1253.17 414.411 1252.43 413.291ZM1269.59 415.53H1263.25L1291.23 394.635H1297.2L1269.59 415.53ZM1277.43 415.53L1305.04 394.635H1311.01L1283.4 415.53H1277.43ZM1291.23 415.53L1318.84 394.635H1324.81L1297.2 415.53H1291.23ZM1387.87 415.53L1415.86 394.635H1421.83L1394.22 415.53H1387.87ZM1402.05 415.53L1429.67 394.635H1435.64L1408.02 415.53H1402.05ZM1415.86 415.53L1443.47 394.635H1449.82L1421.83 415.53H1415.86ZM1436.01 415.53H1429.67L1455.41 396.127H1455.79V400.605L1436.01 415.53ZM1305.04 415.53L1329.67 396.873V401.351L1311.01 415.53H1305.04ZM1449.82 415.53H1443.85L1455.79 406.575C1455.79 408.068 1455.79 410.679 1454.67 411.799L1449.82 415.53ZM1324.07 415.53H1318.84L1329.67 407.321C1329.67 411.053 1327.43 415.53 1324.07 415.53ZM1779.07 334.187V189.41L1769.37 186.052C1766.76 185.305 1764.89 181.947 1764.89 179.335V143.141C1764.89 140.529 1767.5 135.678 1770.49 135.678H1918.62C1921.61 135.678 1924.22 139.783 1924.22 142.395V202.097C1924.22 204.708 1921.24 208.813 1918.62 208.813H1888.4C1885.79 208.813 1883.55 205.082 1883.18 202.843L1880.56 191.276H1829.82V197.619H1835.41L1829.82 201.723V207.694L1843.25 197.619H1849.22L1829.82 212.171V218.141L1857.06 197.619H1863.4L1835.41 218.514H1829.82V233.067H1852.58L1852.21 232.694L1852.58 232.321L1878.7 212.917C1879.44 213.664 1880.56 214.41 1881.68 215.156L1857.8 233.067H1865.64L1889.15 215.529H1892.5V217.395L1871.61 233.067H1875.71C1876.46 233.067 1877.21 233.813 1878.32 233.813L1892.5 223.365V227.843L1881.31 236.425H1880.19C1880.56 237.171 1881.31 238.664 1881.31 240.156V280.082C1881.31 283.813 1878.32 287.171 1874.59 287.171H1829.82V293.515H1832.06C1831.68 293.888 1830.19 295.007 1829.82 295.38V300.978L1839.89 293.515H1845.86L1829.82 305.828V311.425L1849.59 296.873V301.351L1832.06 314.41H1829.82V332.694H1881.31L1884.29 320.381C1884.67 318.142 1886.91 314.784 1889.89 314.784H1919C1921.98 314.784 1924.97 318.888 1924.97 321.873V381.575C1924.97 384.187 1921.98 388.291 1919 388.291H1770.86C1767.88 388.291 1764.89 383.814 1764.89 380.829V343.515C1763.03 344.261 1761.16 345.008 1760.04 346.873C1759.67 347.246 1759.67 347.993 1759.29 348.366L1747.73 356.948V352.47L1773.1 333.44V336.425C1773.85 336.052 1777.95 334.933 1779.07 334.187ZM1739.14 162.917H1743.25L1733.17 170.38C1733.17 167.395 1735.79 162.917 1739.14 162.917ZM1733.17 180.828V176.35L1751.09 162.917H1757.06L1733.17 180.828ZM1733.17 186.798L1758.55 167.395V172.246L1733.17 191.276V186.798ZM1733.17 201.723V197.246L1758.17 178.216H1758.55V182.32L1733.17 201.723ZM1733.17 207.32L1758.92 188.291C1760.04 189.41 1760.41 190.156 1761.16 191.276L1734.67 210.679C1734.29 210.679 1733.17 208.067 1733.17 207.32ZM1742.88 215.156L1738.77 213.664L1765.64 193.514H1766.01L1770.12 194.634L1742.88 215.156ZM1843.25 218.514L1871.23 197.619H1874.22C1874.59 197.992 1874.59 198.738 1874.59 199.485L1849.22 218.514H1848.85H1843.25ZM1747.73 222.246V217.395L1773.1 198.365V202.843L1747.73 222.246ZM1850.71 227.843L1849.97 223.738L1875.71 204.708L1876.09 204.335L1876.83 208.44L1850.71 227.843ZM1747.73 227.843L1773.1 208.813V212.917L1747.73 231.947V227.843ZM1747.73 237.918L1773.1 218.888V223.365L1747.73 242.395V237.918ZM1747.73 252.843V248.365L1773.1 229.335V233.813L1747.73 252.843ZM1747.73 263.291V258.813L1773.1 239.783V244.261L1747.73 263.291ZM1747.73 269.261L1773.1 250.231V254.709L1747.73 273.739V269.261ZM1747.73 284.186V279.709L1773.1 260.679V265.156L1747.73 284.186ZM1747.73 294.634V290.157L1773.1 271.127V275.604L1747.73 294.634ZM1747.73 300.604L1773.1 281.201V286.052L1747.73 305.082V300.604ZM1747.73 311.052L1773.1 291.649V296.5L1747.73 315.53V311.052ZM1747.73 325.978V321.5L1773.1 302.097V306.948L1747.73 325.978ZM1844 314.41H1839.89L1849.59 307.321C1849.59 310.306 1847.35 314.41 1844 314.41ZM1747.73 331.948L1773.1 312.545V317.022L1747.73 336.425V331.948ZM1747.73 342.022L1773.1 322.993V327.47L1747.73 346.873V342.022ZM1733.17 373.366L1758.55 354.336V358.814L1733.17 378.217V373.366ZM1733.17 383.814L1758.55 364.784V369.261L1733.17 388.664V383.814ZM1733.17 399.112V394.261L1758.55 375.232V379.709L1733.17 399.112ZM1733.17 404.709L1758.55 385.679C1758.92 387.172 1759.29 388.291 1759.29 389.784L1758.92 390.157L1733.55 408.814L1733.17 409.187V404.709ZM1735.41 413.665L1761.91 393.888C1763.77 394.635 1764.89 394.635 1766.76 394.635L1739.14 415.53C1737.65 415.53 1736.16 414.411 1735.41 413.665ZM1746.98 415.53L1774.59 394.635H1780.56L1752.95 415.53H1746.98ZM1766.76 415.53H1760.79L1788.4 394.635H1794.37L1766.76 415.53ZM1780.56 415.53H1774.59L1801.83 395.008C1802.2 394.635 1802.58 394.635 1802.58 394.635H1808.55L1780.56 415.53ZM1788.4 415.53L1816.38 394.635H1822.35L1795.12 415.157C1794.74 415.53 1794.74 415.53 1794.37 415.53H1788.4ZM1802.58 415.53L1830.19 394.635H1836.16L1808.55 415.53H1802.58ZM1822.35 415.53H1816.38L1844 394.635H1850.34L1822.35 415.53ZM1830.19 415.53L1858.18 394.635H1863.4L1835.79 415.53H1830.19ZM1849.59 415.53H1843.62L1871.23 394.635H1877.58L1849.59 415.53ZM1857.43 415.53L1885.41 394.635H1891.38L1863.77 415.53H1857.43ZM1871.61 415.53L1893.25 399.112V403.59L1877.58 415.53H1871.61ZM1885.41 415.53L1893.25 409.933C1893.25 412.918 1889.52 415.53 1886.53 415.53H1885.41ZM2058.44 334.187V189.41L2049.48 186.798C2046.5 185.679 2044.26 182.693 2044.26 179.708V142.768C2044.26 140.156 2046.87 135.678 2049.86 135.678H2127.47C2130.08 135.678 2131.95 138.663 2132.69 140.529L2154.71 193.888L2178.59 175.977V180.455L2156.57 197.246C2156.95 199.111 2157.32 200.604 2158.06 201.723L2178.96 186.425C2179.33 187.544 2179.33 189.037 2180.08 190.156L2159.56 205.455L2161.42 209.932L2183.81 193.141C2183.81 193.141 2186.42 193.888 2188.29 194.261L2162.92 213.291L2168.14 225.604L2193.89 206.574V209.932V211.052L2170 228.962C2170 230.082 2171.12 232.694 2171.5 233.44L2193.89 217.022V220.38V221.126L2172.99 236.798V237.171L2174.86 241.649L2194.26 227.097V231.574L2176.35 245.007C2176.35 245.753 2177.47 248.365 2178.59 249.112L2194.26 237.171C2194.26 237.918 2194.26 240.903 2194.63 241.649L2179.33 252.843L2181.2 257.321H2181.57L2194.63 247.619V251.724L2183.06 260.306C2183.06 261.798 2184.18 264.41 2184.93 265.156L2194.63 257.694V262.171L2186.42 268.515C2186.42 269.261 2187.17 271.873 2187.92 272.992L2195.01 268.142V271.127V272.246L2189.41 276.351C2189.78 277.47 2190.9 280.082 2191.27 280.828L2195.01 278.216C2195.38 279.336 2195.38 280.082 2195.38 281.201C2195.38 281.574 2195.38 282.321 2195.01 282.694C2195.01 282.694 2193.14 284.186 2192.77 284.56L2194.63 289.037L2195.38 288.291V290.903V291.649L2201.72 306.948L2199.48 190.156C2199.48 189.41 2199.48 189.41 2199.11 189.41C2192.77 187.544 2184.93 187.171 2184.93 178.962V143.141C2184.93 140.156 2187.54 135.678 2190.9 135.678H2258.81C2261.8 135.678 2264.41 139.783 2264.41 142.395V179.708C2264.41 183.067 2262.17 185.679 2259.18 186.798L2249.86 189.41V380.829C2249.86 384.187 2247.24 388.291 2243.89 388.291H2181.57C2178.96 388.291 2176.72 385.306 2175.6 383.067L2106.94 216.649C2106.94 220.753 2107.32 236.425 2108.06 240.156C2108.44 240.903 2109.18 242.768 2109.18 242.768V243.141C2108.81 243.141 2108.06 243.888 2107.69 245.007V250.231L2111.05 247.619C2111.42 248.739 2112.54 250.977 2112.54 250.977L2107.69 254.709V255.455V260.306H2108.06C2108.81 259.559 2112.92 256.574 2114.41 255.828C2114.78 256.574 2115.53 258.067 2115.53 259.186L2108.06 264.783V265.903V270.754L2117.77 263.664C2117.77 264.41 2118.51 266.276 2118.89 267.022L2108.06 275.231V276.351C2108.06 278.216 2108.06 279.336 2108.44 280.828L2120.75 271.5C2121.12 272.246 2122.24 274.485 2122.24 275.231L2108.44 285.306V286.798V291.276L2123.74 279.709C2124.48 280.082 2125.23 282.321 2125.23 283.067L2108.44 295.754V297.619C2108.44 297.619 2108.44 300.231 2108.81 301.351L2127.47 287.545C2127.84 288.291 2128.59 290.157 2128.59 290.903L2108.81 305.828V311.798L2130.83 295.38L2131.95 298.366C2131.95 298.739 2131.57 298.739 2131.57 299.112L2109.18 315.903C2108.81 315.903 2108.81 315.903 2108.81 316.276C2108.81 317.396 2108.81 321.127 2109.18 321.873L2133.81 303.216C2134.18 303.589 2134.93 305.828 2134.93 306.948L2109.18 326.351V327.843V333.44V334.187L2116.65 336.799L2140.15 319.261C2140.9 320.381 2142.02 322.619 2142.02 322.619L2120.75 338.291C2121.87 339.41 2122.62 340.53 2123.36 342.022L2143.51 327.47C2144.26 328.216 2145 330.455 2145 330.455L2124.11 346.5V352.097L2146.5 335.306C2147.24 335.679 2147.99 337.545 2148.36 338.291L2124.11 356.948V380.829C2124.11 384.187 2121.12 388.291 2117.77 388.291H2050.23C2046.87 388.291 2044.26 384.187 2044.26 381.202V343.515C2042.02 344.261 2039.78 345.754 2038.66 347.993L2027.09 356.948V352.097L2052.47 333.067V336.425L2058.44 334.187ZM2021.87 162.917L2012.54 170.007C2012.91 167.022 2015.15 162.917 2018.51 162.917H2021.87ZM2012.54 175.977L2029.71 162.917H2036.05L2012.54 180.455V175.977ZM2160.68 162.917L2153.59 168.141C2153.59 165.529 2157.69 162.917 2160.68 162.917ZM2153.21 178.962V174.484L2168.51 162.917H2174.48L2153.21 178.962ZM2153.21 184.932L2178.59 165.529V170.007L2153.21 189.41V184.932ZM2012.54 190.902V186.425L2037.91 167.022V171.873L2012.54 190.902ZM2012.54 196.873L2037.91 177.47V182.32L2012.54 201.35V196.873ZM2012.54 206.947L2038.29 187.917C2038.66 187.917 2040.15 190.902 2040.15 191.276L2013.66 210.679C2013.29 211.052 2012.54 207.694 2012.54 207.32V206.947ZM2021.5 215.156L2017.39 214.037L2044.26 193.888C2046.5 193.888 2048.74 194.634 2048.74 194.634L2049.11 195.007L2022.24 214.783C2021.87 215.156 2021.5 215.156 2021.5 215.156ZM2166.65 216.276L2193.51 196.126V199.485V200.604L2168.14 220.007L2167.77 219.261V216.649C2167.77 216.649 2167.02 216.649 2166.65 216.276ZM2027.09 217.022L2052.47 197.992V202.47L2027.09 221.873V217.022ZM2027.09 232.321V227.47L2052.47 208.44V212.917L2027.09 232.321ZM2027.09 242.768V237.918L2052.47 218.888V223.365L2027.09 242.768ZM2027.09 248.365L2052.47 229.335V233.44L2027.09 252.47V248.365ZM2027.09 258.44L2052.47 239.41V243.888L2027.09 262.918V258.44ZM2027.09 273.365V268.888L2052.47 249.858V254.336L2027.09 273.365ZM2027.09 279.336L2052.47 260.306V264.783L2027.09 283.813V279.336ZM2027.09 289.783L2052.47 270.754V275.231L2027.09 294.261V289.783ZM2027.09 304.709V300.231L2052.47 280.828V285.679L2027.09 304.709ZM2027.09 315.157V310.679L2052.47 291.276V296.127L2027.09 315.157ZM2027.09 321.127L2052.47 301.724V306.575L2027.09 325.604V321.127ZM2111.05 330.828L2137.17 311.052C2137.54 311.425 2138.29 313.664 2138.66 314.784L2112.54 334.187C2111.8 333.067 2111.05 330.828 2111.05 330.828ZM2027.09 336.052V331.575L2052.47 312.172V316.649L2027.09 336.052ZM2027.09 346.5V341.649L2052.47 322.619V327.097L2027.09 346.5ZM2124.11 362.545L2150.23 343.142C2150.23 343.142 2151.35 345.008 2151.72 346.5L2125.97 365.903C2125.23 364.784 2124.11 362.545 2124.11 362.545ZM2128.96 374.112L2127.47 370.381L2153.59 350.978C2154.33 352.47 2155.08 354.336 2155.08 354.336L2128.96 374.112ZM2012.54 373.366L2037.91 354.336V358.814L2012.54 377.843V373.366ZM2131.95 381.948L2130.83 378.59L2156.95 358.814C2157.32 360.306 2158.44 362.172 2158.44 362.172L2131.95 381.948ZM2012.54 388.291V383.814L2037.54 365.157L2037.91 364.784V368.888L2012.54 388.291ZM2134.18 386.426L2159.93 367.023C2160.68 368.142 2161.42 370.381 2161.42 370.381L2135.3 389.784C2135.3 389.411 2134.18 387.172 2134.18 386.426ZM2137.54 394.261L2163.66 374.858C2163.66 374.858 2164.41 377.097 2164.41 378.59L2138.66 397.993C2138.29 397.247 2137.54 395.008 2137.54 394.261ZM2012.54 393.888L2037.91 374.858V379.336L2012.54 398.739V393.888ZM2140.9 402.097L2166.65 383.067C2167.39 384.187 2168.14 386.426 2168.14 386.426L2142.02 405.829C2141.65 405.082 2140.9 402.844 2140.9 402.097ZM2012.54 408.814V404.336L2037.54 385.679C2038.29 386.799 2038.66 388.291 2038.66 389.411C2038.29 389.411 2038.29 389.784 2038.29 389.784L2012.91 408.814H2012.54ZM2143.89 410.306L2169.63 390.903H2170L2172.24 393.142L2145.75 412.918C2145 412.545 2143.89 411.426 2143.89 410.306ZM2014.78 413.291L2040.9 393.515C2041.65 393.515 2042.39 394.261 2042.77 394.261C2043.88 394.635 2044.63 394.635 2045.75 394.635L2018.14 415.157C2016.65 415.157 2015.53 414.411 2014.78 413.291ZM2031.94 415.53H2025.6L2053.59 394.635H2059.56L2031.94 415.53ZM2039.78 415.53L2067.39 394.635H2073.36L2045.75 415.53H2039.78ZM2053.59 415.53L2081.2 394.635H2087.17L2059.56 415.53H2053.59ZM2150.23 415.53L2178.21 394.635H2184.18L2156.57 415.53H2150.23ZM2164.41 415.53L2192.02 394.635H2197.99L2170.38 415.53H2164.41ZM2178.21 415.53L2205.83 394.635H2212.17L2184.18 415.53H2178.21ZM2198.36 415.53H2192.02L2217.77 396.127H2218.14V400.605L2198.36 415.53ZM2067.39 415.53L2092.02 396.873V401.351L2073.36 415.53H2067.39ZM2212.17 415.53H2206.2L2218.14 406.575C2218.14 408.068 2218.14 410.679 2217.02 411.799L2212.17 415.53ZM2086.42 415.53H2081.2L2092.02 407.321C2092.02 411.053 2089.78 415.53 2086.42 415.53ZM2439.3 138.29L2454.22 136.798L2473.63 135.678H2489.67L2503.1 136.425L2514.67 137.917C2553.1 142.395 2560.94 179.335 2560.94 211.425C2560.94 215.156 2560.94 224.112 2555.34 224.112H2516.91C2512.06 224.112 2511.69 217.395 2511.31 214.037C2510.94 212.544 2510.57 205.455 2510.19 203.589C2509.07 196.126 2506.46 193.514 2498.63 191.649C2493.77 190.529 2488.92 190.529 2484.07 190.529H2474.74H2465.79C2458.7 190.529 2437.06 192.768 2437.06 200.604C2438.55 199.858 2443.03 198.365 2444.52 198.365H2444.89L2435.19 205.828C2434.82 206.201 2434.07 211.798 2434.07 212.171L2454.6 196.873H2459.45H2460.57L2433.33 217.022L2432.95 223.365V278.216C2434.45 274.858 2436.69 273.365 2440.42 273.365L2432.95 278.963V284.933L2448.25 273.365H2454.22L2432.95 289.41V291.276C2432.95 291.276 2432.95 293.888 2433.33 295.007L2457.58 276.724V281.201L2433.33 299.485V300.231C2433.33 301.724 2433.33 303.589 2433.7 304.709L2457.58 287.171V291.276L2434.07 309.187V309.933L2434.45 314.41C2434.82 314.41 2434.82 314.037 2434.82 314.037L2457.95 296.873C2458.33 297.992 2458.7 299.112 2459.45 300.231L2435.19 318.515C2435.19 318.515 2435.57 319.261 2435.57 320.007C2435.94 320.754 2436.31 321.873 2437.06 322.993L2463.18 303.216H2469.15L2441.54 323.739H2438.55H2437.43C2437.43 324.485 2438.55 325.978 2438.92 326.351C2443.03 331.948 2450.49 332.694 2456.46 333.067C2458.33 333.44 2465.79 333.44 2466.91 333.813H2467.66C2470.64 333.813 2478.1 333.44 2479.97 333.44V331.948L2504.97 312.918V313.664C2504.97 314.41 2505.34 317.395 2504.6 317.769L2483.7 333.813C2484.82 333.44 2491.54 333.44 2491.91 333.067L2503.48 324.485C2503.48 325.978 2503.1 327.843 2502.36 329.709C2501.98 330.082 2500.49 331.202 2500.12 331.575C2510.19 331.575 2510.94 310.306 2511.31 302.097V296.873H2469.52C2466.16 296.873 2463.92 291.649 2463.92 289.037V254.336C2463.92 250.977 2466.54 246.5 2470.64 246.5H2484.45L2507.58 228.962C2509.07 230.082 2510.19 230.455 2511.69 230.455L2490.42 246.5H2498.25L2519.52 230.455H2525.49L2504.22 246.5H2512.06L2529.22 233.44H2529.6V237.544L2517.66 246.5H2525.12C2526.24 245.753 2528.85 243.888 2529.22 243.515C2529.22 244.634 2528.85 245.753 2528.85 246.5H2554.6C2557.95 246.5 2561.31 250.231 2561.31 253.589V306.201L2560.19 325.604C2557.58 380.455 2520.64 388.664 2473.63 388.664C2437.06 388.664 2401.98 384.933 2389.67 343.515C2386.31 333.44 2384.45 322.246 2384.07 311.425L2383.33 295.38V227.843L2383.7 214.037L2385.19 200.977L2387.06 190.902C2391.91 163.664 2411.31 141.275 2439.3 138.29ZM2365.42 192.395L2388.92 174.858C2387.8 176.723 2386.68 178.962 2385.94 181.201L2361.68 199.485C2362.06 198.365 2364.67 192.768 2365.42 192.395ZM2358.7 207.694L2382.58 189.41H2382.95L2381.46 194.634L2356.83 213.291L2358.33 207.694H2358.7ZM2446.76 217.395H2441.16L2468.4 196.873H2474.37L2446.76 217.395ZM2454.97 217.395H2454.6L2482.21 196.873C2484.07 196.873 2485.94 196.873 2487.43 197.246L2460.19 217.395H2459.45H2458.33H2454.97ZM2466.91 218.514L2493.4 198.365H2493.77C2493.77 198.365 2494.89 198.365 2494.89 198.738C2495.27 198.738 2497.88 199.111 2497.88 199.858L2471.39 219.634C2471.01 219.634 2470.27 219.634 2470.27 219.261C2469.89 219.261 2467.66 218.888 2467.28 218.514H2466.91ZM2354.22 225.231V224.858L2354.97 220.753L2355.71 220.007L2379.6 202.097L2379.97 201.723L2379.22 206.201C2379.22 206.574 2379.22 206.947 2378.85 206.947L2354.22 225.231ZM2475.86 222.246V221.873L2501.61 202.843H2501.98C2502.36 203.216 2503.85 205.828 2503.48 205.828L2477.73 225.231C2477.36 224.485 2477.36 224.112 2476.98 223.738C2476.61 223.365 2475.49 222.619 2475.86 222.246ZM2478.85 230.082L2504.6 211.052C2504.6 211.425 2504.97 214.41 2504.97 215.156H2504.6L2479.6 234.186C2479.22 233.067 2478.85 230.828 2478.85 230.082ZM2353.48 231.947L2378.48 213.291C2378.48 214.41 2378.48 217.768 2378.1 218.141L2353.48 236.425L2353.1 236.798C2353.1 236.052 2353.1 232.321 2353.48 231.947ZM2479.97 239.783L2504.97 220.753H2505.34L2506.09 224.485L2480.34 243.888V243.515C2480.34 243.515 2479.97 241.276 2479.97 239.783ZM2352.73 242.768L2377.73 224.112C2377.73 224.858 2377.36 228.216 2377.36 228.216L2352.36 247.246V246.127C2352.36 245.38 2351.98 243.515 2352.73 242.768ZM2377.36 238.664L2351.98 257.694V253.589C2351.98 253.216 2351.98 253.216 2352.36 252.843L2377.36 234.186V238.664ZM2351.98 267.768V263.291L2377.36 244.634V249.112L2351.98 267.768ZM2351.98 273.739L2377.36 254.709V259.186L2351.98 278.216V273.739ZM2351.98 283.813L2377.36 265.156V269.634L2351.98 288.664V283.813ZM2351.98 298.739V294.261L2377.36 275.604V279.709L2351.98 298.739ZM2351.98 304.709L2377.36 285.679V290.157L2351.98 309.187V304.709ZM2351.98 314.784L2377.36 296.127V300.604L2351.98 319.261V314.784ZM2455.34 323.739H2449.37L2476.98 303.216H2482.95L2455.34 323.739ZM2463.18 323.739L2490.79 303.216H2496.39L2469.15 323.739H2463.18ZM2479.97 323.739H2476.98L2504.6 303.216H2505.34V306.948L2479.97 325.978V323.739ZM2351.98 325.231L2377.36 306.201V306.575V309.187V310.306L2352.36 329.336C2351.98 328.216 2351.98 327.097 2351.98 325.978V325.231ZM2352.36 334.933L2377.73 315.903C2378.1 317.395 2378.1 318.515 2378.1 320.381L2352.73 339.411V338.664C2352.73 338.664 2352.73 336.799 2352.36 334.933ZM2353.48 344.634L2378.85 325.978C2378.85 325.978 2379.22 328.216 2379.22 329.709L2353.85 348.739C2353.48 347.619 2353.48 346.127 2353.48 344.634ZM2500.12 331.948V331.575C2499.75 331.575 2499.75 331.948 2500.12 331.948ZM2354.6 353.963L2379.97 334.933C2380.34 336.425 2380.71 339.037 2380.71 339.037L2355.34 358.067L2354.6 353.963ZM2356.09 363.291V362.918L2381.83 343.888V344.261L2382.58 347.246L2357.21 366.649C2356.83 365.157 2356.09 363.291 2356.09 363.291ZM2358.33 371.5L2384.07 352.097C2384.82 353.217 2385.57 355.455 2385.57 355.455L2359.82 374.858H2359.45L2358.33 371.5ZM2361.68 379.336L2387.06 360.306L2387.43 359.933V360.306L2388.92 363.291L2363.18 382.694C2362.8 382.321 2362.06 380.829 2362.06 380.455C2361.68 380.082 2361.31 379.336 2361.68 379.336ZM2365.42 386.799L2391.16 367.396C2391.54 367.769 2393.03 369.635 2393.4 370.381L2367.28 389.784C2366.91 389.411 2365.79 387.545 2365.42 386.799ZM2369.89 393.515L2396.01 374.112L2398.63 376.724L2372.51 396.127L2371.39 395.008L2369.89 393.515ZM2375.86 399.485L2402.36 379.709C2403.1 380.455 2404.97 381.948 2404.97 381.948L2378.85 401.724C2378.48 401.724 2378.1 401.351 2378.1 401.351C2377.36 400.605 2375.86 399.485 2375.86 399.485ZM2382.95 404.336L2409.45 384.56L2412.8 386.426L2386.31 406.575C2384.82 405.829 2382.95 404.709 2382.95 404.709V404.336ZM2481.46 412.545L2510.19 390.903C2510.57 390.903 2512.06 390.53 2512.43 390.53L2519.15 388.291C2519.15 388.664 2518.77 389.038 2518.4 389.038L2490.79 409.933C2490.42 410.306 2482.21 412.545 2481.83 412.545H2481.46ZM2391.16 408.814L2418.03 388.664L2421.76 389.784H2422.13C2422.13 390.157 2422.13 390.157 2421.76 390.157L2395.27 409.933C2393.77 409.56 2392.28 409.187 2391.16 408.814ZM2400.86 411.799V411.426L2427.73 391.65L2428.1 391.276L2432.58 392.396L2405.71 412.545C2404.6 412.545 2401.24 411.799 2400.86 411.799ZM2464.67 414.784L2492.28 393.888L2499.74 393.142L2471.76 414.038C2471.39 414.411 2466.16 414.784 2465.79 414.784H2464.67ZM2412.06 413.291L2439.3 393.142L2444.15 393.888L2416.91 414.411L2412.06 413.665V413.291ZM2424 414.784L2451.24 394.635C2451.24 394.261 2451.24 394.261 2451.61 394.261C2453.1 394.261 2454.97 394.635 2456.83 394.635L2429.6 415.157C2428.1 415.157 2424.74 414.784 2424 414.784ZM2450.86 415.157L2478.48 394.635H2482.58H2483.7L2456.46 415.157H2454.97C2454.97 415.157 2451.98 415.53 2450.86 415.157ZM2443.03 415.53H2437.06L2464.3 395.008H2470.27L2443.03 415.53ZM2694.78 334.187V189.41L2685.83 186.798C2682.84 185.679 2680.6 182.693 2680.6 179.708V142.768C2680.6 140.156 2683.22 135.678 2686.2 135.678H2754.48C2757.47 135.678 2760.08 139.783 2760.08 142.395V179.708C2760.08 182.693 2757.84 186.052 2754.86 186.798C2753.37 187.171 2747.02 189.037 2745.9 189.41H2745.53V334.187L2755.6 337.545C2757.84 338.291 2760.08 341.649 2760.08 344.261V381.202C2760.08 384.56 2757.1 388.291 2754.11 388.291H2686.95C2683.59 388.291 2680.6 384.187 2680.6 381.202V343.515C2678.37 344.261 2676.13 345.381 2675.38 347.62C2675.01 348.366 2675.01 349.112 2674.63 349.485L2663.44 358.067V353.217L2688.81 334.187V336.425L2694.78 334.187ZM2650.75 165.529C2651.87 164.783 2653.37 162.917 2655.23 162.917H2660.45L2648.89 171.499C2648.89 169.634 2649.26 166.649 2650.75 165.529ZM2648.89 177.47L2668.29 162.917H2674.26L2648.89 181.947V177.47ZM2648.89 187.917L2674.63 168.514V172.992L2648.89 192.395V187.917ZM2648.89 202.843V197.992L2673.89 179.335C2674.26 179.335 2674.26 178.962 2674.63 178.962V183.44L2648.89 202.843ZM2649.26 208.44L2675.38 189.037C2675.75 190.156 2676.5 190.902 2677.25 192.022L2650.75 211.798C2650.38 211.425 2648.89 208.813 2649.26 208.44ZM2659.34 215.529L2655.23 214.41L2682.1 193.888H2682.84L2686.57 195.007V195.38L2659.34 215.529ZM2663.44 222.619V218.514L2688.81 199.485V203.589L2663.44 222.619ZM2663.44 228.589L2688.81 209.559V214.037L2663.44 233.067V228.589ZM2663.44 239.037L2688.81 220.007V224.485L2663.44 243.515V239.037ZM2663.44 253.962V249.485L2688.81 230.455V234.932L2663.44 253.962ZM2663.44 259.933L2688.81 240.903V245.38L2663.44 264.41V259.933ZM2663.44 270.38L2688.81 251.35V255.828L2663.44 274.858V270.38ZM2663.44 285.306V280.828L2688.81 261.425V266.276L2663.44 285.306ZM2663.44 295.754V291.276L2688.81 271.873V276.724L2663.44 295.754ZM2663.44 301.724L2688.81 282.321V286.798L2663.44 306.201V301.724ZM2663.44 316.649V312.172L2688.81 292.769V297.246L2663.44 316.649ZM2663.44 327.097V322.246L2688.81 303.216V307.694L2663.44 327.097ZM2663.44 332.694L2688.81 313.664V318.142L2663.44 337.545V332.694ZM2663.44 343.142L2688.81 324.112V328.216L2663.44 347.62V343.142ZM2648.89 374.485L2674.63 355.455V359.933L2648.89 379.336V374.485ZM2654.11 364.784L2650.01 367.769C2650.01 366.649 2653.37 364.784 2654.11 364.784ZM2648.89 389.411V384.933L2673.89 366.276C2674.26 366.276 2674.26 365.903 2674.63 365.903V370.381L2648.89 389.411ZM2648.89 399.859V395.381L2674.63 376.351V380.829L2648.89 399.859ZM2648.89 405.829L2674.26 386.799H2674.63C2674.63 388.291 2675.01 389.411 2675.38 390.53L2649.26 409.933C2648.89 409.187 2648.89 408.068 2648.89 406.948V405.829ZM2651.87 414.038H2652.25L2678.37 394.261C2679.48 394.261 2680.23 394.635 2680.98 394.635H2683.96L2655.98 415.53C2654.48 415.53 2652.62 415.157 2651.87 414.038ZM2670.16 415.53H2664.19L2691.8 394.635H2697.77L2670.16 415.53ZM2677.99 415.53L2705.6 394.635H2711.57L2683.96 415.53H2677.99ZM2691.8 415.53L2719.78 394.635H2725.75L2697.77 415.53H2691.8ZM2711.95 415.53H2705.98L2728.74 398.366V402.844L2711.95 415.53ZM2722.77 415.53H2719.78L2728.37 408.814C2728.37 411.799 2725.75 415.53 2722.77 415.53ZM2893.55 334.187V189.41L2884.6 186.798C2881.61 185.679 2879.37 182.693 2879.37 179.708V142.768C2879.37 140.156 2881.99 135.678 2884.97 135.678H2962.58C2965.19 135.678 2967.06 138.663 2967.81 140.529L2989.82 193.888L3013.7 175.977V180.455L2991.69 197.246C2992.06 199.111 2992.43 200.604 2993.18 201.723L3014.08 186.425C3014.45 187.544 3014.45 189.037 3015.19 190.156L2994.67 205.455L2996.54 209.932L3018.93 193.141C3018.93 193.141 3021.54 193.888 3023.4 194.261L2998.03 213.291L3003.25 225.604L3029 206.574V209.932V211.052L3005.12 228.962C3005.12 230.082 3006.24 232.694 3006.61 233.44L3029 217.022V220.38V221.126L3008.11 236.798V237.171L3009.97 241.649L3029.37 227.097V231.574L3011.46 245.007C3011.46 245.753 3012.58 248.365 3013.7 249.112L3029.37 237.171C3029.37 237.918 3029.37 240.903 3029.75 241.649L3014.45 252.843L3016.31 257.321H3016.69L3029.75 247.619V251.724L3018.18 260.306C3018.18 261.798 3019.3 264.41 3020.05 265.156L3029.75 257.694V262.171L3021.54 268.515C3021.54 269.261 3022.28 271.873 3023.03 272.992L3030.12 268.142V271.127V272.246L3024.52 276.351C3024.9 277.47 3026.02 280.082 3026.39 280.828L3030.12 278.216C3030.49 279.336 3030.49 280.082 3030.49 281.201C3030.49 281.574 3030.49 282.321 3030.12 282.694C3030.12 282.694 3028.25 284.186 3027.88 284.56L3029.75 289.037L3030.49 288.291V290.903V291.649L3036.84 306.948L3034.6 190.156C3034.6 189.41 3034.6 189.41 3034.22 189.41C3027.88 187.544 3020.05 187.171 3020.05 178.962V143.141C3020.05 140.156 3022.66 135.678 3026.02 135.678H3093.93C3096.91 135.678 3099.52 139.783 3099.52 142.395V179.708C3099.52 183.067 3097.28 185.679 3094.3 186.798L3084.97 189.41V380.829C3084.97 384.187 3082.36 388.291 3079 388.291H3016.69C3014.08 388.291 3011.84 385.306 3010.72 383.067L2942.06 216.649C2942.06 220.753 2942.43 236.425 2943.18 240.156C2943.55 240.903 2944.3 242.768 2944.3 242.768V243.141C2943.93 243.141 2943.18 243.888 2942.81 245.007V250.231L2946.16 247.619C2946.54 248.739 2947.66 250.977 2947.66 250.977L2942.81 254.709V255.455V260.306H2943.18C2943.93 259.559 2948.03 256.574 2949.52 255.828C2949.9 256.574 2950.64 258.067 2950.64 259.186L2943.18 264.783V265.903V270.754L2952.88 263.664C2952.88 264.41 2953.63 266.276 2954 267.022L2943.18 275.231V276.351C2943.18 278.216 2943.18 279.336 2943.55 280.828L2955.87 271.5C2956.24 272.246 2957.36 274.485 2957.36 275.231L2943.55 285.306V286.798V291.276L2958.85 279.709C2959.6 280.082 2960.34 282.321 2960.34 283.067L2943.55 295.754V297.619C2943.55 297.619 2943.55 300.231 2943.93 301.351L2962.58 287.545C2962.96 288.291 2963.7 290.157 2963.7 290.903L2943.93 305.828V311.798L2965.94 295.38L2967.06 298.366C2967.06 298.739 2966.69 298.739 2966.69 299.112L2944.3 315.903C2943.93 315.903 2943.93 315.903 2943.93 316.276C2943.93 317.396 2943.93 321.127 2944.3 321.873L2968.93 303.216C2969.3 303.589 2970.05 305.828 2970.05 306.948L2944.3 326.351V327.843V333.44V334.187L2951.76 336.799L2975.27 319.261C2976.02 320.381 2977.13 322.619 2977.13 322.619L2955.87 338.291C2956.99 339.41 2957.73 340.53 2958.48 342.022L2978.63 327.47C2979.37 328.216 2980.12 330.455 2980.12 330.455L2959.22 346.5V352.097L2981.61 335.306C2982.36 335.679 2983.11 337.545 2983.48 338.291L2959.22 356.948V380.829C2959.22 384.187 2956.24 388.291 2952.88 388.291H2885.34C2881.99 388.291 2879.37 384.187 2879.37 381.202V343.515C2877.13 344.261 2874.9 345.754 2873.78 347.993L2862.21 356.948V352.097L2887.58 333.067V336.425L2893.55 334.187ZM2856.99 162.917L2847.66 170.007C2848.03 167.022 2850.27 162.917 2853.63 162.917H2856.99ZM2847.66 175.977L2864.82 162.917H2871.16L2847.66 180.455V175.977ZM2995.79 162.917L2988.7 168.141C2988.7 165.529 2992.81 162.917 2995.79 162.917ZM2988.33 178.962V174.484L3003.63 162.917H3009.6L2988.33 178.962ZM2988.33 184.932L3013.7 165.529V170.007L2988.33 189.41V184.932ZM2847.66 190.902V186.425L2873.03 167.022V171.873L2847.66 190.902ZM2847.66 196.873L2873.03 177.47V182.32L2847.66 201.35V196.873ZM2847.66 206.947L2873.4 187.917C2873.78 187.917 2875.27 190.902 2875.27 191.276L2848.78 210.679C2848.4 211.052 2847.66 207.694 2847.66 207.32V206.947ZM2856.61 215.156L2852.51 214.037L2879.37 193.888C2881.61 193.888 2883.85 194.634 2883.85 194.634L2884.22 195.007L2857.36 214.783C2856.99 215.156 2856.61 215.156 2856.61 215.156ZM3001.76 216.276L3028.63 196.126V199.485V200.604L3003.25 220.007L3002.88 219.261V216.649C3002.88 216.649 3002.14 216.649 3001.76 216.276ZM2862.21 217.022L2887.58 197.992V202.47L2862.21 221.873V217.022ZM2862.21 232.321V227.47L2887.58 208.44V212.917L2862.21 232.321ZM2862.21 242.768V237.918L2887.58 218.888V223.365L2862.21 242.768ZM2862.21 248.365L2887.58 229.335V233.44L2862.21 252.47V248.365ZM2862.21 258.44L2887.58 239.41V243.888L2862.21 262.918V258.44ZM2862.21 273.365V268.888L2887.58 249.858V254.336L2862.21 273.365ZM2862.21 279.336L2887.58 260.306V264.783L2862.21 283.813V279.336ZM2862.21 289.783L2887.58 270.754V275.231L2862.21 294.261V289.783ZM2862.21 304.709V300.231L2887.58 280.828V285.679L2862.21 304.709ZM2862.21 315.157V310.679L2887.58 291.276V296.127L2862.21 315.157ZM2862.21 321.127L2887.58 301.724V306.575L2862.21 325.604V321.127ZM2946.16 330.828L2972.28 311.052C2972.66 311.425 2973.4 313.664 2973.78 314.784L2947.66 334.187C2946.91 333.067 2946.16 330.828 2946.16 330.828ZM2862.21 336.052V331.575L2887.58 312.172V316.649L2862.21 336.052ZM2862.21 346.5V341.649L2887.58 322.619V327.097L2862.21 346.5ZM2959.22 362.545L2985.34 343.142C2985.34 343.142 2986.46 345.008 2986.84 346.5L2961.09 365.903C2960.34 364.784 2959.22 362.545 2959.22 362.545ZM2964.08 374.112L2962.58 370.381L2988.7 350.978C2989.45 352.47 2990.19 354.336 2990.19 354.336L2964.08 374.112ZM2847.66 373.366L2873.03 354.336V358.814L2847.66 377.843V373.366ZM2967.06 381.948L2965.94 378.59L2992.06 358.814C2992.43 360.306 2993.55 362.172 2993.55 362.172L2967.06 381.948ZM2847.66 388.291V383.814L2872.66 365.157L2873.03 364.784V368.888L2847.66 388.291ZM2969.3 386.426L2995.05 367.023C2995.79 368.142 2996.54 370.381 2996.54 370.381L2970.42 389.784C2970.42 389.411 2969.3 387.172 2969.3 386.426ZM2972.66 394.261L2998.78 374.858C2998.78 374.858 2999.52 377.097 2999.52 378.59L2973.78 397.993C2973.4 397.247 2972.66 395.008 2972.66 394.261ZM2847.66 393.888L2873.03 374.858V379.336L2847.66 398.739V393.888ZM2976.02 402.097L3001.76 383.067C3002.51 384.187 3003.25 386.426 3003.25 386.426L2977.13 405.829C2976.76 405.082 2976.02 402.844 2976.02 402.097ZM2847.66 408.814V404.336L2872.66 385.679C2873.4 386.799 2873.78 388.291 2873.78 389.411C2873.4 389.411 2873.4 389.784 2873.4 389.784L2848.03 408.814H2847.66ZM2979 410.306L3004.75 390.903H3005.12L3007.36 393.142L2980.87 412.918C2980.12 412.545 2979 411.426 2979 410.306ZM2849.9 413.291L2876.02 393.515C2876.76 393.515 2877.51 394.261 2877.88 394.261C2879 394.635 2879.75 394.635 2880.87 394.635L2853.25 415.157C2851.76 415.157 2850.64 414.411 2849.9 413.291ZM2867.06 415.53H2860.72L2888.7 394.635H2894.67L2867.06 415.53ZM2874.9 415.53L2902.51 394.635H2908.48L2880.87 415.53H2874.9ZM2888.7 415.53L2916.31 394.635H2922.28L2894.67 415.53H2888.7ZM2985.34 415.53L3013.33 394.635H3019.3L2991.69 415.53H2985.34ZM2999.52 415.53L3027.14 394.635H3033.11L3005.49 415.53H2999.52ZM3013.33 415.53L3040.94 394.635H3047.28L3019.3 415.53H3013.33ZM3033.48 415.53H3027.14L3052.88 396.127H3053.25V400.605L3033.48 415.53ZM2902.51 415.53L2927.13 396.873V401.351L2908.48 415.53H2902.51ZM3047.28 415.53H3041.31L3053.25 406.575C3053.25 408.068 3053.25 410.679 3052.14 411.799L3047.28 415.53ZM2921.54 415.53H2916.31L2927.13 407.321C2927.13 411.053 2924.9 415.53 2921.54 415.53ZM3232.99 334.187V189.41L3223.29 186.052C3220.68 185.305 3218.81 181.947 3218.81 179.335V143.141C3218.81 140.529 3221.43 135.678 3224.41 135.678H3372.55C3375.53 135.678 3378.14 139.783 3378.14 142.395V202.097C3378.14 204.708 3375.16 208.813 3372.55 208.813H3342.32C3339.71 208.813 3337.47 205.082 3337.1 202.843L3334.49 191.276H3283.74V197.619H3289.34L3283.74 201.723V207.694L3297.17 197.619H3303.14L3283.74 212.171V218.141L3310.98 197.619H3317.32L3289.34 218.514H3283.74V233.067H3306.5L3306.13 232.694L3306.5 232.321L3332.62 212.917C3333.37 213.664 3334.49 214.41 3335.61 215.156L3311.73 233.067H3319.56L3343.07 215.529H3346.43V217.395L3325.53 233.067H3329.64C3330.38 233.067 3331.13 233.813 3332.25 233.813L3346.43 223.365V227.843L3335.23 236.425H3334.11C3334.49 237.171 3335.23 238.664 3335.23 240.156V280.082C3335.23 283.813 3332.25 287.171 3328.52 287.171H3283.74V293.515H3285.98C3285.61 293.888 3284.11 295.007 3283.74 295.38V300.978L3293.82 293.515H3299.79L3283.74 305.828V311.425L3303.52 296.873V301.351L3285.98 314.41H3283.74V332.694H3335.23L3338.22 320.381C3338.59 318.142 3340.83 314.784 3343.82 314.784H3372.92C3375.91 314.784 3378.89 318.888 3378.89 321.873V381.575C3378.89 384.187 3375.91 388.291 3372.92 388.291H3224.79C3221.8 388.291 3218.81 383.814 3218.81 380.829V343.515C3216.95 344.261 3215.08 345.008 3213.96 346.873C3213.59 347.246 3213.59 347.993 3213.22 348.366L3201.65 356.948V352.47L3227.02 333.44V336.425C3227.77 336.052 3231.87 334.933 3232.99 334.187ZM3193.07 162.917H3197.17L3187.1 170.38C3187.1 167.395 3189.71 162.917 3193.07 162.917ZM3187.1 180.828V176.35L3205.01 162.917H3210.98L3187.1 180.828ZM3187.1 186.798L3212.47 167.395V172.246L3187.1 191.276V186.798ZM3187.1 201.723V197.246L3212.1 178.216H3212.47V182.32L3187.1 201.723ZM3187.1 207.32L3212.84 188.291C3213.96 189.41 3214.34 190.156 3215.08 191.276L3188.59 210.679C3188.22 210.679 3187.1 208.067 3187.1 207.32ZM3196.8 215.156L3192.7 213.664L3219.56 193.514H3219.93L3224.04 194.634L3196.8 215.156ZM3297.17 218.514L3325.16 197.619H3328.14C3328.52 197.992 3328.52 198.738 3328.52 199.485L3303.14 218.514H3302.77H3297.17ZM3201.65 222.246V217.395L3227.02 198.365V202.843L3201.65 222.246ZM3304.64 227.843L3303.89 223.738L3329.64 204.708L3330.01 204.335L3330.76 208.44L3304.64 227.843ZM3201.65 227.843L3227.02 208.813V212.917L3201.65 231.947V227.843ZM3201.65 237.918L3227.02 218.888V223.365L3201.65 242.395V237.918ZM3201.65 252.843V248.365L3227.02 229.335V233.813L3201.65 252.843ZM3201.65 263.291V258.813L3227.02 239.783V244.261L3201.65 263.291ZM3201.65 269.261L3227.02 250.231V254.709L3201.65 273.739V269.261ZM3201.65 284.186V279.709L3227.02 260.679V265.156L3201.65 284.186ZM3201.65 294.634V290.157L3227.02 271.127V275.604L3201.65 294.634ZM3201.65 300.604L3227.02 281.201V286.052L3201.65 305.082V300.604ZM3201.65 311.052L3227.02 291.649V296.5L3201.65 315.53V311.052ZM3201.65 325.978V321.5L3227.02 302.097V306.948L3201.65 325.978ZM3297.92 314.41H3293.82L3303.52 307.321C3303.52 310.306 3301.28 314.41 3297.92 314.41ZM3201.65 331.948L3227.02 312.545V317.022L3201.65 336.425V331.948ZM3201.65 342.022L3227.02 322.993V327.47L3201.65 346.873V342.022ZM3187.1 373.366L3212.47 354.336V358.814L3187.1 378.217V373.366ZM3187.1 383.814L3212.47 364.784V369.261L3187.1 388.664V383.814ZM3187.1 399.112V394.261L3212.47 375.232V379.709L3187.1 399.112ZM3187.1 404.709L3212.47 385.679C3212.85 387.172 3213.22 388.291 3213.22 389.784L3212.84 390.157L3187.47 408.814L3187.1 409.187V404.709ZM3189.34 413.665L3215.83 393.888C3217.7 394.635 3218.81 394.635 3220.68 394.635L3193.07 415.53C3191.58 415.53 3190.08 414.411 3189.34 413.665ZM3200.9 415.53L3228.52 394.635H3234.49L3206.87 415.53H3200.9ZM3220.68 415.53H3214.71L3242.32 394.635H3248.29L3220.68 415.53ZM3234.49 415.53H3228.52L3255.76 395.008C3256.13 394.635 3256.5 394.635 3256.5 394.635H3262.47L3234.49 415.53ZM3242.32 415.53L3270.31 394.635H3276.28L3249.04 415.157C3248.67 415.53 3248.67 415.53 3248.29 415.53H3242.32ZM3256.5 415.53L3284.11 394.635H3290.08L3262.47 415.53H3256.5ZM3276.28 415.53H3270.31L3297.92 394.635H3304.26L3276.28 415.53ZM3284.11 415.53L3312.1 394.635H3317.32L3289.71 415.53H3284.11ZM3303.52 415.53H3297.55L3325.16 394.635H3331.5L3303.52 415.53ZM3311.35 415.53L3339.34 394.635H3345.31L3317.7 415.53H3311.35ZM3325.53 415.53L3347.17 399.112V403.59L3331.5 415.53H3325.53ZM3339.34 415.53L3347.17 409.933C3347.17 412.918 3343.44 415.53 3340.46 415.53H3339.34Z" fill="white"/>
<path d="M1064.78 504.124L1089.85 502.78H1109.55L1120.3 503.228L1137.31 505.019C1182.98 509.497 1192.84 551.586 1192.84 590.093C1192.84 595.019 1193.28 607.108 1185.67 607.108H1140.45C1133.73 607.108 1132.84 599.049 1132.84 593.676L1132.39 576.661C1131.94 566.81 1118.06 566.362 1111.34 566.362H1088.95C1083.58 566.362 1078.21 567.258 1072.84 568.601C1061.19 570.392 1059.4 573.974 1058.95 585.168L1072.39 574.87C1074.18 573.974 1078.21 573.974 1080 573.974L1058.51 590.093V597.258L1089.4 573.974H1096.57L1063.43 599.049H1058.51C1058.51 614.72 1064.78 616.959 1079.1 618.302L1093.43 619.646H1094.78V619.198L1125.22 596.362C1125.67 597.705 1125.22 599.496 1125.22 599.944V601.735L1101.49 619.646L1101.04 620.093L1109.1 620.989L1126.12 608.004C1126.57 608.452 1127.01 609.795 1127.01 610.243C1127.01 610.69 1127.91 611.586 1127.91 612.034L1115.82 621.437H1116.72C1116.72 621.437 1121.64 621.884 1124.33 621.884L1134.18 614.72H1141.34L1130.6 622.78L1137.76 623.676H1138.66L1150.75 614.72H1155.22V616.511L1144.03 625.019L1150.75 626.362C1152.54 626.362 1153.43 624.123 1155.22 623.676V627.705H1155.67C1195.52 640.69 1197.31 674.72 1197.31 710.541C1197.31 803.675 1159.25 805.914 1080 805.914L1056.27 804.123C1018.21 801.436 998.955 767.854 998.06 732.481L997.612 711.437V709.198C997.612 702.929 998.06 697.108 1004.33 694.869H1010.15L1028.06 681.884C1029.4 681.884 1031.19 682.78 1032.54 683.675L1017.31 694.869H1026.72L1039.25 685.914L1044.63 687.257L1033.88 694.869H1043.28L1052.24 688.153L1058.06 689.048L1050.45 694.869C1052.69 695.317 1054.03 696.213 1055.82 698.004L1066.12 690.392V689.944L1072.39 690.84L1057.61 702.034C1057.16 702.929 1057.16 703.377 1057.16 703.377C1057.16 704.272 1057.61 707.854 1057.61 708.75L1080.9 691.735L1081.34 691.287C1083.13 691.287 1085.37 691.735 1087.16 691.735L1057.61 714.123V716.81C1057.61 733.377 1057.61 739.645 1076.87 741.436C1084.03 742.332 1090.75 742.332 1097.91 742.332H1100.15V738.302L1130.15 715.914C1130.6 716.81 1130.6 718.153 1130.6 719.496V720.839L1101.94 742.332H1105.07H1108.21H1111.34L1130.15 728.451V729.347C1130.15 730.242 1130.15 732.929 1129.7 733.377L1119.85 741.436C1122.54 741.436 1124.78 740.093 1127.01 739.645C1138.21 735.616 1137.31 723.974 1137.76 714.123C1137.76 708.75 1137.31 703.825 1136.87 698.451C1135.07 687.705 1126.12 685.466 1116.72 685.019L1093.43 684.123L1069.25 682.332L1050.9 679.198C1016.87 674.272 1000.75 641.138 999.403 609.795L998.955 592.332C998.955 546.213 1012.39 507.258 1064.78 504.124ZM1000.3 548.004L972.09 569.049C972.09 567.705 977.015 560.989 978.806 558.75L999.403 543.079C999.851 542.631 1003.43 541.288 1003.88 541.288L1000.3 548.004ZM967.164 579.795L996.716 557.855V558.303C996.716 558.303 995.373 562.332 994.925 564.571L965.373 586.511V585.168C965.821 584.273 966.716 580.691 967.164 579.795ZM963.582 594.571L993.582 572.183L992.686 578.452L962.687 600.84L963.582 595.019V594.571ZM1072.84 598.601L1105.52 574.422V573.974C1108.21 573.974 1109.55 573.974 1112.24 574.87L1079.55 599.049H1077.76C1077.76 599.049 1073.73 599.049 1072.84 598.601ZM1087.16 600.392L1118.95 576.661C1120.3 576.661 1122.09 578.004 1122.98 578.899L1092.09 602.183C1089.85 601.287 1088.51 600.84 1087.16 600.392ZM1094.33 607.108L1125.22 584.273V588.75V589.646L1094.78 612.034C1094.78 610.69 1094.33 608.899 1094.33 607.108ZM961.791 612.929V608.452L991.791 585.616V586.959C991.791 588.302 992.686 590.541 991.343 591.437L961.791 613.825V612.929ZM961.343 620.989L991.343 598.601H991.791V603.526L961.791 625.914L961.343 626.362V620.989ZM961.791 633.078L991.791 610.69C992.239 612.034 992.239 613.377 992.239 614.72V615.616L962.239 638.004C961.791 637.556 961.343 634.422 961.343 633.526C961.343 633.078 961.343 633.078 961.791 633.078ZM962.687 644.72L992.686 622.332C993.134 624.123 993.582 627.258 993.582 627.258L962.687 650.093C962.687 649.198 962.239 646.064 962.239 645.168L962.687 644.72ZM964.03 655.914L994.478 633.526L994.925 637.108L995.373 637.556C995.373 637.556 994.925 637.556 994.925 638.004L964.478 660.392C964.478 659.496 964.03 657.258 964.03 655.914ZM965.821 666.213H966.269L996.716 643.377L998.06 647.855L967.164 670.69C967.164 670.243 966.716 669.347 966.716 668.899C966.269 668.452 965.821 666.213 965.821 666.213ZM969.403 676.063L999.851 653.228H1000.3L1002.09 656.81L971.194 680.093C970.746 679.198 969.851 677.854 969.403 676.063ZM973.881 685.019L1004.78 662.183L1005.22 661.735V662.183L1007.46 665.317L976.119 688.601C976.119 688.601 974.776 686.362 973.881 685.019ZM979.701 693.078L1011.04 669.795L1014.18 672.929L982.388 696.213C982.388 696.213 981.045 694.422 979.701 693.078ZM987.313 699.795L1018.66 676.511L1022.69 678.75L991.343 702.481C990 702.034 987.761 700.69 987.313 699.795ZM1063.88 716.81L1096.12 692.183H1096.57H1097.46H1100.15H1103.28L1070.6 716.81C1070.15 717.257 1070.6 716.81 1070.15 716.81H1063.88ZM1084.93 718.153L1079.1 717.257L1111.79 693.078C1113.13 693.078 1115.82 693.526 1117.16 693.974L1084.93 718.153ZM1091.64 719.944L1123.43 696.213C1125.22 696.213 1127.01 698.899 1127.01 698.899L1096.12 722.183C1094.78 721.287 1092.09 720.392 1091.64 719.944ZM1098.36 727.108L1128.81 704.272H1129.25C1130.15 705.168 1129.7 707.407 1129.7 708.75V709.198L1099.25 732.033C1099.25 730.242 1098.81 728.899 1098.36 727.108ZM961.343 731.586L967.164 727.108H974.328L960 737.854C960 736.511 960.448 732.033 961.343 731.586ZM960 745.019L983.731 727.108H990.448V727.556L960 750.392V745.019ZM960 757.108L990.448 734.272C990.448 735.168 990.895 737.854 990.895 739.645L960.448 762.481C960 760.69 960 759.347 960 757.108ZM960.896 768.75L991.343 746.362C991.343 746.362 991.791 749.496 991.791 751.287L961.343 773.675C961.343 773.675 960.896 770.989 960.896 768.75ZM962.239 779.944L992.686 757.108C993.134 758.899 994.03 761.586 994.03 762.033L963.134 784.869L962.239 780.392V779.944ZM965.821 795.168L964.478 790.69L994.925 767.854H995.373L996.716 771.884L965.821 795.168ZM969.851 804.123L968.06 800.541L998.955 777.257C999.403 777.257 999.403 777.257 999.403 777.705L1001.19 780.839L969.851 804.123ZM972.985 808.6L1003.88 785.765L1006.12 788.899V789.347L975.224 812.63L972.985 809.048V808.6ZM978.358 817.108L1009.7 793.824L1010.15 793.377L1013.28 796.511L981.492 820.242L979.701 818.451C979.701 818.003 978.806 817.108 978.358 817.108ZM985.97 823.824L1017.31 800.541L1017.76 800.093L1021.34 802.78L989.552 826.511C989.552 826.511 988.209 825.168 987.313 824.72C987.313 824.72 985.97 824.272 985.97 823.824ZM995.373 829.197L1026.72 805.466H1027.16L1031.64 807.257L999.851 830.988L999.403 831.436C998.507 831.436 995.821 830.093 995.373 829.197ZM1101.49 836.362H1101.04L1134.63 811.287C1135.07 810.839 1139.55 809.944 1140.45 809.944C1140.9 809.496 1144.48 808.6 1145.37 808.6L1110.45 834.571C1110 835.018 1102.39 836.362 1101.49 836.362ZM1006.12 833.675L1038.36 809.496L1043.73 810.839L1011.04 835.018C1009.7 835.018 1007.46 834.571 1006.12 833.675ZM1019.1 836.362H1018.66L1050.9 812.183C1051.34 811.735 1051.34 812.183 1051.79 812.183C1053.58 812.183 1055.82 812.183 1057.61 812.63L1024.93 836.809C1022.69 836.809 1019.55 836.362 1019.1 836.362ZM1082.24 838.153L1115.37 813.526C1116.27 812.63 1122.09 812.63 1123.43 812.63L1090.3 837.257C1090.3 837.705 1085.82 837.705 1082.24 838.153ZM1033.88 837.705H1033.43L1066.12 813.078H1067.01C1068.81 813.078 1071.04 813.078 1072.84 813.526L1040.15 838.153H1039.25C1038.36 838.153 1034.33 837.705 1033.88 837.705ZM1065.22 838.6L1097.91 813.974H1098.36C1098.36 813.526 1102.39 813.526 1105.52 813.526L1072.39 838.6H1065.22ZM1049.1 838.153L1081.79 813.974H1088.95L1055.82 838.6H1054.03C1052.24 838.6 1050.9 838.6 1049.1 838.153ZM1418.37 689.944L1360.61 568.153L1346.73 564.123C1343.15 562.78 1340.46 558.75 1340.46 555.168V511.288C1340.46 508.153 1343.6 502.78 1347.18 502.78H1433.6C1437.18 502.78 1440.76 508.153 1440.76 511.735V535.915H1442.55C1442.1 536.362 1440.76 537.258 1440.76 537.258V544.422L1450.61 536.81V542.183L1440.76 549.795C1440.76 552.482 1440.31 554.72 1440.76 556.959L1450.61 549.347V554.72L1429.57 570.392C1430.46 572.631 1430.91 574.422 1431.8 575.765L1450.61 561.885C1451.06 563.676 1451.06 565.019 1451.51 566.81L1434.04 579.795C1434.04 580.691 1435.39 583.825 1436.73 585.168L1455.54 570.84L1460.46 572.631L1438.07 589.198L1440.31 594.571H1440.76L1461.8 578.899L1457.77 586.959L1442.55 598.601C1443 600.392 1443.89 602.183 1445.24 603.526C1446.58 602.631 1451.95 598.601 1452.85 598.601C1451.95 599.496 1449.72 604.87 1449.27 605.765C1448.37 606.661 1446.58 607.108 1446.58 608.452L1449.27 613.825L1471.21 566.362C1469.86 565.467 1464.49 563.676 1463.6 563.676C1459.57 562.332 1458.22 558.75 1458.22 554.72V512.631C1458.22 508.601 1460.91 503.228 1465.39 503.228H1551.36C1554.94 503.228 1558.07 507.706 1558.07 511.288V556.064C1558.07 559.646 1555.39 562.78 1552.25 564.123L1538.82 568.153L1479.72 689.944V740.989C1485.09 743.227 1496.73 745.019 1496.73 753.078V796.959C1496.73 800.989 1493.6 805.914 1489.12 805.914H1408.52C1404.04 805.914 1400.91 800.541 1400.91 796.959V753.526C1400.91 753.526 1400.91 752.63 1401.36 752.183C1398.67 753.078 1396.43 754.869 1395.09 757.108C1394.64 757.556 1394.19 759.347 1393.75 759.795L1380.76 769.645V764.272L1411.21 740.989V743.227C1413.89 742.332 1416.13 741.884 1418.37 740.989V689.944ZM1303.3 540.392C1303.3 538.153 1307.78 535.467 1310.01 535.467V535.915C1309.57 535.915 1305.54 539.049 1303.3 540.392ZM1302.4 553.825V548.452L1319.86 535.467H1327.03L1302.4 553.825ZM1302.4 560.989L1333.3 538.153V543.526L1302.4 566.362V560.989ZM1302.4 578.899V573.526L1332.4 550.691H1333.3V556.064L1302.4 578.899ZM1302.4 586.064L1333.3 562.78C1333.3 564.123 1334.64 566.81 1334.64 567.258L1302.85 590.989C1302.4 590.989 1302.4 587.407 1302.4 586.959V586.064ZM1427.33 565.914C1427.33 566.362 1429.12 570.392 1429.57 570.392C1430.91 570.392 1432.7 565.914 1432.7 564.123L1427.78 565.914H1427.33ZM1306.43 595.467L1338.22 571.735L1338.67 571.288L1343.15 573.079L1310.46 597.258C1310.01 597.258 1306.43 595.914 1306.43 595.467ZM1317.63 599.496H1317.18L1349.86 574.87C1351.21 575.317 1353 575.765 1353 575.765L1353.89 577.108C1353.89 577.556 1353.45 577.556 1353.45 577.556L1322.55 600.84C1320.76 600.392 1317.63 599.496 1317.63 599.496ZM1326.58 609.795L1324.79 606.213L1356.13 582.482C1356.58 582.482 1356.58 582.929 1356.58 582.929L1358.37 586.511L1327.03 609.795H1326.58ZM1329.72 615.168L1360.61 591.885C1360.61 591.885 1361.95 593.676 1362.4 594.571V595.914L1331.06 619.198L1329.27 615.616C1329.27 615.168 1329.72 615.168 1329.72 615.168ZM1333.75 624.571L1365.09 600.84L1366.88 604.87L1335.98 628.601C1335.09 627.705 1334.19 625.467 1333.75 624.571ZM1338.67 633.526L1369.57 610.243L1371.36 613.825C1371.36 614.273 1371.36 614.273 1370.91 614.273L1340.01 638.004L1338.22 633.974C1338.22 633.526 1338.67 633.526 1338.67 633.526ZM1344.49 646.959L1342.7 642.929L1374.04 619.646C1374.04 619.646 1374.94 621.884 1375.83 623.228L1344.49 646.959ZM1347.18 651.884L1378.52 628.601L1379.86 631.287C1379.86 631.735 1380.31 632.631 1380.31 632.631L1348.52 655.914C1348.52 655.914 1347.63 653.675 1347.18 651.884ZM1353 665.317L1351.21 661.287L1382.55 638.004L1384.79 641.586C1384.79 642.034 1384.34 642.034 1384.34 642.034L1353 665.317ZM1357.48 674.272L1355.69 670.69L1386.58 647.407L1387.03 646.959L1387.48 647.407L1389.27 650.989L1357.92 674.272L1357.48 674.72V674.272ZM1360.16 680.093C1360.16 679.646 1360.61 679.646 1360.61 679.646L1391.51 656.362L1393.3 659.944V660.392L1361.95 683.675C1361.95 682.332 1361.06 680.989 1360.16 680.093ZM1366.43 692.631L1364.64 689.048L1395.98 665.317L1397.78 669.347L1366.88 692.631L1366.43 693.078V692.631ZM1370.91 702.034L1368.67 698.451L1400.46 674.72L1402.25 678.302L1401.8 678.75L1370.91 702.034ZM1374.94 710.989L1373.15 707.407L1404.49 683.675C1404.94 683.675 1405.83 685.914 1406.28 687.705L1374.94 710.989ZM1378.07 715.914L1408.97 693.078C1408.97 693.078 1409.86 694.869 1410.31 695.317C1410.31 695.765 1410.76 697.108 1410.76 697.108L1379.42 720.392C1379.42 720.392 1378.52 718.153 1378.07 715.914ZM1380.76 732.033V726.66L1411.21 703.825V709.198L1380.76 732.033ZM1380.76 744.571V739.198L1411.21 715.914V721.735L1380.76 744.571ZM1380.76 751.735L1411.21 728.451V734.272L1380.76 757.108V751.735ZM1362.85 795.168V789.795L1393.75 766.959V772.332L1362.85 795.168ZM1370.91 776.809L1364.64 781.287C1365.98 779.944 1369.12 776.809 1370.46 776.809H1370.91ZM1362.85 802.332L1393.75 779.496V784.869L1362.85 807.705V802.332ZM1362.85 820.242V814.869L1393.75 792.033V797.406L1362.85 820.242ZM1362.85 827.406H1363.3L1393.75 804.571C1393.75 804.571 1394.64 808.6 1394.64 809.048L1363.3 832.332C1362.85 831.436 1362.85 829.645 1362.85 828.302V827.406ZM1366.88 836.809L1399.12 813.078C1400.91 813.526 1403.15 813.526 1405.39 813.526L1371.81 838.6C1369.57 838.6 1368.22 838.153 1366.88 836.809ZM1381.66 838.6L1414.79 813.526H1421.51L1387.92 838.6H1381.66ZM1397.78 838.6L1430.91 813.526H1438.07L1404.94 838.6H1397.78ZM1421.51 838.6H1414.34L1447.48 813.526H1454.64L1421.51 838.6ZM1438.07 838.6H1430.91L1458.22 818.003H1458.67V823.377L1438.07 838.6ZM1451.95 838.6H1447.48L1458.67 830.541C1458.67 833.675 1455.54 838.6 1451.95 838.6ZM1767.94 504.124L1793.01 502.78H1812.71L1823.46 503.228L1840.48 505.019C1886.15 509.497 1896 551.586 1896 590.093C1896 595.019 1896.45 607.108 1888.83 607.108H1843.61C1836.89 607.108 1836 599.049 1836 593.676L1835.55 576.661C1835.1 566.81 1821.22 566.362 1814.51 566.362H1792.12C1786.74 566.362 1781.37 567.258 1776 568.601C1764.36 570.392 1762.57 573.974 1762.12 585.168L1775.55 574.87C1777.34 573.974 1781.37 573.974 1783.16 573.974L1761.67 590.093V597.258L1792.57 573.974H1799.73L1766.6 599.049H1761.67C1761.67 614.72 1767.94 616.959 1782.27 618.302L1796.6 619.646H1797.94V619.198L1828.39 596.362C1828.83 597.705 1828.39 599.496 1828.39 599.944V601.735L1804.65 619.646L1804.21 620.093L1812.27 620.989L1829.28 608.004C1829.73 608.452 1830.18 609.795 1830.18 610.243C1830.18 610.69 1831.07 611.586 1831.07 612.034L1818.98 621.437H1819.88C1819.88 621.437 1824.8 621.884 1827.49 621.884L1837.34 614.72H1844.51L1833.76 622.78L1840.92 623.676H1841.82L1853.91 614.72H1858.39V616.511L1847.19 625.019L1853.91 626.362C1855.7 626.362 1856.59 624.123 1858.39 623.676V627.705H1858.83C1898.68 640.69 1900.48 674.72 1900.48 710.541C1900.48 803.675 1862.42 805.914 1783.16 805.914L1759.43 804.123C1721.37 801.436 1702.12 767.854 1701.22 732.481L1700.77 711.437V709.198C1700.77 702.929 1701.22 697.108 1707.49 694.869H1713.31L1731.22 681.884C1732.57 681.884 1734.36 682.78 1735.7 683.675L1720.48 694.869H1729.88L1742.42 685.914L1747.79 687.257L1737.04 694.869H1746.45L1755.4 688.153L1761.22 689.048L1753.61 694.869C1755.85 695.317 1757.19 696.213 1758.98 698.004L1769.28 690.392V689.944L1775.55 690.84L1760.77 702.034C1760.33 702.929 1760.33 703.377 1760.33 703.377C1760.33 704.272 1760.77 707.854 1760.77 708.75L1784.06 691.735L1784.51 691.287C1786.3 691.287 1788.54 691.735 1790.33 691.735L1760.77 714.123V716.81C1760.77 733.377 1760.77 739.645 1780.03 741.436C1787.19 742.332 1793.91 742.332 1801.07 742.332H1803.31V738.302L1833.31 715.914C1833.76 716.81 1833.76 718.153 1833.76 719.496V720.839L1805.1 742.332H1808.24H1811.37H1814.51L1833.31 728.451V729.347C1833.31 730.242 1833.31 732.929 1832.86 733.377L1823.01 741.436C1825.7 741.436 1827.94 740.093 1830.18 739.645C1841.37 735.616 1840.48 723.974 1840.92 714.123C1840.92 708.75 1840.48 703.825 1840.03 698.451C1838.24 687.705 1829.28 685.466 1819.88 685.019L1796.6 684.123L1772.42 682.332L1754.06 679.198C1720.03 674.272 1703.91 641.138 1702.57 609.795L1702.12 592.332C1702.12 546.213 1715.55 507.258 1767.94 504.124ZM1703.46 548.004L1675.25 569.049C1675.25 567.705 1680.18 560.989 1681.97 558.75L1702.57 543.079C1703.01 542.631 1706.6 541.288 1707.04 541.288L1703.46 548.004ZM1670.33 579.795L1699.88 557.855V558.303C1699.88 558.303 1698.54 562.332 1698.09 564.571L1668.54 586.511V585.168C1668.98 584.273 1669.88 580.691 1670.33 579.795ZM1666.74 594.571L1696.74 572.183L1695.85 578.452L1665.85 600.84L1666.74 595.019V594.571ZM1776 598.601L1808.68 574.422V573.974C1811.37 573.974 1812.71 573.974 1815.4 574.87L1782.71 599.049H1780.92C1780.92 599.049 1776.89 599.049 1776 598.601ZM1790.33 600.392L1822.12 576.661C1823.46 576.661 1825.25 578.004 1826.15 578.899L1795.25 602.183C1793.01 601.287 1791.67 600.84 1790.33 600.392ZM1797.49 607.108L1828.39 584.273V588.75V589.646L1797.94 612.034C1797.94 610.69 1797.49 608.899 1797.49 607.108ZM1664.95 612.929V608.452L1694.95 585.616V586.959C1694.95 588.302 1695.85 590.541 1694.51 591.437L1664.95 613.825V612.929ZM1664.51 620.989L1694.51 598.601H1694.95V603.526L1664.95 625.914L1664.51 626.362V620.989ZM1664.95 633.078L1694.95 610.69C1695.4 612.034 1695.4 613.377 1695.4 614.72V615.616L1665.4 638.004C1664.95 637.556 1664.51 634.422 1664.51 633.526C1664.51 633.078 1664.51 633.078 1664.95 633.078ZM1665.85 644.72L1695.85 622.332C1696.3 624.123 1696.74 627.258 1696.74 627.258L1665.85 650.093C1665.85 649.198 1665.4 646.064 1665.4 645.168L1665.85 644.72ZM1667.19 655.914L1697.64 633.526L1698.09 637.108L1698.54 637.556C1698.54 637.556 1698.09 637.556 1698.09 638.004L1667.64 660.392C1667.64 659.496 1667.19 657.258 1667.19 655.914ZM1668.98 666.213H1669.43L1699.88 643.377L1701.22 647.855L1670.33 670.69C1670.33 670.243 1669.88 669.347 1669.88 668.899C1669.43 668.452 1668.98 666.213 1668.98 666.213ZM1672.57 676.063L1703.01 653.228H1703.46L1705.25 656.81L1674.36 680.093C1673.91 679.198 1673.01 677.854 1672.57 676.063ZM1677.04 685.019L1707.94 662.183L1708.39 661.735V662.183L1710.63 665.317L1679.28 688.601C1679.28 688.601 1677.94 686.362 1677.04 685.019ZM1682.86 693.078L1714.21 669.795L1717.34 672.929L1685.55 696.213C1685.55 696.213 1684.21 694.422 1682.86 693.078ZM1690.48 699.795L1721.82 676.511L1725.85 678.75L1694.51 702.481C1693.16 702.034 1690.92 700.69 1690.48 699.795ZM1767.04 716.81L1799.28 692.183H1799.73H1800.62H1803.31H1806.45L1773.76 716.81C1773.31 717.257 1773.76 716.81 1773.31 716.81H1767.04ZM1788.09 718.153L1782.27 717.257L1814.95 693.078C1816.3 693.078 1818.98 693.526 1820.33 693.974L1788.09 718.153ZM1794.8 719.944L1826.6 696.213C1828.39 696.213 1830.18 698.899 1830.18 698.899L1799.28 722.183C1797.94 721.287 1795.25 720.392 1794.8 719.944ZM1801.52 727.108L1831.97 704.272H1832.42C1833.31 705.168 1832.86 707.407 1832.86 708.75V709.198L1802.42 732.033C1802.42 730.242 1801.97 728.899 1801.52 727.108ZM1664.51 731.586L1670.33 727.108H1677.49L1663.16 737.854C1663.16 736.511 1663.61 732.033 1664.51 731.586ZM1663.16 745.019L1686.89 727.108H1693.61V727.556L1663.16 750.392V745.019ZM1663.16 757.108L1693.61 734.272C1693.61 735.168 1694.06 737.854 1694.06 739.645L1663.61 762.481C1663.16 760.69 1663.16 759.347 1663.16 757.108ZM1664.06 768.75L1694.51 746.362C1694.51 746.362 1694.95 749.496 1694.95 751.287L1664.51 773.675C1664.51 773.675 1664.06 770.989 1664.06 768.75ZM1665.4 779.944L1695.85 757.108C1696.3 758.899 1697.19 761.586 1697.19 762.033L1666.3 784.869L1665.4 780.392V779.944ZM1668.98 795.168L1667.64 790.69L1698.09 767.854H1698.54L1699.88 771.884L1668.98 795.168ZM1673.01 804.123L1671.22 800.541L1702.12 777.257C1702.57 777.257 1702.57 777.257 1702.57 777.705L1704.36 780.839L1673.01 804.123ZM1676.15 808.6L1707.04 785.765L1709.28 788.899V789.347L1678.39 812.63L1676.15 809.048V808.6ZM1681.52 817.108L1712.86 793.824L1713.31 793.377L1716.45 796.511L1684.66 820.242L1682.86 818.451C1682.86 818.003 1681.97 817.108 1681.52 817.108ZM1689.13 823.824L1720.48 800.541L1720.92 800.093L1724.51 802.78L1692.71 826.511C1692.71 826.511 1691.37 825.168 1690.48 824.72C1690.48 824.72 1689.13 824.272 1689.13 823.824ZM1698.54 829.197L1729.88 805.466H1730.33L1734.8 807.257L1703.01 830.988L1702.57 831.436C1701.67 831.436 1698.98 830.093 1698.54 829.197ZM1804.65 836.362H1804.21L1837.79 811.287C1838.24 810.839 1842.71 809.944 1843.61 809.944C1844.06 809.496 1847.64 808.6 1848.54 808.6L1813.61 834.571C1813.16 835.018 1805.55 836.362 1804.65 836.362ZM1709.28 833.675L1741.52 809.496L1746.89 810.839L1714.21 835.018C1712.86 835.018 1710.63 834.571 1709.28 833.675ZM1722.27 836.362H1721.82L1754.06 812.183C1754.51 811.735 1754.51 812.183 1754.95 812.183C1756.74 812.183 1758.98 812.183 1760.77 812.63L1728.09 836.809C1725.85 836.809 1722.71 836.362 1722.27 836.362ZM1785.4 838.153L1818.54 813.526C1819.43 812.63 1825.25 812.63 1826.6 812.63L1793.46 837.257C1793.46 837.705 1788.98 837.705 1785.4 838.153ZM1737.04 837.705H1736.6L1769.28 813.078H1770.18C1771.97 813.078 1774.21 813.078 1776 813.526L1743.31 838.153H1742.42C1741.52 838.153 1737.49 837.705 1737.04 837.705ZM1768.39 838.6L1801.07 813.974H1801.52C1801.52 813.526 1805.55 813.526 1808.68 813.526L1775.55 838.6H1768.39ZM1752.27 838.153L1784.95 813.974H1792.12L1758.98 838.6H1757.19C1755.4 838.6 1754.06 838.6 1752.27 838.153ZM2085.71 590.541H2050.34C2047.21 590.541 2043.62 585.168 2043.62 582.034V511.735C2043.62 508.601 2047.21 502.78 2050.79 502.78H2231.68C2235.27 502.78 2238.85 508.153 2238.85 511.288V582.482C2238.85 585.616 2235.71 590.541 2232.13 590.541H2196.31C2192.73 590.541 2189.59 586.064 2189.15 582.929L2186.46 569.497H2171.68V577.108H2174.37C2173.92 577.556 2172.58 578.452 2171.68 579.347V586.064C2173.03 585.168 2178.4 581.138 2179.74 580.691L2180.64 584.273C2180.64 585.168 2180.64 585.168 2180.19 585.168L2171.68 591.437V598.601L2181.98 590.989C2181.98 591.885 2183.77 594.571 2183.77 595.019L2183.33 595.467L2171.68 603.974V611.138L2188.7 598.601H2195.86L2171.68 616.511V740.989L2182.88 745.019C2186.01 745.914 2188.7 749.496 2188.7 753.078V797.406C2188.7 800.989 2185.56 805.914 2181.53 805.914H2100.94C2096.46 805.914 2093.77 800.989 2093.77 796.959V753.526C2093.77 752.183 2094.67 750.392 2094.67 749.048L2073.18 765.168H2072.73V760.242L2103.62 737.407V742.332C2103.62 743.227 2101.39 743.675 2100.94 744.571L2110.79 740.989V569.497H2096.01L2093.33 582.482H2093.77C2094.67 581.586 2099.59 578.004 2100.94 577.108H2103.62V580.691L2083.92 595.019C2084.82 593.676 2085.71 592.332 2085.71 590.541ZM2013.62 535.467L2006.91 540.392C2006.91 538.153 2011.39 535.467 2013.62 535.467ZM2005.56 548.452L2023.03 535.467H2030.19L2005.56 553.825V548.452ZM2005.56 560.989L2036.01 538.153V543.526L2005.56 566.362V560.989ZM2005.56 573.526L2036.01 550.691V556.064L2005.56 578.899V573.526ZM2005.56 591.437V586.064L2036.01 563.228V568.601L2005.56 591.437ZM2005.56 598.601L2036.01 575.765V581.138L2005.56 603.974V598.601ZM2093.33 582.929C2093.77 582.929 2093.77 582.482 2093.33 582.482V582.929ZM2072.73 610.69L2103.62 587.855V592.78L2073.18 615.168C2073.18 615.168 2073.18 615.616 2072.73 615.616V610.69ZM2005.56 611.138L2036.01 588.302C2036.46 589.646 2036.91 591.437 2036.91 592.78L2006.01 616.064C2005.56 616.064 2005.56 615.616 2005.56 615.168V611.138ZM2008.7 621.437V620.989L2040.49 597.705V597.258C2040.94 597.258 2042.28 598.153 2042.73 598.153C2043.62 598.601 2045.42 598.601 2046.31 598.601L2012.73 623.676C2011.39 623.676 2009.59 622.332 2008.7 621.437ZM2072.73 598.153H2079H2080.34L2072.73 603.526V602.183H2067.36L2072.73 598.153ZM2029.74 623.676H2022.58L2055.71 598.601H2062.88L2029.74 623.676ZM2072.73 628.153V622.78L2103.62 599.496V605.317L2072.73 628.153ZM2179.3 623.676H2172.13L2200.79 601.735V607.108L2179.3 623.676ZM2046.31 623.676H2039.15L2056.16 610.69V611.138C2056.16 612.034 2055.27 616.959 2054.82 616.959L2046.31 623.676ZM2072.73 635.317L2103.62 612.034V617.855L2072.73 640.69V635.317ZM2193.62 623.676H2188.7L2200.79 614.273C2200.79 617.855 2197.65 623.676 2193.62 623.676ZM2072.73 647.855L2103.62 624.571V630.392L2073.18 652.78C2073.18 652.78 2073.18 653.228 2072.73 653.228V647.855ZM2072.73 665.765V660.392L2103.62 637.108V642.481L2072.73 665.765ZM2072.73 678.302V672.481L2103.62 649.646V655.019L2072.73 678.302ZM2072.73 685.019L2103.62 662.183V667.556L2073.18 690.392H2072.73V685.019ZM2072.73 703.377V697.556L2103.62 674.72V680.093L2072.73 703.377ZM2072.73 715.466V710.093L2103.62 687.257V692.631L2072.73 715.466ZM2072.73 722.631L2103.62 699.795V705.168L2072.73 728.004V722.631ZM2072.73 735.168L2103.62 712.332V717.705L2072.73 740.541V735.168ZM2072.73 753.078V747.705L2103.62 724.869V730.242L2072.73 753.078ZM2072.73 774.123V772.332L2086.16 762.481V767.854L2055.71 790.69V785.765V785.317L2069.15 775.466L2072.73 774.123ZM2055.71 803.227V797.854L2086.16 775.018V780.392L2055.71 803.227ZM2055.71 810.391L2086.16 787.556V792.929L2055.71 815.765V810.391ZM2055.71 822.929L2085.71 800.093H2086.16V805.466L2055.71 828.302V822.929ZM2056.61 834.571L2087.95 810.839H2088.4C2089.74 812.183 2090.64 812.63 2092.43 813.078L2059.74 837.705C2059.3 837.705 2056.61 835.018 2056.61 834.571ZM2068.25 838.6L2101.39 813.526H2108.55L2075.42 838.6H2068.25ZM2084.82 838.6L2117.95 813.526H2125.56L2091.98 838.6H2084.82ZM2108.55 838.6H2101.39L2134.97 813.526H2142.13L2108.55 838.6ZM2125.56 838.6H2118.4L2150.64 813.974V819.347L2125.56 838.6ZM2142.13 838.6H2134.97L2151.09 826.511C2151.09 826.959 2150.64 831.884 2150.19 832.332L2142.13 838.6ZM2399.01 740.989V567.258L2387.37 563.228C2384.24 562.332 2382 558.303 2382 555.168V511.735C2382 508.601 2385.13 502.78 2388.71 502.78H2566.47C2570.06 502.78 2573.19 507.706 2573.19 510.84V582.482C2573.19 585.616 2569.61 590.541 2566.47 590.541H2530.21C2527.07 590.541 2524.38 586.064 2523.94 583.377L2520.8 569.497H2459.91V577.108H2466.62L2459.91 582.034V589.198L2476.03 577.108H2483.19L2459.91 594.571V601.735L2492.59 577.108H2500.21L2466.62 602.183H2459.91V619.646H2487.22L2486.77 619.198L2487.22 618.75L2518.56 595.467C2519.46 596.362 2520.8 597.258 2522.15 598.153L2493.49 619.646H2502.89L2531.1 598.601H2535.13V600.84L2510.06 619.646H2514.98C2515.88 619.646 2516.77 620.541 2518.12 620.541L2535.13 608.004V613.377L2521.7 623.676H2520.35C2520.8 624.571 2521.7 626.362 2521.7 628.153V676.063C2521.7 680.541 2518.12 684.571 2513.64 684.571H2459.91V692.183H2462.59C2462.15 692.631 2460.35 693.974 2459.91 694.422V701.138L2472 692.183H2479.16L2459.91 706.959V713.675L2483.64 696.213V701.586L2462.59 717.257H2459.91V739.198H2521.7L2525.28 724.422C2525.73 721.735 2528.41 717.705 2532 717.705H2566.92C2570.5 717.705 2574.09 722.631 2574.09 726.213V797.854C2574.09 800.989 2570.5 805.914 2566.92 805.914H2389.16C2385.58 805.914 2382 800.541 2382 796.959V752.183C2379.76 753.078 2377.52 753.974 2376.18 756.213C2375.73 756.66 2375.73 757.556 2375.28 758.004L2361.4 768.302V762.929L2391.85 740.093V743.675C2392.74 743.227 2397.67 741.884 2399.01 740.989ZM2351.1 535.467H2356.03L2343.94 544.422C2343.94 540.84 2347.07 535.467 2351.1 535.467ZM2343.94 556.959V551.586L2365.43 535.467H2372.59L2343.94 556.959ZM2343.94 564.123L2374.38 540.84V546.661L2343.94 569.497V564.123ZM2343.94 582.034V576.661L2373.94 553.825H2374.38V558.75L2343.94 582.034ZM2343.94 588.75L2374.83 565.914C2376.18 567.258 2376.62 568.153 2377.52 569.497L2345.73 592.78C2345.28 592.78 2343.94 589.646 2343.94 588.75ZM2355.58 598.153L2350.65 596.362L2382.89 572.183H2383.34L2388.27 573.526L2355.58 598.153ZM2476.03 602.183L2509.61 577.108H2513.19C2513.64 577.556 2513.64 578.452 2513.64 579.347L2483.19 602.183H2482.74H2476.03ZM2361.4 606.661V600.84L2391.85 578.004V583.377L2361.4 606.661ZM2484.98 613.377L2484.09 608.452L2514.98 585.616L2515.43 585.168L2516.32 590.093L2484.98 613.377ZM2361.4 613.377L2391.85 590.541V595.467L2361.4 618.302V613.377ZM2361.4 625.467L2391.85 602.631V608.004L2361.4 630.84V625.467ZM2361.4 643.377V638.004L2391.85 615.168V620.541L2361.4 643.377ZM2361.4 655.914V650.541L2391.85 627.705V633.078L2361.4 655.914ZM2361.4 663.078L2391.85 640.243V645.616L2361.4 668.452V663.078ZM2361.4 680.989V675.616L2391.85 652.78V658.153L2361.4 680.989ZM2361.4 693.526V688.153L2391.85 665.317V670.69L2361.4 693.526ZM2361.4 700.69L2391.85 677.407V683.228L2361.4 706.063V700.69ZM2361.4 713.228L2391.85 689.944V695.765L2361.4 718.601V713.228ZM2361.4 731.138V725.765L2391.85 702.481V708.302L2361.4 731.138ZM2476.92 717.257H2472L2483.64 708.75C2483.64 712.332 2480.95 717.257 2476.92 717.257ZM2361.4 738.302L2391.85 715.019V720.392L2361.4 743.675V738.302ZM2361.4 750.392L2391.85 727.556V732.929L2361.4 756.213V750.392ZM2343.94 788.003L2374.38 765.168V770.541L2343.94 793.824V788.003ZM2343.94 800.541L2374.38 777.705V783.078L2343.94 806.362V800.541ZM2343.94 818.899V813.078L2374.38 790.242V795.615L2343.94 818.899ZM2343.94 825.615L2374.38 802.78C2374.83 804.571 2375.28 805.914 2375.28 807.705L2374.83 808.153L2344.38 830.541L2343.94 830.988V825.615ZM2346.62 836.362L2378.41 812.63C2380.65 813.526 2382 813.526 2384.24 813.526L2351.1 838.6C2349.31 838.6 2347.52 837.257 2346.62 836.362ZM2360.5 838.6L2393.64 813.526H2400.8L2367.67 838.6H2360.5ZM2384.24 838.6H2377.07L2410.21 813.526H2417.37L2384.24 838.6ZM2400.8 838.6H2393.64L2426.33 813.974C2426.77 813.526 2427.22 813.526 2427.22 813.526H2434.38L2400.8 838.6ZM2410.21 838.6L2443.79 813.526H2450.95L2418.27 838.153C2417.82 838.6 2417.82 838.6 2417.37 838.6H2410.21ZM2427.22 838.6L2460.35 813.526H2467.52L2434.38 838.6H2427.22ZM2450.95 838.6H2443.79L2476.92 813.526H2484.53L2450.95 838.6ZM2460.35 838.6L2493.94 813.526H2500.21L2467.07 838.6H2460.35ZM2483.64 838.6H2476.47L2509.61 813.526H2517.22L2483.64 838.6ZM2493.04 838.6L2526.62 813.526H2533.79L2500.65 838.6H2493.04ZM2510.06 838.6L2536.03 818.899V824.272L2517.22 838.6H2510.06ZM2526.62 838.6L2536.03 831.884C2536.03 835.466 2531.55 838.6 2527.97 838.6H2526.62ZM2734.25 740.989V567.258L2723.5 564.123C2719.92 562.78 2717.23 559.198 2717.23 555.616V511.288C2717.23 508.153 2720.37 502.78 2723.95 502.78H2814.85C2817.53 502.78 2820.22 505.467 2821.12 507.706L2862.31 646.959C2862.76 646.959 2862.76 646.511 2862.76 646.511L2892.31 624.571C2891.41 627.258 2890.52 631.287 2890.52 631.287L2863.65 651.437L2865.44 656.81H2865.89L2887.38 640.69C2887.38 642.481 2886.04 645.616 2885.59 646.959L2867.23 660.84C2866.79 661.287 2866.79 661.287 2866.79 661.735C2867.23 663.526 2868.13 666.66 2868.13 666.66L2868.58 667.108L2883.35 655.914L2881.11 663.078L2869.92 671.138V672.034L2871.26 676.959C2872.61 676.511 2877.09 673.377 2878.43 672.034C2878.43 672.929 2877.09 677.407 2876.64 679.198L2873.06 681.884V682.78L2877.09 695.317L2930.82 509.049C2931.71 506.362 2933.95 502.78 2937.08 502.78H3029.77C3033.35 502.78 3036.49 507.706 3036.49 510.84V555.616C3036.49 559.646 3033.8 562.78 3030.22 564.123L3019.03 567.258V740.989L3030.22 745.019C3033.8 745.914 3036.49 749.048 3036.49 752.63V797.406C3036.49 800.989 3032.91 805.914 3029.32 805.914H2948.73C2944.25 805.914 2941.11 800.093 2941.11 796.063V752.63C2936.64 752.63 2934.4 757.108 2933.95 760.69L2921.41 770.093V768.302V766.063C2921.41 766.063 2921.41 765.168 2921.86 765.168L2941.56 749.944C2942.01 749.944 2943.8 746.81 2944.7 746.362C2944.7 745.914 2951.41 742.78 2952.31 742.332V743.227L2959.47 740.989L2961.71 611.586L2952.31 642.034C2952.76 642.034 2953.65 641.138 2953.65 641.138C2953.65 642.034 2954.1 645.168 2953.65 646.511C2952.76 647.407 2950.52 648.75 2950.07 649.646L2947.38 658.153C2948.73 657.258 2952.76 654.571 2953.65 653.675V659.049L2945.14 665.765L2942.46 674.72L2953.65 666.213V668.004C2953.65 668.004 2953.2 671.586 2953.2 672.034L2940.67 681.437C2940.22 681.437 2940.22 681.884 2940.22 681.884L2937.53 690.84L2953.2 679.198V684.571L2935.29 698.004L2932.61 706.959L2953.2 691.735V692.631C2953.2 693.526 2952.76 697.108 2952.76 697.108L2930.82 713.675L2930.37 714.123L2927.68 723.078L2952.76 704.272V709.645L2925.44 730.242L2922.76 739.198L2952.76 716.81V717.705V722.631L2921.86 745.019V742.332L2911.11 776.809H2912.46C2912.01 777.257 2911.11 777.257 2911.11 778.153L2908.43 786.66L2933.5 767.854V773.675L2906.64 793.824C2904.85 798.75 2903.06 805.914 2897.23 805.914H2856.49C2853.8 805.914 2850.67 803.675 2850.22 800.989L2792.91 615.168V616.959V619.198C2792.91 623.228 2793.35 642.034 2793.35 646.064C2793.35 647.407 2793.35 647.855 2793.8 648.75C2793.8 649.198 2794.7 651.884 2794.7 652.78C2794.7 652.78 2793.8 653.228 2793.8 653.675V660.392C2794.7 659.944 2796.04 658.601 2796.49 658.601L2797.83 662.631C2797.83 663.078 2797.83 663.078 2797.38 663.078L2793.8 665.765V672.929C2796.04 672.034 2797.83 670.243 2799.62 668.452V668.899C2799.62 668.899 2800.52 671.586 2800.97 673.377L2794.25 678.302V679.198V685.019L2802.76 678.75L2804.1 683.228L2794.25 690.84V691.735V697.556L2805.89 689.048L2807.23 693.078V693.526L2794.7 702.929V704.72V709.645L2809.03 699.347C2809.03 699.347 2809.92 701.586 2810.37 703.377L2794.7 715.019V720.839L2795.15 721.735L2812.16 709.198L2813.5 713.228C2813.5 713.675 2813.5 713.675 2813.06 713.675L2795.15 727.108V734.272L2815.29 719.048L2816.64 723.526L2816.19 723.974L2795.15 739.645V740.989L2800.07 742.78L2817.53 729.795C2817.98 729.795 2817.98 729.347 2818.43 729.347V729.795C2818.43 729.795 2819.32 732.033 2819.77 733.825L2805.44 744.571C2807.23 745.466 2809.03 745.466 2810.37 747.705H2810.82L2821.12 740.093L2821.56 739.645L2822.91 743.675C2822.91 744.123 2822.46 744.123 2822.46 744.123L2813.06 751.287L2812.61 751.735C2812.61 753.974 2813.06 756.213 2813.06 758.451L2824.7 749.944L2826.04 753.974L2813.06 763.824V770.989L2827.83 759.795L2829.17 764.272L2828.73 764.72L2813.06 776.362V783.078H2813.5L2830.97 770.093L2832.31 774.571L2813.06 788.899V796.063L2834.1 780.392C2834.1 780.392 2835 783.078 2835.44 784.869L2805 807.257V805.914H2724.4C2720.82 805.914 2717.23 800.541 2717.23 796.959V753.078C2717.23 749.496 2719.92 745.914 2723.06 745.019L2734.25 740.989ZM2679.18 551.586V546.213L2693.5 535.467H2701.12L2679.18 551.586ZM2892.76 542.183C2892.76 538.153 2897.68 535.467 2901.71 535.467V535.915C2901.71 535.915 2895.89 539.944 2892.76 542.183ZM2917.83 535.915L2888.28 557.855C2888.28 556.959 2889.62 551.586 2890.52 551.138L2911.11 535.467H2918.28C2918.28 535.915 2917.83 535.915 2917.83 535.915ZM2679.18 564.123V558.75L2709.18 536.362C2709.62 536.362 2709.62 535.915 2709.62 535.915V541.288L2679.18 564.123ZM2885.59 567.258L2915.59 544.87L2913.35 551.586L2883.35 573.974L2885.59 567.258ZM2679.18 571.288L2709.62 548.452V553.825L2679.18 576.661V571.288ZM2679.18 583.825L2709.62 560.989C2710.07 562.332 2710.52 564.123 2710.52 565.914C2710.52 565.914 2710.07 565.914 2710.07 566.362L2679.18 589.198V583.825ZM2881.11 582.929L2911.11 560.989L2908.88 567.705L2878.88 590.093C2878.88 588.75 2880.22 583.377 2881.11 582.929ZM2681.41 594.571L2713.2 570.84C2715.44 571.288 2716.79 571.735 2718.58 572.183L2685.89 596.81C2684.1 596.81 2682.31 595.467 2681.41 594.571ZM2696.64 599.944L2692.61 598.601L2725.29 574.422C2726.19 574.422 2727.09 574.87 2727.09 574.87V578.452L2696.64 601.288V599.944ZM2876.19 599.049L2905.74 577.108H2906.19C2906.19 578.004 2904.85 583.377 2903.95 583.825L2874.4 606.213L2876.19 599.049ZM2696.64 608.452L2727.09 585.616V590.989L2696.64 613.825V608.452ZM2871.71 615.168L2901.26 592.78H2901.71L2899.47 599.496L2869.92 621.884C2870.37 619.198 2871.71 615.168 2871.71 615.168ZM2696.64 620.989L2727.09 598.153V603.526L2696.64 626.362V620.989ZM2865 638.004L2866.79 630.84L2896.34 609.347C2896.34 608.899 2896.79 608.899 2896.79 608.899C2896.79 609.795 2895.44 615.168 2894.55 616.064L2865 638.004ZM2696.64 638.452V633.526L2727.09 610.69V615.616L2696.64 638.452ZM2696.64 650.989V645.168L2726.64 622.78H2727.09V628.153L2696.64 650.989ZM2696.64 657.705L2727.09 634.87V640.69L2696.64 663.526V657.705ZM2696.64 675.616V670.243L2727.09 647.407V653.228L2696.64 675.616ZM2947.38 658.601V658.153C2946.94 658.153 2946.94 658.601 2947.38 658.601ZM2696.64 688.153V682.78L2727.09 659.944V665.317L2697.09 687.705C2697.09 688.153 2696.64 688.153 2696.64 688.153ZM2696.64 695.317L2727.09 672.481V677.854L2696.64 700.69V695.317ZM2696.64 713.228V707.854L2727.09 685.019V690.392L2696.64 713.228ZM2696.64 725.765V720.392L2727.09 697.556V702.929L2696.64 725.765ZM2696.64 732.929L2727.09 710.093V715.466L2696.64 738.302V732.929ZM2696.64 745.466L2727.09 722.631V728.004L2696.64 750.839V745.466ZM2921.86 752.63L2952.31 729.795V734.272V735.168L2921.86 758.004V752.63ZM2696.64 763.377V758.004L2726.64 735.616C2726.64 735.168 2727.09 735.168 2727.09 735.168V740.541L2696.64 763.377ZM2696.64 770.541L2709.62 760.242V766.063L2679.18 788.899V787.108C2679.18 785.765 2679.18 784.421 2679.62 782.63C2680.97 781.735 2685.89 778.153 2687.23 777.257C2687.23 777.257 2687.68 776.809 2688.13 776.809L2696.64 774.123V770.541ZM2679.18 800.989V795.615L2709.18 773.227H2709.62V778.153L2679.18 800.989ZM2903.06 803.227L2933.5 780.392V786.212L2903.06 809.048V803.227ZM2679.18 808.153L2709.62 785.317V790.69L2679.18 813.526V808.153ZM2908.43 787.108V786.66C2907.98 786.66 2907.98 787.108 2908.43 787.108ZM2806.34 813.526L2837.23 790.242L2838.58 794.72L2807.23 818.003L2805.89 813.974C2805.89 813.526 2805.89 813.526 2806.34 813.526ZM2903.06 821.586V815.765L2933.5 792.929V798.75L2903.06 821.586ZM2679.18 820.242L2709.62 797.406V803.227L2679.18 826.063V820.242ZM2809.03 823.824L2840.37 800.541L2841.71 805.018L2810.37 828.302L2809.03 823.824ZM2903.06 828.302L2933.95 805.466C2934.4 806.362 2935.29 809.496 2935.29 809.944L2903.95 833.227C2903.06 831.884 2903.06 830.093 2903.06 828.302ZM2679.62 832.78C2679.62 832.332 2679.62 832.332 2680.07 832.332L2710.52 809.496C2711.41 809.496 2713.65 811.735 2714.1 812.183L2682.31 835.914C2682.31 836.362 2681.86 836.362 2681.86 836.362C2681.41 836.362 2679.62 833.227 2679.62 832.78ZM2812.16 834.123L2843.5 810.839V810.391C2844.85 811.735 2845.74 812.63 2847.09 813.526L2814.85 837.257C2814.4 837.705 2811.71 834.123 2812.16 834.123ZM2907.53 837.705L2939.77 813.526C2940.22 813.526 2940.22 813.078 2940.22 813.078C2942.46 813.078 2945.14 813.526 2946.94 813.526L2913.8 838.6H2910.22C2909.32 838.6 2908.43 838.153 2907.53 837.705ZM2695.74 838.6H2688.58L2722.16 813.526H2729.32L2695.74 838.6ZM2712.76 838.6H2705.15L2738.73 813.526H2746.34L2712.76 838.6ZM2722.16 838.6L2755.74 813.526H2762.91L2729.32 838.6H2722.16ZM2739.18 838.6L2772.31 813.526H2774.55V817.108L2746.34 838.6H2739.18ZM2829.62 838.6H2822.91L2856.49 813.526H2863.2L2829.62 838.6ZM2930.37 838.6H2923.2L2956.79 813.526H2963.95L2930.37 838.6ZM2947.38 838.6H2939.77L2972.91 813.974L2973.35 813.526H2980.97L2947.38 838.6ZM2956.79 838.6L2990.37 813.526H2997.53L2963.95 838.6H2956.79ZM2846.64 838.6H2839.03L2871.71 813.974L2869.92 821.138L2846.64 838.6ZM2973.35 838.6L2998.43 819.794V825.615L2980.97 838.6H2973.35ZM2762.91 838.6H2755.74L2774.55 824.272V829.645L2763.8 838.153C2763.35 838.6 2762.91 838.6 2762.91 838.6ZM2859.62 838.6H2856.04L2866.79 830.541C2866.79 833.675 2863.2 838.6 2859.62 838.6ZM2990.37 838.6L2997.53 833.227C2997.53 835.914 2993.06 838.6 2990.37 838.6ZM3246.35 504.124L3271.43 502.78H3291.13L3301.88 503.228L3318.89 505.019C3364.56 509.497 3374.41 551.586 3374.41 590.093C3374.41 595.019 3374.86 607.108 3367.25 607.108H3322.02C3315.31 607.108 3314.41 599.049 3314.41 593.676L3313.96 576.661C3313.52 566.81 3299.64 566.362 3292.92 566.362H3270.53C3265.16 566.362 3259.79 567.258 3254.41 568.601C3242.77 570.392 3240.98 573.974 3240.53 585.168L3253.96 574.87C3255.76 573.974 3259.79 573.974 3261.58 573.974L3240.08 590.093V597.258L3270.98 573.974H3278.14L3245.01 599.049H3240.08C3240.08 614.72 3246.35 616.959 3260.68 618.302L3275.01 619.646H3276.35V619.198L3306.8 596.362C3307.25 597.705 3306.8 599.496 3306.8 599.944V601.735L3283.07 619.646L3282.62 620.093L3290.68 620.989L3307.7 608.004C3308.14 608.452 3308.59 609.795 3308.59 610.243C3308.59 610.69 3309.49 611.586 3309.49 612.034L3297.4 621.437H3298.29C3298.29 621.437 3303.22 621.884 3305.9 621.884L3315.76 614.72H3322.92L3312.17 622.78L3319.34 623.676H3320.23L3332.32 614.72H3336.8V616.511L3325.61 625.019L3332.32 626.362C3334.11 626.362 3335.01 624.123 3336.8 623.676V627.705H3337.25C3377.1 640.69 3378.89 674.72 3378.89 710.541C3378.89 803.675 3340.83 805.914 3261.58 805.914L3237.85 804.123C3199.79 801.436 3180.53 767.854 3179.64 732.481L3179.19 711.437V709.198C3179.19 702.929 3179.64 697.108 3185.91 694.869H3191.73L3209.64 681.884C3210.98 681.884 3212.77 682.78 3214.11 683.675L3198.89 694.869H3208.29L3220.83 685.914L3226.2 687.257L3215.46 694.869H3224.86L3233.82 688.153L3239.64 689.048L3232.02 694.869C3234.26 695.317 3235.61 696.213 3237.4 698.004L3247.7 690.392V689.944L3253.96 690.84L3239.19 702.034C3238.74 702.929 3238.74 703.377 3238.74 703.377C3238.74 704.272 3239.19 707.854 3239.19 708.75L3262.47 691.735L3262.92 691.287C3264.71 691.287 3266.95 691.735 3268.74 691.735L3239.19 714.123V716.81C3239.19 733.377 3239.19 739.645 3258.44 741.436C3265.61 742.332 3272.32 742.332 3279.49 742.332H3281.73V738.302L3311.73 715.914C3312.17 716.81 3312.17 718.153 3312.17 719.496V720.839L3283.52 742.332H3286.65H3289.79H3292.92L3311.73 728.451V729.347C3311.73 730.242 3311.73 732.929 3311.28 733.377L3301.43 741.436C3304.11 741.436 3306.35 740.093 3308.59 739.645C3319.79 735.616 3318.89 723.974 3319.34 714.123C3319.34 708.75 3318.89 703.825 3318.44 698.451C3316.65 687.705 3307.7 685.466 3298.29 685.019L3275.01 684.123L3250.83 682.332L3232.47 679.198C3198.44 674.272 3182.32 641.138 3180.98 609.795L3180.53 592.332C3180.53 546.213 3193.97 507.258 3246.35 504.124ZM3181.88 548.004L3153.67 569.049C3153.67 567.705 3158.59 560.989 3160.38 558.75L3180.98 543.079C3181.43 542.631 3185.01 541.288 3185.46 541.288L3181.88 548.004ZM3148.74 579.795L3178.29 557.855V558.303C3178.29 558.303 3176.95 562.332 3176.5 564.571L3146.95 586.511V585.168C3147.4 584.273 3148.29 580.691 3148.74 579.795ZM3145.16 594.571L3175.16 572.183L3174.26 578.452L3144.26 600.84L3145.16 595.019V594.571ZM3254.41 598.601L3287.1 574.422V573.974C3289.79 573.974 3291.13 573.974 3293.82 574.87L3261.13 599.049H3259.34C3259.34 599.049 3255.31 599.049 3254.41 598.601ZM3268.74 600.392L3300.53 576.661C3301.88 576.661 3303.67 578.004 3304.56 578.899L3273.67 602.183C3271.43 601.287 3270.08 600.84 3268.74 600.392ZM3275.91 607.108L3306.8 584.273V588.75V589.646L3276.35 612.034C3276.35 610.69 3275.91 608.899 3275.91 607.108ZM3143.37 612.929V608.452L3173.37 585.616V586.959C3173.37 588.302 3174.26 590.541 3172.92 591.437L3143.37 613.825V612.929ZM3142.92 620.989L3172.92 598.601H3173.37V603.526L3143.37 625.914L3142.92 626.362V620.989ZM3143.37 633.078L3173.37 610.69C3173.82 612.034 3173.82 613.377 3173.82 614.72V615.616L3143.82 638.004C3143.37 637.556 3142.92 634.422 3142.92 633.526C3142.92 633.078 3142.92 633.078 3143.37 633.078ZM3144.26 644.72L3174.26 622.332C3174.71 624.123 3175.16 627.258 3175.16 627.258L3144.26 650.093C3144.26 649.198 3143.82 646.064 3143.82 645.168L3144.26 644.72ZM3145.61 655.914L3176.05 633.526L3176.5 637.108L3176.95 637.556C3176.95 637.556 3176.5 637.556 3176.5 638.004L3146.05 660.392C3146.05 659.496 3145.61 657.258 3145.61 655.914ZM3147.4 666.213H3147.85L3178.29 643.377L3179.64 647.855L3148.74 670.69C3148.74 670.243 3148.29 669.347 3148.29 668.899C3147.85 668.452 3147.4 666.213 3147.4 666.213ZM3150.98 676.063L3181.43 653.228H3181.88L3183.67 656.81L3152.77 680.093C3152.32 679.198 3151.43 677.854 3150.98 676.063ZM3155.46 685.019L3186.35 662.183L3186.8 661.735V662.183L3189.04 665.317L3157.7 688.601C3157.7 688.601 3156.35 686.362 3155.46 685.019ZM3161.28 693.078L3192.62 669.795L3195.76 672.929L3163.97 696.213C3163.97 696.213 3162.62 694.422 3161.28 693.078ZM3168.89 699.795L3200.23 676.511L3204.26 678.75L3172.92 702.481C3171.58 702.034 3169.34 700.69 3168.89 699.795ZM3245.46 716.81L3277.7 692.183H3278.14H3279.04H3281.73H3284.86L3252.17 716.81C3251.73 717.257 3252.17 716.81 3251.73 716.81H3245.46ZM3266.5 718.153L3260.68 717.257L3293.37 693.078C3294.71 693.078 3297.4 693.526 3298.74 693.974L3266.5 718.153ZM3273.22 719.944L3305.01 696.213C3306.8 696.213 3308.59 698.899 3308.59 698.899L3277.7 722.183C3276.35 721.287 3273.67 720.392 3273.22 719.944ZM3279.93 727.108L3310.38 704.272H3310.83C3311.73 705.168 3311.28 707.407 3311.28 708.75V709.198L3280.83 732.033C3280.83 730.242 3280.38 728.899 3279.93 727.108ZM3142.92 731.586L3148.74 727.108H3155.91L3141.58 737.854C3141.58 736.511 3142.02 732.033 3142.92 731.586ZM3141.58 745.019L3165.31 727.108H3172.02V727.556L3141.58 750.392V745.019ZM3141.58 757.108L3172.02 734.272C3172.02 735.168 3172.47 737.854 3172.47 739.645L3142.02 762.481C3141.58 760.69 3141.58 759.347 3141.58 757.108ZM3142.47 768.75L3172.92 746.362C3172.92 746.362 3173.37 749.496 3173.37 751.287L3142.92 773.675C3142.92 773.675 3142.47 770.989 3142.47 768.75ZM3143.82 779.944L3174.26 757.108C3174.71 758.899 3175.61 761.586 3175.61 762.033L3144.71 784.869L3143.82 780.392V779.944ZM3147.4 795.168L3146.05 790.69L3176.5 767.854H3176.95L3178.29 771.884L3147.4 795.168ZM3151.43 804.123L3149.64 800.541L3180.53 777.257C3180.98 777.257 3180.98 777.257 3180.98 777.705L3182.77 780.839L3151.43 804.123ZM3154.56 808.6L3185.46 785.765L3187.7 788.899V789.347L3156.8 812.63L3154.56 809.048V808.6ZM3159.94 817.108L3191.28 793.824L3191.73 793.377L3194.86 796.511L3163.07 820.242L3161.28 818.451C3161.28 818.003 3160.38 817.108 3159.94 817.108ZM3167.55 823.824L3198.89 800.541L3199.34 800.093L3202.92 802.78L3171.13 826.511C3171.13 826.511 3169.79 825.168 3168.89 824.72C3168.89 824.72 3167.55 824.272 3167.55 823.824ZM3176.95 829.197L3208.29 805.466H3208.74L3213.22 807.257L3181.43 830.988L3180.98 831.436C3180.08 831.436 3177.4 830.093 3176.95 829.197ZM3283.07 836.362H3282.62L3316.2 811.287C3316.65 810.839 3321.13 809.944 3322.02 809.944C3322.47 809.496 3326.05 808.6 3326.95 808.6L3292.02 834.571C3291.58 835.018 3283.96 836.362 3283.07 836.362ZM3187.7 833.675L3219.94 809.496L3225.31 810.839L3192.62 835.018C3191.28 835.018 3189.04 834.571 3187.7 833.675ZM3200.68 836.362H3200.23L3232.47 812.183C3232.92 811.735 3232.92 812.183 3233.37 812.183C3235.16 812.183 3237.4 812.183 3239.19 812.63L3206.5 836.809C3204.26 836.809 3201.13 836.362 3200.68 836.362ZM3263.82 838.153L3296.95 813.526C3297.85 812.63 3303.67 812.63 3305.01 812.63L3271.88 837.257C3271.88 837.705 3267.4 837.705 3263.82 838.153ZM3215.46 837.705H3215.01L3247.7 813.078H3248.59C3250.38 813.078 3252.62 813.078 3254.41 813.526L3221.73 838.153H3220.83C3219.94 838.153 3215.91 837.705 3215.46 837.705ZM3246.8 838.6L3279.49 813.974H3279.93C3279.93 813.526 3283.96 813.526 3287.1 813.526L3253.96 838.6H3246.8ZM3230.68 838.153L3263.37 813.974H3270.53L3237.4 838.6H3235.61C3233.82 838.6 3232.47 838.6 3230.68 838.153Z" fill="white"/>
<path d="M389.999 844.211C588.386 844.211 749.21 683.387 749.21 485C749.21 286.614 588.386 125.79 389.999 125.79C191.612 125.79 30.7881 286.614 30.7881 485C30.7881 683.387 191.612 844.211 389.999 844.211Z" stroke="#0DA5E9" stroke-width="27.3684"/>
<path opacity="0.3" d="M390.001 782.632C554.378 782.632 687.633 649.377 687.633 485C687.633 320.623 554.378 187.368 390.001 187.368C225.623 187.368 92.3691 320.623 92.3691 485C92.3691 649.377 225.623 782.632 390.001 782.632Z" stroke="#0DA5E9" stroke-width="10.9474"/>
<path d="M405.393 95.0001H374.604C368.936 95.0001 364.341 99.595 364.341 105.263V156.579C364.341 162.247 368.936 166.842 374.604 166.842H405.393C411.062 166.842 415.657 162.247 415.657 156.579V105.263C415.657 99.595 411.062 95.0001 405.393 95.0001Z" fill="#0DA5E9"/>
<path d="M405.393 803.158H374.604C368.936 803.158 364.341 807.753 364.341 813.421V864.737C364.341 870.405 368.936 875 374.604 875H405.393C411.062 875 415.657 870.405 415.657 864.737V813.421C415.657 807.753 411.062 803.158 405.393 803.158Z" fill="#0DA5E9"/>
<path d="M61.579 459.342H10.2632C4.59498 459.342 0 463.937 0 469.605V500.395C0 506.063 4.59498 510.658 10.2632 510.658H61.579C67.2472 510.658 71.8422 506.063 71.8422 500.395V469.605C71.8422 463.937 67.2472 459.342 61.579 459.342Z" fill="#0DA5E9"/>
<path d="M769.737 459.342H718.421C712.753 459.342 708.158 463.937 708.158 469.605V500.395C708.158 506.063 712.753 510.658 718.421 510.658H769.737C775.405 510.658 780 506.063 780 500.395V469.605C780 463.937 775.405 459.342 769.737 459.342Z" fill="#0DA5E9"/>
<path d="M121.032 194.261L99.2601 216.032C95.2521 220.04 95.2521 226.539 99.2601 230.547L121.032 252.318C125.04 256.326 131.538 256.326 135.546 252.318L157.317 230.547C161.325 226.539 161.325 220.04 157.317 216.032L135.546 194.261C131.538 190.253 125.04 190.253 121.032 194.261Z" fill="#0DA5E9"/>
<path d="M680.74 216.033L658.968 194.261C654.96 190.253 648.462 190.253 644.454 194.261L622.682 216.033C618.674 220.041 618.674 226.539 622.682 230.547L644.454 252.318C648.462 256.326 654.96 256.326 658.968 252.318L680.74 230.547C684.748 226.539 684.748 220.041 680.74 216.033Z" fill="#0DA5E9"/>
<path d="M157.318 739.454L135.546 717.682C131.538 713.674 125.04 713.674 121.032 717.682L99.2604 739.454C95.2524 743.462 95.2524 749.96 99.2604 753.968L121.032 775.739C125.04 779.747 131.538 779.747 135.546 775.739L157.318 753.968C161.326 749.96 161.326 743.462 157.318 739.454Z" fill="#0DA5E9"/>
<path d="M644.452 717.682L622.681 739.454C618.673 743.462 618.673 749.96 622.681 753.968L644.452 775.739C648.46 779.747 654.959 779.747 658.967 775.739L680.738 753.968C684.746 749.96 684.746 743.462 680.738 739.454L658.967 717.682C654.959 713.674 648.46 713.674 644.452 717.682Z" fill="#0DA5E9"/>
<path d="M390 290L559.343 387.5V582.5L390 680L220.658 582.5V387.5L390 290Z" fill="#1D3557" stroke="#0DA5E9" stroke-width="27.3684"/>
<path d="M389.998 577.369C441.012 577.369 482.367 536.014 482.367 485C482.367 433.986 441.012 392.632 389.998 392.632C338.985 392.632 297.63 433.986 297.63 485C297.63 536.014 338.985 577.369 389.998 577.369Z" fill="#0D1B2A" stroke="#0DA5E9" stroke-width="21.8947"/>
<path d="M390.001 520.921C409.84 520.921 425.922 504.839 425.922 485C425.922 465.162 409.84 449.079 390.001 449.079C370.162 449.079 354.08 465.162 354.08 485C354.08 504.839 370.162 520.921 390.001 520.921Z" fill="#0DA5E9"/>
<path d="M256.58 413.158L123.159 351.579" stroke="#0DA5E9" stroke-width="27.3684" stroke-linecap="round"/>
<path d="M523.422 556.842L656.843 618.421" stroke="#0DA5E9" stroke-width="27.3684" stroke-linecap="round"/>
<path d="M123.156 387.5C142.995 387.5 159.078 371.418 159.078 351.579C159.078 331.74 142.995 315.658 123.156 315.658C103.318 315.658 87.2354 331.74 87.2354 351.579C87.2354 371.418 103.318 387.5 123.156 387.5Z" fill="#0DA5E9"/>
<path d="M656.844 654.342C676.683 654.342 692.765 638.26 692.765 618.421C692.765 598.582 676.683 582.5 656.844 582.5C637.005 582.5 620.923 598.582 620.923 618.421C620.923 638.26 637.005 654.342 656.844 654.342Z" fill="#0DA5E9"/>
</svg>
