<svg width="5397" height="1619" viewBox="0 0 5397 1619" fill="none" xmlns="http://www.w3.org/2000/svg">
<g clip-path="url(#clip0_400_2)">
<path d="M5396.67 0H0V1619H5396.67V0Z" fill="#0D1B2A"/>
<path d="M944.415 1281.71C1205.21 1281.71 1416.62 1070.29 1416.62 809.5C1416.62 548.707 1205.21 337.292 944.415 337.292C683.622 337.292 472.207 548.707 472.207 809.5C472.207 1070.29 683.622 1281.71 944.415 1281.71Z" stroke="#E63946" stroke-width="33.7292"/>
<path opacity="0.3" d="M944.417 1200.76C1160.5 1200.76 1335.67 1025.59 1335.67 809.5C1335.67 593.414 1160.5 418.242 944.417 418.242C728.331 418.242 553.158 593.414 553.158 809.5C553.158 1025.59 728.331 1200.76 944.417 1200.76Z" stroke="#F1FAEE" stroke-width="13.4917"/>
<path d="M964.654 296.817H924.179C916.728 296.817 910.688 302.857 910.688 310.308V377.767C910.688 385.218 916.728 391.258 924.179 391.258H964.654C972.105 391.258 978.146 385.218 978.146 377.767V310.308C978.146 302.857 972.105 296.817 964.654 296.817Z" fill="#E63946"/>
<path d="M964.654 1227.74H924.179C916.728 1227.74 910.688 1233.78 910.688 1241.23V1308.69C910.688 1316.14 916.728 1322.18 924.179 1322.18H964.654C972.105 1322.18 978.146 1316.14 978.146 1308.69V1241.23C978.146 1233.78 972.105 1227.74 964.654 1227.74Z" fill="#E63946"/>
<path d="M512.682 775.771H445.224C437.773 775.771 431.732 781.811 431.732 789.262V829.737C431.732 837.189 437.773 843.229 445.224 843.229H512.682C520.134 843.229 526.174 837.189 526.174 829.737V789.262C526.174 781.811 520.134 775.771 512.682 775.771Z" fill="#E63946"/>
<path d="M1443.61 775.771H1376.15C1368.7 775.771 1362.66 781.811 1362.66 789.262V829.737C1362.66 837.189 1368.7 843.229 1376.15 843.229H1443.61C1451.06 843.229 1457.1 837.189 1457.1 829.737V789.262C1457.1 781.811 1451.06 775.771 1443.61 775.771Z" fill="#E63946"/>
<path d="M590.836 427.302L562.216 455.922C556.947 461.191 556.947 469.734 562.216 475.002L590.836 503.623C596.105 508.891 604.647 508.891 609.916 503.623L638.536 475.002C643.805 469.734 643.805 461.191 638.536 455.922L609.916 427.302C604.647 422.033 596.105 422.033 590.836 427.302Z" fill="#E63946"/>
<path d="M1326.61 455.923L1297.99 427.303C1292.72 422.034 1284.18 422.034 1278.91 427.303L1250.29 455.923C1245.02 461.191 1245.02 469.734 1250.29 475.003L1278.91 503.623C1284.18 508.892 1292.72 508.892 1297.99 503.623L1326.61 475.003C1331.88 469.734 1331.88 461.191 1326.61 455.923Z" fill="#E63946"/>
<path d="M638.539 1144L609.919 1115.38C604.65 1110.11 596.108 1110.11 590.839 1115.38L562.219 1144C556.95 1149.27 556.95 1157.81 562.219 1163.08L590.839 1191.7C596.108 1196.97 604.65 1196.97 609.919 1191.7L638.539 1163.08C643.808 1157.81 643.808 1149.27 638.539 1144Z" fill="#E63946"/>
<path d="M1278.91 1115.38L1250.29 1144C1245.02 1149.27 1245.02 1157.81 1250.29 1163.08L1278.91 1191.7C1284.18 1196.97 1292.72 1196.97 1297.99 1191.7L1326.61 1163.08C1331.88 1157.81 1331.88 1149.27 1326.61 1144L1297.99 1115.38C1292.72 1110.11 1284.18 1110.11 1278.91 1115.38Z" fill="#E63946"/>
<path d="M944.415 553.158L1167.03 681.329V937.671L944.415 1065.84L721.803 937.671V681.329L944.415 553.158Z" fill="#1D3557" stroke="#E63946" stroke-width="33.7292"/>
<path d="M944.415 930.925C1011.48 930.925 1065.84 876.561 1065.84 809.5C1065.84 742.439 1011.48 688.075 944.415 688.075C877.354 688.075 822.99 742.439 822.99 809.5C822.99 876.561 877.354 930.925 944.415 930.925Z" fill="#0D1B2A" stroke="#F1FAEE" stroke-width="26.9833"/>
<path d="M944.416 856.721C970.495 856.721 991.637 835.579 991.637 809.5C991.637 783.421 970.495 762.279 944.416 762.279C918.337 762.279 897.195 783.421 897.195 809.5C897.195 835.579 918.337 856.721 944.416 856.721Z" fill="#E63946"/>
<path d="M769.024 715.058L593.633 634.108" stroke="#F1FAEE" stroke-width="33.7292" stroke-linecap="round"/>
<path d="M1119.81 903.942L1295.2 984.892" stroke="#F1FAEE" stroke-width="33.7292" stroke-linecap="round"/>
<path d="M593.633 681.329C619.712 681.329 640.854 660.188 640.854 634.108C640.854 608.029 619.712 586.887 593.633 586.887C567.554 586.887 546.412 608.029 546.412 634.108C546.412 660.188 567.554 681.329 593.633 681.329Z" fill="#E63946"/>
<path d="M1295.2 1032.11C1321.28 1032.11 1342.42 1010.97 1342.42 984.892C1342.42 958.812 1321.28 937.671 1295.2 937.671C1269.12 937.671 1247.98 958.812 1247.98 984.892C1247.98 1010.97 1269.12 1032.11 1295.2 1032.11Z" fill="#E63946"/>
<path d="M1981.68 494.779H1865.2V416.754C1865.2 394.065 1863.91 379.954 1861.32 374.421C1858.93 368.703 1853.48 365.844 1845 365.844C1835.41 365.844 1829.32 369.256 1826.74 376.081C1824.16 382.906 1822.86 397.662 1822.86 420.35V628.417C1822.86 650.183 1824.16 664.386 1826.74 671.027C1829.32 677.667 1835.13 680.987 1844.17 680.987C1852.84 680.987 1858.46 677.667 1861.05 671.027C1863.81 664.386 1865.2 648.8 1865.2 624.267V568.1H1981.68V585.531C1981.68 631.83 1978.36 664.663 1971.72 684.031C1965.26 703.399 1950.78 720.369 1928.28 734.941C1905.96 749.513 1878.39 756.799 1845.55 756.799C1811.43 756.799 1783.3 750.62 1761.16 738.261C1739.03 725.902 1724.36 708.84 1717.17 687.074C1709.98 665.124 1706.38 632.199 1706.38 588.298V457.426C1706.38 425.146 1707.49 400.983 1709.7 384.935C1711.91 368.703 1718.46 353.116 1729.35 338.175C1740.41 323.234 1755.63 311.521 1775 303.036C1794.55 294.367 1816.96 290.032 1842.23 290.032C1876.54 290.032 1904.86 296.672 1927.17 309.953C1949.49 323.234 1964.16 339.835 1971.17 359.757C1978.18 379.493 1981.68 410.298 1981.68 452.169V494.779ZM2283.54 299.439V747.392H2181.45L2120.85 543.752V747.392H2023.46V299.439H2120.85L2186.15 501.142V299.439H2283.54Z" fill="#F1FAEE"/>
<path d="M1695.87 1021.5L1730.14 857.321H1851.87L1846.16 884.759H1758.25L1750.41 922.052H1835.41L1829.7 949.49H1744.69L1734.39 994.062H1829.92L1824.1 1021.5H1695.87ZM1980.1 1021.5H1948.63L1904.28 911.188L1881.21 1021.5H1849.74L1884.01 857.321H1915.59L1960.05 967.184L1983.01 857.321H2014.37L1980.1 1021.5ZM2105.98 933.811H2179.45L2164.66 1004.25C2156 1009.85 2145.36 1014.59 2132.74 1018.48C2120.2 1022.36 2107.4 1024.3 2094.33 1024.3C2074.02 1024.3 2058.46 1019.71 2047.63 1010.52C2032.85 997.982 2025.46 979.802 2025.46 955.985C2025.46 940.008 2028.63 924.702 2034.98 910.069C2042.59 892.449 2053.42 878.786 2067.45 869.08C2081.49 859.374 2097.99 854.521 2116.95 854.521C2135.92 854.521 2151.11 858.926 2162.53 867.736C2174.03 876.546 2181.65 889.388 2185.38 906.261L2153.91 909.845C2151.15 900.587 2146.67 893.606 2140.47 888.902C2134.35 884.199 2126.62 881.847 2117.29 881.847C2106.39 881.847 2096.38 884.684 2087.28 890.358C2078.17 896.032 2071.04 904.805 2065.89 916.676C2060.73 928.547 2058.16 941.501 2058.16 955.537C2058.16 969.349 2061.29 979.578 2067.57 986.223C2073.84 992.793 2083.02 996.078 2095.12 996.078C2102.36 996.078 2109.79 995.07 2117.4 993.054C2125.02 990.964 2131.59 988.5 2137.11 985.663L2142.15 961.249H2100.27L2105.98 933.811ZM2191.65 1021.5L2226.03 857.321H2259.74L2225.47 1021.5H2191.65ZM2388.2 1021.5H2356.73L2312.38 911.188L2289.31 1021.5H2257.84L2292.11 857.321H2323.69L2368.15 967.184L2391.11 857.321H2422.47L2388.2 1021.5ZM2422.69 1021.5L2456.96 857.321H2578.69L2572.98 884.759H2485.07L2477.23 922.052H2562.23L2556.52 949.49H2471.52L2461.22 994.062H2556.74L2550.92 1021.5H2422.69ZM2644.66 968.304L2676.8 966.624C2677.25 976.853 2679 983.759 2682.06 987.343C2686.99 993.166 2696.1 996.078 2709.39 996.078C2720.44 996.078 2728.43 994.099 2733.35 990.142C2738.28 986.185 2740.75 981.407 2740.75 975.808C2740.75 970.955 2738.73 966.848 2734.7 963.488C2731.86 961.025 2724.06 957.03 2711.29 951.505C2698.6 945.98 2689.3 941.389 2683.41 937.73C2677.58 933.997 2672.99 929.182 2669.63 923.284C2666.27 917.385 2664.59 910.479 2664.59 902.565C2664.59 888.753 2669.59 877.292 2679.6 868.184C2689.6 859.075 2704.09 854.521 2723.05 854.521C2742.31 854.521 2757.21 859.038 2767.74 868.072C2778.34 877.106 2784.16 889.126 2785.21 904.133L2752.84 905.589C2752.02 897.75 2749.18 891.739 2744.33 887.558C2739.48 883.377 2732.31 881.287 2722.83 881.287C2713.49 881.287 2706.81 882.929 2702.78 886.214C2698.82 889.499 2696.85 893.643 2696.85 898.645C2696.85 903.349 2698.67 907.231 2702.33 910.293C2705.99 913.428 2714.09 917.721 2726.63 923.172C2745.52 931.31 2757.54 937.917 2762.7 942.994C2770.39 950.46 2774.23 960.054 2774.23 971.776C2774.23 986.26 2768.48 998.654 2756.98 1008.96C2745.56 1019.19 2729.62 1024.3 2709.16 1024.3C2695.05 1024.3 2682.81 1021.95 2672.43 1017.24C2662.13 1012.47 2654.85 1005.86 2650.59 997.422C2646.34 988.985 2644.36 979.279 2644.66 968.304ZM2875.02 1021.5H2841.31L2854.64 957.553L2809.4 857.321H2845.35L2865.73 903.685C2870.58 914.81 2873.83 922.836 2875.47 927.763C2878.23 922.91 2881.44 917.759 2885.1 912.308L2900.67 890.582L2923.85 857.321H2963.05L2887.79 960.689L2875.02 1021.5ZM2950.62 968.304L2982.76 966.624C2983.21 976.853 2984.96 983.759 2988.02 987.343C2992.95 993.166 3002.06 996.078 3015.35 996.078C3026.4 996.078 3034.39 994.099 3039.31 990.142C3044.24 986.185 3046.71 981.407 3046.71 975.808C3046.71 970.955 3044.69 966.848 3040.66 963.488C3037.82 961.025 3030.02 957.03 3017.25 951.505C3004.56 945.98 2995.26 941.389 2989.37 937.73C2983.54 933.997 2978.95 929.182 2975.59 923.284C2972.23 917.385 2970.55 910.479 2970.55 902.565C2970.55 888.753 2975.55 877.292 2985.56 868.184C2995.56 859.075 3010.05 854.521 3029.01 854.521C3048.27 854.521 3063.17 859.038 3073.7 868.072C3084.3 877.106 3090.12 889.126 3091.17 904.133L3058.8 905.589C3057.98 897.75 3055.14 891.739 3050.29 887.558C3045.44 883.377 3038.27 881.287 3028.79 881.287C3019.46 881.287 3012.77 882.929 3008.74 886.214C3004.78 889.499 3002.81 893.643 3002.81 898.645C3002.81 903.349 3004.63 907.231 3008.29 910.293C3011.95 913.428 3020.05 917.721 3032.6 923.172C3051.48 931.31 3063.51 937.917 3068.66 942.994C3076.35 950.46 3080.19 960.054 3080.19 971.776C3080.19 986.26 3074.44 998.654 3062.95 1008.96C3051.52 1019.19 3035.58 1024.3 3015.12 1024.3C3001.01 1024.3 2988.77 1021.95 2978.39 1017.24C2968.09 1012.47 2960.81 1005.86 2956.55 997.422C2952.3 988.985 2950.32 979.279 2950.62 968.304ZM3169.9 1021.5H3136.08L3164.75 884.759H3116.59L3122.3 857.321H3251.65L3245.94 884.759H3198.45L3169.9 1021.5ZM3238.66 1021.5L3272.93 857.321H3394.66L3388.95 884.759H3301.04L3293.2 922.052H3378.2L3372.49 949.49H3287.49L3277.18 994.062H3372.71L3366.89 1021.5H3238.66ZM3486.05 1021.5H3454.02L3448.08 884.311L3421.99 1021.5H3391.53L3425.8 857.321H3473.95L3478.99 972.336L3534.99 857.321H3583.7L3549.32 1021.5H3518.53L3550.89 885.318L3486.05 1021.5ZM3587.85 968.304L3619.99 966.624C3620.44 976.853 3622.19 983.759 3625.25 987.343C3630.18 993.166 3639.29 996.078 3652.58 996.078C3663.63 996.078 3671.62 994.099 3676.55 990.142C3681.47 986.185 3683.94 981.407 3683.94 975.808C3683.94 970.955 3681.92 966.848 3677.89 963.488C3675.05 961.025 3667.25 957.03 3654.48 951.505C3641.79 945.98 3632.5 941.389 3626.6 937.73C3620.77 933.997 3616.18 929.182 3612.82 923.284C3609.46 917.385 3607.78 910.479 3607.78 902.565C3607.78 888.753 3612.79 877.292 3622.79 868.184C3632.79 859.075 3647.28 854.521 3666.24 854.521C3685.51 854.521 3700.4 859.038 3710.93 868.072C3721.53 877.106 3727.35 889.126 3728.4 904.133L3696.03 905.589C3695.21 897.75 3692.37 891.739 3687.52 887.558C3682.67 883.377 3675.5 881.287 3666.02 881.287C3656.69 881.287 3650 882.929 3645.97 886.214C3642.02 889.499 3640.04 893.643 3640.04 898.645C3640.04 903.349 3641.87 907.231 3645.52 910.293C3649.18 913.428 3657.28 917.721 3669.83 923.172C3688.72 931.31 3700.74 937.917 3705.89 942.994C3713.58 950.46 3717.42 960.054 3717.42 971.776C3717.42 986.26 3711.67 998.654 3700.18 1008.96C3688.75 1019.19 3672.81 1024.3 3652.36 1024.3C3638.24 1024.3 3626 1021.95 3615.62 1017.24C3605.32 1012.47 3598.04 1005.86 3593.78 997.422C3589.53 988.985 3587.55 979.279 3587.85 968.304Z" fill="#E63946"/>
<path d="M1695.35 1218.32V1131.4H1706.85V1208.06H1749.66V1218.32H1695.35ZM1765.37 1218.32V1131.4H1776.88V1218.32H1765.37ZM1796.86 1218.32V1131.4H1814.17L1834.74 1192.94C1836.64 1198.67 1838.02 1202.96 1838.89 1205.81C1839.88 1202.64 1841.42 1198 1843.52 1191.87L1864.33 1131.4H1879.8V1218.32H1868.72V1145.57L1843.46 1218.32H1833.08L1807.94 1144.32V1218.32H1796.86ZM1900.32 1218.32V1131.4H1911.82V1218.32H1900.32ZM1954.27 1218.32V1141.66H1925.63V1131.4H1994.53V1141.66H1965.77V1218.32H1954.27ZM2006.62 1218.32V1131.4H2069.47V1141.66H2018.12V1168.28H2066.21V1178.47H2018.12V1208.06H2071.49V1218.32H2006.62ZM2087.37 1218.32V1131.4H2117.32C2124.08 1131.4 2129.23 1131.81 2132.79 1132.64C2137.77 1133.79 2142.02 1135.86 2145.54 1138.87C2150.12 1142.74 2153.54 1147.7 2155.8 1153.75C2158.09 1159.76 2159.23 1166.64 2159.23 1174.38C2159.23 1180.98 2158.46 1186.83 2156.92 1191.93C2155.38 1197.03 2153.4 1201.26 2150.99 1204.62C2148.58 1207.94 2145.93 1210.57 2143.05 1212.51C2140.2 1214.4 2136.74 1215.85 2132.67 1216.83C2128.64 1217.82 2124 1218.32 2118.74 1218.32H2087.37ZM2098.88 1208.06H2117.43C2123.17 1208.06 2127.65 1207.53 2130.89 1206.46C2134.17 1205.39 2136.78 1203.89 2138.72 1201.95C2141.45 1199.23 2143.56 1195.57 2145.06 1190.98C2146.61 1186.36 2147.38 1180.77 2147.38 1174.21C2147.38 1165.11 2145.87 1158.14 2142.87 1153.28C2139.91 1148.37 2136.29 1145.09 2132.02 1143.43C2128.94 1142.25 2123.98 1141.66 2117.14 1141.66H2098.88V1208.06Z" fill="#A8DADC"/>
<g opacity="0.5">
<path d="M5059.38 202.375H5261.75V404.75" stroke="#E63946" stroke-width="20.2375"/>
<path d="M5059.38 1416.63H5261.75V1214.25" stroke="#E63946" stroke-width="20.2375"/>
</g>
</g>
<defs>
<clipPath id="clip0_400_2">
<rect width="5396.67" height="1619" fill="white"/>
</clipPath>
</defs>
</svg>
