<svg width="3819" height="1228" viewBox="0 0 3819 1228" fill="none" xmlns="http://www.w3.org/2000/svg">
<path d="M1116.21 331.843C1124.42 271.395 1156.13 264.678 1210.61 264.678C1212.11 264.678 1217.33 264.678 1218.08 265.051L1236.36 266.171C1271.43 268.41 1283.37 307.589 1283.37 337.44V353.485C1283.37 356.843 1280.39 360.947 1277.03 360.947H1240.09C1235.99 360.947 1233.75 356.097 1233.75 352.738V335.201C1233.75 323.261 1228.52 320.276 1216.96 319.902C1215.09 319.902 1205.76 319.529 1203.52 319.529H1200.91H1190.84C1183 319.902 1171.81 320.649 1168.07 329.231C1168.45 328.858 1169.57 328.485 1169.94 328.485C1166.96 330.723 1165.84 332.962 1165.84 337.44L1180.76 326.246C1183 325.873 1184.87 325.873 1187.1 325.873L1165.09 342.291C1164.34 345.276 1164.34 355.723 1164.34 358.709V420.276C1164.34 426.992 1164.72 433.709 1165.09 440.052C1166.96 456.47 1171.81 460.575 1188.22 462.067C1192.33 462.067 1196.43 462.44 1200.91 462.44H1203.9C1204.64 462.44 1204.64 462.44 1205.02 462.067L1229.64 443.784V444.903V446.395V448.261L1210.99 462.067C1213.6 462.067 1216.58 462.067 1219.19 461.694L1228.9 454.604C1228.9 456.097 1228.15 457.963 1227.4 459.455C1233 459.455 1235.61 444.157 1235.61 440.052V422.515C1235.61 419.157 1238.6 415.052 1242.33 415.052H1278.9C1282.25 415.052 1285.61 418.783 1285.61 422.142V445.276C1285.61 482.59 1272.93 512.067 1230.76 515.426L1201.28 517.664C1169.19 517.664 1139.34 516.918 1124.04 483.709C1120.31 475.5 1117.7 465.799 1116.58 456.843L1115.09 442.291L1114.34 425.127V357.216C1114.34 349.007 1115.09 340.425 1116.21 331.843ZM1119.19 304.977L1095.31 322.888C1095.31 322.514 1100.54 315.052 1101.66 313.932L1121.43 299.007C1121.81 298.634 1122.55 298.634 1122.93 298.634L1122.18 299.753C1121.81 300.499 1119.57 304.231 1119.19 304.977ZM1113.6 319.529L1089.34 337.813C1089.34 337.067 1090.84 332.962 1091.21 331.843L1115.84 313.932L1113.6 319.529ZM1173.67 346.395H1167.7L1194.94 325.873H1196.81H1198.3H1200.91L1173.67 346.395ZM1181.13 346.395L1208.75 325.873C1210.24 325.873 1212.48 326.246 1213.97 326.246L1187.1 346.395L1186.73 346.768C1185.99 346.768 1181.88 346.768 1181.13 346.395ZM1087.1 345.276L1112.1 326.619L1110.99 331.843L1085.99 350.5C1085.99 350.126 1085.99 349.753 1086.36 349.38C1086.36 348.261 1087.1 345.276 1087.1 345.276ZM1193.45 347.888V347.514L1219.94 327.738C1221.43 327.738 1222.93 328.485 1223.67 329.231L1197.18 349.007C1196.06 348.634 1194.57 348.261 1193.45 347.888ZM1200.54 352.738L1226.28 333.335C1226.66 332.962 1227.4 336.694 1227.4 337.067L1201.66 356.097L1200.54 352.738ZM1084.49 362.067L1084.87 357.216L1109.87 338.559L1109.49 343.41L1084.49 362.067ZM1202.4 361.694L1227.78 342.664V347.141L1202.4 365.798V361.694ZM1084.12 368.41L1108.37 349.753H1108.75V350.5V354.231L1083.37 373.261C1083.37 372.515 1083.75 369.156 1084.12 368.41ZM1202.4 371.768L1227.78 352.738V357.216L1202.4 376.246V371.768ZM1083.37 378.858L1108.37 360.201V361.694V364.679L1083 383.709C1083 382.589 1083 380.35 1083.37 378.858ZM1202.78 381.843L1228.15 362.813C1228.9 363.932 1229.64 364.679 1230.39 365.425L1204.27 385.201C1203.9 384.828 1202.4 381.843 1202.78 381.843ZM1208.75 387.813L1235.99 367.291H1241.96L1214.72 387.813H1208.75ZM1222.18 387.813L1249.79 367.291H1252.03V369.903L1228.15 387.813H1222.18ZM1083 393.783V389.679L1108.37 370.649V374.753L1083 393.783ZM1235.99 387.813L1252.03 375.873V379.977L1241.96 387.813H1235.99ZM1083 403.858V399.38L1108.37 380.724V385.201L1083 403.858ZM1083 409.828L1108.37 390.798V395.276L1083 414.306V409.828ZM1083 419.903L1108.37 401.246V405.724L1083 424.38V419.903ZM1083 434.828V430.351L1107.63 411.694C1108 411.694 1108 411.321 1108.37 411.321V415.798L1083 434.828ZM1083 444.903V440.425L1107.63 422.142C1108 422.142 1108 421.769 1108.37 421.769V426.246L1083 444.903ZM1083 450.873L1108.37 431.843V432.216V436.321L1083 455.351V451.993V450.873ZM1083.37 460.948L1108.75 441.918V445.649V446.395L1083.37 465.052V460.948ZM1204.27 456.47V451.993L1217.7 442.291H1223.67L1204.27 456.47ZM1209.87 442.291L1205.76 445.276C1206.88 443.784 1208.37 442.664 1209.87 442.291ZM1084.12 470.649L1109.12 451.993C1109.49 453.112 1109.87 454.231 1109.87 455.724L1084.49 474.754C1084.12 474.008 1084.12 471.769 1084.12 470.649ZM1085.24 479.978L1110.24 461.321C1110.61 462.44 1110.99 463.56 1110.99 465.052C1110.99 465.425 1110.99 465.052 1110.61 465.425L1085.61 484.082C1085.24 483.336 1085.24 481.097 1085.24 479.978ZM1086.73 489.306L1111.73 470.649V470.276C1112.1 471.022 1112.48 473.634 1112.48 474.381L1087.1 493.411C1086.73 492.291 1086.36 490.052 1086.36 489.679C1086.36 489.306 1086.73 489.306 1086.73 489.306ZM1088.22 498.261H1088.6L1113.97 478.858L1115.09 482.59L1089.34 501.993C1088.97 500.5 1088.22 498.261 1088.22 498.261ZM1091.21 506.097L1116.96 487.067C1117.33 488.187 1118.45 489.679 1118.07 490.426L1092.33 509.829L1091.21 506.843V506.097ZM1094.57 513.933L1120.31 494.53L1122.18 497.515L1096.06 516.918C1096.06 516.918 1095.31 515.426 1094.94 515.052C1094.94 514.679 1094.57 513.933 1094.57 513.933ZM1100.91 524.008L1098.67 521.023L1124.79 501.62C1125.54 502.366 1127.03 504.232 1127.03 504.232L1101.28 523.635L1100.91 524.008ZM1103.9 527.366L1130.02 507.963V507.59C1130.39 507.963 1132.25 509.829 1133 510.202L1106.88 529.605H1106.51C1106.51 529.605 1104.27 527.366 1103.9 527.366ZM1110.24 532.963L1136.73 513.187C1137.1 513.187 1139.72 514.679 1140.09 515.052L1113.6 534.829C1113.22 534.829 1110.61 532.963 1110.24 532.963ZM1118.07 537.441L1144.57 517.291H1144.94L1148.67 519.157L1121.81 538.933C1120.69 538.56 1118.45 537.814 1118.07 537.441ZM1209.12 541.172L1237.48 519.903C1239.72 519.53 1241.96 518.784 1243.82 518.038H1244.19C1243.82 518.784 1243.45 519.53 1242.7 519.903L1216.96 539.306C1216.58 539.679 1210.24 541.172 1209.49 541.172H1209.12ZM1127.4 540.799L1153.9 521.023C1154.27 520.65 1153.9 520.65 1154.64 520.65L1158.75 521.769L1131.88 541.918C1130.02 541.545 1127.78 540.799 1127.4 540.799ZM1199.79 542.291L1193.08 543.038L1220.69 522.142C1221.43 521.769 1226.66 521.396 1227.4 521.396H1227.78L1199.79 542.291ZM1137.85 543.038H1138.22L1164.72 522.888H1165.46C1166.96 522.888 1168.82 522.888 1170.31 523.261L1143.45 543.411C1143.07 543.784 1143.07 543.784 1142.7 543.784C1141.96 543.784 1138.97 543.411 1137.85 543.038ZM1183.75 543.784L1177.78 544.157L1205.39 523.261C1206.13 522.888 1208 522.888 1209.49 522.888H1212.1L1184.49 543.411C1184.49 543.784 1184.12 543.784 1183.75 543.784ZM1150.16 544.157L1177.4 524.008V523.635C1179.27 523.635 1181.51 523.635 1183.37 524.008L1155.76 544.53H1154.64H1153.15C1152.4 544.53 1150.54 544.157 1150.54 544.157H1150.16ZM1163.6 544.53L1190.84 524.008H1191.21C1191.21 524.008 1194.94 523.635 1196.06 523.635C1196.06 523.635 1196.81 524.008 1197.18 524.008L1169.57 544.53H1163.6ZM1419.08 463.187V318.41L1410.13 315.798C1407.14 314.679 1404.9 311.693 1404.9 308.708V271.768C1404.9 269.156 1407.52 264.678 1410.5 264.678H1488.11C1490.73 264.678 1492.59 267.663 1493.34 269.529L1515.35 322.888L1539.23 304.977V309.455L1517.22 326.246C1517.59 328.111 1517.96 329.604 1518.71 330.723L1539.61 315.425C1539.98 316.544 1539.98 318.037 1540.73 319.156L1520.2 334.455L1522.07 338.932L1544.46 322.141C1544.46 322.141 1547.07 322.888 1548.93 323.261L1523.56 342.291L1528.79 354.604L1554.53 335.574V338.932V340.052L1530.65 357.962C1530.65 359.082 1531.77 361.694 1532.14 362.44L1554.53 346.022V349.38V350.126L1533.64 365.798V366.171L1535.5 370.649L1554.9 356.097V360.574L1536.99 374.007C1536.99 374.753 1538.11 377.365 1539.23 378.112L1554.9 366.171C1554.9 366.918 1554.9 369.903 1555.28 370.649L1539.98 381.843L1541.85 386.321H1542.22L1555.28 376.619V380.724L1543.71 389.306C1543.71 390.798 1544.83 393.41 1545.58 394.156L1555.28 386.694V391.171L1547.07 397.515C1547.07 398.261 1547.82 400.873 1548.56 401.992L1555.65 397.142V400.127V401.246L1550.05 405.351C1550.43 406.47 1551.55 409.082 1551.92 409.828L1555.65 407.216C1556.02 408.336 1556.02 409.082 1556.02 410.201C1556.02 410.574 1556.02 411.321 1555.65 411.694C1555.65 411.694 1553.79 413.186 1553.41 413.56L1555.28 418.037L1556.02 417.291V419.903V420.649L1562.37 435.948L1560.13 319.156C1560.13 318.41 1560.13 318.41 1559.76 318.41C1553.41 316.544 1545.58 316.171 1545.58 307.962V272.141C1545.58 269.156 1548.19 264.678 1551.55 264.678H1619.46C1622.44 264.678 1625.05 268.783 1625.05 271.395V308.708C1625.05 312.067 1622.82 314.679 1619.83 315.798L1610.5 318.41V509.829C1610.5 513.187 1607.89 517.291 1604.53 517.291H1542.22C1539.61 517.291 1537.37 514.306 1536.25 512.067L1467.59 345.649C1467.59 349.753 1467.96 365.425 1468.71 369.156C1469.08 369.903 1469.83 371.768 1469.83 371.768V372.141C1469.46 372.141 1468.71 372.888 1468.34 374.007V379.231L1471.7 376.619C1472.07 377.739 1473.19 379.977 1473.19 379.977L1468.34 383.709V384.455V389.306H1468.71C1469.46 388.559 1473.56 385.574 1475.05 384.828C1475.43 385.574 1476.17 387.067 1476.17 388.186L1468.71 393.783V394.903V399.754L1478.41 392.664C1478.41 393.41 1479.16 395.276 1479.53 396.022L1468.71 404.231V405.351C1468.71 407.216 1468.71 408.336 1469.08 409.828L1481.4 400.5C1481.77 401.246 1482.89 403.485 1482.89 404.231L1469.08 414.306V415.798V420.276L1484.38 408.709C1485.13 409.082 1485.87 411.321 1485.87 412.067L1469.08 424.754V426.619C1469.08 426.619 1469.08 429.231 1469.46 430.351L1488.11 416.545C1488.49 417.291 1489.23 419.157 1489.23 419.903L1469.46 434.828V440.798L1491.47 424.38L1492.59 427.366C1492.59 427.739 1492.22 427.739 1492.22 428.112L1469.83 444.903C1469.46 444.903 1469.46 444.903 1469.46 445.276C1469.46 446.396 1469.46 450.127 1469.83 450.873L1494.46 432.216C1494.83 432.589 1495.58 434.828 1495.58 435.948L1469.83 455.351V456.843V462.44V463.187L1477.29 465.799L1500.8 448.261C1501.55 449.381 1502.67 451.619 1502.67 451.619L1481.4 467.291C1482.52 468.41 1483.26 469.53 1484.01 471.022L1504.16 456.47C1504.9 457.216 1505.65 459.455 1505.65 459.455L1484.76 475.5V481.097L1507.14 464.306C1507.89 464.679 1508.64 466.545 1509.01 467.291L1484.76 485.948V509.829C1484.76 513.187 1481.77 517.291 1478.41 517.291H1410.87C1407.52 517.291 1404.9 513.187 1404.9 510.202V472.515C1402.67 473.261 1400.43 474.754 1399.31 476.993L1387.74 485.948V481.097L1413.11 462.067V465.425L1419.08 463.187ZM1382.52 291.917L1373.19 299.007C1373.56 296.022 1375.8 291.917 1379.16 291.917H1382.52ZM1373.19 304.977L1390.35 291.917H1396.7L1373.19 309.455V304.977ZM1521.32 291.917L1514.23 297.141C1514.23 294.529 1518.34 291.917 1521.32 291.917ZM1513.86 307.962V303.484L1529.16 291.917H1535.13L1513.86 307.962ZM1513.86 313.932L1539.23 294.529V299.007L1513.86 318.41V313.932ZM1373.19 319.902V315.425L1398.56 296.022V300.873L1373.19 319.902ZM1373.19 325.873L1398.56 306.47V311.32L1373.19 330.35V325.873ZM1373.19 335.947L1398.93 316.917C1399.31 316.917 1400.8 319.902 1400.8 320.276L1374.31 339.679C1373.93 340.052 1373.19 336.694 1373.19 336.32V335.947ZM1382.14 344.156L1378.04 343.037L1404.9 322.888C1407.14 322.888 1409.38 323.634 1409.38 323.634L1409.76 324.007L1382.89 343.783C1382.52 344.156 1382.14 344.156 1382.14 344.156ZM1527.29 345.276L1554.16 325.126V328.485V329.604L1528.79 349.007L1528.41 348.261V345.649C1528.41 345.649 1527.67 345.649 1527.29 345.276ZM1387.74 346.022L1413.11 326.992V331.47L1387.74 350.873V346.022ZM1387.74 361.321V356.47L1413.11 337.44V341.917L1387.74 361.321ZM1387.74 371.768V366.918L1413.11 347.888V352.365L1387.74 371.768ZM1387.74 377.365L1413.11 358.335V362.44L1387.74 381.47V377.365ZM1387.74 387.44L1413.11 368.41V372.888L1387.74 391.918V387.44ZM1387.74 402.365V397.888L1413.11 378.858V383.336L1387.74 402.365ZM1387.74 408.336L1413.11 389.306V393.783L1387.74 412.813V408.336ZM1387.74 418.783L1413.11 399.754V404.231L1387.74 423.261V418.783ZM1387.74 433.709V429.231L1413.11 409.828V414.679L1387.74 433.709ZM1387.74 444.157V439.679L1413.11 420.276V425.127L1387.74 444.157ZM1387.74 450.127L1413.11 430.724V435.575L1387.74 454.604V450.127ZM1471.7 459.828L1497.82 440.052C1498.19 440.425 1498.93 442.664 1499.31 443.784L1473.19 463.187C1472.44 462.067 1471.7 459.828 1471.7 459.828ZM1387.74 465.052V460.575L1413.11 441.172V445.649L1387.74 465.052ZM1387.74 475.5V470.649L1413.11 451.619V456.097L1387.74 475.5ZM1484.76 491.545L1510.87 472.142C1510.87 472.142 1511.99 474.008 1512.37 475.5L1486.62 494.903C1485.87 493.784 1484.76 491.545 1484.76 491.545ZM1489.61 503.112L1488.11 499.381L1514.23 479.978C1514.98 481.47 1515.73 483.336 1515.73 483.336L1489.61 503.112ZM1373.19 502.366L1398.56 483.336V487.814L1373.19 506.843V502.366ZM1492.59 510.948L1491.47 507.59L1517.59 487.814C1517.96 489.306 1519.08 491.172 1519.08 491.172L1492.59 510.948ZM1373.19 517.291V512.814L1398.19 494.157L1398.56 493.784V497.888L1373.19 517.291ZM1494.83 515.426L1520.58 496.023C1521.32 497.142 1522.07 499.381 1522.07 499.381L1495.95 518.784C1495.95 518.411 1494.83 516.172 1494.83 515.426ZM1498.19 523.261L1524.31 503.858C1524.31 503.858 1525.05 506.097 1525.05 507.59L1499.31 526.993C1498.93 526.247 1498.19 524.008 1498.19 523.261ZM1373.19 522.888L1398.56 503.858V508.336L1373.19 527.739V522.888ZM1501.55 531.097L1527.29 512.067C1528.04 513.187 1528.79 515.426 1528.79 515.426L1502.67 534.829C1502.29 534.082 1501.55 531.844 1501.55 531.097ZM1373.19 537.814V533.336L1398.19 514.679C1398.93 515.799 1399.31 517.291 1399.31 518.411C1398.93 518.411 1398.93 518.784 1398.93 518.784L1373.56 537.814H1373.19ZM1504.53 539.306L1530.28 519.903H1530.65L1532.89 522.142L1506.4 541.918C1505.65 541.545 1504.53 540.426 1504.53 539.306ZM1375.43 542.291L1401.55 522.515C1402.29 522.515 1403.04 523.261 1403.41 523.261C1404.53 523.635 1405.28 523.635 1406.4 523.635L1378.78 544.157C1377.29 544.157 1376.17 543.411 1375.43 542.291ZM1392.59 544.53H1386.25L1414.23 523.635H1420.2L1392.59 544.53ZM1400.43 544.53L1428.04 523.635H1434.01L1406.4 544.53H1400.43ZM1414.23 544.53L1441.84 523.635H1447.81L1420.2 544.53H1414.23ZM1510.87 544.53L1538.86 523.635H1544.83L1517.22 544.53H1510.87ZM1525.05 544.53L1552.67 523.635H1558.64L1531.02 544.53H1525.05ZM1538.86 544.53L1566.47 523.635H1572.82L1544.83 544.53H1538.86ZM1559.01 544.53H1552.67L1578.41 525.127H1578.79V529.605L1559.01 544.53ZM1428.04 544.53L1452.67 525.873V530.351L1434.01 544.53H1428.04ZM1572.82 544.53H1566.85L1578.79 535.575C1578.79 537.068 1578.79 539.679 1577.67 540.799L1572.82 544.53ZM1447.07 544.53H1441.84L1452.67 536.321C1452.67 540.053 1450.43 544.53 1447.07 544.53ZM1902.07 463.187V318.41L1892.37 315.052C1889.76 314.305 1887.89 310.947 1887.89 308.335V272.141C1887.89 269.529 1890.5 264.678 1893.49 264.678H2041.62C2044.61 264.678 2047.22 268.783 2047.22 271.395V331.097C2047.22 333.708 2044.24 337.813 2041.62 337.813H2011.4C2008.79 337.813 2006.55 334.082 2006.18 331.843L2003.56 320.276H1952.82V326.619H1958.41L1952.82 330.723V336.694L1966.25 326.619H1972.22L1952.82 341.171V347.141L1980.06 326.619H1986.4L1958.41 347.514H1952.82V362.067H1975.58L1975.21 361.694L1975.58 361.321L2001.7 341.917C2002.44 342.664 2003.56 343.41 2004.68 344.156L1980.8 362.067H1988.64L2012.15 344.529H2015.5V346.395L1994.61 362.067H1998.71C1999.46 362.067 2000.21 362.813 2001.32 362.813L2015.5 352.365V356.843L2004.31 365.425H2003.19C2003.56 366.171 2004.31 367.664 2004.31 369.156V409.082C2004.31 412.813 2001.32 416.171 1997.59 416.171H1952.82V422.515H1955.06C1954.68 422.888 1953.19 424.007 1952.82 424.38V429.978L1962.89 422.515H1968.86L1952.82 434.828V440.425L1972.59 425.873V430.351L1955.06 443.41H1952.82V461.694H2004.31L2007.29 449.381C2007.67 447.142 2009.91 443.784 2012.89 443.784H2042C2044.98 443.784 2047.97 447.888 2047.97 450.873V510.575C2047.97 513.187 2044.98 517.291 2042 517.291H1893.86C1890.88 517.291 1887.89 512.814 1887.89 509.829V472.515C1886.03 473.261 1884.16 474.008 1883.04 475.873C1882.67 476.246 1882.67 476.993 1882.29 477.366L1870.73 485.948V481.47L1896.1 462.44V465.425C1896.85 465.052 1900.95 463.933 1902.07 463.187ZM1862.14 291.917H1866.25L1856.17 299.38C1856.17 296.395 1858.79 291.917 1862.14 291.917ZM1856.17 309.828V305.35L1874.09 291.917H1880.06L1856.17 309.828ZM1856.17 315.798L1881.55 296.395V301.246L1856.17 320.276V315.798ZM1856.17 330.723V326.246L1881.17 307.216H1881.55V311.32L1856.17 330.723ZM1856.17 336.32L1881.92 317.291C1883.04 318.41 1883.41 319.156 1884.16 320.276L1857.67 339.679C1857.29 339.679 1856.17 337.067 1856.17 336.32ZM1865.88 344.156L1861.77 342.664L1888.64 322.514H1889.01L1893.12 323.634L1865.88 344.156ZM1966.25 347.514L1994.23 326.619H1997.22C1997.59 326.992 1997.59 327.738 1997.59 328.485L1972.22 347.514H1971.85H1966.25ZM1870.73 351.246V346.395L1896.1 327.365V331.843L1870.73 351.246ZM1973.71 356.843L1972.97 352.738L1998.71 333.708L1999.09 333.335L1999.83 337.44L1973.71 356.843ZM1870.73 356.843L1896.1 337.813V341.917L1870.73 360.947V356.843ZM1870.73 366.918L1896.1 347.888V352.365L1870.73 371.395V366.918ZM1870.73 381.843V377.365L1896.1 358.335V362.813L1870.73 381.843ZM1870.73 392.291V387.813L1896.1 368.783V373.261L1870.73 392.291ZM1870.73 398.261L1896.1 379.231V383.709L1870.73 402.739V398.261ZM1870.73 413.186V408.709L1896.1 389.679V394.156L1870.73 413.186ZM1870.73 423.634V419.157L1896.1 400.127V404.604L1870.73 423.634ZM1870.73 429.604L1896.1 410.201V415.052L1870.73 434.082V429.604ZM1870.73 440.052L1896.1 420.649V425.5L1870.73 444.53V440.052ZM1870.73 454.978V450.5L1896.1 431.097V435.948L1870.73 454.978ZM1967 443.41H1962.89L1972.59 436.321C1972.59 439.306 1970.35 443.41 1967 443.41ZM1870.73 460.948L1896.1 441.545V446.022L1870.73 465.425V460.948ZM1870.73 471.022L1896.1 451.993V456.47L1870.73 475.873V471.022ZM1856.17 502.366L1881.55 483.336V487.814L1856.17 507.217V502.366ZM1856.17 512.814L1881.55 493.784V498.261L1856.17 517.664V512.814ZM1856.17 528.112V523.261L1881.55 504.232V508.709L1856.17 528.112ZM1856.17 533.709L1881.55 514.679C1881.92 516.172 1882.29 517.291 1882.29 518.784L1881.92 519.157L1856.55 537.814L1856.17 538.187V533.709ZM1858.41 542.665L1884.91 522.888C1886.77 523.635 1887.89 523.635 1889.76 523.635L1862.14 544.53C1860.65 544.53 1859.16 543.411 1858.41 542.665ZM1869.98 544.53L1897.59 523.635H1903.56L1875.95 544.53H1869.98ZM1889.76 544.53H1883.79L1911.4 523.635H1917.37L1889.76 544.53ZM1903.56 544.53H1897.59L1924.83 524.008C1925.2 523.635 1925.58 523.635 1925.58 523.635H1931.55L1903.56 544.53ZM1911.4 544.53L1939.38 523.635H1945.35L1918.12 544.157C1917.74 544.53 1917.74 544.53 1917.37 544.53H1911.4ZM1925.58 544.53L1953.19 523.635H1959.16L1931.55 544.53H1925.58ZM1945.35 544.53H1939.38L1967 523.635H1973.34L1945.35 544.53ZM1953.19 544.53L1981.18 523.635H1986.4L1958.79 544.53H1953.19ZM1972.59 544.53H1966.62L1994.23 523.635H2000.58L1972.59 544.53ZM1980.43 544.53L2008.41 523.635H2014.38L1986.77 544.53H1980.43ZM1994.61 544.53L2016.25 528.112V532.59L2000.58 544.53H1994.61ZM2008.41 544.53L2016.25 538.933C2016.25 541.918 2012.52 544.53 2009.53 544.53H2008.41ZM2181.44 463.187V318.41L2172.48 315.798C2169.5 314.679 2167.26 311.693 2167.26 308.708V271.768C2167.26 269.156 2169.87 264.678 2172.86 264.678H2250.47C2253.08 264.678 2254.95 267.663 2255.69 269.529L2277.71 322.888L2301.59 304.977V309.455L2279.57 326.246C2279.95 328.111 2280.32 329.604 2281.06 330.723L2301.96 315.425C2302.33 316.544 2302.33 318.037 2303.08 319.156L2282.56 334.455L2284.42 338.932L2306.81 322.141C2306.81 322.141 2309.42 322.888 2311.29 323.261L2285.92 342.291L2291.14 354.604L2316.89 335.574V338.932V340.052L2293 357.962C2293 359.082 2294.12 361.694 2294.5 362.44L2316.89 346.022V349.38V350.126L2295.99 365.798V366.171L2297.86 370.649L2317.26 356.097V360.574L2299.35 374.007C2299.35 374.753 2300.47 377.365 2301.59 378.112L2317.26 366.171C2317.26 366.918 2317.26 369.903 2317.63 370.649L2302.33 381.843L2304.2 386.321H2304.57L2317.63 376.619V380.724L2306.06 389.306C2306.06 390.798 2307.18 393.41 2307.93 394.156L2317.63 386.694V391.171L2309.42 397.515C2309.42 398.261 2310.17 400.873 2310.92 401.992L2318.01 397.142V400.127V401.246L2312.41 405.351C2312.78 406.47 2313.9 409.082 2314.27 409.828L2318.01 407.216C2318.38 408.336 2318.38 409.082 2318.38 410.201C2318.38 410.574 2318.38 411.321 2318.01 411.694C2318.01 411.694 2316.14 413.186 2315.77 413.56L2317.63 418.037L2318.38 417.291V419.903V420.649L2324.72 435.948L2322.48 319.156C2322.48 318.41 2322.48 318.41 2322.11 318.41C2315.77 316.544 2307.93 316.171 2307.93 307.962V272.141C2307.93 269.156 2310.54 264.678 2313.9 264.678H2381.81C2384.8 264.678 2387.41 268.783 2387.41 271.395V308.708C2387.41 312.067 2385.17 314.679 2382.18 315.798L2372.86 318.41V509.829C2372.86 513.187 2370.24 517.291 2366.89 517.291H2304.57C2301.96 517.291 2299.72 514.306 2298.6 512.067L2229.94 345.649C2229.94 349.753 2230.32 365.425 2231.06 369.156C2231.44 369.903 2232.18 371.768 2232.18 371.768V372.141C2231.81 372.141 2231.06 372.888 2230.69 374.007V379.231L2234.05 376.619C2234.42 377.739 2235.54 379.977 2235.54 379.977L2230.69 383.709V384.455V389.306H2231.06C2231.81 388.559 2235.92 385.574 2237.41 384.828C2237.78 385.574 2238.53 387.067 2238.53 388.186L2231.06 393.783V394.903V399.754L2240.77 392.664C2240.77 393.41 2241.51 395.276 2241.89 396.022L2231.06 404.231V405.351C2231.06 407.216 2231.06 408.336 2231.44 409.828L2243.75 400.5C2244.12 401.246 2245.24 403.485 2245.24 404.231L2231.44 414.306V415.798V420.276L2246.74 408.709C2247.48 409.082 2248.23 411.321 2248.23 412.067L2231.44 424.754V426.619C2231.44 426.619 2231.44 429.231 2231.81 430.351L2250.47 416.545C2250.84 417.291 2251.59 419.157 2251.59 419.903L2231.81 434.828V440.798L2253.83 424.38L2254.95 427.366C2254.95 427.739 2254.57 427.739 2254.57 428.112L2232.18 444.903C2231.81 444.903 2231.81 444.903 2231.81 445.276C2231.81 446.396 2231.81 450.127 2232.18 450.873L2256.81 432.216C2257.18 432.589 2257.93 434.828 2257.93 435.948L2232.18 455.351V456.843V462.44V463.187L2239.65 465.799L2263.15 448.261C2263.9 449.381 2265.02 451.619 2265.02 451.619L2243.75 467.291C2244.87 468.41 2245.62 469.53 2246.36 471.022L2266.51 456.47C2267.26 457.216 2268 459.455 2268 459.455L2247.11 475.5V481.097L2269.5 464.306C2270.24 464.679 2270.99 466.545 2271.36 467.291L2247.11 485.948V509.829C2247.11 513.187 2244.12 517.291 2240.77 517.291H2173.23C2169.87 517.291 2167.26 513.187 2167.26 510.202V472.515C2165.02 473.261 2162.78 474.754 2161.66 476.993L2150.09 485.948V481.097L2175.47 462.067V465.425L2181.44 463.187ZM2144.87 291.917L2135.54 299.007C2135.91 296.022 2138.15 291.917 2141.51 291.917H2144.87ZM2135.54 304.977L2152.71 291.917H2159.05L2135.54 309.455V304.977ZM2283.68 291.917L2276.59 297.141C2276.59 294.529 2280.69 291.917 2283.68 291.917ZM2276.21 307.962V303.484L2291.51 291.917H2297.48L2276.21 307.962ZM2276.21 313.932L2301.59 294.529V299.007L2276.21 318.41V313.932ZM2135.54 319.902V315.425L2160.91 296.022V300.873L2135.54 319.902ZM2135.54 325.873L2160.91 306.47V311.32L2135.54 330.35V325.873ZM2135.54 335.947L2161.29 316.917C2161.66 316.917 2163.15 319.902 2163.15 320.276L2136.66 339.679C2136.29 340.052 2135.54 336.694 2135.54 336.32V335.947ZM2144.5 344.156L2140.39 343.037L2167.26 322.888C2169.5 322.888 2171.74 323.634 2171.74 323.634L2172.11 324.007L2145.24 343.783C2144.87 344.156 2144.5 344.156 2144.5 344.156ZM2289.65 345.276L2316.51 325.126V328.485V329.604L2291.14 349.007L2290.77 348.261V345.649C2290.77 345.649 2290.02 345.649 2289.65 345.276ZM2150.09 346.022L2175.47 326.992V331.47L2150.09 350.873V346.022ZM2150.09 361.321V356.47L2175.47 337.44V341.917L2150.09 361.321ZM2150.09 371.768V366.918L2175.47 347.888V352.365L2150.09 371.768ZM2150.09 377.365L2175.47 358.335V362.44L2150.09 381.47V377.365ZM2150.09 387.44L2175.47 368.41V372.888L2150.09 391.918V387.44ZM2150.09 402.365V397.888L2175.47 378.858V383.336L2150.09 402.365ZM2150.09 408.336L2175.47 389.306V393.783L2150.09 412.813V408.336ZM2150.09 418.783L2175.47 399.754V404.231L2150.09 423.261V418.783ZM2150.09 433.709V429.231L2175.47 409.828V414.679L2150.09 433.709ZM2150.09 444.157V439.679L2175.47 420.276V425.127L2150.09 444.157ZM2150.09 450.127L2175.47 430.724V435.575L2150.09 454.604V450.127ZM2234.05 459.828L2260.17 440.052C2260.54 440.425 2261.29 442.664 2261.66 443.784L2235.54 463.187C2234.8 462.067 2234.05 459.828 2234.05 459.828ZM2150.09 465.052V460.575L2175.47 441.172V445.649L2150.09 465.052ZM2150.09 475.5V470.649L2175.47 451.619V456.097L2150.09 475.5ZM2247.11 491.545L2273.23 472.142C2273.23 472.142 2274.35 474.008 2274.72 475.5L2248.97 494.903C2248.23 493.784 2247.11 491.545 2247.11 491.545ZM2251.96 503.112L2250.47 499.381L2276.59 479.978C2277.33 481.47 2278.08 483.336 2278.08 483.336L2251.96 503.112ZM2135.54 502.366L2160.91 483.336V487.814L2135.54 506.843V502.366ZM2254.95 510.948L2253.83 507.59L2279.95 487.814C2280.32 489.306 2281.44 491.172 2281.44 491.172L2254.95 510.948ZM2135.54 517.291V512.814L2160.54 494.157L2160.91 493.784V497.888L2135.54 517.291ZM2257.18 515.426L2282.93 496.023C2283.68 497.142 2284.42 499.381 2284.42 499.381L2258.3 518.784C2258.3 518.411 2257.18 516.172 2257.18 515.426ZM2260.54 523.261L2286.66 503.858C2286.66 503.858 2287.41 506.097 2287.41 507.59L2261.66 526.993C2261.29 526.247 2260.54 524.008 2260.54 523.261ZM2135.54 522.888L2160.91 503.858V508.336L2135.54 527.739V522.888ZM2263.9 531.097L2289.65 512.067C2290.39 513.187 2291.14 515.426 2291.14 515.426L2265.02 534.829C2264.65 534.082 2263.9 531.844 2263.9 531.097ZM2135.54 537.814V533.336L2160.54 514.679C2161.29 515.799 2161.66 517.291 2161.66 518.411C2161.29 518.411 2161.29 518.784 2161.29 518.784L2135.91 537.814H2135.54ZM2266.89 539.306L2292.63 519.903H2293L2295.24 522.142L2268.75 541.918C2268 541.545 2266.89 540.426 2266.89 539.306ZM2137.78 542.291L2163.9 522.515C2164.65 522.515 2165.39 523.261 2165.77 523.261C2166.88 523.635 2167.63 523.635 2168.75 523.635L2141.14 544.157C2139.65 544.157 2138.53 543.411 2137.78 542.291ZM2154.94 544.53H2148.6L2176.59 523.635H2182.56L2154.94 544.53ZM2162.78 544.53L2190.39 523.635H2196.36L2168.75 544.53H2162.78ZM2176.59 544.53L2204.2 523.635H2210.17L2182.56 544.53H2176.59ZM2273.23 544.53L2301.21 523.635H2307.18L2279.57 544.53H2273.23ZM2287.41 544.53L2315.02 523.635H2320.99L2293.38 544.53H2287.41ZM2301.21 544.53L2328.83 523.635H2335.17L2307.18 544.53H2301.21ZM2321.36 544.53H2315.02L2340.77 525.127H2341.14V529.605L2321.36 544.53ZM2190.39 544.53L2215.02 525.873V530.351L2196.36 544.53H2190.39ZM2335.17 544.53H2329.2L2341.14 535.575C2341.14 537.068 2341.14 539.679 2340.02 540.799L2335.17 544.53ZM2209.42 544.53H2204.2L2215.02 536.321C2215.02 540.053 2212.78 544.53 2209.42 544.53ZM2562.3 267.29L2577.22 265.798L2596.63 264.678H2612.67L2626.1 265.425L2637.67 266.917C2676.1 271.395 2683.94 308.335 2683.94 340.425C2683.94 344.156 2683.94 353.112 2678.34 353.112H2639.91C2635.06 353.112 2634.69 346.395 2634.31 343.037C2633.94 341.544 2633.57 334.455 2633.19 332.589C2632.07 325.126 2629.46 322.514 2621.63 320.649C2616.77 319.529 2611.92 319.529 2607.07 319.529H2597.74H2588.79C2581.7 319.529 2560.06 321.768 2560.06 329.604C2561.55 328.858 2566.03 327.365 2567.52 327.365H2567.89L2558.19 334.828C2557.82 335.201 2557.07 340.798 2557.07 341.171L2577.6 325.873H2582.45H2583.57L2556.33 346.022L2555.95 352.365V407.216C2557.45 403.858 2559.69 402.365 2563.42 402.365L2555.95 407.963V413.933L2571.25 402.365H2577.22L2555.95 418.41V420.276C2555.95 420.276 2555.95 422.888 2556.33 424.007L2580.58 405.724V410.201L2556.33 428.485V429.231C2556.33 430.724 2556.33 432.589 2556.7 433.709L2580.58 416.171V420.276L2557.07 438.187V438.933L2557.45 443.41C2557.82 443.41 2557.82 443.037 2557.82 443.037L2580.95 425.873C2581.33 426.992 2581.7 428.112 2582.45 429.231L2558.19 447.515C2558.19 447.515 2558.57 448.261 2558.57 449.007C2558.94 449.754 2559.31 450.873 2560.06 451.993L2586.18 432.216H2592.15L2564.54 452.739H2561.55H2560.43C2560.43 453.485 2561.55 454.978 2561.92 455.351C2566.03 460.948 2573.49 461.694 2579.46 462.067C2581.33 462.44 2588.79 462.44 2589.91 462.813H2590.66C2593.64 462.813 2601.1 462.44 2602.97 462.44V460.948L2627.97 441.918V442.664C2627.97 443.41 2628.34 446.395 2627.6 446.769L2606.7 462.813C2607.82 462.44 2614.54 462.44 2614.91 462.067L2626.48 453.485C2626.48 454.978 2626.1 456.843 2625.36 458.709C2624.98 459.082 2623.49 460.202 2623.12 460.575C2633.19 460.575 2633.94 439.306 2634.31 431.097V425.873H2592.52C2589.16 425.873 2586.92 420.649 2586.92 418.037V383.336C2586.92 379.977 2589.54 375.5 2593.64 375.5H2607.45L2630.58 357.962C2632.07 359.082 2633.19 359.455 2634.69 359.455L2613.42 375.5H2621.25L2642.52 359.455H2648.49L2627.22 375.5H2635.06L2652.22 362.44H2652.6V366.544L2640.66 375.5H2648.12C2649.24 374.753 2651.85 372.888 2652.22 372.515C2652.22 373.634 2651.85 374.753 2651.85 375.5H2677.6C2680.95 375.5 2684.31 379.231 2684.31 382.589V435.201L2683.19 454.604C2680.58 509.455 2643.64 517.664 2596.63 517.664C2560.06 517.664 2524.98 513.933 2512.67 472.515C2509.31 462.44 2507.45 451.246 2507.07 440.425L2506.33 424.38V356.843L2506.7 343.037L2508.19 329.977L2510.06 319.902C2514.91 292.664 2534.31 270.275 2562.3 267.29ZM2488.42 321.395L2511.92 303.858C2510.8 305.723 2509.68 307.962 2508.94 310.201L2484.68 328.485C2485.06 327.365 2487.67 321.768 2488.42 321.395ZM2481.7 336.694L2505.58 318.41H2505.95L2504.46 323.634L2479.83 342.291L2481.33 336.694H2481.7ZM2569.76 346.395H2564.16L2591.4 325.873H2597.37L2569.76 346.395ZM2577.97 346.395H2577.6L2605.21 325.873C2607.07 325.873 2608.94 325.873 2610.43 326.246L2583.19 346.395H2582.45H2581.33H2577.97ZM2589.91 347.514L2616.4 327.365H2616.77C2616.77 327.365 2617.89 327.365 2617.89 327.738C2618.27 327.738 2620.88 328.111 2620.88 328.858L2594.39 348.634C2594.01 348.634 2593.27 348.634 2593.27 348.261C2592.89 348.261 2590.66 347.888 2590.28 347.514H2589.91ZM2477.22 354.231V353.858L2477.97 349.753L2478.71 349.007L2502.6 331.097L2502.97 330.723L2502.22 335.201C2502.22 335.574 2502.22 335.947 2501.85 335.947L2477.22 354.231ZM2598.86 351.246V350.873L2624.61 331.843H2624.98C2625.36 332.216 2626.85 334.828 2626.48 334.828L2600.73 354.231C2600.36 353.485 2600.36 353.112 2599.98 352.738C2599.61 352.365 2598.49 351.619 2598.86 351.246ZM2601.85 359.082L2627.6 340.052C2627.6 340.425 2627.97 343.41 2627.97 344.156H2627.6L2602.6 363.186C2602.22 362.067 2601.85 359.828 2601.85 359.082ZM2476.48 360.947L2501.48 342.291C2501.48 343.41 2501.48 346.768 2501.1 347.141L2476.48 365.425L2476.1 365.798C2476.1 365.052 2476.1 361.321 2476.48 360.947ZM2602.97 368.783L2627.97 349.753H2628.34L2629.09 353.485L2603.34 372.888V372.515C2603.34 372.515 2602.97 370.276 2602.97 368.783ZM2475.73 371.768L2500.73 353.112C2500.73 353.858 2500.36 357.216 2500.36 357.216L2475.36 376.246V375.127C2475.36 374.38 2474.98 372.515 2475.73 371.768ZM2500.36 367.664L2474.98 386.694V382.589C2474.98 382.216 2474.98 382.216 2475.36 381.843L2500.36 363.186V367.664ZM2474.98 396.768V392.291L2500.36 373.634V378.112L2474.98 396.768ZM2474.98 402.739L2500.36 383.709V388.186L2474.98 407.216V402.739ZM2474.98 412.813L2500.36 394.156V398.634L2474.98 417.664V412.813ZM2474.98 427.739V423.261L2500.36 404.604V408.709L2474.98 427.739ZM2474.98 433.709L2500.36 414.679V419.157L2474.98 438.187V433.709ZM2474.98 443.784L2500.36 425.127V429.604L2474.98 448.261V443.784ZM2578.34 452.739H2572.37L2599.98 432.216H2605.95L2578.34 452.739ZM2586.18 452.739L2613.79 432.216H2619.39L2592.15 452.739H2586.18ZM2602.97 452.739H2599.98L2627.6 432.216H2628.34V435.948L2602.97 454.978V452.739ZM2474.98 454.231L2500.36 435.201V435.575V438.187V439.306L2475.36 458.336C2474.98 457.216 2474.98 456.097 2474.98 454.978V454.231ZM2475.36 463.933L2500.73 444.903C2501.1 446.395 2501.1 447.515 2501.1 449.381L2475.73 468.411V467.664C2475.73 467.664 2475.73 465.799 2475.36 463.933ZM2476.48 473.634L2501.85 454.978C2501.85 454.978 2502.22 457.216 2502.22 458.709L2476.85 477.739C2476.48 476.619 2476.48 475.127 2476.48 473.634ZM2623.12 460.948V460.575C2622.75 460.575 2622.75 460.948 2623.12 460.948ZM2477.6 482.963L2502.97 463.933C2503.34 465.425 2503.71 468.037 2503.71 468.037L2478.34 487.067L2477.6 482.963ZM2479.09 492.291V491.918L2504.83 472.888V473.261L2505.58 476.246L2480.21 495.649C2479.83 494.157 2479.09 492.291 2479.09 492.291ZM2481.33 500.5L2507.07 481.097C2507.82 482.217 2508.57 484.455 2508.57 484.455L2482.82 503.858H2482.45L2481.33 500.5ZM2484.68 508.336L2510.06 489.306L2510.43 488.933V489.306L2511.92 492.291L2486.18 511.694C2485.8 511.321 2485.06 509.829 2485.06 509.455C2484.68 509.082 2484.31 508.336 2484.68 508.336ZM2488.42 515.799L2514.16 496.396C2514.54 496.769 2516.03 498.635 2516.4 499.381L2490.28 518.784C2489.91 518.411 2488.79 516.545 2488.42 515.799ZM2492.89 522.515L2519.01 503.112L2521.63 505.724L2495.51 525.127L2494.39 524.008L2492.89 522.515ZM2498.86 528.485L2525.36 508.709C2526.1 509.455 2527.97 510.948 2527.97 510.948L2501.85 530.724C2501.48 530.724 2501.1 530.351 2501.1 530.351C2500.36 529.605 2498.86 528.485 2498.86 528.485ZM2505.95 533.336L2532.45 513.56L2535.8 515.426L2509.31 535.575C2507.82 534.829 2505.95 533.709 2505.95 533.709V533.336ZM2604.46 541.545L2633.19 519.903C2633.57 519.903 2635.06 519.53 2635.43 519.53L2642.15 517.291C2642.15 517.664 2641.77 518.038 2641.4 518.038L2613.79 538.933C2613.42 539.306 2605.21 541.545 2604.83 541.545H2604.46ZM2514.16 537.814L2541.03 517.664L2544.76 518.784H2545.13C2545.13 519.157 2545.13 519.157 2544.76 519.157L2518.27 538.933C2516.77 538.56 2515.28 538.187 2514.16 537.814ZM2523.86 540.799V540.426L2550.73 520.65L2551.1 520.276L2555.58 521.396L2528.71 541.545C2527.6 541.545 2524.24 540.799 2523.86 540.799ZM2587.67 543.784L2615.28 522.888L2622.74 522.142L2594.76 543.038C2594.39 543.411 2589.16 543.784 2588.79 543.784H2587.67ZM2535.06 542.291L2562.3 522.142L2567.15 522.888L2539.91 543.411L2535.06 542.665V542.291ZM2547 543.784L2574.24 523.635C2574.24 523.261 2574.24 523.261 2574.61 523.261C2576.1 523.261 2577.97 523.635 2579.83 523.635L2552.6 544.157C2551.1 544.157 2547.74 543.784 2547 543.784ZM2573.86 544.157L2601.48 523.635H2605.58H2606.7L2579.46 544.157H2577.97C2577.97 544.157 2574.98 544.53 2573.86 544.157ZM2566.03 544.53H2560.06L2587.3 524.008H2593.27L2566.03 544.53ZM2817.78 463.187V318.41L2808.83 315.798C2805.84 314.679 2803.6 311.693 2803.6 308.708V271.768C2803.6 269.156 2806.22 264.678 2809.2 264.678H2877.48C2880.47 264.678 2883.08 268.783 2883.08 271.395V308.708C2883.08 311.693 2880.84 315.052 2877.86 315.798C2876.37 316.171 2870.02 318.037 2868.9 318.41H2868.53V463.187L2878.6 466.545C2880.84 467.291 2883.08 470.649 2883.08 473.261V510.202C2883.08 513.56 2880.1 517.291 2877.11 517.291H2809.95C2806.59 517.291 2803.6 513.187 2803.6 510.202V472.515C2801.37 473.261 2799.13 474.381 2798.38 476.62C2798.01 477.366 2798.01 478.112 2797.63 478.485L2786.44 487.067V482.217L2811.81 463.187V465.425L2817.78 463.187ZM2773.75 294.529C2774.87 293.783 2776.37 291.917 2778.23 291.917H2783.45L2771.89 300.499C2771.89 298.634 2772.26 295.649 2773.75 294.529ZM2771.89 306.47L2791.29 291.917H2797.26L2771.89 310.947V306.47ZM2771.89 316.917L2797.63 297.514V301.992L2771.89 321.395V316.917ZM2771.89 331.843V326.992L2796.89 308.335C2797.26 308.335 2797.26 307.962 2797.63 307.962V312.44L2771.89 331.843ZM2772.26 337.44L2798.38 318.037C2798.75 319.156 2799.5 319.902 2800.25 321.022L2773.75 340.798C2773.38 340.425 2771.89 337.813 2772.26 337.44ZM2782.34 344.529L2778.23 343.41L2805.1 322.888H2805.84L2809.57 324.007V324.38L2782.34 344.529ZM2786.44 351.619V347.514L2811.81 328.485V332.589L2786.44 351.619ZM2786.44 357.589L2811.81 338.559V343.037L2786.44 362.067V357.589ZM2786.44 368.037L2811.81 349.007V353.485L2786.44 372.515V368.037ZM2786.44 382.962V378.485L2811.81 359.455V363.932L2786.44 382.962ZM2786.44 388.933L2811.81 369.903V374.38L2786.44 393.41V388.933ZM2786.44 399.38L2811.81 380.35V384.828L2786.44 403.858V399.38ZM2786.44 414.306V409.828L2811.81 390.425V395.276L2786.44 414.306ZM2786.44 424.754V420.276L2811.81 400.873V405.724L2786.44 424.754ZM2786.44 430.724L2811.81 411.321V415.798L2786.44 435.201V430.724ZM2786.44 445.649V441.172L2811.81 421.769V426.246L2786.44 445.649ZM2786.44 456.097V451.246L2811.81 432.216V436.694L2786.44 456.097ZM2786.44 461.694L2811.81 442.664V447.142L2786.44 466.545V461.694ZM2786.44 472.142L2811.81 453.112V457.216L2786.44 476.62V472.142ZM2771.89 503.485L2797.63 484.455V488.933L2771.89 508.336V503.485ZM2777.11 493.784L2773.01 496.769C2773.01 495.649 2776.37 493.784 2777.11 493.784ZM2771.89 518.411V513.933L2796.89 495.276C2797.26 495.276 2797.26 494.903 2797.63 494.903V499.381L2771.89 518.411ZM2771.89 528.859V524.381L2797.63 505.351V509.829L2771.89 528.859ZM2771.89 534.829L2797.26 515.799H2797.63C2797.63 517.291 2798.01 518.411 2798.38 519.53L2772.26 538.933C2771.89 538.187 2771.89 537.068 2771.89 535.948V534.829ZM2774.87 543.038H2775.25L2801.37 523.261C2802.48 523.261 2803.23 523.635 2803.98 523.635H2806.96L2778.98 544.53C2777.48 544.53 2775.62 544.157 2774.87 543.038ZM2793.16 544.53H2787.19L2814.8 523.635H2820.77L2793.16 544.53ZM2800.99 544.53L2828.6 523.635H2834.57L2806.96 544.53H2800.99ZM2814.8 544.53L2842.78 523.635H2848.75L2820.77 544.53H2814.8ZM2834.95 544.53H2828.98L2851.74 527.366V531.844L2834.95 544.53ZM2845.77 544.53H2842.78L2851.37 537.814C2851.37 540.799 2848.75 544.53 2845.77 544.53ZM3016.55 463.187V318.41L3007.6 315.798C3004.61 314.679 3002.37 311.693 3002.37 308.708V271.768C3002.37 269.156 3004.99 264.678 3007.97 264.678H3085.58C3088.19 264.678 3090.06 267.663 3090.81 269.529L3112.82 322.888L3136.7 304.977V309.455L3114.69 326.246C3115.06 328.111 3115.43 329.604 3116.18 330.723L3137.08 315.425C3137.45 316.544 3137.45 318.037 3138.19 319.156L3117.67 334.455L3119.54 338.932L3141.93 322.141C3141.93 322.141 3144.54 322.888 3146.4 323.261L3121.03 342.291L3126.25 354.604L3152 335.574V338.932V340.052L3128.12 357.962C3128.12 359.082 3129.24 361.694 3129.61 362.44L3152 346.022V349.38V350.126L3131.11 365.798V366.171L3132.97 370.649L3152.37 356.097V360.574L3134.46 374.007C3134.46 374.753 3135.58 377.365 3136.7 378.112L3152.37 366.171C3152.37 366.918 3152.37 369.903 3152.75 370.649L3137.45 381.843L3139.31 386.321H3139.69L3152.75 376.619V380.724L3141.18 389.306C3141.18 390.798 3142.3 393.41 3143.05 394.156L3152.75 386.694V391.171L3144.54 397.515C3144.54 398.261 3145.28 400.873 3146.03 401.992L3153.12 397.142V400.127V401.246L3147.52 405.351C3147.9 406.47 3149.02 409.082 3149.39 409.828L3153.12 407.216C3153.49 408.336 3153.49 409.082 3153.49 410.201C3153.49 410.574 3153.49 411.321 3153.12 411.694C3153.12 411.694 3151.25 413.186 3150.88 413.56L3152.75 418.037L3153.49 417.291V419.903V420.649L3159.84 435.948L3157.6 319.156C3157.6 318.41 3157.6 318.41 3157.22 318.41C3150.88 316.544 3143.05 316.171 3143.05 307.962V272.141C3143.05 269.156 3145.66 264.678 3149.02 264.678H3216.93C3219.91 264.678 3222.52 268.783 3222.52 271.395V308.708C3222.52 312.067 3220.28 314.679 3217.3 315.798L3207.97 318.41V509.829C3207.97 513.187 3205.36 517.291 3202 517.291H3139.69C3137.08 517.291 3134.84 514.306 3133.72 512.067L3065.06 345.649C3065.06 349.753 3065.43 365.425 3066.18 369.156C3066.55 369.903 3067.3 371.768 3067.3 371.768V372.141C3066.93 372.141 3066.18 372.888 3065.81 374.007V379.231L3069.16 376.619C3069.54 377.739 3070.66 379.977 3070.66 379.977L3065.81 383.709V384.455V389.306H3066.18C3066.93 388.559 3071.03 385.574 3072.52 384.828C3072.9 385.574 3073.64 387.067 3073.64 388.186L3066.18 393.783V394.903V399.754L3075.88 392.664C3075.88 393.41 3076.63 395.276 3077 396.022L3066.18 404.231V405.351C3066.18 407.216 3066.18 408.336 3066.55 409.828L3078.87 400.5C3079.24 401.246 3080.36 403.485 3080.36 404.231L3066.55 414.306V415.798V420.276L3081.85 408.709C3082.6 409.082 3083.34 411.321 3083.34 412.067L3066.55 424.754V426.619C3066.55 426.619 3066.55 429.231 3066.93 430.351L3085.58 416.545C3085.96 417.291 3086.7 419.157 3086.7 419.903L3066.93 434.828V440.798L3088.94 424.38L3090.06 427.366C3090.06 427.739 3089.69 427.739 3089.69 428.112L3067.3 444.903C3066.93 444.903 3066.93 444.903 3066.93 445.276C3066.93 446.396 3066.93 450.127 3067.3 450.873L3091.93 432.216C3092.3 432.589 3093.05 434.828 3093.05 435.948L3067.3 455.351V456.843V462.44V463.187L3074.76 465.799L3098.27 448.261C3099.02 449.381 3100.13 451.619 3100.13 451.619L3078.87 467.291C3079.99 468.41 3080.73 469.53 3081.48 471.022L3101.63 456.47C3102.37 457.216 3103.12 459.455 3103.12 459.455L3082.22 475.5V481.097L3104.61 464.306C3105.36 464.679 3106.11 466.545 3106.48 467.291L3082.22 485.948V509.829C3082.22 513.187 3079.24 517.291 3075.88 517.291H3008.34C3004.99 517.291 3002.37 513.187 3002.37 510.202V472.515C3000.13 473.261 2997.9 474.754 2996.78 476.993L2985.21 485.948V481.097L3010.58 462.067V465.425L3016.55 463.187ZM2979.99 291.917L2970.66 299.007C2971.03 296.022 2973.27 291.917 2976.63 291.917H2979.99ZM2970.66 304.977L2987.82 291.917H2994.16L2970.66 309.455V304.977ZM3118.79 291.917L3111.7 297.141C3111.7 294.529 3115.81 291.917 3118.79 291.917ZM3111.33 307.962V303.484L3126.63 291.917H3132.6L3111.33 307.962ZM3111.33 313.932L3136.7 294.529V299.007L3111.33 318.41V313.932ZM2970.66 319.902V315.425L2996.03 296.022V300.873L2970.66 319.902ZM2970.66 325.873L2996.03 306.47V311.32L2970.66 330.35V325.873ZM2970.66 335.947L2996.4 316.917C2996.78 316.917 2998.27 319.902 2998.27 320.276L2971.78 339.679C2971.4 340.052 2970.66 336.694 2970.66 336.32V335.947ZM2979.61 344.156L2975.51 343.037L3002.37 322.888C3004.61 322.888 3006.85 323.634 3006.85 323.634L3007.22 324.007L2980.36 343.783C2979.99 344.156 2979.61 344.156 2979.61 344.156ZM3124.76 345.276L3151.63 325.126V328.485V329.604L3126.25 349.007L3125.88 348.261V345.649C3125.88 345.649 3125.14 345.649 3124.76 345.276ZM2985.21 346.022L3010.58 326.992V331.47L2985.21 350.873V346.022ZM2985.21 361.321V356.47L3010.58 337.44V341.917L2985.21 361.321ZM2985.21 371.768V366.918L3010.58 347.888V352.365L2985.21 371.768ZM2985.21 377.365L3010.58 358.335V362.44L2985.21 381.47V377.365ZM2985.21 387.44L3010.58 368.41V372.888L2985.21 391.918V387.44ZM2985.21 402.365V397.888L3010.58 378.858V383.336L2985.21 402.365ZM2985.21 408.336L3010.58 389.306V393.783L2985.21 412.813V408.336ZM2985.21 418.783L3010.58 399.754V404.231L2985.21 423.261V418.783ZM2985.21 433.709V429.231L3010.58 409.828V414.679L2985.21 433.709ZM2985.21 444.157V439.679L3010.58 420.276V425.127L2985.21 444.157ZM2985.21 450.127L3010.58 430.724V435.575L2985.21 454.604V450.127ZM3069.16 459.828L3095.28 440.052C3095.66 440.425 3096.4 442.664 3096.78 443.784L3070.66 463.187C3069.91 462.067 3069.16 459.828 3069.16 459.828ZM2985.21 465.052V460.575L3010.58 441.172V445.649L2985.21 465.052ZM2985.21 475.5V470.649L3010.58 451.619V456.097L2985.21 475.5ZM3082.22 491.545L3108.34 472.142C3108.34 472.142 3109.46 474.008 3109.84 475.5L3084.09 494.903C3083.34 493.784 3082.22 491.545 3082.22 491.545ZM3087.08 503.112L3085.58 499.381L3111.7 479.978C3112.45 481.47 3113.19 483.336 3113.19 483.336L3087.08 503.112ZM2970.66 502.366L2996.03 483.336V487.814L2970.66 506.843V502.366ZM3090.06 510.948L3088.94 507.59L3115.06 487.814C3115.43 489.306 3116.55 491.172 3116.55 491.172L3090.06 510.948ZM2970.66 517.291V512.814L2995.66 494.157L2996.03 493.784V497.888L2970.66 517.291ZM3092.3 515.426L3118.05 496.023C3118.79 497.142 3119.54 499.381 3119.54 499.381L3093.42 518.784C3093.42 518.411 3092.3 516.172 3092.3 515.426ZM3095.66 523.261L3121.78 503.858C3121.78 503.858 3122.52 506.097 3122.52 507.59L3096.78 526.993C3096.4 526.247 3095.66 524.008 3095.66 523.261ZM2970.66 522.888L2996.03 503.858V508.336L2970.66 527.739V522.888ZM3099.02 531.097L3124.76 512.067C3125.51 513.187 3126.25 515.426 3126.25 515.426L3100.13 534.829C3099.76 534.082 3099.02 531.844 3099.02 531.097ZM2970.66 537.814V533.336L2995.66 514.679C2996.4 515.799 2996.78 517.291 2996.78 518.411C2996.4 518.411 2996.4 518.784 2996.4 518.784L2971.03 537.814H2970.66ZM3102 539.306L3127.75 519.903H3128.12L3130.36 522.142L3103.87 541.918C3103.12 541.545 3102 540.426 3102 539.306ZM2972.9 542.291L2999.02 522.515C2999.76 522.515 3000.51 523.261 3000.88 523.261C3002 523.635 3002.75 523.635 3003.87 523.635L2976.25 544.157C2974.76 544.157 2973.64 543.411 2972.9 542.291ZM2990.06 544.53H2983.72L3011.7 523.635H3017.67L2990.06 544.53ZM2997.9 544.53L3025.51 523.635H3031.48L3003.87 544.53H2997.9ZM3011.7 544.53L3039.31 523.635H3045.28L3017.67 544.53H3011.7ZM3108.34 544.53L3136.33 523.635H3142.3L3114.69 544.53H3108.34ZM3122.52 544.53L3150.14 523.635H3156.11L3128.49 544.53H3122.52ZM3136.33 544.53L3163.94 523.635H3170.28L3142.3 544.53H3136.33ZM3156.48 544.53H3150.14L3175.88 525.127H3176.25V529.605L3156.48 544.53ZM3025.51 544.53L3050.13 525.873V530.351L3031.48 544.53H3025.51ZM3170.28 544.53H3164.31L3176.25 535.575C3176.25 537.068 3176.25 539.679 3175.14 540.799L3170.28 544.53ZM3044.54 544.53H3039.31L3050.13 536.321C3050.13 540.053 3047.9 544.53 3044.54 544.53ZM3355.99 463.187V318.41L3346.29 315.052C3343.68 314.305 3341.81 310.947 3341.81 308.335V272.141C3341.81 269.529 3344.43 264.678 3347.41 264.678H3495.55C3498.53 264.678 3501.14 268.783 3501.14 271.395V331.097C3501.14 333.708 3498.16 337.813 3495.55 337.813H3465.32C3462.71 337.813 3460.47 334.082 3460.1 331.843L3457.49 320.276H3406.74V326.619H3412.34L3406.74 330.723V336.694L3420.17 326.619H3426.14L3406.74 341.171V347.141L3433.98 326.619H3440.32L3412.34 347.514H3406.74V362.067H3429.5L3429.13 361.694L3429.5 361.321L3455.62 341.917C3456.37 342.664 3457.49 343.41 3458.61 344.156L3434.73 362.067H3442.56L3466.07 344.529H3469.43V346.395L3448.53 362.067H3452.64C3453.38 362.067 3454.13 362.813 3455.25 362.813L3469.43 352.365V356.843L3458.23 365.425H3457.11C3457.49 366.171 3458.23 367.664 3458.23 369.156V409.082C3458.23 412.813 3455.25 416.171 3451.52 416.171H3406.74V422.515H3408.98C3408.61 422.888 3407.11 424.007 3406.74 424.38V429.978L3416.82 422.515H3422.79L3406.74 434.828V440.425L3426.52 425.873V430.351L3408.98 443.41H3406.74V461.694H3458.23L3461.22 449.381C3461.59 447.142 3463.83 443.784 3466.82 443.784H3495.92C3498.91 443.784 3501.89 447.888 3501.89 450.873V510.575C3501.89 513.187 3498.91 517.291 3495.92 517.291H3347.79C3344.8 517.291 3341.81 512.814 3341.81 509.829V472.515C3339.95 473.261 3338.08 474.008 3336.96 475.873C3336.59 476.246 3336.59 476.993 3336.22 477.366L3324.65 485.948V481.47L3350.02 462.44V465.425C3350.77 465.052 3354.87 463.933 3355.99 463.187ZM3316.07 291.917H3320.17L3310.1 299.38C3310.1 296.395 3312.71 291.917 3316.07 291.917ZM3310.1 309.828V305.35L3328.01 291.917H3333.98L3310.1 309.828ZM3310.1 315.798L3335.47 296.395V301.246L3310.1 320.276V315.798ZM3310.1 330.723V326.246L3335.1 307.216H3335.47V311.32L3310.1 330.723ZM3310.1 336.32L3335.84 317.291C3336.96 318.41 3337.34 319.156 3338.08 320.276L3311.59 339.679C3311.22 339.679 3310.1 337.067 3310.1 336.32ZM3319.8 344.156L3315.7 342.664L3342.56 322.514H3342.93L3347.04 323.634L3319.8 344.156ZM3420.17 347.514L3448.16 326.619H3451.14C3451.52 326.992 3451.52 327.738 3451.52 328.485L3426.14 347.514H3425.77H3420.17ZM3324.65 351.246V346.395L3350.02 327.365V331.843L3324.65 351.246ZM3427.64 356.843L3426.89 352.738L3452.64 333.708L3453.01 333.335L3453.76 337.44L3427.64 356.843ZM3324.65 356.843L3350.02 337.813V341.917L3324.65 360.947V356.843ZM3324.65 366.918L3350.02 347.888V352.365L3324.65 371.395V366.918ZM3324.65 381.843V377.365L3350.02 358.335V362.813L3324.65 381.843ZM3324.65 392.291V387.813L3350.02 368.783V373.261L3324.65 392.291ZM3324.65 398.261L3350.02 379.231V383.709L3324.65 402.739V398.261ZM3324.65 413.186V408.709L3350.02 389.679V394.156L3324.65 413.186ZM3324.65 423.634V419.157L3350.02 400.127V404.604L3324.65 423.634ZM3324.65 429.604L3350.02 410.201V415.052L3324.65 434.082V429.604ZM3324.65 440.052L3350.02 420.649V425.5L3324.65 444.53V440.052ZM3324.65 454.978V450.5L3350.02 431.097V435.948L3324.65 454.978ZM3420.92 443.41H3416.82L3426.52 436.321C3426.52 439.306 3424.28 443.41 3420.92 443.41ZM3324.65 460.948L3350.02 441.545V446.022L3324.65 465.425V460.948ZM3324.65 471.022L3350.02 451.993V456.47L3324.65 475.873V471.022ZM3310.1 502.366L3335.47 483.336V487.814L3310.1 507.217V502.366ZM3310.1 512.814L3335.47 493.784V498.261L3310.1 517.664V512.814ZM3310.1 528.112V523.261L3335.47 504.232V508.709L3310.1 528.112ZM3310.1 533.709L3335.47 514.679C3335.85 516.172 3336.22 517.291 3336.22 518.784L3335.84 519.157L3310.47 537.814L3310.1 538.187V533.709ZM3312.34 542.665L3338.83 522.888C3340.7 523.635 3341.81 523.635 3343.68 523.635L3316.07 544.53C3314.58 544.53 3313.08 543.411 3312.34 542.665ZM3323.9 544.53L3351.52 523.635H3357.49L3329.87 544.53H3323.9ZM3343.68 544.53H3337.71L3365.32 523.635H3371.29L3343.68 544.53ZM3357.49 544.53H3351.52L3378.76 524.008C3379.13 523.635 3379.5 523.635 3379.5 523.635H3385.47L3357.49 544.53ZM3365.32 544.53L3393.31 523.635H3399.28L3372.04 544.157C3371.67 544.53 3371.67 544.53 3371.29 544.53H3365.32ZM3379.5 544.53L3407.11 523.635H3413.08L3385.47 544.53H3379.5ZM3399.28 544.53H3393.31L3420.92 523.635H3427.26L3399.28 544.53ZM3407.11 544.53L3435.1 523.635H3440.32L3412.71 544.53H3407.11ZM3426.52 544.53H3420.55L3448.16 523.635H3454.5L3426.52 544.53ZM3434.35 544.53L3462.34 523.635H3468.31L3440.7 544.53H3434.35ZM3448.53 544.53L3470.17 528.112V532.59L3454.5 544.53H3448.53ZM3462.34 544.53L3470.17 538.933C3470.17 541.918 3466.44 544.53 3463.46 544.53H3462.34Z" fill="white"/>
<path d="M1187.78 633.123L1212.85 631.78H1232.55L1243.3 632.228L1260.31 634.019C1305.98 638.497 1315.84 680.586 1315.84 719.093C1315.84 724.019 1316.28 736.108 1308.67 736.108H1263.45C1256.73 736.108 1255.84 728.049 1255.84 722.676L1255.39 705.661C1254.94 695.81 1241.06 695.362 1234.34 695.362H1211.95C1206.58 695.362 1201.21 696.258 1195.84 697.601C1184.19 699.392 1182.4 702.974 1181.95 714.168L1195.39 703.87C1197.18 702.974 1201.21 702.974 1203 702.974L1181.51 719.093V726.258L1212.4 702.974H1219.57L1186.43 728.049H1181.51C1181.51 743.72 1187.78 745.959 1202.1 747.302L1216.43 748.646H1217.78V748.198L1248.22 725.362C1248.67 726.705 1248.22 728.496 1248.22 728.944V730.735L1224.49 748.646L1224.04 749.093L1232.1 749.989L1249.12 737.004C1249.57 737.452 1250.01 738.795 1250.01 739.243C1250.01 739.69 1250.91 740.586 1250.91 741.034L1238.82 750.437H1239.72C1239.72 750.437 1244.64 750.884 1247.33 750.884L1257.18 743.72H1264.34L1253.6 751.78L1260.76 752.675H1261.66L1273.75 743.72H1278.22V745.511L1267.03 754.019L1273.75 755.362C1275.54 755.362 1276.43 753.123 1278.22 752.675V756.705H1278.67C1318.52 769.69 1320.31 803.72 1320.31 839.541C1320.31 932.675 1282.25 934.914 1203 934.914L1179.27 933.123C1141.21 930.436 1121.96 896.854 1121.06 861.481L1120.61 840.436V838.198C1120.61 831.929 1121.06 826.108 1127.33 823.869H1133.15L1151.06 810.884C1152.4 810.884 1154.19 811.78 1155.54 812.675L1140.31 823.869H1149.72L1162.25 814.914L1167.63 816.257L1156.88 823.869H1166.28L1175.24 817.153L1181.06 818.048L1173.45 823.869C1175.69 824.317 1177.03 825.213 1178.82 827.004L1189.12 819.392V818.944L1195.39 819.839L1180.61 831.033C1180.16 831.929 1180.16 832.377 1180.16 832.377C1180.16 833.272 1180.61 836.854 1180.61 837.75L1203.9 820.735L1204.34 820.287C1206.13 820.287 1208.37 820.735 1210.16 820.735L1180.61 843.123V845.81C1180.61 862.377 1180.61 868.645 1199.87 870.436C1207.03 871.332 1213.75 871.332 1220.91 871.332H1223.15V867.302L1253.15 844.914C1253.6 845.81 1253.6 847.153 1253.6 848.496V849.839L1224.94 871.332H1228.07H1231.21H1234.34L1253.15 857.451V858.347C1253.15 859.242 1253.15 861.929 1252.7 862.377L1242.85 870.436C1245.54 870.436 1247.78 869.093 1250.01 868.645C1261.21 864.615 1260.31 852.974 1260.76 843.123C1260.76 837.75 1260.31 832.825 1259.87 827.451C1258.07 816.705 1249.12 814.466 1239.72 814.019L1216.43 813.123L1192.25 811.332L1173.9 808.198C1139.87 803.272 1123.75 770.138 1122.4 738.795L1121.96 721.332C1121.96 675.213 1135.39 636.258 1187.78 633.123ZM1123.3 677.004L1095.09 698.049C1095.09 696.705 1100.01 689.989 1101.81 687.75L1122.4 672.079C1122.85 671.631 1126.43 670.288 1126.88 670.288L1123.3 677.004ZM1090.16 708.795L1119.72 686.855V687.302C1119.72 687.302 1118.37 691.332 1117.93 693.571L1088.37 715.511V714.168C1088.82 713.273 1089.72 709.69 1090.16 708.795ZM1086.58 723.571L1116.58 701.183L1115.69 707.452L1085.69 729.84L1086.58 724.019V723.571ZM1195.84 727.601L1228.52 703.422V702.974C1231.21 702.974 1232.55 702.974 1235.24 703.87L1202.55 728.049H1200.76C1200.76 728.049 1196.73 728.049 1195.84 727.601ZM1210.16 729.392L1241.95 705.661C1243.3 705.661 1245.09 707.004 1245.98 707.899L1215.09 731.183C1212.85 730.287 1211.51 729.84 1210.16 729.392ZM1217.33 736.108L1248.22 713.273V717.75V718.646L1217.78 741.034C1217.78 739.69 1217.33 737.899 1217.33 736.108ZM1084.79 741.929V737.452L1114.79 714.616V715.959C1114.79 717.302 1115.69 719.541 1114.34 720.437L1084.79 742.825V741.929ZM1084.34 749.989L1114.34 727.601H1114.79V732.526L1084.79 754.914L1084.34 755.362V749.989ZM1084.79 762.078L1114.79 739.69C1115.24 741.034 1115.24 742.377 1115.24 743.72V744.616L1085.24 767.004C1084.79 766.556 1084.34 763.422 1084.34 762.526C1084.34 762.078 1084.34 762.078 1084.79 762.078ZM1085.69 773.72L1115.69 751.332C1116.13 753.123 1116.58 756.258 1116.58 756.258L1085.69 779.093C1085.69 778.198 1085.24 775.063 1085.24 774.168L1085.69 773.72ZM1087.03 784.914L1117.48 762.526L1117.93 766.108L1118.37 766.556C1118.37 766.556 1117.93 766.556 1117.93 767.004L1087.48 789.392C1087.48 788.496 1087.03 786.257 1087.03 784.914ZM1088.82 795.213H1089.27L1119.72 772.377L1121.06 776.854L1090.16 799.69C1090.16 799.243 1089.72 798.347 1089.72 797.899C1089.27 797.451 1088.82 795.213 1088.82 795.213ZM1092.4 805.063L1122.85 782.228H1123.3L1125.09 785.81L1094.19 809.093C1093.75 808.198 1092.85 806.854 1092.4 805.063ZM1096.88 814.019L1127.78 791.183L1128.22 790.735V791.183L1130.46 794.317L1099.12 817.601C1099.12 817.601 1097.78 815.362 1096.88 814.019ZM1102.7 822.078L1134.04 798.795L1137.18 801.929L1105.39 825.213C1105.39 825.213 1104.04 823.422 1102.7 822.078ZM1110.31 828.795L1141.66 805.511L1145.69 807.75L1114.34 831.481C1113 831.033 1110.76 829.69 1110.31 828.795ZM1186.88 845.81L1219.12 821.183H1219.57H1220.46H1223.15H1226.28L1193.6 845.81C1193.15 846.257 1193.6 845.81 1193.15 845.81H1186.88ZM1207.93 847.153L1202.1 846.257L1234.79 822.078C1236.13 822.078 1238.82 822.526 1240.16 822.974L1207.93 847.153ZM1214.64 848.944L1246.43 825.213C1248.22 825.213 1250.01 827.899 1250.01 827.899L1219.12 851.183C1217.78 850.287 1215.09 849.392 1214.64 848.944ZM1221.36 856.108L1251.81 833.272H1252.25C1253.15 834.168 1252.7 836.407 1252.7 837.75V838.198L1222.25 861.033C1222.25 859.242 1221.81 857.899 1221.36 856.108ZM1084.34 860.586L1090.16 856.108H1097.33L1083 866.854C1083 865.511 1083.45 861.033 1084.34 860.586ZM1083 874.018L1106.73 856.108H1113.45V856.556L1083 879.392V874.018ZM1083 886.108L1113.45 863.272C1113.45 864.168 1113.9 866.854 1113.9 868.645L1083.45 891.481C1083 889.69 1083 888.347 1083 886.108ZM1083.9 897.75L1114.34 875.362C1114.34 875.362 1114.79 878.496 1114.79 880.287L1084.34 902.675C1084.34 902.675 1083.9 899.989 1083.9 897.75ZM1085.24 908.944L1115.69 886.108C1116.13 887.899 1117.03 890.586 1117.03 891.033L1086.13 913.869L1085.24 909.392V908.944ZM1088.82 924.168L1087.48 919.69L1117.93 896.854H1118.37L1119.72 900.884L1088.82 924.168ZM1092.85 933.123L1091.06 929.541L1121.96 906.257C1122.4 906.257 1122.4 906.257 1122.4 906.705L1124.19 909.839L1092.85 933.123ZM1095.99 937.6L1126.88 914.765L1129.12 917.899V918.347L1098.22 941.63L1095.99 938.048V937.6ZM1101.36 946.108L1132.7 922.824L1133.15 922.377L1136.28 925.511L1104.49 949.242L1102.7 947.451C1102.7 947.003 1101.81 946.108 1101.36 946.108ZM1108.97 952.824L1140.31 929.541L1140.76 929.093L1144.34 931.78L1112.55 955.511C1112.55 955.511 1111.21 954.168 1110.31 953.72C1110.31 953.72 1108.97 953.272 1108.97 952.824ZM1118.37 958.197L1149.72 934.466H1150.16L1154.64 936.257L1122.85 959.988L1122.4 960.436C1121.51 960.436 1118.82 959.093 1118.37 958.197ZM1224.49 965.362H1224.04L1257.63 940.287C1258.07 939.839 1262.55 938.944 1263.45 938.944C1263.9 938.496 1267.48 937.6 1268.37 937.6L1233.45 963.57C1233 964.018 1225.39 965.362 1224.49 965.362ZM1129.12 962.675L1161.36 938.496L1166.73 939.839L1134.04 964.018C1132.7 964.018 1130.46 963.571 1129.12 962.675ZM1142.1 965.362H1141.66L1173.9 941.182C1174.34 940.735 1174.34 941.182 1174.79 941.182C1176.58 941.182 1178.82 941.182 1180.61 941.63L1147.93 965.809C1145.69 965.809 1142.55 965.362 1142.1 965.362ZM1205.24 967.153L1238.37 942.526C1239.27 941.63 1245.09 941.63 1246.43 941.63L1213.3 966.257C1213.3 966.705 1208.82 966.705 1205.24 967.153ZM1156.88 966.705H1156.43L1189.12 942.078H1190.01C1191.81 942.078 1194.04 942.078 1195.84 942.526L1163.15 967.153H1162.25C1161.36 967.153 1157.33 966.705 1156.88 966.705ZM1188.22 967.6L1220.91 942.974H1221.36C1221.36 942.526 1225.39 942.526 1228.52 942.526L1195.39 967.6H1188.22ZM1172.1 967.153L1204.79 942.974H1211.95L1178.82 967.6H1177.03C1175.24 967.6 1173.9 967.6 1172.1 967.153ZM1541.37 818.944L1483.61 697.153L1469.73 693.123C1466.15 691.78 1463.46 687.75 1463.46 684.168V640.288C1463.46 637.153 1466.6 631.78 1470.18 631.78H1556.6C1560.18 631.78 1563.76 637.153 1563.76 640.735V664.914H1565.55C1565.1 665.362 1563.76 666.258 1563.76 666.258V673.422L1573.61 665.81V671.183L1563.76 678.795C1563.76 681.482 1563.31 683.72 1563.76 685.959L1573.61 678.347V683.72L1552.57 699.392C1553.46 701.631 1553.91 703.422 1554.8 704.765L1573.61 690.885C1574.06 692.676 1574.06 694.019 1574.51 695.81L1557.04 708.795C1557.04 709.69 1558.39 712.825 1559.73 714.168L1578.54 699.84L1583.46 701.631L1561.07 718.198L1563.31 723.571H1563.76L1584.8 707.899L1580.77 715.959L1565.55 727.601C1566 729.392 1566.89 731.183 1568.24 732.526C1569.58 731.631 1574.95 727.601 1575.85 727.601C1574.95 728.496 1572.72 733.87 1572.27 734.765C1571.37 735.661 1569.58 736.108 1569.58 737.452L1572.27 742.825L1594.21 695.362C1592.86 694.467 1587.49 692.676 1586.6 692.676C1582.57 691.332 1581.22 687.75 1581.22 683.72V641.631C1581.22 637.601 1583.91 632.228 1588.39 632.228H1674.36C1677.94 632.228 1681.07 636.706 1681.07 640.288V685.064C1681.07 688.646 1678.39 691.78 1675.25 693.123L1661.82 697.153L1602.72 818.944V869.989C1608.09 872.227 1619.73 874.018 1619.73 882.078V925.959C1619.73 929.988 1616.6 934.914 1612.12 934.914H1531.52C1527.04 934.914 1523.91 929.541 1523.91 925.959V882.526C1523.91 882.526 1523.91 881.63 1524.36 881.183C1521.67 882.078 1519.43 883.869 1518.09 886.108C1517.64 886.556 1517.19 888.347 1516.75 888.795L1503.76 898.645V893.272L1534.21 869.989V872.227C1536.89 871.332 1539.13 870.884 1541.37 869.989V818.944ZM1426.3 669.392C1426.3 667.153 1430.78 664.467 1433.01 664.467V664.914C1432.57 664.914 1428.54 668.049 1426.3 669.392ZM1425.4 682.825V677.452L1442.86 664.467H1450.03L1425.4 682.825ZM1425.4 689.989L1456.3 667.153V672.526L1425.4 695.362V689.989ZM1425.4 707.899V702.526L1455.4 679.691H1456.3V685.064L1425.4 707.899ZM1425.4 715.064L1456.3 691.78C1456.3 693.123 1457.64 695.81 1457.64 696.258L1425.85 719.989C1425.4 719.989 1425.4 716.407 1425.4 715.959V715.064ZM1550.33 694.914C1550.33 695.362 1552.12 699.392 1552.57 699.392C1553.91 699.392 1555.7 694.914 1555.7 693.123L1550.78 694.914H1550.33ZM1429.43 724.467L1461.22 700.735L1461.67 700.288L1466.15 702.079L1433.46 726.258C1433.01 726.258 1429.43 724.914 1429.43 724.467ZM1440.63 728.496H1440.18L1472.86 703.87C1474.21 704.317 1476 704.765 1476 704.765L1476.89 706.108C1476.89 706.556 1476.45 706.556 1476.45 706.556L1445.55 729.84C1443.76 729.392 1440.63 728.496 1440.63 728.496ZM1449.58 738.795L1447.79 735.213L1479.13 711.482C1479.58 711.482 1479.58 711.929 1479.58 711.929L1481.37 715.511L1450.03 738.795H1449.58ZM1452.72 744.168L1483.61 720.884C1483.61 720.884 1484.95 722.676 1485.4 723.571V724.914L1454.06 748.198L1452.27 744.616C1452.27 744.168 1452.72 744.168 1452.72 744.168ZM1456.75 753.571L1488.09 729.84L1489.88 733.87L1458.98 757.601C1458.09 756.705 1457.19 754.466 1456.75 753.571ZM1461.67 762.526L1492.57 739.243L1494.36 742.825C1494.36 743.272 1494.36 743.272 1493.91 743.272L1463.01 767.004L1461.22 762.974C1461.22 762.526 1461.67 762.526 1461.67 762.526ZM1467.49 775.959L1465.7 771.929L1497.04 748.646C1497.04 748.646 1497.94 750.884 1498.83 752.228L1467.49 775.959ZM1470.18 780.884L1501.52 757.601L1502.86 760.287C1502.86 760.735 1503.31 761.631 1503.31 761.631L1471.52 784.914C1471.52 784.914 1470.63 782.675 1470.18 780.884ZM1476 794.317L1474.21 790.287L1505.55 767.004L1507.79 770.586C1507.79 771.034 1507.34 771.034 1507.34 771.034L1476 794.317ZM1480.48 803.272L1478.69 799.69L1509.58 776.407L1510.03 775.959L1510.48 776.407L1512.27 779.989L1480.92 803.272L1480.48 803.72V803.272ZM1483.16 809.093C1483.16 808.645 1483.61 808.645 1483.61 808.645L1514.51 785.362L1516.3 788.944V789.392L1484.95 812.675C1484.95 811.332 1484.06 809.989 1483.16 809.093ZM1489.43 821.631L1487.64 818.048L1518.98 794.317L1520.78 798.347L1489.88 821.631L1489.43 822.078V821.631ZM1493.91 831.033L1491.67 827.451L1523.46 803.72L1525.25 807.302L1524.8 807.75L1493.91 831.033ZM1497.94 839.989L1496.15 836.407L1527.49 812.675C1527.94 812.675 1528.83 814.914 1529.28 816.705L1497.94 839.989ZM1501.07 844.914L1531.97 822.078C1531.97 822.078 1532.86 823.869 1533.31 824.317C1533.31 824.765 1533.76 826.108 1533.76 826.108L1502.42 849.392C1502.42 849.392 1501.52 847.153 1501.07 844.914ZM1503.76 861.033V855.66L1534.21 832.825V838.198L1503.76 861.033ZM1503.76 873.571V868.198L1534.21 844.914V850.735L1503.76 873.571ZM1503.76 880.735L1534.21 857.451V863.272L1503.76 886.108V880.735ZM1485.85 924.168V918.794L1516.75 895.959V901.332L1485.85 924.168ZM1493.91 905.809L1487.64 910.287C1488.98 908.944 1492.12 905.809 1493.46 905.809H1493.91ZM1485.85 931.332L1516.75 908.496V913.869L1485.85 936.705V931.332ZM1485.85 949.242V943.869L1516.75 921.033V926.406L1485.85 949.242ZM1485.85 956.406H1486.3L1516.75 933.571C1516.75 933.571 1517.64 937.6 1517.64 938.048L1486.3 961.332C1485.85 960.436 1485.85 958.645 1485.85 957.302V956.406ZM1489.88 965.809L1522.12 942.078C1523.91 942.526 1526.15 942.526 1528.39 942.526L1494.81 967.6C1492.57 967.6 1491.22 967.153 1489.88 965.809ZM1504.66 967.6L1537.79 942.526H1544.51L1510.92 967.6H1504.66ZM1520.78 967.6L1553.91 942.526H1561.07L1527.94 967.6H1520.78ZM1544.51 967.6H1537.34L1570.48 942.526H1577.64L1544.51 967.6ZM1561.07 967.6H1553.91L1581.22 947.003H1581.67V952.376L1561.07 967.6ZM1574.95 967.6H1570.48L1581.67 959.541C1581.67 962.675 1578.54 967.6 1574.95 967.6ZM1890.94 633.123L1916.01 631.78H1935.71L1946.46 632.228L1963.48 634.019C2009.15 638.497 2019 680.586 2019 719.093C2019 724.019 2019.45 736.108 2011.83 736.108H1966.61C1959.89 736.108 1959 728.049 1959 722.676L1958.55 705.661C1958.1 695.81 1944.22 695.362 1937.51 695.362H1915.12C1909.74 695.362 1904.37 696.258 1899 697.601C1887.36 699.392 1885.57 702.974 1885.12 714.168L1898.55 703.87C1900.34 702.974 1904.37 702.974 1906.16 702.974L1884.67 719.093V726.258L1915.57 702.974H1922.73L1889.6 728.049H1884.67C1884.67 743.72 1890.94 745.959 1905.27 747.302L1919.6 748.646H1920.94V748.198L1951.39 725.362C1951.83 726.705 1951.39 728.496 1951.39 728.944V730.735L1927.65 748.646L1927.21 749.093L1935.27 749.989L1952.28 737.004C1952.73 737.452 1953.18 738.795 1953.18 739.243C1953.18 739.69 1954.07 740.586 1954.07 741.034L1941.98 750.437H1942.88C1942.88 750.437 1947.8 750.884 1950.49 750.884L1960.34 743.72H1967.51L1956.76 751.78L1963.92 752.675H1964.82L1976.91 743.72H1981.39V745.511L1970.19 754.019L1976.91 755.362C1978.7 755.362 1979.59 753.123 1981.39 752.675V756.705H1981.83C2021.68 769.69 2023.48 803.72 2023.48 839.541C2023.48 932.675 1985.42 934.914 1906.16 934.914L1882.43 933.123C1844.37 930.436 1825.12 896.854 1824.22 861.481L1823.77 840.436V838.198C1823.77 831.929 1824.22 826.108 1830.49 823.869H1836.31L1854.22 810.884C1855.57 810.884 1857.36 811.78 1858.7 812.675L1843.48 823.869H1852.88L1865.42 814.914L1870.79 816.257L1860.04 823.869H1869.45L1878.4 817.153L1884.22 818.048L1876.61 823.869C1878.85 824.317 1880.19 825.213 1881.98 827.004L1892.28 819.392V818.944L1898.55 819.839L1883.77 831.033C1883.33 831.929 1883.33 832.377 1883.33 832.377C1883.33 833.272 1883.77 836.854 1883.77 837.75L1907.06 820.735L1907.51 820.287C1909.3 820.287 1911.54 820.735 1913.33 820.735L1883.77 843.123V845.81C1883.77 862.377 1883.77 868.645 1903.03 870.436C1910.19 871.332 1916.91 871.332 1924.07 871.332H1926.31V867.302L1956.31 844.914C1956.76 845.81 1956.76 847.153 1956.76 848.496V849.839L1928.1 871.332H1931.24H1934.37H1937.51L1956.31 857.451V858.347C1956.31 859.242 1956.31 861.929 1955.86 862.377L1946.01 870.436C1948.7 870.436 1950.94 869.093 1953.18 868.645C1964.37 864.615 1963.48 852.974 1963.92 843.123C1963.92 837.75 1963.48 832.825 1963.03 827.451C1961.24 816.705 1952.28 814.466 1942.88 814.019L1919.6 813.123L1895.42 811.332L1877.06 808.198C1843.03 803.272 1826.91 770.138 1825.57 738.795L1825.12 721.332C1825.12 675.213 1838.55 636.258 1890.94 633.123ZM1826.46 677.004L1798.25 698.049C1798.25 696.705 1803.18 689.989 1804.97 687.75L1825.57 672.079C1826.01 671.631 1829.6 670.288 1830.04 670.288L1826.46 677.004ZM1793.33 708.795L1822.88 686.855V687.302C1822.88 687.302 1821.54 691.332 1821.09 693.571L1791.54 715.511V714.168C1791.98 713.273 1792.88 709.69 1793.33 708.795ZM1789.74 723.571L1819.74 701.183L1818.85 707.452L1788.85 729.84L1789.74 724.019V723.571ZM1899 727.601L1931.68 703.422V702.974C1934.37 702.974 1935.71 702.974 1938.4 703.87L1905.71 728.049H1903.92C1903.92 728.049 1899.89 728.049 1899 727.601ZM1913.33 729.392L1945.12 705.661C1946.46 705.661 1948.25 707.004 1949.15 707.899L1918.25 731.183C1916.01 730.287 1914.67 729.84 1913.33 729.392ZM1920.49 736.108L1951.39 713.273V717.75V718.646L1920.94 741.034C1920.94 739.69 1920.49 737.899 1920.49 736.108ZM1787.95 741.929V737.452L1817.95 714.616V715.959C1817.95 717.302 1818.85 719.541 1817.51 720.437L1787.95 742.825V741.929ZM1787.51 749.989L1817.51 727.601H1817.95V732.526L1787.95 754.914L1787.51 755.362V749.989ZM1787.95 762.078L1817.95 739.69C1818.4 741.034 1818.4 742.377 1818.4 743.72V744.616L1788.4 767.004C1787.95 766.556 1787.51 763.422 1787.51 762.526C1787.51 762.078 1787.51 762.078 1787.95 762.078ZM1788.85 773.72L1818.85 751.332C1819.3 753.123 1819.74 756.258 1819.74 756.258L1788.85 779.093C1788.85 778.198 1788.4 775.063 1788.4 774.168L1788.85 773.72ZM1790.19 784.914L1820.64 762.526L1821.09 766.108L1821.54 766.556C1821.54 766.556 1821.09 766.556 1821.09 767.004L1790.64 789.392C1790.64 788.496 1790.19 786.257 1790.19 784.914ZM1791.98 795.213H1792.43L1822.88 772.377L1824.22 776.854L1793.33 799.69C1793.33 799.243 1792.88 798.347 1792.88 797.899C1792.43 797.451 1791.98 795.213 1791.98 795.213ZM1795.57 805.063L1826.01 782.228H1826.46L1828.25 785.81L1797.36 809.093C1796.91 808.198 1796.01 806.854 1795.57 805.063ZM1800.04 814.019L1830.94 791.183L1831.39 790.735V791.183L1833.63 794.317L1802.28 817.601C1802.28 817.601 1800.94 815.362 1800.04 814.019ZM1805.86 822.078L1837.21 798.795L1840.34 801.929L1808.55 825.213C1808.55 825.213 1807.21 823.422 1805.86 822.078ZM1813.48 828.795L1844.82 805.511L1848.85 807.75L1817.51 831.481C1816.16 831.033 1813.92 829.69 1813.48 828.795ZM1890.04 845.81L1922.28 821.183H1922.73H1923.62H1926.31H1929.45L1896.76 845.81C1896.31 846.257 1896.76 845.81 1896.31 845.81H1890.04ZM1911.09 847.153L1905.27 846.257L1937.95 822.078C1939.3 822.078 1941.98 822.526 1943.33 822.974L1911.09 847.153ZM1917.8 848.944L1949.6 825.213C1951.39 825.213 1953.18 827.899 1953.18 827.899L1922.28 851.183C1920.94 850.287 1918.25 849.392 1917.8 848.944ZM1924.52 856.108L1954.97 833.272H1955.42C1956.31 834.168 1955.86 836.407 1955.86 837.75V838.198L1925.42 861.033C1925.42 859.242 1924.97 857.899 1924.52 856.108ZM1787.51 860.586L1793.33 856.108H1800.49L1786.16 866.854C1786.16 865.511 1786.61 861.033 1787.51 860.586ZM1786.16 874.018L1809.89 856.108H1816.61V856.556L1786.16 879.392V874.018ZM1786.16 886.108L1816.61 863.272C1816.61 864.168 1817.06 866.854 1817.06 868.645L1786.61 891.481C1786.16 889.69 1786.16 888.347 1786.16 886.108ZM1787.06 897.75L1817.51 875.362C1817.51 875.362 1817.95 878.496 1817.95 880.287L1787.51 902.675C1787.51 902.675 1787.06 899.989 1787.06 897.75ZM1788.4 908.944L1818.85 886.108C1819.3 887.899 1820.19 890.586 1820.19 891.033L1789.3 913.869L1788.4 909.392V908.944ZM1791.98 924.168L1790.64 919.69L1821.09 896.854H1821.54L1822.88 900.884L1791.98 924.168ZM1796.01 933.123L1794.22 929.541L1825.12 906.257C1825.57 906.257 1825.57 906.257 1825.57 906.705L1827.36 909.839L1796.01 933.123ZM1799.15 937.6L1830.04 914.765L1832.28 917.899V918.347L1801.39 941.63L1799.15 938.048V937.6ZM1804.52 946.108L1835.86 922.824L1836.31 922.377L1839.45 925.511L1807.66 949.242L1805.86 947.451C1805.86 947.003 1804.97 946.108 1804.52 946.108ZM1812.13 952.824L1843.48 929.541L1843.92 929.093L1847.51 931.78L1815.71 955.511C1815.71 955.511 1814.37 954.168 1813.48 953.72C1813.48 953.72 1812.13 953.272 1812.13 952.824ZM1821.54 958.197L1852.88 934.466H1853.33L1857.8 936.257L1826.01 959.988L1825.57 960.436C1824.67 960.436 1821.98 959.093 1821.54 958.197ZM1927.65 965.362H1927.21L1960.79 940.287C1961.24 939.839 1965.71 938.944 1966.61 938.944C1967.06 938.496 1970.64 937.6 1971.54 937.6L1936.61 963.57C1936.16 964.018 1928.55 965.362 1927.65 965.362ZM1832.28 962.675L1864.52 938.496L1869.89 939.839L1837.21 964.018C1835.86 964.018 1833.63 963.571 1832.28 962.675ZM1845.27 965.362H1844.82L1877.06 941.182C1877.51 940.735 1877.51 941.182 1877.95 941.182C1879.74 941.182 1881.98 941.182 1883.77 941.63L1851.09 965.809C1848.85 965.809 1845.71 965.362 1845.27 965.362ZM1908.4 967.153L1941.54 942.526C1942.43 941.63 1948.25 941.63 1949.6 941.63L1916.46 966.257C1916.46 966.705 1911.98 966.705 1908.4 967.153ZM1860.04 966.705H1859.6L1892.28 942.078H1893.18C1894.97 942.078 1897.21 942.078 1899 942.526L1866.31 967.153H1865.42C1864.52 967.153 1860.49 966.705 1860.04 966.705ZM1891.39 967.6L1924.07 942.974H1924.52C1924.52 942.526 1928.55 942.526 1931.68 942.526L1898.55 967.6H1891.39ZM1875.27 967.153L1907.95 942.974H1915.12L1881.98 967.6H1880.19C1878.4 967.6 1877.06 967.6 1875.27 967.153ZM2208.71 719.541H2173.34C2170.21 719.541 2166.62 714.168 2166.62 711.034V640.735C2166.62 637.601 2170.21 631.78 2173.79 631.78H2354.68C2358.27 631.78 2361.85 637.153 2361.85 640.288V711.482C2361.85 714.616 2358.71 719.541 2355.13 719.541H2319.31C2315.73 719.541 2312.59 715.064 2312.15 711.929L2309.46 698.496H2294.68V706.108H2297.37C2296.92 706.556 2295.58 707.452 2294.68 708.347V715.064C2296.03 714.168 2301.4 710.138 2302.74 709.69L2303.64 713.273C2303.64 714.168 2303.64 714.168 2303.19 714.168L2294.68 720.437V727.601L2304.98 719.989C2304.98 720.884 2306.77 723.571 2306.77 724.019L2306.33 724.467L2294.68 732.974V740.138L2311.7 727.601H2318.86L2294.68 745.511V869.989L2305.88 874.018C2309.01 874.914 2311.7 878.496 2311.7 882.078V926.406C2311.7 929.988 2308.56 934.914 2304.53 934.914H2223.94C2219.46 934.914 2216.77 929.988 2216.77 925.959V882.526C2216.77 881.183 2217.67 879.392 2217.67 878.048L2196.18 894.168H2195.73V889.242L2226.62 866.407V871.332C2226.62 872.227 2224.39 872.675 2223.94 873.571L2233.79 869.989V698.496H2219.01L2216.33 711.482H2216.77C2217.67 710.586 2222.59 707.004 2223.94 706.108H2226.62V709.69L2206.92 724.019C2207.82 722.676 2208.71 721.332 2208.71 719.541ZM2136.62 664.467L2129.91 669.392C2129.91 667.153 2134.39 664.467 2136.62 664.467ZM2128.56 677.452L2146.03 664.467H2153.19L2128.56 682.825V677.452ZM2128.56 689.989L2159.01 667.153V672.526L2128.56 695.362V689.989ZM2128.56 702.526L2159.01 679.691V685.064L2128.56 707.899V702.526ZM2128.56 720.437V715.064L2159.01 692.228V697.601L2128.56 720.437ZM2128.56 727.601L2159.01 704.765V710.138L2128.56 732.974V727.601ZM2216.33 711.929C2216.77 711.929 2216.77 711.482 2216.33 711.482V711.929ZM2195.73 739.69L2226.62 716.855V721.78L2196.18 744.168C2196.18 744.168 2196.18 744.616 2195.73 744.616V739.69ZM2128.56 740.138L2159.01 717.302C2159.46 718.646 2159.91 720.437 2159.91 721.78L2129.01 745.064C2128.56 745.064 2128.56 744.616 2128.56 744.168V740.138ZM2131.7 750.437V749.989L2163.49 726.705V726.258C2163.94 726.258 2165.28 727.153 2165.73 727.153C2166.62 727.601 2168.42 727.601 2169.31 727.601L2135.73 752.675C2134.39 752.675 2132.59 751.332 2131.7 750.437ZM2195.73 727.153H2202H2203.34L2195.73 732.526V731.183H2190.36L2195.73 727.153ZM2152.74 752.675H2145.58L2178.71 727.601H2185.88L2152.74 752.675ZM2195.73 757.153V751.78L2226.62 728.496V734.317L2195.73 757.153ZM2302.3 752.675H2295.13L2323.79 730.735V736.108L2302.3 752.675ZM2169.31 752.675H2162.15L2179.16 739.69V740.138C2179.16 741.034 2178.27 745.959 2177.82 745.959L2169.31 752.675ZM2195.73 764.317L2226.62 741.034V746.855L2195.73 769.69V764.317ZM2316.62 752.675H2311.7L2323.79 743.272C2323.79 746.855 2320.65 752.675 2316.62 752.675ZM2195.73 776.854L2226.62 753.571V759.392L2196.18 781.78C2196.18 781.78 2196.18 782.228 2195.73 782.228V776.854ZM2195.73 794.765V789.392L2226.62 766.108V771.481L2195.73 794.765ZM2195.73 807.302V801.481L2226.62 778.646V784.019L2195.73 807.302ZM2195.73 814.019L2226.62 791.183V796.556L2196.18 819.392H2195.73V814.019ZM2195.73 832.377V826.556L2226.62 803.72V809.093L2195.73 832.377ZM2195.73 844.466V839.093L2226.62 816.257V821.631L2195.73 844.466ZM2195.73 851.63L2226.62 828.795V834.168L2195.73 857.004V851.63ZM2195.73 864.168L2226.62 841.332V846.705L2195.73 869.541V864.168ZM2195.73 882.078V876.705L2226.62 853.869V859.242L2195.73 882.078ZM2195.73 903.123V901.332L2209.16 891.481V896.854L2178.71 919.69V914.765V914.317L2192.15 904.466L2195.73 903.123ZM2178.71 932.227V926.854L2209.16 904.018V909.392L2178.71 932.227ZM2178.71 939.391L2209.16 916.556V921.929L2178.71 944.765V939.391ZM2178.71 951.929L2208.71 929.093H2209.16V934.466L2178.71 957.302V951.929ZM2179.61 963.57L2210.95 939.839H2211.4C2212.74 941.182 2213.64 941.63 2215.43 942.078L2182.74 966.705C2182.3 966.705 2179.61 964.018 2179.61 963.57ZM2191.25 967.6L2224.39 942.526H2231.55L2198.42 967.6H2191.25ZM2207.82 967.6L2240.95 942.526H2248.56L2214.98 967.6H2207.82ZM2231.55 967.6H2224.39L2257.97 942.526H2265.13L2231.55 967.6ZM2248.56 967.6H2241.4L2273.64 942.974V948.347L2248.56 967.6ZM2265.13 967.6H2257.97L2274.09 955.511C2274.09 955.959 2273.64 960.884 2273.19 961.332L2265.13 967.6ZM2522.01 869.989V696.258L2510.37 692.228C2507.24 691.332 2505 687.302 2505 684.168V640.735C2505 637.601 2508.13 631.78 2511.71 631.78H2689.47C2693.06 631.78 2696.19 636.706 2696.19 639.84V711.482C2696.19 714.616 2692.61 719.541 2689.47 719.541H2653.21C2650.07 719.541 2647.38 715.064 2646.94 712.377L2643.8 698.496H2582.91V706.108H2589.62L2582.91 711.034V718.198L2599.03 706.108H2606.19L2582.91 723.571V730.735L2615.59 706.108H2623.21L2589.62 731.183H2582.91V748.646H2610.22L2609.77 748.198L2610.22 747.75L2641.56 724.467C2642.46 725.362 2643.8 726.258 2645.15 727.153L2616.49 748.646H2625.89L2654.1 727.601H2658.13V729.84L2633.06 748.646H2637.98C2638.88 748.646 2639.77 749.541 2641.12 749.541L2658.13 737.004V742.377L2644.7 752.675H2643.35C2643.8 753.571 2644.7 755.362 2644.7 757.153V805.063C2644.7 809.541 2641.12 813.571 2636.64 813.571H2582.91V821.183H2585.59C2585.15 821.631 2583.35 822.974 2582.91 823.422V830.138L2595 821.183H2602.16L2582.91 835.959V842.675L2606.64 825.213V830.586L2585.59 846.257H2582.91V868.198H2644.7L2648.28 853.421C2648.73 850.735 2651.41 846.705 2655 846.705H2689.92C2693.5 846.705 2697.09 851.63 2697.09 855.213V926.854C2697.09 929.988 2693.5 934.914 2689.92 934.914H2512.16C2508.58 934.914 2505 929.541 2505 925.959V881.183C2502.76 882.078 2500.52 882.974 2499.18 885.212C2498.73 885.66 2498.73 886.556 2498.28 887.003L2484.4 897.302V891.929L2514.85 869.093V872.675C2515.74 872.227 2520.67 870.884 2522.01 869.989ZM2474.1 664.467H2479.03L2466.94 673.422C2466.94 669.84 2470.07 664.467 2474.1 664.467ZM2466.94 685.959V680.586L2488.43 664.467H2495.59L2466.94 685.959ZM2466.94 693.123L2497.38 669.84V675.661L2466.94 698.496V693.123ZM2466.94 711.034V705.661L2496.94 682.825H2497.38V687.75L2466.94 711.034ZM2466.94 717.75L2497.83 694.914C2499.18 696.258 2499.62 697.153 2500.52 698.496L2468.73 721.78C2468.28 721.78 2466.94 718.646 2466.94 717.75ZM2478.58 727.153L2473.65 725.362L2505.89 701.183H2506.34L2511.27 702.526L2478.58 727.153ZM2599.03 731.183L2632.61 706.108H2636.19C2636.64 706.556 2636.64 707.452 2636.64 708.347L2606.19 731.183H2605.74H2599.03ZM2484.4 735.661V729.84L2514.85 707.004V712.377L2484.4 735.661ZM2607.98 742.377L2607.09 737.452L2637.98 714.616L2638.43 714.168L2639.32 719.093L2607.98 742.377ZM2484.4 742.377L2514.85 719.541V724.467L2484.4 747.302V742.377ZM2484.4 754.466L2514.85 731.631V737.004L2484.4 759.84V754.466ZM2484.4 772.377V767.004L2514.85 744.168V749.541L2484.4 772.377ZM2484.4 784.914V779.541L2514.85 756.705V762.078L2484.4 784.914ZM2484.4 792.078L2514.85 769.243V774.616L2484.4 797.451V792.078ZM2484.4 809.989V804.616L2514.85 781.78V787.153L2484.4 809.989ZM2484.4 822.526V817.153L2514.85 794.317V799.69L2484.4 822.526ZM2484.4 829.69L2514.85 806.407V812.228L2484.4 835.063V829.69ZM2484.4 842.227L2514.85 818.944V824.765L2484.4 847.601V842.227ZM2484.4 860.138V854.765L2514.85 831.481V837.302L2484.4 860.138ZM2599.92 846.257H2595L2606.64 837.75C2606.64 841.332 2603.95 846.257 2599.92 846.257ZM2484.4 867.302L2514.85 844.019V849.392L2484.4 872.675V867.302ZM2484.4 879.392L2514.85 856.556V861.929L2484.4 885.212V879.392ZM2466.94 917.003L2497.38 894.168V899.541L2466.94 922.824V917.003ZM2466.94 929.541L2497.38 906.705V912.078L2466.94 935.362V929.541ZM2466.94 947.899V942.078L2497.38 919.242V924.615L2466.94 947.899ZM2466.94 954.615L2497.38 931.78C2497.83 933.571 2498.28 934.914 2498.28 936.705L2497.83 937.153L2467.38 959.541L2466.94 959.988V954.615ZM2469.62 965.362L2501.41 941.63C2503.65 942.526 2505 942.526 2507.24 942.526L2474.1 967.6C2472.31 967.6 2470.52 966.257 2469.62 965.362ZM2483.5 967.6L2516.64 942.526H2523.8L2490.67 967.6H2483.5ZM2507.24 967.6H2500.07L2533.21 942.526H2540.37L2507.24 967.6ZM2523.8 967.6H2516.64L2549.33 942.974C2549.77 942.526 2550.22 942.526 2550.22 942.526H2557.38L2523.8 967.6ZM2533.21 967.6L2566.79 942.526H2573.95L2541.27 967.153C2540.82 967.6 2540.82 967.6 2540.37 967.6H2533.21ZM2550.22 967.6L2583.35 942.526H2590.52L2557.38 967.6H2550.22ZM2573.95 967.6H2566.79L2599.92 942.526H2607.53L2573.95 967.6ZM2583.35 967.6L2616.94 942.526H2623.21L2590.07 967.6H2583.35ZM2606.64 967.6H2599.47L2632.61 942.526H2640.22L2606.64 967.6ZM2616.04 967.6L2649.62 942.526H2656.79L2623.65 967.6H2616.04ZM2633.06 967.6L2659.03 947.899V953.272L2640.22 967.6H2633.06ZM2649.62 967.6L2659.03 960.884C2659.03 964.466 2654.55 967.6 2650.97 967.6H2649.62ZM2857.25 869.989V696.258L2846.5 693.123C2842.92 691.78 2840.23 688.198 2840.23 684.616V640.288C2840.23 637.153 2843.37 631.78 2846.95 631.78H2937.85C2940.53 631.78 2943.22 634.467 2944.12 636.706L2985.31 775.959C2985.76 775.959 2985.76 775.511 2985.76 775.511L3015.31 753.571C3014.41 756.258 3013.52 760.287 3013.52 760.287L2986.65 780.437L2988.44 785.81H2988.89L3010.38 769.69C3010.38 771.481 3009.04 774.616 3008.59 775.959L2990.23 789.84C2989.79 790.287 2989.79 790.287 2989.79 790.735C2990.23 792.526 2991.13 795.66 2991.13 795.66L2991.58 796.108L3006.35 784.914L3004.11 792.078L2992.92 800.138V801.034L2994.26 805.959C2995.61 805.511 3000.09 802.377 3001.43 801.034C3001.43 801.929 3000.09 806.407 2999.64 808.198L2996.06 810.884V811.78L3000.09 824.317L3053.82 638.049C3054.71 635.362 3056.95 631.78 3060.08 631.78H3152.77C3156.35 631.78 3159.49 636.706 3159.49 639.84V684.616C3159.49 688.646 3156.8 691.78 3153.22 693.123L3142.03 696.258V869.989L3153.22 874.018C3156.8 874.914 3159.49 878.048 3159.49 881.63V926.406C3159.49 929.988 3155.91 934.914 3152.32 934.914H3071.73C3067.25 934.914 3064.11 929.093 3064.11 925.063V881.63C3059.64 881.63 3057.4 886.108 3056.95 889.69L3044.41 899.093V897.302V895.063C3044.41 895.063 3044.41 894.168 3044.86 894.168L3064.56 878.944C3065.01 878.944 3066.8 875.81 3067.7 875.362C3067.7 874.914 3074.41 871.78 3075.31 871.332V872.227L3082.47 869.989L3084.71 740.586L3075.31 771.034C3075.76 771.034 3076.65 770.138 3076.65 770.138C3076.65 771.034 3077.1 774.168 3076.65 775.511C3075.76 776.407 3073.52 777.75 3073.07 778.646L3070.38 787.153C3071.73 786.257 3075.76 783.571 3076.65 782.675V788.048L3068.14 794.765L3065.46 803.72L3076.65 795.213V797.004C3076.65 797.004 3076.2 800.586 3076.2 801.034L3063.67 810.437C3063.22 810.437 3063.22 810.884 3063.22 810.884L3060.53 819.839L3076.2 808.198V813.571L3058.29 827.004L3055.61 835.959L3076.2 820.735V821.631C3076.2 822.526 3075.76 826.108 3075.76 826.108L3053.82 842.675L3053.37 843.123L3050.68 852.078L3075.76 833.272V838.645L3048.44 859.242L3045.76 868.198L3075.76 845.81V846.705V851.63L3044.86 874.018V871.332L3034.11 905.809H3035.46C3035.01 906.257 3034.11 906.257 3034.11 907.153L3031.43 915.66L3056.5 896.854V902.675L3029.64 922.824C3027.85 927.75 3026.06 934.914 3020.23 934.914H2979.49C2976.8 934.914 2973.67 932.675 2973.22 929.988L2915.91 744.168V745.959V748.198C2915.91 752.228 2916.35 771.034 2916.35 775.063C2916.35 776.407 2916.35 776.855 2916.8 777.75C2916.8 778.198 2917.7 780.884 2917.7 781.78C2917.7 781.78 2916.8 782.228 2916.8 782.675V789.392C2917.7 788.944 2919.04 787.601 2919.49 787.601L2920.83 791.631C2920.83 792.078 2920.83 792.078 2920.38 792.078L2916.8 794.765V801.929C2919.04 801.034 2920.83 799.243 2922.62 797.451V797.899C2922.62 797.899 2923.52 800.586 2923.97 802.377L2917.25 807.302V808.198V814.019L2925.76 807.75L2927.1 812.228L2917.25 819.839V820.735V826.556L2928.89 818.048L2930.23 822.078V822.526L2917.7 831.929V833.72V838.645L2932.03 828.347C2932.03 828.347 2932.92 830.586 2933.37 832.377L2917.7 844.019V849.839L2918.15 850.735L2935.16 838.198L2936.5 842.227C2936.5 842.675 2936.5 842.675 2936.06 842.675L2918.15 856.108V863.272L2938.29 848.048L2939.64 852.526L2939.19 852.974L2918.15 868.645V869.989L2923.07 871.78L2940.53 858.795C2940.98 858.795 2940.98 858.347 2941.43 858.347V858.795C2941.43 858.795 2942.32 861.033 2942.77 862.824L2928.44 873.571C2930.23 874.466 2932.03 874.466 2933.37 876.705H2933.82L2944.12 869.093L2944.56 868.645L2945.91 872.675C2945.91 873.123 2945.46 873.123 2945.46 873.123L2936.06 880.287L2935.61 880.735C2935.61 882.974 2936.06 885.212 2936.06 887.451L2947.7 878.944L2949.04 882.974L2936.06 892.824V899.989L2950.83 888.795L2952.17 893.272L2951.73 893.72L2936.06 905.362V912.078H2936.5L2953.97 899.093L2955.31 903.571L2936.06 917.899V925.063L2957.1 909.392C2957.1 909.392 2958 912.078 2958.44 913.869L2928 936.257V934.914H2847.4C2843.82 934.914 2840.23 929.541 2840.23 925.959V882.078C2840.23 878.496 2842.92 874.914 2846.06 874.018L2857.25 869.989ZM2802.18 680.586V675.213L2816.5 664.467H2824.12L2802.18 680.586ZM3015.76 671.183C3015.76 667.153 3020.68 664.467 3024.71 664.467V664.914C3024.71 664.914 3018.89 668.944 3015.76 671.183ZM3040.83 664.914L3011.28 686.855C3011.28 685.959 3012.62 680.586 3013.52 680.138L3034.11 664.467H3041.28C3041.28 664.914 3040.83 664.914 3040.83 664.914ZM2802.18 693.123V687.75L2832.18 665.362C2832.62 665.362 2832.62 664.914 2832.62 664.914V670.288L2802.18 693.123ZM3008.59 696.258L3038.59 673.87L3036.35 680.586L3006.35 702.974L3008.59 696.258ZM2802.18 700.288L2832.62 677.452V682.825L2802.18 705.661V700.288ZM2802.18 712.825L2832.62 689.989C2833.07 691.332 2833.52 693.123 2833.52 694.914C2833.52 694.914 2833.07 694.914 2833.07 695.362L2802.18 718.198V712.825ZM3004.11 711.929L3034.11 689.989L3031.88 696.705L3001.88 719.093C3001.88 717.75 3003.22 712.377 3004.11 711.929ZM2804.41 723.571L2836.2 699.84C2838.44 700.288 2839.79 700.735 2841.58 701.183L2808.89 725.81C2807.1 725.81 2805.31 724.467 2804.41 723.571ZM2819.64 728.944L2815.61 727.601L2848.29 703.422C2849.19 703.422 2850.09 703.87 2850.09 703.87V707.452L2819.64 730.287V728.944ZM2999.19 728.049L3028.74 706.108H3029.19C3029.19 707.004 3027.85 712.377 3026.95 712.825L2997.4 735.213L2999.19 728.049ZM2819.64 737.452L2850.09 714.616V719.989L2819.64 742.825V737.452ZM2994.71 744.168L3024.26 721.78H3024.71L3022.47 728.496L2992.92 750.884C2993.37 748.198 2994.71 744.168 2994.71 744.168ZM2819.64 749.989L2850.09 727.153V732.526L2819.64 755.362V749.989ZM2988 767.004L2989.79 759.84L3019.34 738.347C3019.34 737.899 3019.79 737.899 3019.79 737.899C3019.79 738.795 3018.44 744.168 3017.55 745.064L2988 767.004ZM2819.64 767.452V762.526L2850.09 739.69V744.616L2819.64 767.452ZM2819.64 779.989V774.168L2849.64 751.78H2850.09V757.153L2819.64 779.989ZM2819.64 786.705L2850.09 763.869V769.69L2819.64 792.526V786.705ZM2819.64 804.616V799.243L2850.09 776.407V782.228L2819.64 804.616ZM3070.38 787.601V787.153C3069.94 787.153 3069.94 787.601 3070.38 787.601ZM2819.64 817.153V811.78L2850.09 788.944V794.317L2820.09 816.705C2820.09 817.153 2819.64 817.153 2819.64 817.153ZM2819.64 824.317L2850.09 801.481V806.854L2819.64 829.69V824.317ZM2819.64 842.227V836.854L2850.09 814.019V819.392L2819.64 842.227ZM2819.64 854.765V849.392L2850.09 826.556V831.929L2819.64 854.765ZM2819.64 861.929L2850.09 839.093V844.466L2819.64 867.302V861.929ZM2819.64 874.466L2850.09 851.63V857.004L2819.64 879.839V874.466ZM3044.86 881.63L3075.31 858.795V863.272V864.168L3044.86 887.003V881.63ZM2819.64 892.377V887.003L2849.64 864.615C2849.64 864.168 2850.09 864.168 2850.09 864.168V869.541L2819.64 892.377ZM2819.64 899.541L2832.62 889.242V895.063L2802.18 917.899V916.108C2802.18 914.765 2802.18 913.421 2802.62 911.63C2803.97 910.735 2808.89 907.153 2810.23 906.257C2810.23 906.257 2810.68 905.809 2811.13 905.809L2819.64 903.123V899.541ZM2802.18 929.988V924.615L2832.18 902.227H2832.62V907.153L2802.18 929.988ZM3026.06 932.227L3056.5 909.392V915.212L3026.06 938.048V932.227ZM2802.18 937.153L2832.62 914.317V919.69L2802.18 942.526V937.153ZM3031.43 916.108V915.66C3030.98 915.66 3030.98 916.108 3031.43 916.108ZM2929.34 942.526L2960.23 919.242L2961.58 923.72L2930.23 947.003L2928.89 942.974C2928.89 942.526 2928.89 942.526 2929.34 942.526ZM3026.06 950.585V944.765L3056.5 921.929V927.75L3026.06 950.585ZM2802.18 949.242L2832.62 926.406V932.227L2802.18 955.063V949.242ZM2932.03 952.824L2963.37 929.541L2964.71 934.018L2933.37 957.302L2932.03 952.824ZM3026.06 957.302L3056.95 934.466C3057.4 935.362 3058.29 938.496 3058.29 938.944L3026.95 962.227C3026.06 960.884 3026.06 959.093 3026.06 957.302ZM2802.62 961.779C2802.62 961.332 2802.62 961.332 2803.07 961.332L2833.52 938.496C2834.41 938.496 2836.65 940.735 2837.1 941.182L2805.31 964.914C2805.31 965.362 2804.86 965.362 2804.86 965.362C2804.41 965.362 2802.62 962.227 2802.62 961.779ZM2935.16 963.123L2966.5 939.839V939.391C2967.85 940.735 2968.74 941.63 2970.09 942.526L2937.85 966.257C2937.4 966.705 2934.71 963.123 2935.16 963.123ZM3030.53 966.705L3062.77 942.526C3063.22 942.526 3063.22 942.078 3063.22 942.078C3065.46 942.078 3068.14 942.526 3069.94 942.526L3036.8 967.6H3033.22C3032.32 967.6 3031.43 967.153 3030.53 966.705ZM2818.74 967.6H2811.58L2845.16 942.526H2852.32L2818.74 967.6ZM2835.76 967.6H2828.15L2861.73 942.526H2869.34L2835.76 967.6ZM2845.16 967.6L2878.74 942.526H2885.91L2852.32 967.6H2845.16ZM2862.18 967.6L2895.31 942.526H2897.55V946.108L2869.34 967.6H2862.18ZM2952.62 967.6H2945.91L2979.49 942.526H2986.2L2952.62 967.6ZM3053.37 967.6H3046.2L3079.79 942.526H3086.95L3053.37 967.6ZM3070.38 967.6H3062.77L3095.91 942.974L3096.35 942.526H3103.97L3070.38 967.6ZM3079.79 967.6L3113.37 942.526H3120.53L3086.95 967.6H3079.79ZM2969.64 967.6H2962.03L2994.71 942.974L2992.92 950.138L2969.64 967.6ZM3096.35 967.6L3121.43 948.794V954.615L3103.97 967.6H3096.35ZM2885.91 967.6H2878.74L2897.55 953.272V958.645L2886.8 967.153C2886.35 967.6 2885.91 967.6 2885.91 967.6ZM2982.62 967.6H2979.04L2989.79 959.541C2989.79 962.675 2986.2 967.6 2982.62 967.6ZM3113.37 967.6L3120.53 962.227C3120.53 964.914 3116.06 967.6 3113.37 967.6ZM3369.35 633.123L3394.43 631.78H3414.13L3424.88 632.228L3441.89 634.019C3487.56 638.497 3497.41 680.586 3497.41 719.093C3497.41 724.019 3497.86 736.108 3490.25 736.108H3445.02C3438.31 736.108 3437.41 728.049 3437.41 722.676L3436.96 705.661C3436.52 695.81 3422.64 695.362 3415.92 695.362H3393.53C3388.16 695.362 3382.79 696.258 3377.41 697.601C3365.77 699.392 3363.98 702.974 3363.53 714.168L3376.96 703.87C3378.76 702.974 3382.79 702.974 3384.58 702.974L3363.08 719.093V726.258L3393.98 702.974H3401.14L3368.01 728.049H3363.08C3363.08 743.72 3369.35 745.959 3383.68 747.302L3398.01 748.646H3399.35V748.198L3429.8 725.362C3430.25 726.705 3429.8 728.496 3429.8 728.944V730.735L3406.07 748.646L3405.62 749.093L3413.68 749.989L3430.7 737.004C3431.14 737.452 3431.59 738.795 3431.59 739.243C3431.59 739.69 3432.49 740.586 3432.49 741.034L3420.4 750.437H3421.29C3421.29 750.437 3426.22 750.884 3428.9 750.884L3438.76 743.72H3445.92L3435.17 751.78L3442.34 752.675H3443.23L3455.32 743.72H3459.8V745.511L3448.61 754.019L3455.32 755.362C3457.11 755.362 3458.01 753.123 3459.8 752.675V756.705H3460.25C3500.1 769.69 3501.89 803.72 3501.89 839.541C3501.89 932.675 3463.83 934.914 3384.58 934.914L3360.85 933.123C3322.79 930.436 3303.53 896.854 3302.64 861.481L3302.19 840.436V838.198C3302.19 831.929 3302.64 826.108 3308.91 823.869H3314.73L3332.64 810.884C3333.98 810.884 3335.77 811.78 3337.11 812.675L3321.89 823.869H3331.29L3343.83 814.914L3349.2 816.257L3338.46 823.869H3347.86L3356.82 817.153L3362.64 818.048L3355.02 823.869C3357.26 824.317 3358.61 825.213 3360.4 827.004L3370.7 819.392V818.944L3376.96 819.839L3362.19 831.033C3361.74 831.929 3361.74 832.377 3361.74 832.377C3361.74 833.272 3362.19 836.854 3362.19 837.75L3385.47 820.735L3385.92 820.287C3387.71 820.287 3389.95 820.735 3391.74 820.735L3362.19 843.123V845.81C3362.19 862.377 3362.19 868.645 3381.44 870.436C3388.61 871.332 3395.32 871.332 3402.49 871.332H3404.73V867.302L3434.73 844.914C3435.17 845.81 3435.17 847.153 3435.17 848.496V849.839L3406.52 871.332H3409.65H3412.79H3415.92L3434.73 857.451V858.347C3434.73 859.242 3434.73 861.929 3434.28 862.377L3424.43 870.436C3427.11 870.436 3429.35 869.093 3431.59 868.645C3442.79 864.615 3441.89 852.974 3442.34 843.123C3442.34 837.75 3441.89 832.825 3441.44 827.451C3439.65 816.705 3430.7 814.466 3421.29 814.019L3398.01 813.123L3373.83 811.332L3355.47 808.198C3321.44 803.272 3305.32 770.138 3303.98 738.795L3303.53 721.332C3303.53 675.213 3316.97 636.258 3369.35 633.123ZM3304.88 677.004L3276.67 698.049C3276.67 696.705 3281.59 689.989 3283.38 687.75L3303.98 672.079C3304.43 671.631 3308.01 670.288 3308.46 670.288L3304.88 677.004ZM3271.74 708.795L3301.29 686.855V687.302C3301.29 687.302 3299.95 691.332 3299.5 693.571L3269.95 715.511V714.168C3270.4 713.273 3271.29 709.69 3271.74 708.795ZM3268.16 723.571L3298.16 701.183L3297.26 707.452L3267.26 729.84L3268.16 724.019V723.571ZM3377.41 727.601L3410.1 703.422V702.974C3412.79 702.974 3414.13 702.974 3416.82 703.87L3384.13 728.049H3382.34C3382.34 728.049 3378.31 728.049 3377.41 727.601ZM3391.74 729.392L3423.53 705.661C3424.88 705.661 3426.67 707.004 3427.56 707.899L3396.67 731.183C3394.43 730.287 3393.08 729.84 3391.74 729.392ZM3398.91 736.108L3429.8 713.273V717.75V718.646L3399.35 741.034C3399.35 739.69 3398.91 737.899 3398.91 736.108ZM3266.37 741.929V737.452L3296.37 714.616V715.959C3296.37 717.302 3297.26 719.541 3295.92 720.437L3266.37 742.825V741.929ZM3265.92 749.989L3295.92 727.601H3296.37V732.526L3266.37 754.914L3265.92 755.362V749.989ZM3266.37 762.078L3296.37 739.69C3296.82 741.034 3296.82 742.377 3296.82 743.72V744.616L3266.82 767.004C3266.37 766.556 3265.92 763.422 3265.92 762.526C3265.92 762.078 3265.92 762.078 3266.37 762.078ZM3267.26 773.72L3297.26 751.332C3297.71 753.123 3298.16 756.258 3298.16 756.258L3267.26 779.093C3267.26 778.198 3266.82 775.063 3266.82 774.168L3267.26 773.72ZM3268.61 784.914L3299.05 762.526L3299.5 766.108L3299.95 766.556C3299.95 766.556 3299.5 766.556 3299.5 767.004L3269.05 789.392C3269.05 788.496 3268.61 786.257 3268.61 784.914ZM3270.4 795.213H3270.85L3301.29 772.377L3302.64 776.854L3271.74 799.69C3271.74 799.243 3271.29 798.347 3271.29 797.899C3270.85 797.451 3270.4 795.213 3270.4 795.213ZM3273.98 805.063L3304.43 782.228H3304.88L3306.67 785.81L3275.77 809.093C3275.32 808.198 3274.43 806.854 3273.98 805.063ZM3278.46 814.019L3309.35 791.183L3309.8 790.735V791.183L3312.04 794.317L3280.7 817.601C3280.7 817.601 3279.35 815.362 3278.46 814.019ZM3284.28 822.078L3315.62 798.795L3318.76 801.929L3286.97 825.213C3286.97 825.213 3285.62 823.422 3284.28 822.078ZM3291.89 828.795L3323.23 805.511L3327.26 807.75L3295.92 831.481C3294.58 831.033 3292.34 829.69 3291.89 828.795ZM3368.46 845.81L3400.7 821.183H3401.14H3402.04H3404.73H3407.86L3375.17 845.81C3374.73 846.257 3375.17 845.81 3374.73 845.81H3368.46ZM3389.5 847.153L3383.68 846.257L3416.37 822.078C3417.71 822.078 3420.4 822.526 3421.74 822.974L3389.5 847.153ZM3396.22 848.944L3428.01 825.213C3429.8 825.213 3431.59 827.899 3431.59 827.899L3400.7 851.183C3399.35 850.287 3396.67 849.392 3396.22 848.944ZM3402.93 856.108L3433.38 833.272H3433.83C3434.73 834.168 3434.28 836.407 3434.28 837.75V838.198L3403.83 861.033C3403.83 859.242 3403.38 857.899 3402.93 856.108ZM3265.92 860.586L3271.74 856.108H3278.91L3264.58 866.854C3264.58 865.511 3265.02 861.033 3265.92 860.586ZM3264.58 874.018L3288.31 856.108H3295.02V856.556L3264.58 879.392V874.018ZM3264.58 886.108L3295.02 863.272C3295.02 864.168 3295.47 866.854 3295.47 868.645L3265.02 891.481C3264.58 889.69 3264.58 888.347 3264.58 886.108ZM3265.47 897.75L3295.92 875.362C3295.92 875.362 3296.37 878.496 3296.37 880.287L3265.92 902.675C3265.92 902.675 3265.47 899.989 3265.47 897.75ZM3266.82 908.944L3297.26 886.108C3297.71 887.899 3298.61 890.586 3298.61 891.033L3267.71 913.869L3266.82 909.392V908.944ZM3270.4 924.168L3269.05 919.69L3299.5 896.854H3299.95L3301.29 900.884L3270.4 924.168ZM3274.43 933.123L3272.64 929.541L3303.53 906.257C3303.98 906.257 3303.98 906.257 3303.98 906.705L3305.77 909.839L3274.43 933.123ZM3277.56 937.6L3308.46 914.765L3310.7 917.899V918.347L3279.8 941.63L3277.56 938.048V937.6ZM3282.94 946.108L3314.28 922.824L3314.73 922.377L3317.86 925.511L3286.07 949.242L3284.28 947.451C3284.28 947.003 3283.38 946.108 3282.94 946.108ZM3290.55 952.824L3321.89 929.541L3322.34 929.093L3325.92 931.78L3294.13 955.511C3294.13 955.511 3292.79 954.168 3291.89 953.72C3291.89 953.72 3290.55 953.272 3290.55 952.824ZM3299.95 958.197L3331.29 934.466H3331.74L3336.22 936.257L3304.43 959.988L3303.98 960.436C3303.08 960.436 3300.4 959.093 3299.95 958.197ZM3406.07 965.362H3405.62L3439.2 940.287C3439.65 939.839 3444.13 938.944 3445.02 938.944C3445.47 938.496 3449.05 937.6 3449.95 937.6L3415.02 963.57C3414.58 964.018 3406.96 965.362 3406.07 965.362ZM3310.7 962.675L3342.94 938.496L3348.31 939.839L3315.62 964.018C3314.28 964.018 3312.04 963.571 3310.7 962.675ZM3323.68 965.362H3323.23L3355.47 941.182C3355.92 940.735 3355.92 941.182 3356.37 941.182C3358.16 941.182 3360.4 941.182 3362.19 941.63L3329.5 965.809C3327.26 965.809 3324.13 965.362 3323.68 965.362ZM3386.82 967.153L3419.95 942.526C3420.85 941.63 3426.67 941.63 3428.01 941.63L3394.88 966.257C3394.88 966.705 3390.4 966.705 3386.82 967.153ZM3338.46 966.705H3338.01L3370.7 942.078H3371.59C3373.38 942.078 3375.62 942.078 3377.41 942.526L3344.73 967.153H3343.83C3342.94 967.153 3338.91 966.705 3338.46 966.705ZM3369.8 967.6L3402.49 942.974H3402.93C3402.93 942.526 3406.96 942.526 3410.1 942.526L3376.96 967.6H3369.8ZM3353.68 967.153L3386.37 942.974H3393.53L3360.4 967.6H3358.61C3356.82 967.6 3355.47 967.6 3353.68 967.153Z" fill="white"/>
<path d="M512.999 973.211C711.386 973.211 872.21 812.387 872.21 614C872.21 415.614 711.386 254.79 512.999 254.79C314.612 254.79 153.788 415.614 153.788 614C153.788 812.387 314.612 973.211 512.999 973.211Z" stroke="#E63946" stroke-width="27.3684"/>
<path opacity="0.3" d="M513.001 911.632C677.378 911.632 810.633 778.377 810.633 614C810.633 449.623 677.378 316.368 513.001 316.368C348.623 316.368 215.369 449.623 215.369 614C215.369 778.377 348.623 911.632 513.001 911.632Z" stroke="#F1FAEE" stroke-width="10.9474"/>
<path d="M528.393 224H497.604C491.936 224 487.341 228.595 487.341 234.263V285.579C487.341 291.247 491.936 295.842 497.604 295.842H528.393C534.062 295.842 538.657 291.247 538.657 285.579V234.263C538.657 228.595 534.062 224 528.393 224Z" fill="#E63946"/>
<path d="M528.393 932.158H497.604C491.936 932.158 487.341 936.753 487.341 942.421V993.737C487.341 999.405 491.936 1004 497.604 1004H528.393C534.062 1004 538.657 999.405 538.657 993.737V942.421C538.657 936.753 534.062 932.158 528.393 932.158Z" fill="#E63946"/>
<path d="M184.579 588.342H133.263C127.595 588.342 123 592.937 123 598.605V629.395C123 635.063 127.595 639.658 133.263 639.658H184.579C190.247 639.658 194.842 635.063 194.842 629.395V598.605C194.842 592.937 190.247 588.342 184.579 588.342Z" fill="#E63946"/>
<path d="M892.737 588.342H841.421C835.753 588.342 831.158 592.937 831.158 598.605V629.395C831.158 635.063 835.753 639.658 841.421 639.658H892.737C898.405 639.658 903 635.063 903 629.395V598.605C903 592.937 898.405 588.342 892.737 588.342Z" fill="#E63946"/>
<path d="M244.032 323.261L222.26 345.032C218.252 349.04 218.252 355.539 222.26 359.547L244.032 381.318C248.04 385.326 254.538 385.326 258.546 381.318L280.317 359.547C284.325 355.539 284.325 349.04 280.317 345.032L258.546 323.261C254.538 319.253 248.04 319.253 244.032 323.261Z" fill="#E63946"/>
<path d="M803.74 345.033L781.968 323.261C777.96 319.253 771.462 319.253 767.454 323.261L745.682 345.033C741.674 349.041 741.674 355.539 745.682 359.547L767.454 381.318C771.462 385.326 777.96 385.326 781.968 381.318L803.74 359.547C807.748 355.539 807.748 349.041 803.74 345.033Z" fill="#E63946"/>
<path d="M280.318 868.454L258.546 846.682C254.538 842.674 248.04 842.674 244.032 846.682L222.26 868.454C218.252 872.462 218.252 878.96 222.26 882.968L244.032 904.739C248.04 908.747 254.538 908.747 258.546 904.739L280.318 882.968C284.326 878.96 284.326 872.462 280.318 868.454Z" fill="#E63946"/>
<path d="M767.452 846.682L745.681 868.453C741.673 872.461 741.673 878.96 745.681 882.968L767.452 904.739C771.46 908.747 777.959 908.747 781.967 904.739L803.738 882.968C807.746 878.96 807.746 872.461 803.738 868.453L781.967 846.682C777.959 842.674 771.46 842.674 767.452 846.682Z" fill="#E63946"/>
<path d="M513 419L682.343 516.5V711.5L513 809L343.658 711.5V516.5L513 419Z" fill="#1D3557" stroke="#E63946" stroke-width="27.3684"/>
<path d="M512.998 706.369C564.012 706.369 605.367 665.014 605.367 614C605.367 562.986 564.012 521.632 512.998 521.632C461.985 521.632 420.63 562.986 420.63 614C420.63 665.014 461.985 706.369 512.998 706.369Z" fill="#0D1B2A" stroke="#F1FAEE" stroke-width="21.8947"/>
<path d="M513.001 649.921C532.84 649.921 548.922 633.839 548.922 614C548.922 594.161 532.84 578.079 513.001 578.079C493.162 578.079 477.08 594.161 477.08 614C477.08 633.839 493.162 649.921 513.001 649.921Z" fill="#E63946"/>
<path d="M379.58 542.158L246.159 480.579" stroke="#F1FAEE" stroke-width="27.3684" stroke-linecap="round"/>
<path d="M646.422 685.842L779.843 747.421" stroke="#F1FAEE" stroke-width="27.3684" stroke-linecap="round"/>
<path d="M246.156 516.5C265.995 516.5 282.078 500.418 282.078 480.579C282.078 460.74 265.995 444.658 246.156 444.658C226.318 444.658 210.235 460.74 210.235 480.579C210.235 500.418 226.318 516.5 246.156 516.5Z" fill="#E63946"/>
<path d="M779.844 783.342C799.683 783.342 815.765 767.26 815.765 747.421C815.765 727.582 799.683 711.5 779.844 711.5C760.005 711.5 743.923 727.582 743.923 747.421C743.923 767.26 760.005 783.342 779.844 783.342Z" fill="#E63946"/>
<g opacity="0.5">
<path d="M3502 166H3675V315.333" stroke="#E63946" stroke-width="20.2375"/>
<path d="M3502 1062H3675V912.667" stroke="#E63946" stroke-width="20.2375"/>
</g>
</svg>
